<?xml version="1.0" encoding="utf-8"?>
<!-- Generator: Adobe Illustrator 21.0.2, SVG Export Plug-In . SVG Version: 6.00 Build 0)  -->
<svg version="1.1" xmlns="http://www.w3.org/2000/svg" xmlns:xlink="http://www.w3.org/1999/xlink" x="0px" y="0px"
	 viewBox="0 0 300.1 300.9" style="enable-background:new 0 0 300.1 300.9;" xml:space="preserve">
<style type="text/css">
	.st0{fill:#454C74;}
	.st1{fill:#403B3E;}
	.st2{fill:none;stroke:#454C74;stroke-width:4;stroke-miterlimit:10;}
	.st3{fill:none;stroke:#403B3E;stroke-width:3;stroke-linecap:round;stroke-linejoin:round;stroke-miterlimit:10;}
	.st4{fill:none;stroke:#403B3E;stroke-width:3;stroke-miterlimit:10;}
	.st5{fill:none;stroke:#403B3E;stroke-width:3;stroke-miterlimit:10;stroke-dasharray:3,3;}
	.st6{fill:none;stroke:#403B3E;stroke-width:2;stroke-linecap:round;stroke-linejoin:round;stroke-miterlimit:10;}
	.st7{fill:none;stroke:#454C74;stroke-width:2;stroke-linecap:round;stroke-linejoin:round;stroke-miterlimit:10;}
	.st8{fill:none;stroke:#FFFFFF;stroke-width:2;stroke-linecap:round;stroke-linejoin:round;stroke-miterlimit:10;}
	.st9{fill:none;stroke:#403B3E;stroke-width:12;stroke-linecap:round;stroke-linejoin:round;stroke-miterlimit:10;}
	.st10{fill:none;stroke:#403B3E;stroke-width:12;stroke-miterlimit:10;}
	.st11{fill:none;stroke:#403B3E;stroke-width:12;stroke-miterlimit:10;stroke-dasharray:13,10;}
	.st12{fill:none;stroke:#454C74;stroke-width:12;stroke-linecap:round;stroke-linejoin:round;stroke-miterlimit:10;}
	.st13{fill:none;stroke:#FFFFFF;stroke-width:12;stroke-linecap:round;stroke-linejoin:round;stroke-miterlimit:10;}
</style>
<g id="Layer_2">
</g>
<g id="Layer_1">
</g>
<g id="Layer_3">
</g>
<g id="Layer_4">
</g>
<g id="Layer_5">
	<path class="st9" d="M131.6,209.3c-0.5,4.8,3.4,9.7,9.7,12.3c6.4,2.5,14.9,2.6,21.4,0.2c6.5-2.4,10.5-7.3,10.2-12.1"/>
	<path class="st9" d="M171.4,94.9c4.5,5,7,11.5,8,17.9c1.1,6.5,0.8,13.1,0.6,19.6"/>
	<path class="st9" d="M220,173.2L220,173.2c0,0-0.1-0.1-0.2-0.1c-0.1,0-0.2-0.1-0.2-0.1c-2.4-1-12.6-5.5-12.6-11.7l0,0.1v-46
		c0-27.9-24.7-50.7-55-50.7h0c-30.2,0-55,22.8-55,50.7v45.9c0,6.3-10.7,10.9-12.7,11.7c0,0-0.1,0-0.1,0c-0.1,0-0.3,0.1-0.3,0.1
		l0.1,0c-5.3,2.2-9,7.1-9,12.7v1.9c0,7.7,6.8,14,15.2,14h123.7c8.4,0,15.2-6.3,15.2-14v-1.9C228.9,180.3,225.3,175.4,220,173.2z"/>
	<ellipse class="st9" cx="151.9" cy="50.3" rx="15.7" ry="14.5"/>
	<line class="st12" x1="211.3" y1="222.2" x2="234.3" y2="234.4"/>
	<line class="st12" x1="193.8" y1="237.5" x2="204.3" y2="245.8"/>
	<line class="st12" x1="218.7" y1="261.9" x2="220.2" y2="262.9"/>
	<line class="st12" x1="96.4" y1="224.6" x2="84.6" y2="231.2"/>
	<line class="st12" x1="68.4" y1="240.5" x2="66.9" y2="241.3"/>
	<line class="st12" x1="112.4" y1="240.5" x2="93" y2="256.8"/>
</g>
<g id="Layer_6">
</g>
</svg>
