<?xml version="1.0" encoding="utf-8"?>
<!-- Generator: Adobe Illustrator 21.0.2, SVG Export Plug-In . SVG Version: 6.00 Build 0)  -->
<svg version="1.1" xmlns="http://www.w3.org/2000/svg" xmlns:xlink="http://www.w3.org/1999/xlink" x="0px" y="0px"
	 viewBox="0 0 300.1 300.9" style="enable-background:new 0 0 300.1 300.9;" xml:space="preserve">
<style type="text/css">
	.st0{fill:#454C74;}
	.st1{fill:#403B3E;}
	.st2{fill:none;stroke:#454C74;stroke-width:4;stroke-miterlimit:10;}
	.st3{fill:none;stroke:#403B3E;stroke-width:3;stroke-linecap:round;stroke-linejoin:round;stroke-miterlimit:10;}
	.st4{fill:none;stroke:#403B3E;stroke-width:3;stroke-miterlimit:10;}
	.st5{fill:none;stroke:#403B3E;stroke-width:3;stroke-miterlimit:10;stroke-dasharray:3,3;}
	.st6{fill:none;stroke:#403B3E;stroke-width:2;stroke-linecap:round;stroke-linejoin:round;stroke-miterlimit:10;}
	.st7{fill:none;stroke:#454C74;stroke-width:2;stroke-linecap:round;stroke-linejoin:round;stroke-miterlimit:10;}
	.st8{fill:none;stroke:#FFFFFF;stroke-width:2;stroke-linecap:round;stroke-linejoin:round;stroke-miterlimit:10;}
	.st9{fill:none;stroke:#403B3E;stroke-width:12;stroke-linecap:round;stroke-linejoin:round;stroke-miterlimit:10;}
	.st10{fill:none;stroke:#403B3E;stroke-width:12;stroke-miterlimit:10;}
	.st11{fill:none;stroke:#403B3E;stroke-width:12;stroke-miterlimit:10;stroke-dasharray:13,10;}
	.st12{fill:none;stroke:#454C74;stroke-width:12;stroke-linecap:round;stroke-linejoin:round;stroke-miterlimit:10;}
	.st13{fill:none;stroke:#FFFFFF;stroke-width:12;stroke-linecap:round;stroke-linejoin:round;stroke-miterlimit:10;}
</style>
<g id="Layer_2">
</g>
<g id="Layer_1">
</g>
<g id="Layer_3">
</g>
<g id="Layer_4">
	<polygon class="st0" points="37.5,208.8 88.7,208.8 88.7,253.8 	"/>
	<g>
		<polygon class="st9" points="214.5,250.8 79.2,250.8 41.1,219.6 41.1,50.1 214.5,50.1 		"/>
		
			<ellipse transform="matrix(0.9566 -0.2913 0.2913 0.9566 -30.5062 53.5836)" class="st9" cx="164.7" cy="129.2" rx="47.2" ry="47.2"/>
		<path class="st1" d="M274,205.6l-16.1,18.5c-0.5,0.6-1.4,0.6-2,0.1l-65.4-56.9c-0.6-0.5-0.6-1.4-0.1-2l16.1-18.5
			c0.5-0.6,1.4-0.6,2-0.1l65.4,56.9C274.4,204.1,274.5,205,274,205.6z"/>
		<path class="st9" d="M156.7,107.1c6.9-3.1,15.3-2.7,21.9,1"/>
		<polyline class="st9" points="49,208.8 88.7,208.8 88.7,244 		"/>
		<path class="st9" d="M189.5,125.7c0,0.4,0,0.8,0,1.2"/>
	</g>
</g>
<g id="Layer_5">
</g>
<g id="Layer_6">
</g>
</svg>
