<svg xmlns="http://www.w3.org/2000/svg" data-name="Layer 1" viewBox="0 0 1000 1000"><path d="M299.13 113.19v51.37h-11.58V82.8h13.49l14.85 46.92V82.8h11.46v81.76h-12.06zM357.12 165.54c14.61 0 20.86-9.41 20.86-22.08v-39.55c0-12.8-6.25-22.07-20.86-22.07s-20.74 9.27-20.74 22.07v39.55c0 12.67 6.27 22.08 20.74 22.08m-7-63.81c0-5 2.17-8.43 7-8.43s7.12 3.48 7.12 8.43v43.9c0 5-2.18 8.44-7.12 8.44s-7-3.49-7-8.44ZM301.3 257.64h6.62c13.88 0 18.94-7 18.94-18.45V222c0-11.46-5.06-18.34-18.94-18.34h-20.37v81.77h13.75Zm0-42.81h5.06c4.71 0 6.75 2.18 6.75 6.63v18.8c0 4.48-2 6.77-6.75 6.77h-5.06ZM355.8 286.34c14.61 0 20.87-9.4 20.87-22.06v-39.57c0-12.78-6.26-22.06-20.87-22.06s-20.74 9.28-20.74 22.06v39.57c0 12.66 6.27 22.06 20.74 22.06m-7-63.79c0-5 2.16-8.44 7-8.44s7.13 3.49 7.13 8.44v43.89c0 4.95-2.18 8.45-7.13 8.45s-7-3.5-7-8.45ZM411.75 285.38l15.56-81.77H414.4l-9.65 57.04h-.13l-9.4-57.04h-13.99l15.56 81.77zM466.98 274.17h-19.05v-24.86h13.62v-11.09h-13.62v-23.39h19.05v-11.22h-32.8v81.77h32.8zM489.16 247.87l12.9 37.51h14.48l-13.15-37.15c7.84-1.8 11-7 11-15.8V222c0-11.46-5.07-18.34-18.94-18.34h-20v81.77h13.76Zm0-33h4.57c4.71 0 6.76 2.18 6.76 6.63v12c0 4.35-2.05 6.75-6.76 6.75h-4.57ZM531.48 285.38h13.87v-70.55h11.34v-11.22h-36.55v11.22h11.34zM577.29 285.38h13.75v-31.11l15.19-50.66h-13.14l-8.31 30.99h-.12l-8.33-30.99h-14.34l15.3 50.66zM139.62 131.52h.3v154.34h33.89V84.23h-27.07l-31.21 36.58v35.38h.3zM770.13 477.09a27.67 27.67 0 1 1 27.7 27.69 27.7 27.7 0 0 1-27.7-27.69M830.15 515.45a36.89 36.89 0 0 1 33.5 36.77V629a10.73 10.73 0 0 1-21.46 0v-65.95c0-2.48-.71-5.82-5.23-5.82-3.13 0-3.78 3.31-3.89 5.42v197.54a15.43 15.43 0 0 1-30.86 0V646.36c0-1.26-.46-4.52-4.38-4.52-3.93 0-4.41 3.26-4.45 4.52v113.83a15.42 15.42 0 1 1-30.83 0V562.65c-.1-2.11-.78-5.42-3.88-5.42-4.54 0-5.23 3.34-5.23 5.82V629a10.73 10.73 0 0 1-21.44 0v-76.78a36.91 36.91 0 0 1 33.55-36.77 15 15 0 0 1 2-.17H828a16 16 0 0 1 2.11.17M605.5 491.63a26.21 26.21 0 1 0-26.19 26.22 26.21 26.21 0 0 0 26.19-26.22M526.48 551l-21.79 71s-3.88 13 7.15 16.25 14.31-9.44 14.31-9.44l17.57-59.21s1-4.56 4.38-3.57 2.14 5.85 2.14 5.85l-30.58 111h28.44v79.47a13.66 13.66 0 0 0 27.31 0v-79.56h7.76v79.47a13.67 13.67 0 0 0 27.33 0v-79.47h28.43l-30.56-111s-1.29-4.79 2.13-5.79 4.38 3.57 4.38 3.57l17.57 59.21s3.34 12.69 14.3 9.44S653.9 622 653.9 622l-21.79-71s-7.78-20.51-25-20.51h-55.58c-17.24 0-25 20.51-25 20.51M448.49 491.63a26.21 26.21 0 1 0-26.2 26.22 26.22 26.22 0 0 0 26.2-26.22M369.46 551l-21.78 71s-3.9 13 7.14 16.25 14.31-9.44 14.31-9.44l17.57-59.21s.95-4.56 4.38-3.57 2.13 5.85 2.13 5.85l-30.57 111h28.44v79.47a13.66 13.66 0 0 0 27.32 0v-79.56h7.76v79.47a13.66 13.66 0 0 0 27.31 0v-79.47h28.45l-30.56-111s-1.3-4.87 2.11-5.85 4.39 3.57 4.39 3.57l17.56 59.21s3.34 12.69 14.31 9.44 7.14-16.16 7.14-16.16l-21.79-71s-7.77-20.51-25-20.51h-55.57c-17.23 0-25.05 20.51-25.05 20.51M693.54 638.35a21.82 21.82 0 1 0-21.82-21.84 21.8 21.8 0 0 0 21.82 21.84M641.23 706.13c-1.07 2.55-1.94 8 3.18 10.32 6 2.76 9.35-3 9.35-3l11.86-37.83s2.06-2.53 2.06.09v89.05h.05a11.2 11.2 0 0 0 22.39 0v-35.19s-.65-5 3.36-5 3.38 5 3.38 5v35.15a11.22 11.22 0 0 0 22.44 0v-89.05c0-2.62 1.38-.75 1.38-.75l9.3 25.9s4 11.57 5.28 12.08a8.26 8.26 0 0 0 10.81-4.47 8.16 8.16 0 0 0-.88-8l.08-.08c-.27-.84-13.9-34.26-15.5-38.95-4.92-14.37-13.88-14.24-22.5-14.48s-13.79 0-13.79 0-5.51-.22-16.9.11-15 6.19-27.51 38.46c-1.79 4.65-7.84 19.68-7.92 20.58ZM186.66 504.78A27.69 27.69 0 1 0 159 477.09a27.72 27.72 0 0 0 27.66 27.69M219.22 515.31A18 18 0 0 0 217 515h-60.5a14 14 0 0 0-2 .31 37 37 0 0 0-33.5 36.91V629a10.66 10.66 0 0 0 5.61 9.46 4 4 0 0 0-.36.94l-24.6 130.3a4 4 0 0 0 3.22 4.74 4 4 0 0 0 .75.07 4.05 4.05 0 0 0 4-3.31l24.58-130.3a4 4 0 0 0-.15-1.51A10.62 10.62 0 0 0 142 629v-65.95c0-2.48.65-5.82 5.17-5.82 3.12 0 3.83 3.31 3.83 5.42v197.54a15.5 15.5 0 0 0 31 0V646.36a4.3 4.3 0 0 1 4.66-4.36c3.93 0 4.33 3.1 4.33 4.36v113.83a15.5 15.5 0 0 0 31 0V562.65c0-2.11.74-5.42 3.83-5.42 4.55 0 5.17 3.34 5.17 5.82V629a11 11 0 0 0 22 0v-76.78a37.25 37.25 0 0 0-33.77-36.91" class="cls-2"/><path d="m326.16 674.41 20.25-36.75s2.44-5.28 2.44-6.54a8 8 0 0 0-14.72-4.21h-.09c-.64.55-10.83 18.63-14.19 22-3.55 3.59-6.74 3.14-6.74 3.14h-26.44s-3.2.45-6.74-3.14c-3.4-3.36-13.54-21.47-14.19-22l-.07.06a8 8 0 0 0-14.67 4.14 14.4 14.4 0 0 0 .78 3.49l21.95 39.81a14.6 14.6 0 0 1 1.29 5.25v7.84L263.5 730H275v35h.15a10.94 10.94 0 0 0 10.94 10.83A10.81 10.81 0 0 0 297 765.14v-33.73a1.8 1.8 0 0 1-.38-1.41h6.5a3.4 3.4 0 0 1-.12 1.41v33.73a11 11 0 0 0 22 0V730h11.29L325 687.25v-7.59a15.9 15.9 0 0 1 1.16-5.25" class="cls-2"/><path d="M299.88 638.35a21.82 21.82 0 1 0-21.81-21.84 21.8 21.8 0 0 0 21.81 21.84" class="cls-2"/></svg>