<svg xmlns="http://www.w3.org/2000/svg" viewBox="0 0 1000 1000" fill="#dd1367"><path d="m333.15 128.52 13.11 38.09H361l-13.34-37.73c7.95-1.82 11.14-7.1 11.14-16v-10.69c0-11.64-5.15-18.62-19.24-18.62h-20.38v83h14Zm0-33.56h4.65c4.79 0 6.87 2.2 6.87 6.75V114c0 4.4-2.08 6.86-6.87 6.86h-4.65ZM400.89 155.22h-19.36V130h13.84v-11.28h-13.84V94.96h19.36V83.57h-33.33v83.04h33.33zM431.13 83.57h-21.54v83h21.54c14.94 0 20.21-9.55 20.21-22.29v-38.41c0-12.87-5.27-22.3-20.21-22.3m6.25 63.2c0 5-2.19 8.45-8 8.45h-5.87V95h5.87c5.77 0 8 3.42 8 8.32ZM474.5 83.57h-14v62.83c0 12.86 6.12 21.18 20.82 21.18 14.21 0 19.72-8.32 19.72-21.18V83.57H488.2v64.18c0 4.89-1.95 8.21-6.85 8.21s-6.85-3.32-6.85-8.21ZM510.26 105v40.16c0 12.86 6.13 22.41 20.81 22.41s19.71-8.81 19.71-20.69v-14.32h-12.72v15.31c0 4.9-1.72 8.07-6.73 8.07s-7.12-3.54-7.12-8.56V102.8c0-5 2.09-8.58 7.12-8.58s6.73 2.94 6.73 8.09v10.9h12.72v-9.79c0-12.26-4.27-20.82-19.71-20.82-14.68 0-20.81 9.43-20.81 22.41M559.62 166.6h33.31v-11.38h-19.34v-25.23h13.83v-11.27h-13.83V94.96h19.34V83.57h-33.31zM601.62 83.57v83h21.56c14.94 0 20.21-9.55 20.21-22.29v-38.41c0-12.87-5.27-22.3-20.21-22.3Zm27.81 19.71v43.49c0 5-2.21 8.45-8 8.45h-5.88V95h5.88c5.75 0 8 3.43 8 8.32M319.19 202.38h13.96v83.03h-13.96zM382.65 202.37h-11.64v47.65l-15.07-47.65h-13.71v83.04h11.75v-52.17l16.41 52.17h12.26zM423.8 213.77v-11.39h-33.3v83.03h33.3v-11.4h-19.34v-25.22h13.83v-11.26h-13.83v-23.76zM450 201.4c-14.69 0-21.07 9.42-21.07 22.4V264c0 11.27 4.77 19.46 15.93 21.44v5.63l26.33 4.9v-10.43l-10.29-2c7.1-3.42 10.29-10.53 10.29-19.6V223.8c0-13-6.37-22.4-21.19-22.4m7.22 65.53c0 4.89-2.2 8.56-7.22 8.56s-7.11-3.67-7.11-8.56v-45.32c0-5 2.22-8.58 7.11-8.58s7.22 3.55 7.22 8.58ZM479 202.38v62.83c0 12.86 6.13 21.18 20.83 21.18 14.21 0 19.72-8.32 19.72-21.18v-62.83h-12.86v64.17c0 4.9-2 8.21-6.86 8.21s-6.86-3.31-6.86-8.21v-64.17ZM539.74 202.38l-15.67 83h13.23l2.44-15.2h14.83l2.57 15.2h14.32l-15.79-83Zm1.84 56.71 5.51-33.32h.12l5.51 33.32ZM577.1 202.38v83.02h30.62v-11.38h-16.66v-71.64zM613.97 202.38h13.96v83.03h-13.96zM659.91 285.41v-71.64h11.5v-11.39H634.3v11.39h11.52v71.64zM677.78 202.38h13.96v83.04h-13.96zM733.02 274.02h-19.35v-25.23h13.84v-11.26h-13.84v-23.76h19.35v-11.39H699.7v83.02h33.32zM738.51 256.39v11.14c0 10.91 5.51 18.86 19.72 18.86s20.33-8.09 20.33-19.48v-4c0-9.17-3.68-13.83-11.26-21.55l-8.95-8.82c-4-3.93-6.61-6.61-6.61-11.26v-1.72c0-4.66 2.69-6.85 6.61-6.85 4.42 0 6.61 2.31 6.61 7.09v7.2h12.75v-6.75c0-12-5.51-18.85-19.48-18.85-13.59 0-19.59 8-19.59 18.24v2.82c0 9.55 3.66 14.33 11.64 22.16l8.19 8.22c4.3 4 6.25 7 6.25 11.76v3.18c0 4.41-2 7.35-6.37 7.35-4.77 0-6.86-2.69-6.86-7.35v-11.39ZM96.48 131.03v154.49h33.93V83.69h-27.09l-31.25 36.62v35.43h.29l23.81-24.71zM254.25 233.43v-97.65c0-31.55-15.77-54.47-50.31-54.47-34.23 0-50 22.92-50 54.47v97.65c0 31.25 15.79 54.47 50 54.47 34.54 0 50.31-23.22 50.31-54.47m-66.39 5.36V130.43c0-12.21 4.46-20.84 16.08-20.84 11.91 0 16.37 8.63 16.37 20.84v108.36c0 12.21-4.46 20.83-16.37 20.83-11.62 0-16.08-8.62-16.08-20.83M592.3 657.55H407.68a2.14 2.14 0 0 0-2 2.24v55.49a2.14 2.14 0 0 0 2 2.25H592.3a2.14 2.14 0 0 0 2-2.25v-55.49a2.14 2.14 0 0 0-2-2.24M592.3 539.48H407.68a2.14 2.14 0 0 0-2 2.24v55.49a2.13 2.13 0 0 0 2 2.25H592.3a2.13 2.13 0 0 0 2-2.25v-55.49a2.14 2.14 0 0 0-2-2.24M589.7 455.61 501.08 367a1.54 1.54 0 0 0-2.16 0l-88.62 88.61a1.53 1.53 0 0 0 1.08 2.61h177.24a1.53 1.53 0 0 0 1.08-2.61M672.9 718.21l88.62-88.62a1.53 1.53 0 0 0 0-2.17L672.9 538.8a1.53 1.53 0 0 0-2.61 1.08v177.25a1.53 1.53 0 0 0 2.61 1.08M410.3 801.41 498.92 890a1.52 1.52 0 0 0 2.16 0l88.62-88.62a1.53 1.53 0 0 0-1.08-2.62H411.38a1.53 1.53 0 0 0-1.08 2.65M327.1 538.8l-88.62 88.62a1.53 1.53 0 0 0 0 2.17l88.62 88.62a1.53 1.53 0 0 0 2.61-1.08V539.88a1.53 1.53 0 0 0-2.61-1.08" class="cls-2"/></svg>
