<svg xmlns="http://www.w3.org/2000/svg" viewBox="0 0 1000 1000" fill="#fd9d24"><path d="M292.55 166.4c14 0 20-8 20-19.17v-4c0-9-3.62-13.62-11.09-21.22l-8.8-8.68c-4-3.86-6.5-6.51-6.5-11.11v-1.67c0-4.59 2.65-6.76 6.5-6.76 4.33 0 6.51 2.29 6.51 7v7.1h12.53v-6.62c0-11.81-5.41-18.57-19.16-18.57-13.39 0-19.29 7.84-19.29 18v2.79c0 9.39 3.62 14.1 11.45 21.81l8.07 8.1c4.22 4 6.15 6.86 6.15 11.56v3.13c0 4.35-1.93 7.24-6.26 7.24-4.7 0-6.75-2.65-6.75-7.24v-11.2h-12.75v11c0 10.73 5.41 18.57 19.39 18.57M358.47 145.54V83.67h-12.66v63.19c0 4.83-1.93 8.07-6.76 8.07s-6.74-3.24-6.74-8.07V83.67h-13.75v61.87c0 12.66 6 20.86 20.49 20.86 14 0 19.42-8.2 19.42-20.86M404.88 147.23v-4c0-9-3.63-13.62-11.08-21.22l-8.8-8.68c-4-3.85-6.52-6.51-6.52-11.08v-1.69c0-4.59 2.67-6.76 6.52-6.76 4.34 0 6.5 2.28 6.5 7v7.1H404v-6.62c0-11.83-5.41-18.57-19.16-18.57-13.38 0-19.29 7.84-19.29 18v2.77c0 9.4 3.63 14.11 11.47 21.83l8.06 8.09c4.22 4 6.14 6.86 6.14 11.56v3.15c0 4.32-1.92 7.23-6.26 7.23-4.7 0-6.75-2.66-6.75-7.23v-11.26h-12.74v11c0 10.73 5.41 18.56 19.4 18.56s20-8 20-19.17M444.73 83.67h-36.52v11.22h11.32v70.55h13.87V94.89h11.33zM473.23 83.67h-15.67l-15.43 81.76h13l2.41-14.94h14.58l2.54 14.94h14.11Zm-13.85 55.84 5.41-32.8h.13l5.43 32.8ZM494.33 83.68h13.74v81.77h-13.74zM555.7 165.44V83.67h-11.45v46.9l-14.84-46.9h-13.5v81.77h11.58v-51.38l16.14 51.38zM575.57 150.48h14.59l2.52 15h14.1l-15.54-81.81h-15.67l-15.43 81.76h13Zm7.22-43.78h.13l5.44 32.81h-11ZM649.43 110v-8.31c0-11.58-4.57-18-18.32-18h-19.9v81.77h21.34c13.75 0 18.92-6.39 18.92-18v-10.84c0-7.48-3.36-12.07-10.24-13.63 5.67-1.81 8.2-6.15 8.2-13M625 94.89h4.71c4.57 0 6.63 2.16 6.63 6.63v10c0 4.35-2.06 6.64-6.52 6.64H625Zm12.77 52.7c0 4.34-2.16 6.64-6.74 6.64h-6v-25.57h5.9c4.82 0 6.87 2.29 6.87 6.62ZM670.87 83.67h-13.74v81.77h30.12v-11.22h-16.38zM725.09 94.89V83.67H692.3v81.77h32.79v-11.22h-19.05v-24.85h13.62v-11.08h-13.62v-23.4zM768.69 166.4c14.59 0 19.42-8.68 19.42-20.38v-14.11h-12.55V147c0 4.8-1.69 7.94-6.63 7.94s-7-3.49-7-8.44v-43.89c0-5 2-8.45 7-8.45s6.63 2.89 6.63 8v10.74h12.55v-9.65c0-12.07-4.23-20.51-19.42-20.51-14.46 0-20.49 9.28-20.49 22.06v39.57c0 12.66 6 22.06 20.49 22.06M794.56 83.68h13.73v81.77h-13.73zM838.75 165.44V94.89h11.31V83.67h-36.51v11.22h11.32v70.55zM855.43 83.68h13.73v81.77h-13.73zM876.24 165.44h32.78v-11.22h-19.04v-24.85h13.6v-11.08h-13.6v-23.4h19.04V83.67h-32.78zM932.31 113.34c-4-3.87-6.49-6.51-6.49-11.11v-1.67c0-4.59 2.64-6.76 6.49-6.76 4.36 0 6.51 2.29 6.51 7v7.11h12.55v-6.63c0-11.83-5.43-18.57-19.18-18.57-13.38 0-19.27 7.84-19.27 18v2.79c0 9.39 3.6 14.1 11.44 21.81l8.07 8.1c4.24 4 6.16 6.86 6.16 11.56v3.13c0 4.35-1.92 7.24-6.28 7.24-4.7 0-6.75-2.65-6.75-7.24v-11.2h-12.77v11c0 10.73 5.42 18.57 19.4 18.57s20-8 20-19.17v-4c0-9-3.65-13.62-11.1-21.22ZM288.79 203.69l-15.43 81.75h13l2.41-14.95h14.58l2.54 14.95H320l-15.55-81.75Zm1.81 55.83 5.42-32.8h.13l5.41 32.8ZM355.22 250.59l-14.83-46.9h-13.5v81.76h11.58v-51.39l16.14 51.39h12.06v-81.76h-11.45zM396.94 203.67h-21.22v81.78h21.22c14.71 0 19.88-9.4 19.88-21.95v-37.87c0-12.66-5.17-22-19.88-22m6.14 62.24c0 4.94-2.17 8.32-7.83 8.32h-5.8V214.9h5.8c5.66 0 7.83 3.37 7.83 8.19ZM460.23 202.72c-14.47 0-20.5 9.28-20.5 22.07v39.56c0 12.65 6 22.06 20.5 22.06s19.4-8.69 19.4-20.39v-14.1h-12.54V267c0 4.83-1.68 8-6.61 8s-7-3.49-7-8.44v-43.9c0-4.94 2.06-8.44 7-8.44s6.61 2.89 6.61 8v10.73h12.54v-9.65c0-12.06-4.21-20.49-19.4-20.49M509.07 202.72c-14.48 0-20.74 9.28-20.74 22.07v39.56c0 12.65 6.26 22.06 20.74 22.06s20.84-9.41 20.84-22.06v-39.56c0-12.79-6.26-22.07-20.84-22.07m7.1 63.79c0 4.95-2.17 8.44-7.1 8.44s-7-3.49-7-8.44v-43.9c0-4.94 2.15-8.44 7-8.44s7.1 3.5 7.1 8.44ZM564.03 249.75h-.12L555 203.67h-16.03v81.77h11.32v-53.06h.24l10.25 53.06h6.38l9.29-53.06h.36v53.06h12.54v-81.77h-17.36zM623.48 249.75h-.12l-8.92-46.08H598.4v81.77h11.34v-53.06h.23l10.24 53.06h6.4l9.27-53.06h.37v53.06h12.53v-81.77h-17.35zM685.07 266.87c0 4.83-1.91 8.1-6.74 8.1s-6.75-3.27-6.75-8.1v-63.18h-13.75v61.84c0 12.68 6 20.88 20.5 20.88 14 0 19.4-8.2 19.4-20.88v-61.84h-12.66ZM735.13 250.59l-14.85-46.9h-13.49v81.76h11.58v-51.39l16.14 51.39h12.05v-81.76h-11.43zM71.65 120.39v35.38h.29l23.79-24.68h.31v154.34h33.9V83.8h-27.07zM148.97 120.39v35.38h.3l23.79-24.68h.29v154.34h33.91V83.8h-27.05zM755.64 203.67h13.74v81.77h-13.74zM776.86 214.89h11.33v70.55h13.86v-70.55h11.33v-11.22h-36.52zM820.98 203.67h13.75v81.77h-13.75zM843.9 285.44h32.79v-11.21h-19.06v-24.84h13.63v-11.1h-13.63v-23.4h19.06v-11.22H843.9zM903.33 233.35c-4-3.87-6.51-6.52-6.51-11.09v-1.7c0-4.59 2.65-6.75 6.51-6.75 4.34 0 6.5 2.29 6.5 7v7.12h12.55v-6.64c0-11.82-5.43-18.56-19.17-18.56-13.39 0-19.29 7.84-19.29 18v2.77c0 9.4 3.62 14.11 11.46 21.82l8.08 8.09c4.21 4 6.14 6.87 6.14 11.57v3.14c0 4.34-1.93 7.24-6.27 7.24-4.7 0-6.75-2.65-6.75-7.24v-11.25H883.8v11c0 10.73 5.42 18.57 19.41 18.57s20-8 20-19.16v-4c0-9-3.62-13.61-11.09-21.22ZM165 761.31h150.38a3.67 3.67 0 0 0 2.72-6.16l-.21-.22-74.84-96.82-.73-.81a3.67 3.67 0 0 0-2.72-1.2 3.75 3.75 0 0 0-2.42.95l-.45.52-.71.79-73 95.81-1.12 1.37a3.64 3.64 0 0 0-.63 2.06 3.71 3.71 0 0 0 3.73 3.71M314.92 775H164.2a3.69 3.69 0 0 0-3.69 3.69v117.9a3.7 3.7 0 0 0 3.69 3.71h48.51v-74.21a3.68 3.68 0 0 1 3.69-3.69h45a3.68 3.68 0 0 1 3.69 3.69v74.21h49.8a3.7 3.7 0 0 0 3.69-3.71V778.65a3.69 3.69 0 0 0-3.66-3.65M835.83 744.08H686.66a3.59 3.59 0 0 0-3.65 3.55v150.63a3.6 3.6 0 0 0 3.65 3.54h149.17a3.6 3.6 0 0 0 3.66-3.54V747.63a3.59 3.59 0 0 0-3.66-3.55m-81.62 98.34a3.6 3.6 0 0 1-3.64 3.56H706a3.61 3.61 0 0 1-3.66-3.56v-27.08a3.6 3.6 0 0 1 3.66-3.56h44.57a3.59 3.59 0 0 1 3.64 3.56Zm0-50.06a3.6 3.6 0 0 1-3.64 3.56H706a3.61 3.61 0 0 1-3.66-3.56v-27.1a3.61 3.61 0 0 1 3.66-3.54h44.57a3.59 3.59 0 0 1 3.64 3.54Zm68.12 50.06a3.6 3.6 0 0 1-3.66 3.56h-44.55a3.6 3.6 0 0 1-3.66-3.56v-27.08a3.6 3.6 0 0 1 3.66-3.56h44.55a3.6 3.6 0 0 1 3.66 3.56Zm0-50.06a3.6 3.6 0 0 1-3.66 3.56h-44.55a3.6 3.6 0 0 1-3.66-3.56v-27.1a3.6 3.6 0 0 1 3.66-3.54h44.55a3.6 3.6 0 0 1 3.66 3.54ZM489.06 394.44h-146a3.57 3.57 0 0 0-3.56 3.58v498.9a3.58 3.58 0 0 0 3.56 3.57h146a3.6 3.6 0 0 0 3.59-3.57V398a3.59 3.59 0 0 0-3.59-3.58m-86.84 449.23a1.92 1.92 0 0 1-1.92 1.92h-33.42a1.92 1.92 0 0 1-1.92-1.92v-37.24a1.91 1.91 0 0 1 1.92-1.91h33.42a1.91 1.91 0 0 1 1.92 1.91Zm0-85.55a1.91 1.91 0 0 1-1.92 1.9h-33.42a1.91 1.91 0 0 1-1.88-1.9v-37.23a1.91 1.91 0 0 1 1.92-1.92h33.38a1.91 1.91 0 0 1 1.92 1.92Zm0-85.53a1.92 1.92 0 0 1-1.92 1.92h-33.42a1.92 1.92 0 0 1-1.92-1.92v-37.26a1.92 1.92 0 0 1 1.92-1.91h33.42a1.92 1.92 0 0 1 1.92 1.91Zm0-85.55a1.92 1.92 0 0 1-1.92 1.92h-33.42A1.92 1.92 0 0 1 365 587v-37.24a1.9 1.9 0 0 1 1.92-1.89h33.38a1.9 1.9 0 0 1 1.92 1.89Zm0-85.53a1.92 1.92 0 0 1-1.92 1.91h-33.42a1.92 1.92 0 0 1-1.92-1.91v-37.26a1.92 1.92 0 0 1 1.92-1.92h33.42a1.92 1.92 0 0 1 1.92 1.92Zm65.55 342.16a1.92 1.92 0 0 1-1.93 1.92h-33.41a1.91 1.91 0 0 1-1.92-1.92v-37.24a1.91 1.91 0 0 1 1.92-1.91h33.41a1.91 1.91 0 0 1 1.93 1.91Zm0-85.55a1.91 1.91 0 0 1-1.93 1.92h-33.41a1.9 1.9 0 0 1-1.92-1.92v-37.23a1.9 1.9 0 0 1 1.92-1.92h33.41a1.91 1.91 0 0 1 1.93 1.92Zm0-85.53a1.92 1.92 0 0 1-1.93 1.92h-33.41a1.91 1.91 0 0 1-1.92-1.92v-37.26a1.91 1.91 0 0 1 1.92-1.91h33.41a1.92 1.92 0 0 1 1.93 1.91Zm0-85.55a1.92 1.92 0 0 1-1.93 1.92h-33.41a1.91 1.91 0 0 1-1.92-1.92v-37.26a1.9 1.9 0 0 1 1.92-1.89h33.41a1.9 1.9 0 0 1 1.93 1.89Zm0-85.53a1.92 1.92 0 0 1-1.93 1.91h-33.41a1.91 1.91 0 0 1-1.92-1.91v-37.26a1.91 1.91 0 0 1 1.92-1.92h33.41a1.92 1.92 0 0 1 1.93 1.92ZM839.32 728.92a3 3 0 0 1-3 3H686.17a3 3 0 0 1-3-3v-30a3 3 0 0 1 3-3h150.15a3 3 0 0 1 3 3ZM665.4 488.65a3.85 3.85 0 0 0-3.67-2.79 3.8 3.8 0 0 0-2.09.69l-.27.18-1.23 1.56-143.48 182-.66.89a4.13 4.13 0 0 0-1.25 2.84v223.65a3.57 3.57 0 0 0 3.58 3.56h145.84a3.56 3.56 0 0 0 3.57-3.56V490.15a3.7 3.7 0 0 0-.34-1.5M605 587.49l1-1.28c9.81-12.6 26.36-33 34.42-42.86l1.06-1.26a4.17 4.17 0 0 1 3.21-1.52 4.09 4.09 0 0 1 4 3.34V590a4.12 4.12 0 0 1-4 4.1h-36.54a4.13 4.13 0 0 1-4-4.1 4.17 4.17 0 0 1 .85-2.51m-22.7 254.9a3.56 3.56 0 0 1-3.57 3.57h-43.52a3.56 3.56 0 0 1-3.57-3.57v-27.23a3.56 3.56 0 0 1 3.57-3.56h43.51a3.56 3.56 0 0 1 3.57 3.56Zm0-50.32a3.56 3.56 0 0 1-3.57 3.57h-43.52a3.56 3.56 0 0 1-3.57-3.57v-27.23a3.55 3.55 0 0 1 3.57-3.57h43.51a3.55 3.55 0 0 1 3.57 3.57Zm0-50.32a3.56 3.56 0 0 1-3.57 3.56h-43.52a3.56 3.56 0 0 1-3.57-3.56v-27.24a3.56 3.56 0 0 1 3.57-3.57h43.51a3.56 3.56 0 0 1 3.57 3.57Zm.12-110.27v60a3.58 3.58 0 0 1-3.57 3.57h-43.5a3.57 3.57 0 0 1-3.59-3.57v-7.55a4.1 4.1 0 0 1 .27-1.33 3 3 0 0 1 .22-.42 3 3 0 0 1 .32-.47c.1-.17.27-.39.4-.58 5.56-8 30.66-38.88 41.2-51.8l1.06-1.28a4.15 4.15 0 0 1 3.21-1.51 4.1 4.1 0 0 1 4 3.33Zm66.38 210.91a3.57 3.57 0 0 1-3.57 3.57h-43.5a3.57 3.57 0 0 1-3.59-3.57v-27.23a3.57 3.57 0 0 1 3.59-3.56h43.5a3.57 3.57 0 0 1 3.57 3.56Zm0-50.32a3.57 3.57 0 0 1-3.57 3.57h-43.5a3.57 3.57 0 0 1-3.59-3.57v-27.23a3.56 3.56 0 0 1 3.59-3.57h43.5a3.57 3.57 0 0 1 3.57 3.57Zm0-50.32a3.58 3.58 0 0 1-3.57 3.56h-43.5a3.57 3.57 0 0 1-3.59-3.56v-27.24a3.57 3.57 0 0 1 3.59-3.57h43.5a3.57 3.57 0 0 1 3.57 3.57Zm0-50.33a3.57 3.57 0 0 1-3.57 3.56h-43.5a3.57 3.57 0 0 1-3.59-3.56v-27.23a3.57 3.57 0 0 1 3.59-3.57h43.5a3.57 3.57 0 0 1 3.57 3.57Zm0-50.33a3.57 3.57 0 0 1-3.57 3.57h-43.5a3.57 3.57 0 0 1-3.59-3.57v-27.23a3.57 3.57 0 0 1 3.59-3.58h43.5a3.57 3.57 0 0 1 3.57 3.58Z" class="cls-2"/></svg>
