<svg xmlns="http://www.w3.org/2000/svg" viewBox="0 0 1000 1000" fill="#bf8b2e"><path d="M99.82 131.38h.31v154.35h33.9V84.09h-27.09l-31.21 36.59v35.38h.29zM154.24 125.74v24.37h30.92v-25.28c0-12.18 6-15.75 13.09-15.75 6.55 0 12.19 2.67 12.19 15.17v16.64c0 16.67-1.48 23.2-12.5 34.8l-19 20.23c-18.43 19.63-25.29 32.71-25.29 52.64v37.18h88v-27.67h-55.6v-9.51c0-15.77 5.65-21.71 14.27-30.93l21.68-22.9c17.55-18.73 21.42-30.64 21.42-50.86v-19.62c0-28.86-14-42.53-44.32-42.53-29.74 0-44.9 15.76-44.9 44M778.55 535.68C737.77 503.47 688.87 500 669.74 500c-10.09 0-19.43.9-26.27 2.53l-2.68.62c-25.83 6.1-69.06 16.31-119.39 78.77l-1.48 1.83a6.54 6.54 0 0 0-1.26 3.78 6.7 6.7 0 0 0 .89 3.31l1.14 1.87q12.46 20.85 20.7 36.21a6.65 6.65 0 0 0 10.76 1.51c.35-.46.71-.95 1-1.32C596.57 569 630.63 561 653.17 555.67L656 555a66 66 0 0 1 13.8-1.17c10.48 0 46.91 1.74 75.33 24.18 25.29 20 38.11 51.84 38.11 94.75 0 71.92-34.79 100-64 110.84a101.6 101.6 0 0 1-35.68 6.28A126.6 126.6 0 0 1 630 777.69l-2.09-1c-25.11-10.9-62.6-33.63-98.05-104.81-72.66-146-133.7-159.78-174.12-168.93l-2.12-.47c-3.1-.71-11.84-2.34-26-2.34-23.4 0-68.42 4.6-107 35.4-26.34 21-57.76 61.83-57.76 137 0 45.77 9.43 76 33.6 107.79 4.54 6.2 46.65 60.58 127.5 60.58a197 197 0 0 0 36.92-3.62c14.76-2.82 37.54-10.12 63-28.78l21.25 19.18a6.36 6.36 0 0 0 8.63-.4 5.6 5.6 0 0 0 1.53-4l16.44-101.28v-1.18a6 6 0 0 0-2-4.42 5.92 5.92 0 0 0-4.26-1.57L366.81 742l-1.88.31a5.74 5.74 0 0 0-3.13 1.81 6.1 6.1 0 0 0 .42 8.67l20.43 18.48c-10.74 6.59-21.48 11-31.92 13a140 140 0 0 1-26.16 2.56c-55.87 0-83.36-36.67-84.49-38.22l-.55-.76c-17-22.33-22.74-41.34-22.74-75.34 0-43.06 12.6-75 37.45-94.8 27.65-22.06 63.23-23.78 73.49-23.78a69.4 69.4 0 0 1 14 1.17l2.18.49c32.26 7.31 76.44 17.31 137.7 140.35 32.35 65 72.92 107.44 123.91 129.84 5.93 3 37.56 18.11 78.1 18.11a155.6 155.6 0 0 0 54.5-9.67c29.78-11.11 99.08-49.1 99.08-161.42-.03-75.08-31.91-116-58.65-137.12" class="cls-2" data-name="&lt;Path&gt;"/><g data-name="&lt;Group&gt;"><path d="M332.84 127.9v37.49H319.1V83.65h20c13.9 0 18.9 6.87 18.9 18.35v10.49c0 8.8-3.14 14-11 15.79l13.14 37.13h-14.4Zm0-33v25.4h4.58c4.71 0 6.76-2.41 6.76-6.75v-12c0-4.46-2.05-6.63-6.76-6.63ZM365.39 83.65h32.79v11.22h-19v23.38h13.62v11.1h-13.66v24.83h19v11.21h-32.75ZM404.69 147.79v-11h12.78V148c0 4.58 2 7.24 6.75 7.24 4.34 0 6.27-2.9 6.27-7.24v-3.1c0-4.7-1.93-7.6-6.15-11.58l-8.07-8.07c-7.84-7.72-11.46-12.42-11.46-21.83v-2.77c0-10.13 5.91-18 19.29-18 13.75 0 19.17 6.75 19.17 18.56v6.64h-12.54v-7.12c0-4.7-2.17-7-6.51-7-3.85 0-6.51 2.17-6.51 6.75v1.69c0 4.58 2.53 7.23 6.51 11.09L433 122c7.48 7.6 11.1 12.18 11.1 21.22v4c0 11.21-6 19.17-20 19.17s-19.41-7.87-19.41-18.6M451 83.65h20.37c13.86 0 18.93 6.87 18.93 18.33v17.24c0 11.45-5.07 18.44-18.93 18.44h-6.63v27.73H451Zm13.74 11.22v32.18h5.06c4.7 0 6.75-2.29 6.75-6.75v-18.8c0-4.46-2.05-6.63-6.75-6.63ZM497.28 144.29v-39.54c0-12.78 6.27-22.06 20.73-22.06s20.86 9.28 20.86 22.06v39.54c0 12.66-6.27 22.07-20.86 22.07s-20.73-9.36-20.73-22.07m27.85 2.17v-43.88c0-4.94-2.17-8.44-7.12-8.44s-7 3.5-7 8.44v43.88c0 4.95 2.17 8.44 7 8.44s7.12-3.49 7.12-8.44M558.16 114v51.36h-11.57V83.65h13.5l14.83 46.9v-46.9h11.45v81.74h-12.06ZM593.48 147.79v-11h12.78V148c0 4.58 2 7.24 6.75 7.24 4.34 0 6.27-2.9 6.27-7.24v-3.1c0-4.7-1.93-7.6-6.15-11.58l-8.08-8.07c-7.83-7.72-11.45-12.42-11.45-21.83v-2.77c0-10.13 5.91-18 19.29-18 13.74 0 19.17 6.75 19.17 18.56v6.64h-12.54v-7.12c0-4.7-2.17-7-6.51-7-3.86 0-6.51 2.17-6.51 6.75v1.69c0 4.58 2.53 7.23 6.51 11.09l8.8 8.68c7.48 7.6 11.09 12.18 11.09 21.22v4c0 11.21-6 19.17-20 19.17s-19.42-7.81-19.42-18.54M639.77 83.65h13.75v81.74h-13.75ZM661.35 83.65h19.9c13.74 0 18.32 6.39 18.32 18v8.32c0 6.87-2.53 11.21-8.2 13 6.87 1.56 10.25 6.14 10.25 13.62v10.85c0 11.57-5.18 18-18.93 18h-21.34Zm13.75 34.48h4.82c4.46 0 6.51-2.29 6.51-6.63v-10c0-4.46-2-6.63-6.63-6.63h-4.7Zm0 10.49v25.56h6c4.59 0 6.76-2.29 6.76-6.63v-12.3c0-4.34-2-6.63-6.88-6.63ZM708.37 83.65h13.74v70.53h16.4v11.21h-30.14ZM744.66 83.65h32.79v11.22H758.4v23.38H772v11.1h-13.6v24.83h19.05v11.21h-32.79Z" class="cls-2" data-name="&lt;Compound Path&gt;"/></g><g data-name="&lt;Group&gt;"><path d="M319.1 264.31v-39.54c0-12.78 6-22.06 20.49-22.06 15.19 0 19.41 8.44 19.41 20.49v9.65h-12.53v-10.73c0-5.07-1.69-8-6.64-8s-7 3.5-7 8.44v43.88c0 4.94 2.05 8.44 7 8.44s6.64-3.13 6.64-8v-14.99H359V266c0 11.69-4.82 20.37-19.41 20.37S319.1 277 319.1 264.31M367.68 264.31v-39.54c0-12.78 6.27-22.06 20.74-22.06s20.86 9.28 20.86 22.06v39.54c0 12.66-6.27 22.06-20.86 22.06s-20.74-9.37-20.74-22.06m27.85 2.17V222.6c0-4.94-2.17-8.44-7.11-8.44s-7 3.5-7 8.44v43.88c0 4.94 2.17 8.44 7 8.44s7.11-3.5 7.11-8.44M429.89 234.05v51.36h-11.58v-81.74h13.51l14.83 46.9v-46.9h11.45v81.74H446ZM466.42 267.81v-11h12.78v11.21c0 4.58 2 7.23 6.75 7.23 4.34 0 6.27-2.89 6.27-7.23v-3.14c0-4.7-1.93-7.59-6.15-11.57l-8.07-8.05c-7.84-7.71-11.45-12.41-11.45-21.82v-2.77c0-10.13 5.9-18 19.29-18 13.74 0 19.17 6.75 19.17 18.56v6.63h-12.55v-7.11c0-4.7-2.17-7-6.51-7-3.86 0-6.51 2.17-6.51 6.75v1.69c0 4.58 2.53 7.23 6.51 11.09l8.8 8.68c7.47 7.59 11.09 12.17 11.09 21.22v4c0 11.21-6 19.16-20 19.16s-19.42-7.8-19.42-18.53M554.18 203.67v61.85c0 12.66-5.42 20.85-19.41 20.85-14.47 0-20.49-8.19-20.49-20.85v-61.85H528v63.17c0 4.83 1.93 8.08 6.75 8.08s6.75-3.25 6.75-8.08v-63.17ZM601.08 232.36h-.36l-9.29 53.05H585l-10.2-53.05h-.25v53.05h-11.33v-81.74h16l8.92 46.05h.12l8-46.05h17.37v81.74h-12.55ZM622.66 203.67H643c13.86 0 18.93 6.87 18.93 18.33v17.24c0 11.45-5.07 18.44-18.93 18.44h-6.6v27.73h-13.74Zm13.74 11.21v32.19h5.06c4.71 0 6.75-2.29 6.75-6.75v-18.81c0-4.46-2-6.63-6.75-6.63ZM666.42 203.67H703v11.21h-11.39v70.53h-13.86v-70.53h-11.33ZM709.46 203.67h13.74v81.74h-13.74ZM731.15 264.31v-39.54c0-12.78 6.27-22.06 20.74-22.06s20.86 9.28 20.86 22.06v39.54c0 12.66-6.27 22.06-20.86 22.06s-20.74-9.37-20.74-22.06m27.85 2.17V222.6c0-4.94-2.17-8.44-7.11-8.44s-7 3.5-7 8.44v43.88c0 4.94 2.17 8.44 7 8.44s7.11-3.5 7.11-8.44M792.28 234.05v51.36H780.7v-81.74h13.5l14.8 46.9v-46.9h11.46v81.74h-12.03Z" class="cls-2" data-name="&lt;Compound Path&gt;"/></g><g data-name="&lt;Group&gt;"><path d="m316.93 405.44 15.43-81.74H348l15.56 81.74h-14.08L347 390.49h-14.64L330 405.44Zm17.24-25.92h11l-5.43-32.8h-.12ZM381.18 354.08v51.36h-11.57V323.7h13.5l14.83 46.89V323.7h11.46v81.74h-12.06ZM458.7 345.64v37.85c0 12.54-5.18 21.95-19.89 21.95h-21.22V323.7h21.22c14.71 0 19.89 9.3 19.89 21.94m-21.58 48.58c5.67 0 7.84-3.37 7.84-8.32v-42.79c0-4.83-2.17-8.2-7.84-8.2h-5.79v59.31ZM479.92 323.7h20.37c13.87 0 18.93 6.87 18.93 18.32v17.24c0 11.45-5.06 18.45-18.93 18.45h-6.63v27.73h-13.74Zm13.74 11.21v32.19h5.06c4.71 0 6.76-2.29 6.76-6.75v-18.81c0-4.46-2.05-6.63-6.76-6.63ZM540.44 367.94v37.5h-13.75V323.7h20c13.86 0 18.92 6.87 18.92 18.32v10.49c0 8.8-3.13 14-11 15.79l13.14 37.14h-14.41Zm0-33v25.44H545c4.7 0 6.75-2.41 6.75-6.76v-12c0-4.46-2-6.63-6.75-6.63ZM573.47 384.34v-39.55c0-12.78 6.27-22.06 20.73-22.06s20.86 9.28 20.86 22.06v39.55c0 12.66-6.27 22.06-20.86 22.06s-20.73-9.4-20.73-22.06m27.85 2.17v-43.89c0-4.94-2.17-8.44-7.12-8.44s-7 3.5-7 8.44v43.89c0 4.94 2.17 8.44 7 8.44s7.12-3.5 7.12-8.44M664.37 345.64v37.85c0 12.54-5.19 21.95-19.89 21.95h-21.22V323.7h21.22c14.7 0 19.89 9.3 19.89 21.94m-21.58 48.58c5.67 0 7.83-3.37 7.83-8.32v-42.79c0-4.83-2.16-8.2-7.83-8.2H637v59.31ZM712.47 323.7v61.84c0 12.66-5.43 20.86-19.41 20.86-14.47 0-20.5-8.2-20.5-20.86V323.7h13.75v63.17c0 4.82 1.93 8.08 6.75 8.08s6.75-3.26 6.75-8.08V323.7ZM720.67 384.34v-39.55c0-12.78 6-22.06 20.49-22.06 15.19 0 19.41 8.44 19.41 20.5v9.64H748v-10.73c0-5.06-1.68-8-6.63-8s-7 3.5-7 8.44v43.89c0 4.94 2.05 8.44 7 8.44s6.63-3.14 6.63-8v-14.99h12.54V386c0 11.69-4.82 20.37-19.41 20.37s-20.46-9.37-20.46-22.03M766.84 323.7h36.53v11.21H792v70.53h-13.83v-70.53h-11.33ZM809.88 323.7h13.74v81.74h-13.74ZM831.58 384.34v-39.55c0-12.78 6.26-22.06 20.73-22.06s20.86 9.28 20.86 22.06v39.55c0 12.66-6.27 22.06-20.86 22.06s-20.73-9.4-20.73-22.06m27.84 2.17v-43.89c0-4.94-2.17-8.44-7.11-8.44s-7 3.5-7 8.44v43.89c0 4.94 2.17 8.44 7 8.44s7.11-3.5 7.11-8.44M892.7 354.08v51.36h-11.58V323.7h13.51l14.83 46.89V323.7h11.45v81.74h-12.06Z" class="cls-2" data-name="&lt;Compound Path&gt;"/></g></svg>
