<svg xmlns="http://www.w3.org/2000/svg" viewBox="0 0 1000 1000" fill="#0a97d9"><path d="M130.29 84.14v201.53h-33.9V131.41h-.29l-23.77 24.66h-.31V120.7l31.21-36.56zM355.6 83.71h13.74v81.77H355.6zM377.39 165.49h13.74v-36.08h13.74v-11.09h-13.74v-23.4h18.44V83.71h-32.18zM448.48 94.92V83.71H415.7v81.78h32.78v-11.22h-19.04v-24.86h13.62v-11.09h-13.62v-23.4zM514.39 136.65c0-7.47-3.36-12.05-10.23-13.62 5.65-1.81 8.2-6.15 8.2-13v-8.33c0-11.56-4.59-18-18.33-18h-19.89v81.77h21.33c13.75 0 18.92-6.39 18.92-18Zm-26.51-41.73h4.7c4.59 0 6.64 2.19 6.64 6.64v10c0 4.35-2.05 6.64-6.52 6.64h-4.82Zm12.78 52.71c0 4.34-2.18 6.63-6.75 6.63h-6V128.7h5.91c4.82 0 6.87 2.29 6.87 6.63ZM520.26 165.49h32.78v-11.22h-19.05v-24.86h13.62v-11.09h-13.62v-23.4h19.05V83.71h-32.78zM561.49 83.71v81.78h30.14v-11.22h-16.4V83.71zM596.86 104.82v39.55c0 12.68 6.27 22.07 20.73 22.07s20.86-9.39 20.86-22.07v-39.55c0-12.78-6.27-22.07-20.86-22.07s-20.73 9.25-20.73 22.07m27.85-2.18v43.91c0 4.94-2.17 8.44-7.12 8.44s-7-3.5-7-8.44v-43.91c0-4.94 2.18-8.43 7-8.43s7.12 3.49 7.12 8.43M663.11 135.57H663l-6.39-51.86h-13.26l10.97 81.78h12.89l7.72-50.55h.11l8.08 50.55h13.02l10.6-81.78h-11.56l-6.28 51.86h-.11l-7.59-51.86h-11.21zM328.14 285.37h12.89l7.72-50.53h.12l8.08 50.53h13.02l10.61-81.76H369l-6.26 51.86h-.13l-7.58-51.86h-11.22l-6.87 51.86h-.12l-6.39-51.86h-13.26zM378.72 285.37h13l2.4-14.94h14.59l2.52 14.94h14.1l-15.53-81.76h-15.66Zm22.65-58.73h.13l5.43 32.8H396ZM447.93 285.37v-70.55h11.33v-11.21h-36.52v11.21h11.32v70.55zM498.4 214.82v-11.21h-32.78v81.76h32.78v-11.21h-19.04v-24.85h13.62v-11.1h-13.62v-23.39zM544.67 232.43v-10.49c0-11.46-5.06-18.32-18.92-18.32h-20v81.75h13.74v-37.49l12.89 37.49h14.47l-13.13-37.15c7.83-1.8 11-7 11-15.79m-13.86 1.09c0 4.34-2 6.75-6.74 6.75h-4.59v-25.45h4.59c4.69 0 6.74 2.17 6.74 6.63ZM233.49 285.72V253h13.68v-26.46h-13.68V84.09h-33.31l-58.59 148.1V253h59.78v32.71Zm-62.16-59.18 30.33-83h.3v83ZM769.58 729.62C757 712.62 675.7 609 561.72 609c-99 0-204.85 89.76-204.85 89.76s-39.77-81.4-121.13-89.22c-.47 0-1-.11-1.52-.11h-.51c-1.7.1-3.29 1.75-3.1 3.22a9 9 0 0 0 1.27 3c10.49 17.35 37.25 66.9 37.25 116.35 0 49.64-26.92 99.3-37.31 116.63l-.71 1.1a3.3 3.3 0 0 0-.5 1.72 3.23 3.23 0 0 0 3 3.2l.88-.07a3.1 3.1 0 0 0 .85-.08c81.61-7.6 121.53-89.25 121.53-89.25s105.88 89.77 204.85 89.77c114 0 195.27-103.64 207.86-120.61.34-.46.62-.86.87-1.16a3.4 3.4 0 0 0 .27-1.25 3.2 3.2 0 0 0-.27-1.24c-.25-.35-.53-.75-.87-1.17M625.1 745.12a33.26 33.26 0 1 1 33.3-33.27 33.28 33.28 0 0 1-33.3 33.27M233.18 414.17a3.5 3.5 0 0 0-.63-.14 3.29 3.29 0 0 0-3.27 3.31V440a3.23 3.23 0 0 0 .95 2.35c55 47.8 107.11 3 119.17-8.83a3.3 3.3 0 0 1 .86-.92 3.36 3.36 0 0 1 1.81-.59 3.17 3.17 0 0 1 2.21.88.5.5 0 0 0 .16.14c62.15 59.3 127.31 11.27 140.87 0l1.33-1.22a2.9 2.9 0 0 1 1.24-.25 3 3 0 0 1 1.29.25l1.35 1.22c13.55 11.27 78.71 59.3 140.85 0a1 1 0 0 0 .12-.14 3.2 3.2 0 0 1 2.21-.88 3.3 3.3 0 0 1 1.81.59 3.6 3.6 0 0 1 .91.92c12.05 11.84 64.09 56.63 119.15 8.83a3.3 3.3 0 0 0 .95-2.35v-22.66a3.25 3.25 0 0 0-3.23-3.31 3.5 3.5 0 0 0-.7.14c-.51.29-1 .57-1.65.86-16.92 8.47-69.4 28.63-117-16.44-.45-.41-.92-.83-1.39-1.32a3.4 3.4 0 0 0-1.39-.3 6 6 0 0 0-1 .15 3.74 3.74 0 0 0-1.66 1.29c-14.2 10.82-79.36 54.94-137.39.81l-.85-.83a3.64 3.64 0 0 0-2.36-1 3.47 3.47 0 0 0-2.27 1l-.9.83c-58 54.13-123.24 10-137.42-.81a3.54 3.54 0 0 0-1.61-1.29 7 7 0 0 0-1-.15 3.7 3.7 0 0 0-1.37.3 13 13 0 0 1-1.39 1.32c-47.63 45.07-100.1 24.91-117 16.44-.59-.29-1.16-.57-1.67-.86M349.4 516.08a3.6 3.6 0 0 1 .87-.9 3.36 3.36 0 0 1 1.8-.62 3.2 3.2 0 0 1 2.22.91.5.5 0 0 0 .15.14c62.13 59.23 127.31 11.22 140.87 0l1.33-1.26a3.2 3.2 0 0 1 1.24-.21 3.5 3.5 0 0 1 1.31.21l1.33 1.26c13.55 11.22 78.7 59.23 140.86 0 0 0 .07-.08.11-.14a3.18 3.18 0 0 1 2.21-.91 3.25 3.25 0 0 1 1.8.62 3.6 3.6 0 0 1 .92.9c12 11.85 64.08 56.65 119.15 8.8a3.18 3.18 0 0 0 1-2.29v-22.75a3.24 3.24 0 0 0-3.25-3.25 4.3 4.3 0 0 0-.7.13l-1.65.83c-16.91 8.48-69.42 28.59-117-16.42l-1.38-1.3a2.64 2.64 0 0 0-1.4-.33 2 2 0 0 0-1 .25 2.8 2.8 0 0 0-1.66 1.22c-14.18 10.8-79.36 54.93-137.4.8l-.85-.85a3.35 3.35 0 0 0-2.35-.91 3.22 3.22 0 0 0-2.27.91l-.9.85c-58 54.13-123.24 10-137.42-.8a2.7 2.7 0 0 0-1.61-1.22 2.25 2.25 0 0 0-1-.25 2.6 2.6 0 0 0-1.35.33c-.45.45-.93.88-1.42 1.3-47.63 45-100.09 24.9-117 16.42l-1.67-.83a4 4 0 0 0-.62-.13 3.26 3.26 0 0 0-3.28 3.25v22.75a3.13 3.13 0 0 0 .95 2.29c55 47.85 107.12 3 119.17-8.8M319.1 83.71v81.78h30.15v-11.22h-16.4V83.71z" class="cls-2"/></svg>
