<svg xmlns="http://www.w3.org/2000/svg" viewBox="0 0 1000 1000" fill="#00689d"><path d="M77.22 120.59v35.38h.31l23.78-24.68h.3V285.6h33.9V84.01h-27.05zM254.15 237.15v-29.74c0-33-13.08-49.66-37.46-49.66-14.28 0-22.9 6.54-27.95 16.36h-.29V130.7c0-12.2 3.85-20.82 16.05-20.82s15.76 7.14 15.76 19.62v13.4h30.92v-10.72c0-29.73-9.81-50.54-47.28-50.54-35.68 0-49.06 22.9-49.06 54.42v98.11c0 31.22 13.69 53.82 49.36 53.82 36 0 50-19.62 50-50.84m-33.6 3c0 12.78-4.76 20.21-16.35 20.21-11.3 0-15.75-7.72-15.75-20.21v-36.9c.58-11.3 5.34-18.44 16.05-18.44 11.58 0 16.05 7.14 16.05 20.23ZM646.14 491s-8.41 11.17-6 22.06 14.88 17.36 14.88 17.36 8.41-11.17 6-22.05S646.14 491 646.14 491M632.43 554.84s8.41-11.18 6-22.06-14.87-17.36-14.87-17.36-8.42 11.17-6 22.06 14.88 17.36 14.88 17.36M667 542.88s8.88 9 19 8.06 17.61-11.31 17.61-11.31-8.87-9-19-8.07S667 542.88 667 542.88M681.56 495c-8.23 8.35-7.07 23.13-7.07 23.13s14.51 1.26 22.76-7.08 7.07-23.13 7.07-23.13-14.52-1.26-22.76 7.08M663.4 576.09c10.08 1.2 19.56-7.46 19.56-7.46S676.09 558 666 556.85s-19.57 7.47-19.57 7.47 6.87 10.58 16.95 11.77M672.4 751.23h-75.35a10.66 10.66 0 1 0 0 21.32h75.35a10.66 10.66 0 0 0 0-21.32M672.4 868.74h-75.35a10.66 10.66 0 1 0 0 21.32h75.35a10.66 10.66 0 0 0 0-21.32M333.51 725.35a50 50 0 0 0-5.23-1.34s1.93.6 5.23 1.34" class="cls-2"/><path d="M669.63 780H599.8a6.07 6.07 0 0 0-6.07 6.06v21.15l-45.58 5-66.59-1.52V770a183 183 0 0 0 26.49-5.38c64.11-18.08 78.09-71.08 76.69-107.75-1.39-37.35 10.56-51.85 27.73-58.3a77.5 77.5 0 0 1 14.23-3.77c.19 9.17 2 19.84 6.15 32.54 1.53-.08 3-.21 4.55-.37-4.33-13-6.18-23.69-6.28-32.81a80 80 0 0 1 15.2-.46 96.5 96.5 0 0 1-14.47-10.3c2.88-17.68 13.42-28.54 24.27-39.65 6-6.11 12.13-12.42 17-19.94l-3.78-2.44c-4.6 7.14-10.63 13.29-16.44 19.24-10.58 10.83-21.27 21.89-24.89 39.45A145 145 0 0 1 617 569c-15.81-17.72-36.16-4.71-65.17 22.31s-65.54 27.93-101.2-8.55c-47-48.16-88.08-47.88-116.22-45.15 19.25 8.2 26 26.19 35.73 71.91 10.21 48 36 69.68 71.19 72.67-19.59 6.93-20.56 18-46.81 36.12-20.51 14.14-49.35 9.67-61 7 21.46 6.7 46.89 29.21 69.64 37a168.2 168.2 0 0 0 41.51 8.51v38.94l-119.3-2.72v27.16l222.79-5.1 45.58 5v21.13a6.09 6.09 0 0 0 6.07 6.08h69.83a6.1 6.1 0 0 0 6.08-6.08v-69.17a6.08 6.08 0 0 0-6.09-6.06m-214-8.52c5 .08 9.95-.07 14.94-.41v39.37l-14.94-.34ZM318.84 829.8c0 5.73-4 10.37-8.92 10.37h-5.37c-4.92 0-8.93-4.64-8.93-10.37V811c0-5.73 4-10.37 8.93-10.37h5.37c4.92 0 8.92 4.64 8.92 10.37ZM319.38 83.89h20.37c13.86 0 18.93 6.87 18.93 18.32v17.23c0 11.45-5.07 18.44-18.93 18.44h-6.63v27.73h-13.74Zm13.74 11.21v32.18h5.07c4.7 0 6.75-2.29 6.75-6.75v-18.8c0-4.46-2.05-6.63-6.75-6.63ZM364.7 83.89h32.79V95.1h-19.05v23.38h13.62v11.09h-13.62v24.83h19.05v11.21H364.7ZM402.79 165.61l15.43-81.72h15.67l15.54 81.72h-14.1l-2.53-15h-14.58l-2.41 15ZM420 139.69h11l-5.42-32.78h-.12ZM454 144.51V105c0-12.78 6-22.06 20.49-22.06 15.19 0 19.41 8.44 19.41 20.49v9.64h-12.53v-10.74c0-5.06-1.68-8-6.63-8s-7 3.5-7 8.44v43.87c0 4.94 2.05 8.44 7 8.44s6.63-3.13 6.63-8V132.1h12.54v14.1c0 11.69-4.82 20.37-19.41 20.37s-20.5-9.4-20.5-22.06M501.38 83.89h32.79V95.1h-19v23.38h13.62v11.09h-13.67v24.83h19v11.21h-32.74ZM556.22 153.55l-7 18.44h-7.71l1.69-19.52h13ZM614.44 83.89V147c0 11.82-5.19 19.53-18.93 19.53-14.22 0-18.07-7.83-18.07-18.2V132.1h13v16.51c0 4.1 1.45 6.51 5.06 6.51s5.19-2.41 5.19-6.63v-64.6ZM662.65 83.89v61.83c0 12.65-5.43 20.85-19.41 20.85-14.46 0-20.49-8.2-20.49-20.85V83.89h13.74V147c0 4.83 1.93 8.08 6.75 8.08S650 151.87 650 147V83.89ZM670.36 148v-11h12.78v11.21c0 4.58 2.05 7.23 6.75 7.23 4.34 0 6.27-2.89 6.27-7.23v-3.13c0-4.7-1.93-7.6-6.15-11.58l-8.08-8.07c-7.83-7.71-11.45-12.42-11.45-21.82v-2.77c0-10.12 5.91-18 19.29-18 13.74 0 19.16 6.75 19.16 18.56v6.63H696.4V101c0-4.7-2.17-7-6.51-7-3.86 0-6.51 2.17-6.51 6.75v1.69c0 4.58 2.53 7.23 6.51 11.09l8.8 8.67c7.47 7.6 11.09 12.18 11.09 21.22v4c0 11.2-6 19.16-20 19.16s-19.42-7.84-19.42-18.58M716 83.89h36.53V95.1h-11.29v70.51h-13.86V95.1H716ZM759.56 83.89h13.74v81.72h-13.74ZM781.85 144.51V105c0-12.78 6-22.06 20.49-22.06 15.19 0 19.41 8.44 19.41 20.49v9.64h-12.54v-10.74c0-5.06-1.68-8-6.63-8s-7 3.5-7 8.44v43.87c0 4.94 2 8.44 7 8.44s6.63-3.13 6.63-8V132.1h12.54v14.1c0 11.69-4.82 20.37-19.41 20.37s-20.49-9.4-20.49-22.06M829.82 83.89h32.79V95.1h-19.05v23.38h13.62v11.09h-13.62v24.83h19.05v11.21h-32.79ZM317.7 285.46l15.43-81.72h15.67l15.54 81.72h-14.1l-2.53-14.94h-14.58l-2.41 14.94Zm17.24-25.91h11l-5.42-32.78h-.12ZM382.78 234.12v51.34h-11.57v-81.72h13.5l14.83 46.89v-46.89H411v81.72h-12.06ZM461.13 225.68v37.85c0 12.53-5.18 21.93-19.89 21.93H420v-81.72h21.21c14.79 0 19.92 9.26 19.92 21.94m-21.58 48.57c5.67 0 7.84-3.37 7.84-8.31v-42.79c0-4.82-2.17-8.2-7.84-8.2h-5.78v59.3ZM483.31 267.87v-11h12.77v11.21c0 4.58 2.05 7.23 6.75 7.23 4.34 0 6.27-2.89 6.27-7.23V265c0-4.7-1.93-7.59-6.15-11.57l-8.07-8.07c-7.84-7.72-11.45-12.42-11.45-21.82v-2.77c0-10.13 5.9-18 19.28-18 13.74 0 19.17 6.75 19.17 18.56V228h-12.54v-7.11c0-4.7-2.17-7-6.51-7-3.85 0-6.51 2.17-6.51 6.75v1.69c0 4.58 2.53 7.23 6.51 11.08l8.8 8.68c7.47 7.6 11.09 12.18 11.09 21.22v4c0 11.21-6 19.17-20 19.17s-19.41-7.89-19.41-18.61M527.78 203.74h36.52V215H553v70.51h-13.89V215h-11.33ZM585.64 248v37.48H571.9v-81.74h20c13.86 0 18.93 6.87 18.93 18.32v10.49c0 8.8-3.14 14-11 15.79L613 285.46h-14.47Zm0-33v25.43h4.58c4.7 0 6.74-2.41 6.74-6.74v-12.11c0-4.46-2-6.63-6.74-6.63ZM619.5 264.37v-39.53c0-12.78 6.27-22.06 20.74-22.06s20.85 9.28 20.85 22.06v39.53c0 12.66-6.27 22.06-20.85 22.06S619.5 277 619.5 264.37m27.85 2.17v-43.87c0-4.94-2.17-8.44-7.11-8.44s-7 3.5-7 8.44v43.87c0 4.94 2.16 8.44 7 8.44s7.11-3.5 7.11-8.44M681.7 234.12v51.34h-11.57v-81.72h13.5l14.82 46.89v-46.89h11.45v81.72h-12ZM739.67 241.83h19.53v43.63h-9.89v-8.92c-1.8 6.15-5.66 9.89-13.13 9.89-11.81 0-17.24-9.4-17.24-22.06v-39.53c0-12.78 6.15-22.06 20.61-22.06 15.19 0 19.65 8.44 19.65 20.49v7.23h-12.54v-8.31c0-5.07-1.93-8-6.87-8s-7.11 3.5-7.11 8.44v43.87c0 4.94 2.05 8.44 6.75 8.44 4.46 0 6.75-2.53 6.75-7.84v-14.42h-6.51ZM320 324.9h13.74v81.72H320ZM354.46 355.27v51.35h-11.57V324.9h13.5l14.82 46.88V324.9h11.46v81.72h-12.06ZM391 389v-11h12.78v11.21c0 4.58 2.05 7.23 6.75 7.23 4.34 0 6.26-2.89 6.26-7.23v-3.13c0-4.7-1.92-7.6-6.14-11.57l-8.08-8.08c-7.83-7.71-11.45-12.41-11.45-21.82v-2.77c0-10.12 5.91-18 19.29-18 13.74 0 19.16 6.75 19.16 18.56v6.63H417V342c0-4.7-2.17-7-6.51-7-3.86 0-6.51 2.17-6.51 6.75v1.69c0 4.58 2.53 7.23 6.51 11.09l8.8 8.68c7.47 7.59 11.08 12.17 11.08 21.21v4c0 11.21-6 19.16-20 19.16S391 399.75 391 389M435.46 324.9H472v11.21h-11.35v70.51h-13.86v-70.51h-11.33ZM479.57 324.9h13.74v81.72h-13.74ZM500.9 324.9h36.52v11.21h-11.33v70.51h-13.86v-70.51H500.9ZM584.91 324.9v61.83c0 12.65-5.42 20.85-19.4 20.85-14.47 0-20.49-8.2-20.49-20.85V324.9h13.74v63.15c0 4.83 1.93 8.08 6.75 8.08s6.75-3.25 6.75-8.08V324.9ZM592.39 324.9h36.52v11.21h-11.33v70.51h-13.86v-70.51h-11.33ZM636.5 324.9h13.74v81.72H636.5ZM659.4 385.52V346c0-12.78 6.27-22.06 20.73-22.06S701 333.21 701 346v39.53c0 12.66-6.27 22.06-20.85 22.06s-20.75-9.41-20.75-22.07m27.84 2.17v-43.87c0-4.94-2.17-8.44-7.11-8.44s-7 3.5-7 8.44v43.87c0 4.94 2.17 8.44 7 8.44s7.11-3.5 7.11-8.44M721.59 355.27v51.35H710V324.9h13.5l14.83 46.88V324.9h11.47v81.72h-12.06ZM758.11 389v-11h12.78v11.21c0 4.58 2.05 7.23 6.75 7.23 4.34 0 6.27-2.89 6.27-7.23v-3.13c0-4.7-1.93-7.6-6.15-11.57l-8.08-8.08c-7.83-7.71-11.45-12.41-11.45-21.82v-2.77c0-10.12 5.91-18 19.29-18 13.74 0 19.16 6.75 19.16 18.56v6.63h-12.53V342c0-4.7-2.17-7-6.51-7-3.86 0-6.51 2.17-6.51 6.75v1.69c0 4.58 2.53 7.23 6.51 11.09l8.8 8.68c7.47 7.59 11.09 12.17 11.09 21.21v4c0 11.21-6 19.16-20 19.16s-19.42-7.83-19.42-18.58" class="cls-2"/></svg>
