<svg xmlns="http://www.w3.org/2000/svg" viewBox="0 0 1000 1000" fill="#19486a"><path d="M319.11 83.68h20.38c13.86 0 18.92 6.87 18.92 18.34v17.24c0 11.47-5.06 18.46-18.92 18.46h-6.63v27.74h-13.75Zm13.75 11.21v32.21h5.05c4.71 0 6.74-2.29 6.74-6.76v-18.81c0-4.45-2-6.64-6.74-6.64ZM360.1 165.46l15.44-81.78h15.66l15.54 81.78h-14.09l-2.53-15h-14.58l-2.42 15Zm17.25-25.94h11l-5.43-32.81h-.12ZM427.38 128v37.51h-13.74V83.68h20c13.86 0 18.92 6.87 18.92 18.34v10.49c0 8.8-3.13 14-11 15.8l13.14 37.15h-14.45Zm0-33.06v25.45H432c4.71 0 6.76-2.41 6.76-6.75v-12.11c0-4.45-2-6.64-6.76-6.64ZM457.46 83.68h36.53v11.21h-11.34v70.57h-13.86V94.89h-11.33zM514.27 114.08v51.38H502.7V83.68h13.48l14.85 46.91V83.68h11.44v81.78h-12.05zM553.76 83.68h32.78v11.21h-19.03v23.4h13.62v11.11h-13.62v24.84h19.03v11.22h-32.78zM608.85 128v37.51h-13.74V83.68h20c13.88 0 18.93 6.87 18.93 18.34v10.49c0 8.8-3.14 14-11 15.8l13.14 37.15h-14.44Zm0-33.06v25.45h4.59c4.7 0 6.75-2.41 6.75-6.75v-12.11c0-4.45-2.05-6.64-6.75-6.64ZM640.9 147.84v-11h12.79v11.21c0 4.59 2 7.24 6.73 7.24 4.35 0 6.27-2.9 6.27-7.24V145c0-4.71-1.92-7.61-6.16-11.59l-8.06-8.09c-7.84-7.7-11.45-12.42-11.45-21.81v-2.78c0-10.14 5.91-18 19.28-18 13.74 0 19.18 6.75 19.18 18.58v6.63h-12.55v-7.11c0-4.72-2.16-7-6.51-7-3.86 0-6.5 2.18-6.5 6.76v1.69c0 4.59 2.54 7.23 6.5 11.09l8.8 8.68c7.48 7.6 11.08 12.18 11.08 21.23v4c0 11.23-6 19.17-20 19.17s-19.4-7.83-19.4-18.57M715.77 129.4h-13.25v36.06h-13.76V83.68h13.76v34.63h13.25V83.68h13.85v81.78h-13.85zM738.68 83.68h13.74v81.77h-13.74zM761.58 83.68H782c13.87 0 18.93 6.87 18.93 18.34v17.24c0 11.47-5.06 18.46-18.93 18.46h-6.62v27.74h-13.8Zm13.75 11.21v32.21h5c4.71 0 6.76-2.29 6.76-6.76v-18.81c0-4.45-2-6.64-6.76-6.64ZM806.25 147.84v-11H819v11.21c0 4.59 2.05 7.24 6.76 7.24 4.33 0 6.27-2.9 6.27-7.24V145c0-4.71-1.94-7.61-6.15-11.59l-8.08-8.09c-7.83-7.7-11.45-12.42-11.45-21.81v-2.78c0-10.14 5.92-18 19.28-18 13.75 0 19.16 6.75 19.16 18.58v6.63h-12.5v-7.11c0-4.72-2.18-7-6.51-7-3.86 0-6.5 2.18-6.5 6.76v1.69c0 4.59 2.51 7.23 6.5 11.09l8.8 8.68c7.47 7.6 11.08 12.18 11.08 21.23v4c0 11.23-6 19.17-20 19.17s-19.4-7.83-19.4-18.57M149.63 83.81v201.61h-33.9V131.09h-.3l-23.79 24.68h-.29v-35.39l31.23-36.57zM165.1 83.81h85.06v31.22l-44.32 170.39h-33.62l45.21-173.96H165.1zM319.13 202.46h32.7v11.38h-18.74v23.76h13.96v11.25h-13.96v36.61h-13.96zM356.72 264v-40.12c0-13 6.36-22.4 21-22.4s21.28 9.43 21.28 22.4V264c0 12.85-6.36 22.4-21.18 22.4s-21-9.55-21-22.4m28.27 2.2v-44.52c0-5-2.2-8.57-7.22-8.57s-7.09 3.55-7.09 8.57v44.56c0 5 2.19 8.57 7.09 8.57s7.22-3.55 7.22-8.57M422 247.39v38.07h-14v-83h20.32c14.08 0 19.23 7 19.23 18.61v10.65c0 8.93-3.19 14.2-11.14 16l13.33 37.71h-14.67Zm0-33.55v25.84h4.65c4.77 0 6.86-2.45 6.86-6.86v-12.25c0-4.53-2.09-6.73-6.86-6.73ZM469.63 202.46h37.09v11.38h-11.5v71.62h-14.08v-71.62h-11.51zM540.63 248.85h-13.47v36.61h-13.95v-83h13.95v35.14h13.47v-35.14h14.08v83h-14.08zM563.79 202.46h33.3v11.38h-19.34v23.76h13.83v11.25h-13.83v25.23h19.34v11.38h-33.3zM641.68 241.14h19.83v44.32h-10v-9.06c-1.83 6.25-5.75 10-13.34 10-12 0-17.51-9.55-17.51-22.4v-40.12c0-13 6.24-22.4 20.94-22.4 15.42 0 20 8.57 20 20.81v7.34h-12.82v-8.44c0-5.14-2-8.08-7-8.08s-7.22 3.55-7.22 8.57v44.56c0 5 2.07 8.57 6.86 8.57 4.52 0 6.85-2.58 6.85-8v-14.65h-6.61ZM669.47 264v-40.12c0-13 6.36-22.4 21-22.4s21.19 9.43 21.19 22.4V264c0 12.85-6.37 22.4-21.19 22.4s-21-9.55-21-22.4m28.28 2.2v-44.52c0-5-2.21-8.57-7.23-8.57s-7.09 3.55-7.09 8.57v44.56c0 5 2.2 8.57 7.09 8.57s7.23-3.55 7.23-8.57M715.62 285.46l15.67-83h15.92l15.79 83h-14.33l-2.56-15.19h-14.82l-2.44 15.19Zm17.5-26.32h11.15l-5.52-33.3h-.11ZM770.99 202.46h13.96v71.62h16.64v11.38h-30.6zM806.6 267.59v-11.14h13v11.38c0 4.65 2.09 7.35 6.85 7.35 4.42 0 6.38-2.95 6.38-7.35v-3.18c0-4.78-2-7.71-6.25-11.76l-8.19-8.19c-8-7.84-11.63-12.61-11.63-22.17v-2.81c0-10.28 6-18.24 19.58-18.24 14 0 19.47 6.85 19.47 18.85v6.73h-12.76v-7.21c0-4.78-2.21-7.11-6.63-7.11-3.91 0-6.6 2.21-6.6 6.86v1.71c0 4.65 2.58 7.35 6.6 11.27l8.94 8.81c7.6 7.71 11.28 12.36 11.28 21.54v4c0 11.39-6.13 19.47-20.33 19.47s-19.71-8-19.71-18.85M748.26 606.48c0-70.23-55.87-127.6-125.47-130.14a130.23 130.23 0 0 0-245.61 0c-69.59 2.54-125.44 59.92-125.44 130.14A130 130 0 0 0 302 709.14a130.4 130.4 0 0 0-5.14 36.16c0 71.78 58.43 130.21 130.26 130.21a129.47 129.47 0 0 0 73.5-22.8 129.5 129.5 0 0 0 72.26 21.94c71.82 0 130.25-58.43 130.25-130.22A130 130 0 0 0 698.2 709a130.08 130.08 0 0 0 50.06-102.51M604 519.7c0 52.14-38.59 95.3-88.68 102.76a103 103 0 0 1-1.36-16 104.06 104.06 0 0 1 88.68-102.76 104 104 0 0 1 1.36 16M500.47 818.93a103.73 103.73 0 0 1-1-148.17 103.7 103.7 0 0 1 1 148.17M397.33 503.71c50.09 7.45 88.67 50.62 88.67 102.77a103 103 0 0 1-1.37 16C434.56 615 396 571.84 396 519.7a104 104 0 0 1 1.36-16M474.89 653a103.63 103.63 0 0 1-140.68 45.76A103.63 103.63 0 0 1 474.89 653m49.87-.7a103.67 103.67 0 0 1 141.37 46.3 103.67 103.67 0 0 1-141.37-46.3M500 415.69a104.13 104.13 0 0 1 95.35 62.54A130.71 130.71 0 0 0 500 551.42a130.61 130.61 0 0 0-95.35-73.19A104.14 104.14 0 0 1 500 415.69M278 606.48a104.17 104.17 0 0 1 92.87-103.42 129.57 129.57 0 0 0 41.43 112.86 130.49 130.49 0 0 0-99.87 67.67A103.68 103.68 0 0 1 278 606.48m45.09 138.82a103.4 103.4 0 0 1 2.27-21.56 130 130 0 0 0 119.52-3.27A129.64 129.64 0 0 0 479.45 835a103.83 103.83 0 0 1-156.36-89.7m353.82-.87a103.85 103.85 0 0 1-155.32 90.35 129.67 129.67 0 0 0 33.34-114.41 129.92 129.92 0 0 0 119.87 3.27 103.4 103.4 0 0 1 2.11 20.79m-88.42-129.28a129.9 129.9 0 0 0 41.75-95.45 133 133 0 0 0-1.09-16.64 103.83 103.83 0 0 1 58.7 180.26 130.5 130.5 0 0 0-99.36-68.17"/></svg>
