<svg xmlns="http://www.w3.org/2000/svg" viewBox="0 0 1000 1000"><path d="M142.7 288.14c34.21 0 49.08-18.15 49.08-46.1v-29.73c0-18.44-8-30.34-25-34.2 14-4.46 23.19-15.77 23.19-32.71v-17.55c0-28.55-13.68-46.09-44.9-46.09-35.1 0-47.3 20.8-47.3 50.55v17.84h30.93v-20.52c0-12.49 3.88-19.62 14.58-19.62s14.56 7.13 14.56 18.13v21.71c0 10.71-7.13 16.35-18.12 16.35h-12.8v25.89h14.28c11.89 0 16.64 5.64 16.64 16.35v33.31c0 10.7-4.75 18.15-15.16 18.15-11.59 0-15.76-7.75-15.76-19.64v-28.84H96v26.46c0 30.64 12.18 50.26 46.67 50.26M835.26 625c0-28.14-18-51-45.4-51-13.67 0-30.17 15-39.13 24.19-9-9.23-24.36-24.21-38-24.21-27.34 0-46.51 22.81-46.51 51a51.5 51.5 0 0 0 14.51 36l70.1 70.23 70-70.15-.06-.05A51.55 51.55 0 0 0 835.26 625" class="cls-2" data-name="&lt;Path&gt;"/><g data-name="&lt;Group&gt;"><path d="M536.81 845.88h-.72a11.48 11.48 0 0 1-10.63-9.54l-35.61-207.41-53.94 100a11.51 11.51 0 0 1-21.52-3.83l-22.9-160.05-41.89 94.1a11.54 11.54 0 0 1-10.52 6.85H176.25a11.52 11.52 0 0 1 0-23H331.6l55.11-123.77a11.51 11.51 0 0 1 21.91 3l23.61 165 53.19-98.63a11.52 11.52 0 0 1 21.48 3.52l33 192.07L660.05 385a11.52 11.52 0 0 1 21.4-1.68l63.23 131.09a11.51 11.51 0 1 1-20.73 10L673.57 420 547.82 837.68a11.5 11.5 0 0 1-11.01 8.2" class="cls-2" data-name="&lt;Path&gt;"/></g><g data-name="&lt;Group&gt;"><path d="M306.23 121.79h19.54v43.65h-9.89v-8.93c-1.81 6.15-5.67 9.89-13.14 9.89-11.82 0-17.24-9.4-17.24-22.06v-39.55c0-12.78 6.15-22.06 20.61-22.06 15.19 0 19.66 8.44 19.66 20.5v7.23h-12.54v-8.32c0-5.06-1.93-8-6.87-8s-7.12 3.5-7.12 8.44v43.89c0 4.94 2.05 8.44 6.75 8.44 4.46 0 6.76-2.53 6.76-7.84v-14.43h-6.52ZM334.8 144.34v-39.55c0-12.78 6.27-22.06 20.74-22.06S376.4 92 376.4 104.79v39.55c0 12.66-6.27 22.06-20.86 22.06s-20.74-9.4-20.74-22.06m27.85 2.17v-43.89c0-4.94-2.17-8.44-7.11-8.44s-7 3.5-7 8.44v43.89c0 4.94 2.17 8.44 7 8.44s7.11-3.5 7.11-8.44M385.44 144.34v-39.55c0-12.78 6.27-22.06 20.74-22.06S427 92 427 104.79v39.55c0 12.66-6.27 22.06-20.85 22.06s-20.71-9.4-20.71-22.06m27.85 2.17v-43.89c0-4.94-2.17-8.44-7.11-8.44s-7 3.5-7 8.44v43.89c0 4.94 2.17 8.44 7 8.44s7.11-3.5 7.11-8.44M477.18 105.64v37.85c0 12.54-5.18 21.95-19.89 21.95h-21.22V83.7h21.22c14.71 0 19.89 9.3 19.89 21.94m-21.58 48.58c5.67 0 7.84-3.37 7.84-8.32v-42.79c0-4.83-2.17-8.2-7.84-8.2h-5.78v59.31ZM531.92 129.39h-13.26v36.05h-13.75V83.7h13.75v34.6h13.26V83.7h13.86v81.74h-13.86ZM554.82 83.7h32.8v11.21h-19v23.39h13.62v11.09h-13.67v24.83h19v11.22h-32.8ZM594 165.44l15.44-81.74h15.67l15.55 81.74h-14.11L624 150.49h-14.56L607 165.44Zm17.24-25.92h11l-5.42-32.8h-.12ZM647.53 83.7h13.74v70.52h16.4v11.22h-30.14ZM675.74 83.7h36.53v11.21h-11.33v70.53h-13.87V94.91h-11.33ZM746.87 129.39h-13.26v36.05h-13.74V83.7h13.74v34.6h13.26V83.7h13.86v81.74h-13.86Z" class="cls-2" data-name="&lt;Compound Path&gt;"/></g><g data-name="&lt;Group&gt;"><path d="m283.43 285.29 15.43-81.74h15.67l15.55 81.74H316l-2.53-15h-14.61l-2.41 15Zm17.24-25.92h11l-5.43-32.79h-.12ZM348.53 233.93v51.36H337v-81.74h13.51l14.82 46.9v-46.9h11.46v81.74h-12.11ZM426.89 225.5v37.85c0 12.54-5.18 21.94-19.89 21.94h-21.22v-81.74H407c14.71 0 19.89 9.29 19.89 21.95m-21.58 48.58c5.67 0 7.84-3.37 7.84-8.32V223c0-4.82-2.17-8.19-7.84-8.19h-5.79v59.31ZM479.45 234.78l-7.71 50.51h-12.9l-11-81.74h13.26l6.39 51.84h.12l6.87-51.84h11.21l7.6 51.84h.12l6.27-51.84h11.57l-10.61 81.74h-13l-8.08-50.51ZM518.39 203.55h32.79v11.22h-19v23.38h13.62v11.1h-13.66v24.83h19v11.21h-32.75ZM559.74 203.55h13.75v70.53h16.39v11.21h-30.14ZM597.36 203.55h13.74v70.53h16.4v11.21h-30.14ZM625.69 237H645v11h-19.31ZM653.18 203.55h19.89c13.74 0 18.32 6.39 18.32 18v8.32c0 6.87-2.53 11.21-8.19 13 6.87 1.56 10.24 6.14 10.24 13.62v10.85c0 11.57-5.18 18-18.92 18h-21.34ZM666.92 238h4.82c4.46 0 6.51-2.29 6.51-6.63v-10c0-4.46-2-6.63-6.63-6.63h-4.7Zm0 10.49v25.56h6c4.58 0 6.75-2.29 6.75-6.63v-12.3c0-4.34-2.05-6.63-6.87-6.63ZM701.52 203.55h32.79v11.22h-19v23.38h13.63v11.1h-13.68v24.83h19v11.21h-32.74ZM742.87 203.55h13.74v81.74h-13.74ZM777.35 233.93v51.36h-11.57v-81.74h13.5l14.83 46.9v-46.9h11.45v81.74h-12ZM835.34 241.65h19.53v43.64H845v-8.92c-1.81 6.15-5.66 9.89-13.14 9.89-11.81 0-17.24-9.41-17.24-22.07v-39.54c0-12.78 6.15-22.06 20.62-22.06 15.19 0 19.65 8.44 19.65 20.49v7.24h-12.56V222c0-5.06-1.93-8-6.87-8s-7.12 3.5-7.12 8.44v43.89c0 4.94 2 8.43 6.76 8.43 4.46 0 6.75-2.53 6.75-7.83V252.5h-6.51Z" class="cls-2" data-name="&lt;Compound Path&gt;"/></g></svg>