<svg xmlns="http://www.w3.org/2000/svg" viewBox="0 0 1000 1000"><path d="M302.77 166.41c7.49 0 11.35-3.74 13.15-9.88v8.91h9.88v-43.65h-19.52v10.85h6.51v14.48c0 5.3-2.3 7.83-6.76 7.83-4.7 0-6.75-3.5-6.75-8.44V102.6c0-4.92 2.17-8.43 7.12-8.43s6.87 2.89 6.87 8v8.32h12.53v-7.24c0-12.06-4.46-20.51-19.64-20.51-14.47 0-20.61 9.29-20.61 22.07v39.56c0 12.66 5.41 22.07 17.22 22.07M367.63 154.23h-19.04v-24.85h13.63v-11.1h-13.63V94.9h19.04V83.67h-32.78v81.78h32.78zM387.78 114.07l16.14 51.38h12.06V83.67h-11.44v46.92L389.7 83.67h-13.49v81.78h11.57zM466.13 143.49v-37.86c0-12.66-5.18-22-19.89-22H425v81.78h21.2c14.71 0 19.89-9.41 19.89-22m-27.35 10.74V94.89h5.79c5.66 0 7.82 3.38 7.82 8.2v42.82c0 4.94-2.16 8.32-7.82 8.32ZM507.97 154.23h-19.03v-24.85h13.62v-11.1h-13.62V94.9h19.03V83.67h-32.78v81.78h32.78zM530.17 127.93 543 165.45h14.47l-13.09-37.15c7.83-1.81 11-7 11-15.8V102c0-11.46-5.06-18.34-18.92-18.34h-20v81.78h13.75Zm0-33h4.56c4.71 0 6.75 2.16 6.75 6.62v12c0 4.36-2 6.76-6.75 6.76h-4.56ZM318.33 274.11h-19.04v-24.84h13.62v-11.09h-13.62v-23.4h19.04v-11.22h-32.78v81.77h32.78zM342.46 285.32v5.56l25.9 4.82v-10.25l-10.12-1.94c7-3.37 10.12-10.36 10.12-19.29v-39.56c0-12.78-6.26-22.07-20.85-22.07s-20.72 9.29-20.72 22.07v39.56c0 11.1 4.7 19.18 15.67 21.1m-1.94-62.82c0-4.94 2.17-8.45 7-8.45s7.11 3.51 7.11 8.45v44.63c0 4.82-2.16 8.43-7.11 8.43s-7-3.61-7-8.43ZM377.29 203.56v61.87c0 12.66 6 20.86 20.49 20.86 14 0 19.41-8.2 19.41-20.86v-61.87h-12.65v63.19c0 4.83-1.93 8.08-6.76 8.08s-6.75-3.25-6.75-8.08v-63.19ZM439.38 270.37H454l2.53 15h14.1l-15.55-81.77h-15.7L424 285.33h13Zm7.22-43.77h.14l5.41 32.8h-11ZM477.36 203.56v81.77h30.13v-11.21h-16.38v-70.56zM514.85 203.56h13.75v81.77h-13.75zM561.26 285.33v-70.55h11.32v-11.21h-36.5v11.21h11.32v70.55zM593.08 285.33h13.75v-31.11L622 203.57h-13.12l-8.32 30.98h-.12l-8.31-30.98h-14.35l15.3 50.65zM159.44 147.64c-13.38 0-23.19 4.75-28.55 14h-.3v-50.28h58.29V83.7h-89.2v113.61h30.91v-4.48c0-11.89 5.36-18.44 14.87-18.44 10.41 0 14.59 7.15 14.59 18.16v48.77c0 10.71-3.88 18.13-14.29 18.13-11.6 0-15.75-7.73-15.75-19.61v-25.29H99.06v22.9c0 30.63 12.2 50.26 46.7 50.26 34.2 0 48.17-18.14 48.17-46.1v-49.36c0-31.82-16.35-44.61-34.49-44.61M728.35 378.38H604.07a1.6 1.6 0 0 0-1.58 1.59v41.29a1.59 1.59 0 0 0 1.58 1.59h49.48l-54.95 55a161.9 161.9 0 0 0-100.35-34.76c-89.75 0-162.78 73-162.78 162.78 0 82.64 61.91 151 141.77 161.37v47.59h-49a1.57 1.57 0 0 0-1.6 1.57v44.27a1.57 1.57 0 0 0 1.6 1.58h49V909a1.57 1.57 0 0 0 1.58 1.58h44.24a1.59 1.59 0 0 0 1.6-1.58v-46.79h49a1.57 1.57 0 0 0 1.57-1.58v-44.27a1.57 1.57 0 0 0-1.57-1.57h-49v-48.36C601.89 753.76 661 686.59 661 605.83a161.84 161.84 0 0 0-29.73-93.62L685.45 458v46.22a1.6 1.6 0 0 0 1.61 1.58h41.29a1.6 1.6 0 0 0 1.61-1.58V380a1.6 1.6 0 0 0-1.61-1.59m-230.1 347.24a119.82 119.82 0 1 1 119.82-119.82 119.94 119.94 0 0 1-119.82 119.82" class="cls-2"/><path d="M572.65 556.65H427.32a1.52 1.52 0 0 0-1.58 1.42v35.18a1.5 1.5 0 0 0 1.58 1.44h145.33a1.51 1.51 0 0 0 1.61-1.44v-35.18a1.53 1.53 0 0 0-1.61-1.42M572.65 619.47H427.32a1.54 1.54 0 0 0-1.58 1.47v35.18a1.5 1.5 0 0 0 1.58 1.42h145.33a1.51 1.51 0 0 0 1.61-1.42v-35.18a1.55 1.55 0 0 0-1.61-1.47" class="cls-2"/></svg>