<svg xmlns="http://www.w3.org/2000/svg" viewBox="0 0 1000 1000" fill="#fcc30b"><path d="M102.57 111.45h52.35L109.7 285.42h33.62l44.31-170.4V83.79h-85.06z" class="cls-2" data-name="&lt;Path&gt;"/><path d="M500 484.49a146.58 146.58 0 1 0 146.52 146.57A146.56 146.56 0 0 0 500 484.49m-10.85 57.9c0-4.87 4.89-10.25 10.91-10.25s10.85 5.38 10.85 10.25v50.33c0 4.85-4.85 10.17-10.85 10.17s-10.91-5.32-10.91-10.17ZM500 706.16a76.24 76.24 0 0 1-22.65-149v28.39a49.89 49.89 0 1 0 45.18-.07v-28.39A76.24 76.24 0 0 1 500 706.16" class="cls-2" data-name="&lt;Compound Path&gt;"/><path d="M331.73 629.78c0-6.65-5.89-12-11.26-12h-64.19c-5.41 0-11.35 5.38-11.35 12s5.94 12.07 11.35 12.07h64.19c5.37 0 11.26-5.41 11.26-12.07M755.07 629.78c0-6.65-5.89-12-11.26-12h-64.18c-5.41 0-11.35 5.38-11.35 12s5.94 12.07 11.35 12.07h64.18c5.37 0 11.26-5.41 11.26-12.07M500 461.53c6.63 0 12-5.89 12-11.26v-64.19c0-5.41-5.39-11.35-12-11.35s-12.09 5.94-12.09 11.35v64.19c0 5.37 5.43 11.26 12.09 11.26M500 884.86c6.63 0 12-5.89 12-11.26v-64.18c0-5.4-5.39-11.35-12-11.35s-12.09 5.95-12.09 11.35v64.18c0 5.37 5.43 11.26 12.09 11.26M354 546.19c3.31-5.77.88-13.36-3.8-16l-55.7-31.88c-4.7-2.69-12.52-1-15.83 4.8s-.83 13.43 3.86 16.12l55.71 31.88c4.66 2.67 12.46.9 15.76-4.89M721.39 756.47c3.29-5.75.86-13.36-3.8-16l-55.7-31.88c-4.7-2.68-12.53-1-15.83 4.81s-.84 13.43 3.85 16.11l55.71 31.88c4.66 2.67 12.46.9 15.77-4.89M583.61 483.77c5.76 3.29 13.35.86 16-3.8l31.87-55.71c2.7-4.7 1-12.53-4.79-15.83s-13.44-.84-16.12 3.86L578.72 468c-2.67 4.67-.9 12.47 4.89 15.78M373.33 851.19c5.76 3.29 13.35.86 16-3.81l31.87-55.7c2.69-4.69 1-12.53-4.8-15.83s-13.4-.85-16.08 3.86l-31.88 55.7c-2.67 4.66-.9 12.47 4.89 15.78M416.14 483.91c5.75-3.31 7.49-11.1 4.81-15.76l-32-55.64c-2.7-4.69-10.32-7.15-16.08-3.84s-7.51 11.17-4.8 15.86l32 55.63c2.69 4.66 10.3 7.07 16.09 3.75M627.17 850.9c5.76-3.31 7.49-11.1 4.82-15.75l-32-55.64c-2.7-4.7-10.32-7.16-16.09-3.85s-7.51 11.17-4.79 15.87l32 55.63c2.68 4.66 10.3 7.06 16.08 3.74M645.89 545.93c3.31 5.76 11.09 7.49 15.75 4.82l55.63-32c4.7-2.7 7.18-10.33 3.86-16.09s-11.16-7.5-15.86-4.8l-55.63 32c-4.67 2.68-7.07 10.31-3.75 16.08M278.9 757c3.31 5.76 11.09 7.49 15.76 4.81l55.63-32c4.69-2.7 7.17-10.33 3.84-16.09s-11.16-7.5-15.85-4.81l-55.63 32c-4.67 2.67-7.07 10.31-3.75 16.08" class="cls-2" data-name="&lt;Path&gt;"/><g data-name="&lt;Group&gt;"><path d="m283.48 165.4 15.43-81.73h15.68l15.55 81.73H316l-2.53-14.94h-14.56l-2.41 14.94Zm17.24-25.92h11l-5.42-32.79h-.12ZM335.2 83.67h32.19v11.21h-18.45v23.39h13.75v11.09h-13.75v36H335.2ZM372.81 83.67H405v11.21h-18.45v23.39h13.75v11.09h-13.75v36h-13.74ZM409.22 144.31v-39.55c0-12.76 6.27-22.06 20.78-22.06s20.86 9.28 20.86 22.06v39.55c0 12.66-6.27 22.06-20.86 22.06s-20.78-9.37-20.78-22.06m27.85 2.17v-43.89c0-4.94-2.17-8.44-7.12-8.44s-7 3.5-7 8.44v43.89c0 4.94 2.17 8.44 7 8.44s7.12-3.5 7.12-8.44M471.78 127.91v37.49H458V83.67h20c13.92 0 19 6.87 19 18.33v10.49c0 8.8-3.13 14-11 15.79l13.14 37.13h-14.46Zm0-33v25.43h4.58c4.71 0 6.76-2.41 6.76-6.75v-12c0-4.46-2.05-6.63-6.76-6.63ZM545 105.61v37.85c0 12.54-5.18 21.94-19.89 21.94h-21.26V83.67h21.22c14.71 0 19.93 9.33 19.93 21.94m-21.58 48.58c5.67 0 7.84-3.37 7.84-8.32v-42.8c0-4.82-2.17-8.19-7.84-8.19h-5.79v59.31ZM548.21 165.4l15.43-81.73h15.68l15.55 81.73h-14.11l-2.53-14.94h-14.59l-2.41 14.94Zm17.24-25.92h11L571 106.69h-.12ZM599.93 83.67h19.89c13.75 0 18.33 6.38 18.33 18V110c0 6.87-2.54 11.21-8.2 13 6.87 1.56 10.25 6.15 10.25 13.62v10.85c0 11.57-5.19 18-18.93 18h-21.34Zm13.74 34.48h4.83c4.46 0 6.51-2.3 6.51-6.64v-10c0-4.46-2-6.63-6.63-6.63h-4.71Zm0 10.48v25.56h6c4.58 0 6.75-2.29 6.75-6.63v-12.3c0-4.34-2.05-6.63-6.87-6.63ZM646.46 83.67h13.75v70.52h16.39v11.21h-30.14ZM682.26 83.67h32.8v11.21H696v23.39h13.62v11.09H696v24.83h19v11.21h-32.8ZM731.69 165.4l15.43-81.73h15.67l15.56 81.73h-14.11l-2.53-14.94h-14.59l-2.41 14.94Zm17.24-25.92h11l-5.42-32.79h-.13ZM795 114.05v51.35h-11.59V83.67h13.5l14.83 46.89V83.67h11.45v81.73h-12.05ZM871.53 105.61v37.85c0 12.54-5.18 21.94-19.89 21.94h-21.22V83.67h21.22c14.71 0 19.89 9.33 19.89 21.94M850 154.19c5.67 0 7.84-3.37 7.84-8.32v-42.8c0-4.82-2.17-8.19-7.84-8.19h-5.78v59.31Z" class="cls-2" data-name="&lt;Compound Path&gt;"/></g><g data-name="&lt;Group&gt;"><path d="M285.54 264.33V225c0-12.71 6-22 20.39-22 15.11 0 19.31 8.4 19.31 20.39V233h-12.48v-10.65c0-5-1.68-7.91-6.59-7.91s-7 3.47-7 8.39v43.66c0 4.92 2 8.39 7 8.39s6.59-3.12 6.59-7.91V252h12.48v14c0 11.63-4.8 20.27-19.31 20.27s-20.39-9.35-20.39-21.94M333.87 204h13.67v70.16h16.31v11.16h-30ZM371.29 204h32.62v11.16H385v23.26h13.55v11H385v24.7h19v11.16h-32.71ZM410.27 285.32 425.62 204h15.59l15.47 81.32h-14l-2.52-14.87h-14.54l-2.4 14.87Zm17.15-25.79h10.91l-5.4-32.62h-.12ZM475 234.23v51.09h-11.49V204H477l14.75 46.66V204h11.39v81.32h-12ZM539.67 204h32.62v11.16h-18.95v23.26h13.55v11h-13.55v24.7h18.95v11.16h-32.62ZM592 234.23v51.09h-11.55V204h13.43l14.75 46.66V204H620v81.32h-12ZM628.9 204h32.62v11.16h-18.95v23.26h13.55v11h-13.55v24.7h18.95v11.16H628.9ZM683.47 248v37.3h-13.68V204h19.91c13.8 0 18.83 6.84 18.83 18.23v10.44c0 8.75-3.12 13.91-10.91 15.71l13.07 36.94H696.3Zm0-32.86v25.3H688c4.68 0 6.72-2.4 6.72-6.71v-12c0-4.44-2-6.59-6.72-6.59ZM737.79 241.9h19.43v43.42h-9.83v-8.88c-1.8 6.12-5.64 9.84-13.07 9.84-11.76 0-17.15-9.36-17.15-21.95V225c0-12.71 6.11-22 20.5-22 15.12 0 19.55 8.4 19.55 20.39v7.2h-12.47v-8.28c0-5-1.92-7.91-6.83-7.91s-7.08 3.47-7.08 8.39v43.66c0 4.92 2 8.39 6.71 8.39 4.44 0 6.72-2.52 6.72-7.79V252.7h-6.48ZM792.6 254.37v30.95h-13.67v-30.95L763.7 204H778l8.28 30.83h.12l8.24-30.83h13.07Z" class="cls-2" data-name="&lt;Compound Path&gt;"/></g></svg>
