<svg xmlns="http://www.w3.org/2000/svg" viewBox="0 0 1000 1000" fill="#fd9d24"><path d="M183.15 134.53c0-31.22-13.68-53.8-49.34-53.8-36 0-49.94 19.61-49.94 50.82v29.73c0 33 13.07 49.64 37.46 49.64 14.27 0 22.88-6.55 27.93-16.34h.29V238c0 12.19-4.75 20.81-16.93 20.81S116 251.64 116 239.15v-13.37H85.05v10.71c0 29.71 10.71 50.52 48.17 50.52 35.65 0 49.93-22.89 49.93-54.4Zm-33.6 30.91c-.59 11.29-5.34 18.42-16 18.42-11.58 0-16-7.13-16-20.21v-35.07c0-12.78 4.74-20.21 16.35-20.21 11.29 0 15.74 7.72 15.74 20.21ZM749.88 657.28 631 588.67V451.42a8.1 8.1 0 0 0-4-7l-122.9-71a8.1 8.1 0 0 0-8.11 0L373 444.4a8.1 8.1 0 0 0-4 7v137.27l-118.88 68.61a8.11 8.11 0 0 0-4.06 7v142a8.12 8.12 0 0 0 4.06 7l122.91 71a8.15 8.15 0 0 0 8.11 0L500 815.61l118.84 68.61a8.15 8.15 0 0 0 8.11 0l122.93-71a8.12 8.12 0 0 0 4.06-7v-142a8.09 8.09 0 0 0-4.06-6.94m-258 134.92-98.58-56.93 98.59-56.92Zm114.8-198.84-98.58 56.89V536.43Zm-114.79 56.9-98.58-56.91 98.58-56.92Zm24.33 14 106.68-61.54 106.71 61.58-106.71 61.61Zm98.57-85-98.57-56.93 98.57-56.91Zm-131-56.93-98.59 56.93V465.47ZM369 863.15l-106.7-61.59V678.35L369 740Zm16.21 0V749.32l98.59 56.93Zm352.53-61.59L631 863.15V740l106.72-61.61Z" class="cls-2" data-name="&lt;Compound Path&gt;"/><g data-name="&lt;Group&gt;"><path d="M236.07 85.38h13.1v78h-13.1ZM266.07 114.35v49H255v-78h12.87l14.14 44.72V85.38H293v78h-11.52ZM337.92 106.31v36.09c0 12-4.94 20.93-19 20.93h-20.2v-78H319c14 .05 18.92 8.91 18.92 20.98m-20.58 46.33c5.41 0 7.48-3.22 7.48-7.94v-40.81c0-4.6-2.07-7.81-7.48-7.81h-5.51v56.56ZM381.72 85.38v59c0 12.07-5.17 19.89-18.51 19.89-13.79 0-19.54-7.82-19.54-19.89v-59h13.11v60.24c0 4.6 1.83 7.71 6.43 7.71s6.44-3.11 6.44-7.71V85.38ZM386.78 146.54v-10.46H399v10.69c0 4.37 1.95 6.9 6.43 6.9 4.14 0 6-2.76 6-6.9v-3c0-4.48-1.84-7.24-5.86-11l-7.7-7.71c-7.48-7.35-10.93-11.84-10.93-20.8v-2.65c0-9.65 5.64-17.13 18.4-17.13 13.1 0 18.28 6.44 18.28 17.71v6.32h-12v-6.78c0-4.49-2.07-6.67-6.21-6.67-3.68 0-6.2 2.07-6.2 6.44v1.61c0 4.37 2.41 6.9 6.2 10.57l8.4 8.28c7.12 7.24 10.57 11.61 10.57 20.23V146c0 10.69-5.75 18.28-19.08 18.28s-18.52-7.51-18.52-17.74M425.18 85.38H460v10.7h-10.8v67.25H436V96.08h-10.8ZM477.48 127.57v35.76h-13.1v-78h19.08c13.22 0 18.05 6.56 18.05 17.48v10c0 8.39-3 13.33-10.46 15.06l12.53 35.41h-13.8Zm0-31.49v24.25h4.37c4.48 0 6.44-2.3 6.44-6.44V102.4c0-4.26-2-6.32-6.44-6.32ZM529.56 133.67v29.66h-13.11v-29.66l-14.6-48.29h13.68l7.94 29.55h.11l7.93-29.55H544ZM555.31 151.83l-6.67 17.59h-7.35l1.6-18.62h12.42ZM571.41 85.38h13.1v78h-13.1ZM601.41 114.35v49h-11v-78h12.88l14.14 44.72V85.38h10.92v78h-11.5ZM645.09 114.35v49h-11v-78h12.87l14.14 44.72V85.38H672v78h-11.5ZM677.74 143.21V105.5c0-12.18 6-21 19.77-21s19.89 8.86 19.89 21v37.71c0 12.07-6 21-19.89 21s-19.77-8.93-19.77-21m26.56 2.07v-41.85c0-4.71-2.07-8-6.79-8s-6.66 3.33-6.66 8v41.85c0 4.71 2.07 8.05 6.66 8.05s6.79-3.33 6.79-8.05M765.11 85.38l-14.83 78H736l-14.82-78h13.33l9 54.38h.11l9.2-54.38ZM761 163.33l14.71-78h15l14.83 78H792l-2.42-14.26h-13.9l-2.29 14.26Zm16.44-24.72h10.46l-5.17-31.27h-.12ZM801.9 85.38h34.83v10.7h-10.81v67.25H812.7V96.08h-10.8ZM841.1 85.38h13.1v78h-13.1ZM860.06 143.21V105.5c0-12.18 6-21 19.78-21s19.88 8.86 19.88 21v37.71c0 12.07-6 21-19.88 21s-19.78-8.93-19.78-21m26.56 2.07v-41.85c0-4.71-2.07-8-6.78-8s-6.67 3.33-6.67 8v41.85c0 4.71 2.07 8.05 6.67 8.05s6.78-3.33 6.78-8.05M916.51 114.35v49h-11v-78h12.88l14.14 44.72V85.38h10.92v78h-11.5Z" class="cls-2" data-name="&lt;Compound Path&gt;"/></g><g data-name="&lt;Group&gt;"><path d="m234 283.44 14.71-77.94h14.89l14.83 77.94H265l-2.41-14.25h-13.93l-2.3 14.25Zm16.43-24.71h10.47l-5.18-31.27h-.11ZM294.3 234.47v49h-11V205.5h12.88l14.14 44.72V205.5h10.88v77.94h-11.5ZM367.3 226.42v36.1c0 12-4.95 20.92-19 20.92h-20.2V205.5h20.23c14.02 0 18.97 8.85 18.97 20.92m-20.58 46.33c5.4 0 7.47-3.22 7.47-7.93V224c0-4.6-2.07-7.82-7.47-7.82h-5.52v56.56ZM385.69 205.5h13.11v77.94h-13.11ZM416.84 234.47v49h-11V205.5h12.87l14.14 44.72V205.5h10.92v77.94h-11.52ZM450.64 205.5h30.7v10.69h-17.59v22.31h13.1v10.57h-13.1v34.37h-13.11ZM499.61 247.69v35.75h-13.1V205.5h19.08c13.22 0 18.05 6.55 18.05 17.48v10c0 8.39-3 13.33-10.46 15.06l12.53 35.4h-13.8Zm0-31.5v24.26H504c4.48 0 6.44-2.3 6.44-6.44v-11.49c0-4.26-2-6.33-6.44-6.33ZM528.12 283.44l14.72-77.94h14.94l14.83 77.94h-13.45l-2.41-14.25h-13.91l-2.3 14.25Zm16.44-24.71H555l-5.17-31.27h-.11ZM575.6 266.66V256.2h12.19v10.69c0 4.37 2 6.9 6.43 6.9 4.14 0 6-2.76 6-6.9v-3c0-4.48-1.84-7.24-5.86-11l-7.7-7.71c-7.47-7.35-10.92-11.84-10.92-20.81v-2.64c0-9.66 5.63-17.13 18.39-17.13 13.1 0 18.28 6.44 18.28 17.71v6.32h-12v-6.78c0-4.49-2.07-6.67-6.21-6.67-3.68 0-6.2 2.07-6.2 6.44v1.61c0 4.36 2.41 6.89 6.2 10.57l8.4 8.28c7.12 7.24 10.57 11.61 10.57 20.23v3.8c0 10.69-5.75 18.27-19.08 18.27s-18.49-7.49-18.49-17.72M616.3 205.5h34.83v10.69h-10.81v67.25H627.1v-67.25h-10.8ZM669.75 247.69v35.75h-13.1V205.5h19.08c13.22 0 18 6.55 18 17.48v10c0 8.39-3 13.33-10.46 15.06l12.53 35.4H682Zm0-31.5v24.26h4.37c4.48 0 6.44-2.3 6.44-6.44v-11.49c0-4.26-2-6.33-6.44-6.33ZM738.38 205.5v59c0 12.07-5.17 19.88-18.51 19.88-13.79 0-19.54-7.81-19.54-19.88v-59h13.11v60.24c0 4.6 1.84 7.7 6.43 7.7s6.44-3.1 6.44-7.7V205.5ZM745.28 263.33v-37.71c0-12.19 5.75-21 19.54-21 14.49 0 18.51 8 18.51 19.54v9.2h-12v-10.27c0-4.83-1.61-7.59-6.33-7.59s-6.66 3.34-6.66 8.05v41.85c0 4.71 2 8 6.66 8s6.33-3 6.33-7.58v-14.33h12v13.45c0 11.15-4.6 19.42-18.51 19.42s-19.54-8.96-19.54-21.03M785.52 205.5h34.83v10.69h-10.81v67.25h-13.22v-67.25h-10.8ZM863.92 205.5v59c0 12.07-5.17 19.88-18.51 19.88-13.8 0-19.54-7.81-19.54-19.88v-59H839v60.24c0 4.6 1.84 7.7 6.44 7.7s6.44-3.1 6.44-7.7V205.5ZM883.92 247.69v35.75h-13.1V205.5h19.08c13.22 0 18.05 6.55 18.05 17.48v10c0 8.39-3 13.33-10.46 15.06l12.51 35.4h-13.8Zm0-31.5v24.26h4.37c4.48 0 6.44-2.3 6.44-6.44v-11.49c0-4.26-2-6.33-6.44-6.33ZM914.5 205.5h31.27v10.69h-18.16v22.31h13v10.57h-13v23.68h18.16v10.69H914.5Z" class="cls-2" data-name="&lt;Compound Path&gt;"/></g></svg>
