<?xml version="1.0" encoding="utf-8"?>
<!-- Generator: Adobe Illustrator 26.2.1, SVG Export Plug-In . SVG Version: 6.00 Build 0)  -->
<svg version="1.1" xmlns="http://www.w3.org/2000/svg" xmlns:xlink="http://www.w3.org/1999/xlink" x="0px" y="0px"
	 viewBox="0 0 1080 1080" style="enable-background:new 0 0 1080 1080;" xml:space="preserve">
<style type="text/css">
	.st0{fill:#FFFFFF;stroke:#A788BE;stroke-width:9.3075;stroke-miterlimit:10;}
	.st1{fill:#FFFFFF;stroke:#DC663C;stroke-width:9.3075;stroke-miterlimit:10;}
	.st2{fill:#FFFFFF;stroke:#009D85;stroke-width:9.3075;stroke-miterlimit:10;}
	.st3{fill:#FFFFFF;stroke:#FFC20E;stroke-width:9.3075;stroke-miterlimit:10;}
	.st4{fill:#FFFFFF;stroke:#4FC6E0;stroke-width:9.3075;stroke-miterlimit:10;}
	.st5{fill:none;}
	.st6{font-family:'HelveticaNeue-Bold';}
	.st7{font-size:27.9226px;}
	.st8{fill:#DC663C;}
	.st9{fill:#FFFFFF;}
	.st10{fill:#009D85;}
	.st11{fill:#A788BE;}
	.st12{fill:#4FC6E0;}
	.st13{fill:#FFC20E;}
	.st14{clip-path:url(#SVGID_00000018207673729264126950000001091046040779717301_);fill:#FFFFFF;}
	.st15{clip-path:url(#SVGID_00000103958585296741280080000008453447043686046626_);fill:#FFFFFF;}
</style>
<g id="Circles">
	<path class="st0" d="M352.39,541.28c37.04,80.42,1.87,175.65-78.55,212.69c-80.43,37.04-175.65,1.88-212.69-78.55
		s-1.87-175.65,78.55-212.69C220.12,425.69,315.35,460.86,352.39,541.28"/>
	<g>
		<path class="st1" d="M469.29,165.62c36.56,79.37,1.85,173.35-77.52,209.91c-79.37,36.56-173.35,1.85-209.91-77.52
			s-1.85-173.35,77.52-209.91C338.75,51.54,432.73,86.25,469.29,165.62"/>
	</g>
	<g>
		<path class="st2" d="M898.55,168.51c36.46,79.16,1.84,172.89-77.32,209.35c-79.16,36.46-172.89,1.84-209.35-77.32
			S610.04,127.66,689.2,91.2C768.36,54.74,862.09,89.35,898.55,168.51"/>
	</g>
	<g>
		<path class="st3" d="M685.13,788.04c37.04,80.42,1.87,175.65-78.55,212.69c-80.43,37.04-175.65,1.87-212.69-78.55
			s-1.87-175.65,78.55-212.69C552.86,672.45,648.08,707.62,685.13,788.04"/>
	</g>
	<path class="st4" d="M1017.33,540.69c36.84,79.98,1.87,174.67-78.11,211.51c-79.98,36.84-174.67,1.87-211.51-78.11
		c-36.84-79.98-1.87-174.68,78.11-211.51C885.8,425.74,980.5,460.71,1017.33,540.69"/>
</g>
<g id="Text">
	<rect x="57.38" y="656.8" class="st5" width="298.78" height="36.26"/>
	<text transform="matrix(1 0 0 1 126.3408 676.7383)" class="st6 st7">Governance</text>
	<rect x="723.13" y="654.94" class="st5" width="298.78" height="36.26"/>
	<text transform="matrix(1 0 0 1 799.3633 674.876)" class="st6 st7">Customers</text>
	<rect x="390.12" y="896.62" class="st5" width="298.78" height="36.26"/>
	<text transform="matrix(1 0 0 1 463.0132 916.5557)" class="st6 st7">Community</text>
	<rect x="176.19" y="266.28" class="st5" width="298.78" height="36.26"/>
	<text transform="matrix(1 0 0 1 269.481 286.2144)" class="st6 st7">Workers</text>
	<rect x="606.51" y="287.69" class="st5" width="298.78" height="36.26"/>
	<text transform="matrix(1 0 0 1 671.6152 307.6221)" class="st6 st7">Environment</text>
</g>
<g id="Icons">
	<g>
		<rect x="277.53" y="243.27" width="99.29" height="6.15"/>
		<path d="M277.98,248.98h98.4v-5.26h-98.4V248.98z M377.26,249.87H277.08v-7.04h100.18V249.87z"/>
		<g>
			<path d="M357.38,214.38c-0.68,0.48-1.12,1.23-1.12,2.07v0.16v11.96h1.12L357.38,214.38z M293.45,214.18v14.4h1.45v-12.13
				C294.9,215.48,294.31,214.63,293.45,214.18 M341.4,197.12h-15.99h-15.99c-6.55,0-12.21,3.68-14.66,8.92
				c5.01,1.12,8.77,5.26,8.87,10.21l0,0.21v12.11h1.46l0-16.52l0-0.2c0.01-2.18,1.95-3.95,4.33-3.95h15.99h15.99
				c2.37,0,4.31,1.77,4.32,3.93v16.74h1.79l0-12.26c0.08-4.89,3.71-8.98,8.58-10.2C353.67,200.84,347.99,197.12,341.4,197.12"/>
		</g>
		<path d="M294.9,228.57h-1.45v4.72h1.45V228.57z M305.09,228.57h-1.46v4.72h1.46V228.57z M357.37,228.57h-1.12v4.72h-8.73v-4.72
			h-1.79v4.72l11.65,0V228.57z"/>
		<g>
			<path d="M325.41,184.44c-5.07,0-9.05-4.34-9.05-9.87c0-5.54,3.97-9.87,9.05-9.87s9.05,4.33,9.05,9.87
				C334.46,180.11,330.49,184.44,325.41,184.44 M325.41,153.91c-11.6,0-20.69,9.08-20.69,20.66c0,11.59,9.09,20.66,20.69,20.66
				c11.6,0,20.69-9.07,20.69-20.66C346.1,162.99,337.02,153.91,325.41,153.91"/>
			<path class="st8" d="M381.94,205.75h-11.41h-11.41c-1.04,0-2.06,0.13-3.02,0.37c0.78,1.69,1.23,3.55,1.27,5.5l0,0.26l0,2.51
				c0.49-0.34,1.09-0.55,1.75-0.55h11.41h11.41c1.58,0,2.87,1.18,2.87,2.61v12.13h8.74l0-12.11l0-0.15
				C393.46,210.48,388.28,205.75,381.94,205.75"/>
		</g>
		<rect x="384.82" y="228.58" class="st9" width="8.73" height="4.72"/>
		<g>
			<path d="M356.1,206.12c-4.88,1.22-8.5,5.32-8.58,10.2v12.26h8.73v-11.96v-0.16c0-0.84,0.44-1.59,1.12-2.07v-2.51l0-0.26
				C357.33,209.67,356.89,207.81,356.1,206.12"/>
		</g>
		<rect x="347.52" y="228.57" width="8.73" height="4.72"/>
		<g>
			<path class="st8" d="M370.53,194.54c-3.5,0-6.25-3.01-6.25-6.85c0-3.84,2.74-6.84,6.25-6.84c3.5,0,6.24,3.01,6.24,6.84
				C376.78,191.53,374.04,194.54,370.53,194.54 M370.53,172.75c-8.4,0-14.98,6.56-14.98,14.93c0,8.38,6.58,14.94,14.98,14.94
				s14.98-6.56,14.98-14.94C385.51,179.32,378.93,172.75,370.53,172.75"/>
			<path class="st8" d="M292.03,205.75h-11.41h-11.41c-6.34,0-11.52,4.74-11.6,10.61l0,12.22h8.73v-12.01v-0.11
				c0.01-1.44,1.3-2.62,2.87-2.62h11.41h11.41c0.52,0,1,0.12,1.42,0.34v-2.5c0.03-2,0.49-3.9,1.31-5.63
				C293.88,205.85,292.97,205.75,292.03,205.75"/>
		</g>
		<path class="st9" d="M303.64,233.3h-8.73H303.64L303.64,233.3z M266.34,228.57h-8.73v4.72h8.73V228.57z"/>
		<g>
			<path d="M294.76,206.05c-0.81,1.73-1.27,3.64-1.31,5.63v2.5c0.86,0.45,1.45,1.3,1.45,2.26v12.13h8.74l0-12.11l-0.01-0.21
				C303.53,211.31,299.77,207.17,294.76,206.05"/>
		</g>
		<rect x="294.9" y="228.58" width="8.74" height="4.72"/>
		<g>
			<path class="st8" d="M280.62,194.54c-3.5,0-6.25-3.01-6.25-6.85c0-3.84,2.74-6.84,6.25-6.84s6.25,3.01,6.25,6.84
				C286.87,191.53,284.12,194.54,280.62,194.54 M280.62,172.75c-8.4,0-14.98,6.56-14.98,14.93c0,8.38,6.58,14.94,14.98,14.94
				c8.4,0,14.98-6.56,14.98-14.94C295.6,179.32,289.02,172.75,280.62,172.75"/>
		</g>
	</g>
	<g>
		<rect x="707.32" y="264.68" width="99.29" height="6.15"/>
		<path d="M707.76,270.38h98.4v-5.26h-98.4V270.38z M807.05,271.28H706.87v-7.04h100.18V271.28z"/>
		<g>
			<path class="st10" d="M792.27,219.35h-12.96c-0.53,2.51-1.17,4.91-1.91,7.19h10.17v0h11c0.3-0.49,0.59-0.98,0.87-1.48v0
				c3.48-6.16,5.67-13.12,6.21-20.52h-9.1C796.09,209.82,794.59,214.82,792.27,219.35"/>
			<path class="st10" d="M796.64,202.58c0.02-0.55,0.07-1.08,0.07-1.63c0-0.55-0.05-1.09-0.07-1.63c0.02,0.55,0.07,1.08,0.07,1.63
				C796.71,201.49,796.66,202.03,796.64,202.58 M778.56,179.38c0.26,1.04,0.52,2.08,0.75,3.16h0
				C779.09,181.46,778.83,180.42,778.56,179.38 M777.41,175.34h-7.74h0h-11.41v7.19h13.53c1.08,4.62,1.74,9.62,1.95,14.81h0h-8.97
				h-6.51v-14.81h-7.35v14.81h-15.48c0.21-5.2,0.87-10.19,1.95-14.81h13.54v0h7.35v-7.19h0v-15.45h0c0.11,0.01,0.21,0.02,0.31,0.03
				c0,0,0,0,0,0h0c3.23,1.64,6.34,5.21,8.91,10.33c0.8,1.6,1.53,3.3,2.19,5.09H777.41c-1.46-4.52-3.3-8.54-5.44-11.93
				c6.12,2.72,11.46,6.84,15.6,11.93H777.41c0.32,0.98,0.6,1.99,0.88,3.01C778.01,177.33,777.73,176.32,777.41,175.34
				 M730.67,179.14c0.34-1.3,0.7-2.56,1.09-3.79H721.6c4.14-5.09,9.48-9.21,15.61-11.94c-2.14,3.39-3.98,7.42-5.44,11.93h7.74
				c0.66-1.79,1.39-3.5,2.19-5.09c2.57-5.12,5.68-8.69,8.91-10.33h0c0,0,0,0,0,0c0.1-0.01,0.21-0.02,0.31-0.03v0v15.45v0H739.5v0
				h-7.74C731.37,176.57,731.01,177.84,730.67,179.14 M747.68,160.31c-3.67,0.6-7.19,1.64-10.47,3.1
				C740.49,161.95,744.01,160.91,747.68,160.31 M750.91,159.76v-7.61V159.76L750.91,159.76L750.91,159.76
				c-0.1,0.05-0.19,0.1-0.29,0.14C750.72,159.86,750.82,159.81,750.91,159.76 M758.26,159.77c0.06,0.03,0.12,0.06,0.18,0.09
				C758.39,159.83,758.32,159.8,758.26,159.77L758.26,159.77z M771.97,163.41C771.97,163.41,771.97,163.41,771.97,163.41
				c-3.25-1.44-6.71-2.48-10.34-3.08C765.25,160.93,768.72,161.97,771.97,163.41 M771.97,238.48
				C771.97,238.48,771.97,238.48,771.97,238.48c-2,0.89-4.08,1.62-6.23,2.2C767.89,240.1,769.97,239.37,771.97,238.48
				 M805.71,198.98c-0.02-0.54-0.02-1.09-0.06-1.63h-9.09H781.1h0c-0.19-5.22-0.81-10.2-1.79-14.81h12.96h7.17v0h-7.17
				c2.32,4.53,3.81,9.53,4.28,14.81h9.1c-0.54-7.4-2.73-14.35-6.21-20.52v0c-0.28-0.5-0.57-0.99-0.87-1.48
				c-8.35-13.68-23.18-23.16-40.31-24.35v0c-1.22-0.08-2.44-0.13-3.68-0.13c-1.24,0-2.46,0.04-3.68,0.13v0
				c-17.13,1.19-31.96,10.67-40.31,24.35c-0.3,0.49-0.59,0.98-0.87,1.48v0c-3.48,6.17-5.67,13.12-6.21,20.52h9.1
				c0.47-5.28,1.96-10.28,4.28-14.81h-7.17v0h7.17h12.96c-0.98,4.61-1.59,9.59-1.78,14.81h0h-15.45c-0.11,1.19-0.16,2.38-0.16,3.59
				c0,1.21,0.05,2.41,0.16,3.59h15.45h0c0.19,5.22,0.81,10.2,1.78,14.81h7.52c-1.08-4.62-1.74-9.62-1.95-14.81h15.48v6.37v6.23v2.21
				h-13.54h-7.52H716.9c0.37,0.72,0.81,1.4,1.22,2.1c-0.41-0.7-0.85-1.38-1.22-2.1c-2.32-4.53-3.81-9.53-4.28-14.81h-9.1
				c0.54,7.4,2.73,14.35,6.21,20.52c0.28,0.5,0.57,0.99,0.87,1.48h10.99c-0.41-0.5-0.76-1.05-1.14-1.57
				c0.38,0.52,0.74,1.07,1.15,1.57h10.17c-0.21-0.64-0.39-1.31-0.58-1.97c0.19,0.66,0.37,1.33,0.58,1.97h7.74
				c-0.47-1.27-0.89-2.61-1.28-3.97c0.39,1.36,0.81,2.7,1.28,3.97h11.41v0v15.45c-0.1-0.01-0.21-0.02-0.31-0.03
				c0.1,0.05,0.21,0.11,0.31,0.15v0v7.61c1.2,0.29,2.43,0.45,3.68,0.45c1.25,0,2.48-0.15,3.68-0.45c0.11-0.03,0.21-0.07,0.32-0.1
				c-0.11,0.03-0.21,0.07-0.32,0.1c-1.2,0.3-2.43,0.45-3.68,0.45c-1.25,0-2.48-0.15-3.68-0.45c-4.94-1.21-9.4-4.88-13.06-10.3
				c3.65,5.42,8.11,9.09,13.06,10.3v-7.61c-0.1-0.05-0.21-0.1-0.31-0.15c-4.73-0.44-9.25-1.64-13.4-3.49
				c4.15,1.85,8.66,3.05,13.4,3.49c-3.23-1.64-6.34-5.21-8.91-10.34c-0.8-1.6-1.53-3.3-2.19-5.09h-7.74
				c1.46,4.52,3.3,8.54,5.44,11.93c-6.12-2.72-11.47-6.84-15.61-11.93h-11c8.35,13.68,23.18,23.16,40.31,24.35v0
				c1.22,0.08,2.44,0.13,3.68,0.13c1.24,0,2.46-0.04,3.67-0.13v0c17.13-1.19,31.96-10.67,40.31-24.35h-11
				c-4.14,5.09-9.48,9.21-15.6,11.93c2.14-3.39,3.98-7.42,5.44-11.93h-7.74c-0.66,1.79-1.39,3.5-2.19,5.09
				c-2.57,5.12-5.68,8.69-8.91,10.34c2.37-0.22,4.68-0.63,6.92-1.22c-2.24,0.59-4.55,1-6.92,1.22c-0.1,0.05-0.21,0.1-0.31,0.15
				c0.11-0.05,0.21-0.1,0.31-0.15c-0.1,0.01-0.21,0.02-0.31,0.03v-15.45h0v-7.19h-7.35h7.35v-2.21v-6.23v-6.37h6.51h8.97h0
				c-0.21,5.2-0.87,10.2-1.95,14.81h7.52c0.98-4.61,1.59-9.59,1.79-14.81h0h15.45h9.09c0.04-0.54,0.04-1.09,0.06-1.63
				c0.03-0.65,0.07-1.3,0.07-1.96C805.78,200.28,805.73,199.63,805.71,198.98"/>
			<path class="st10" d="M712.62,197.35h-9.1c-0.09,1.19-0.13,2.39-0.13,3.59c0,1.21,0.04,2.41,0.13,3.59h9.1
				c-0.11-1.18-0.16-2.38-0.16-3.59C712.46,199.73,712.51,198.53,712.62,197.35"/>
			<path class="st10" d="M769.67,226.54L769.67,226.54h7.74c0.73-2.28,1.37-4.68,1.91-7.19h-7.52h-13.53v7.19H769.67z"/>
		</g>
	</g>
	<g>
		<polygon class="st11" points="250.2,621.39 165.58,621.39 165.58,513.66 227.36,513.66 227.36,521.62 173.54,521.62 
			173.54,613.44 242.24,613.44 242.24,535.89 250.2,535.89 		"/>
		<polygon class="st11" points="249.61,532.26 230.75,532.26 230.75,514 		"/>
		<path class="st11" d="M188.87,594.51v26.54l7.67-5.3l8.31,5.3v-20.93c0.3,5.07-15.68,6.01-15.98,0.94"/>
		<path class="st11" d="M188.87,601.99v26.54l7.67-5.3l8.31,5.3V607.6c0.3,5.07-15.68,6.01-15.98,0.94"/>
		<path class="st11" d="M196.6,578.63c-6.17,0-11.18,5.02-11.18,11.18c0,6.17,5.02,11.18,11.18,11.18c6.16,0,11.18-5.02,11.18-11.18
			C207.78,583.65,202.77,578.63,196.6,578.63 M196.6,606.24c-9.06,0-16.43-7.37-16.43-16.43c0-9.06,7.37-16.43,16.43-16.43
			s16.43,7.37,16.43,16.43C213.03,598.87,205.66,606.24,196.6,606.24"/>
		<rect x="182.07" y="537.72" class="st11" width="25.2" height="2.97"/>
		<rect x="214.13" y="572.59" class="st11" width="16.75" height="3.37"/>
		<rect x="182.07" y="546.12" class="st11" width="48.92" height="2.97"/>
		<rect x="182.07" y="555.02" class="st11" width="48.92" height="2.97"/>
		<rect x="182.07" y="563.42" class="st11" width="48.92" height="2.97"/>
		<rect x="157.13" y="635.79" width="99.29" height="6.15"/>
		<path d="M157.57,641.5h98.4v-5.26h-98.4V641.5z M256.86,642.39H156.68v-7.04h100.18V642.39z"/>
	</g>
	<g>
		<polygon class="st9" points="816.76,546.2 820.56,539.81 817.1,537.76 817.1,537.76 817.1,537.76 817.1,537.76 813.85,543.24 
			813.31,544.15 813.31,544.15 813.31,544.16 812.68,545.22 816.13,547.27 816.77,546.2 		"/>
		
			<rect x="818.53" y="536.24" transform="matrix(0.51 -0.8602 0.8602 0.51 -61.6274 968.3157)" class="st9" width="1.23" height="4.02"/>
		<g>
			<rect x="822.38" y="633.29" width="99.9" height="6.19"/>
			<path d="M822.82,639.03h99v-5.29h-99V639.03z M922.72,639.93h-100.8v-7.09h100.8V639.93z"/>
			<g>
				<path class="st12" d="M829.21,564.93h17.98c1.57,0,4.02-4.23,5.33-5.03c9.65-5.93,27.83,13.1,35.46,18.7
					c7.68,5.63,15.36,11.26,23.04,16.9c0,0-1.8,13.48-10.79,7.19c-8.99-6.29-17.98-12.59-17.98-12.59l-1.8,2.7l17.08,11.69
					c0,0,1.8,7.19-5.39,6.29c-7.19-0.9-18.43-9.44-18.43-9.44l-1.35,2.7l12.14,8.09c0,0-2.25,8.09-8.54,4.95
					c-6.29-3.15-59.78-35.96-59.78-35.96L829.21,564.93z"/>
				<path d="M904.72,560.89l-9.44,3.15L877.3,551.9c0,0-3.15-0.9-8.54,3.15c-5.39,4.04-21.13,18.88-21.13,18.88s3.15,9.44,12.58,2.7
					c9.44-6.74,11.69-8.99,11.69-8.99l31.46,22.02l18.88-13.03l-13.48-17.98L904.72,560.89z"/>
				<path d="M878.38,597.36c2.42,1.66,2.01,6.27-0.92,10.22l-4.51,6.09c-2.93,3.96-7.31,5.84-9.74,4.18
					c-2.42-1.66-2.01-6.27,0.93-10.22l4.5-6.09C871.58,597.58,875.96,595.69,878.38,597.36"/>
				<path d="M867.61,589.97c2.42,1.66,2.03,6.28-0.87,10.26l-6.98,9.58c-2.9,3.98-7.26,5.88-9.69,4.22
					c-2.42-1.66-2.03-6.28,0.87-10.26l6.98-9.58C860.83,590.21,865.19,588.31,867.61,589.97"/>
				<path d="M856.84,582.58c2.42,1.66,2.13,6.35-0.67,10.41l-7.99,11.66c-2.79,4.06-7.05,6.03-9.47,4.37
					c-2.42-1.66-2.13-6.35,0.66-10.41l8-11.66C850.15,582.88,854.42,580.92,856.84,582.58"/>
				<path class="st12" d="M835.91,550.58c-1.97,1.52-4.38,2.22-6.72,2C831.53,552.8,833.94,552.1,835.91,550.58 M798.49,577.02
					l-0.78,1.31l6.41,3.8l-6.41-3.8l-3.79,6.39l8.76,5.19l0.12,0.07c0.61,0.37,0.97,1.02,1.03,1.72l1.84,1.09l0.19,0.11
					c1.44,0.82,2.99,1.29,4.57,1.46c1.1-3.67,0.06-7.59-2.7-9.94c2.76,2.35,3.8,6.27,2.71,9.94c4.92,0.51,10.11-2.03,12.96-6.85
					l6.95-11.71l6.94-11.7c2.84-4.79,2.61-10.53-0.17-14.61c-0.91-1.35-2.11-2.51-3.55-3.4l-1.83-1.09c0,0,0,0,0,0l-10.54-6.25
					l-0.63,1.06l8.88,5.27c0.18,0.1,0.36,0.18,0.56,0.22c-0.19-0.05-0.38-0.12-0.56-0.22l-8.88-5.27l-3.79,6.39l-0.63,1.07
					l12.09,7.17l0.15,0.09c1.59,0.95,2.04,3.14,1.01,4.88l-6.94,11.71l-6.95,11.71c-1.03,1.74-3.17,2.39-4.75,1.46L798.49,577.02z"
					/>
				<path class="st12" d="M802.79,589.98l-0.12-0.07l-8.76-5.19l-0.49,0.82l10.39,6.16C803.76,591,803.4,590.35,802.79,589.98"/>
			</g>
			<polygon class="st9" points="797.71,578.33 798.49,577.02 795.03,574.97 789.97,583.49 793.43,585.54 793.92,584.72 			"/>
			<g>
				<path d="M929.72,587.56c-0.38-2.46,0.17-4.91,1.49-6.86C929.88,582.65,929.33,585.11,929.72,587.56 M924.59,542.03l-0.77-1.31
					l-6.42,3.78l6.42-3.78l-3.77-6.4l-8.77,5.17l-0.12,0.07c-0.62,0.36-1.36,0.36-2,0.07l-1.84,1.08l-0.19,0.12
					c-1.41,0.87-2.58,2-3.48,3.3c2.69,2.73,6.62,3.71,10.01,2.42c-3.39,1.29-7.33,0.31-10.01-2.42c-2.82,4.07-3.09,9.84-0.24,14.66
					l6.91,11.73l6.91,11.72c2.83,4.8,7.97,7.36,12.88,6.9c1.62-0.15,3.22-0.64,4.7-1.48l1.83-1.08v0l10.56-6.22l-0.63-1.06
					l-8.9,5.24c-0.18,0.11-0.33,0.23-0.46,0.38c0.13-0.15,0.29-0.27,0.46-0.38l8.9-5.24l-3.77-6.4l-0.63-1.07l-12.11,7.14
					l-0.15,0.09c-1.6,0.93-3.74,0.28-4.77-1.47l-6.91-11.72l-6.91-11.73c-1.03-1.74-0.57-3.93,1.01-4.87L924.59,542.03z"/>
				<path d="M911.15,539.55l0.12-0.07l8.77-5.17l-0.49-0.82l-10.41,6.13C909.79,539.91,910.53,539.91,911.15,539.55"/>
			</g>
			<polygon points="942.78,572.9 946.55,579.3 950.01,577.26 950.01,577.26 950.01,577.26 950.01,577.26 946.78,571.77 
				946.24,570.85 946.24,570.85 946.24,570.85 945.61,569.79 942.15,571.83 942.78,572.9 			"/>
			<rect x="946.59" y="578.2" transform="matrix(0.8615 -0.5078 0.5078 0.8615 -162.5172 561.851)" width="4.02" height="1.23"/>
		</g>
		<polygon points="923.81,540.72 924.59,542.03 928.05,539.99 923.02,531.45 919.55,533.49 920.04,534.31 		"/>
	</g>
	<g>
		<rect x="490.67" y="872.03" width="99.29" height="6.15"/>
		<path d="M491.11,877.74h98.4v-5.26h-98.4V877.74z M590.4,878.63H490.22v-7.04H590.4V878.63z"/>
		<path class="st13" d="M506,817.3l33.54-21.84l34.19,21.84H506z M587,816.26l-47.4-29.97l-46.96,29.98l0.02,9.42h94.39L587,816.26z
			"/>
		<polygon class="st9" points="565.01,774.55 565.07,774.55 565.07,774.49 		"/>
		<rect x="501.26" y="825.7" class="st13" width="8.21" height="31.2"/>
		<rect x="501.26" y="856.9" class="st9" width="8.21" height="4.25"/>
		<rect x="501.26" y="817.58" class="st13" width="8.21" height="8.12"/>
		<rect x="524.21" y="817.58" class="st13" width="8.21" height="8.12"/>
		<rect x="547.15" y="817.58" class="st13" width="8.21" height="8.12"/>
		<rect x="570.1" y="825.7" class="st13" width="8.21" height="31.2"/>
		<rect x="555.56" y="785.08" class="st13" width="8.21" height="18.66"/>
		<rect x="570.1" y="856.9" class="st9" width="8.21" height="4.25"/>
		<rect x="570.1" y="817.58" class="st13" width="8.21" height="8.12"/>
		<polygon class="st13" points="454.11,805.15 454.13,811.98 488.03,811.98 496.44,805.9 463.8,805.9 488.1,790.07 504.15,800.32 
			509.15,796.7 488.14,783.43 		"/>
		<path class="st13" d="M461.12,806.69h34.23l2.2-1.59h-31.06l21.63-14.08l15.35,9.8l1.39-1l-16.74-10.7L461.12,806.69z
			 M453.68,804.48l-0.37,0.23l0.02,8.06h33.6l2.2-1.59h-34.21l-0.01-5.6l33.24-21.22l20.31,12.84l1.39-1.01l-21.7-13.72
			L453.68,804.48z"/>
		<g>
			<defs>
				<polygon id="SVGID_1_" points="436.82,797.51 442.15,844.59 477.68,844.59 478.57,818.83 520.31,788.63 483.01,764.65 				"/>
			</defs>
			<clipPath id="SVGID_00000168093306352970080980000008035041582156267189_">
				<use xlink:href="#SVGID_1_"  style="overflow:visible;"/>
			</clipPath>
			<polygon style="clip-path:url(#SVGID_00000168093306352970080980000008035041582156267189_);fill:#FFFFFF;" points="
				506.61,775.71 504.74,775.71 507.41,772.89 507.41,775.66 			"/>
		</g>
		<path class="st13" d="M461.16,812.78h4.36v21.02h-4.36V812.78z M459.57,835.39h7.54v-24.2h-7.54V835.39z"/>
		<path class="st13" d="M461.16,835.39h4.36v1.49h-4.36V835.39z M459.57,838.47h7.54v-4.67h-7.54V838.47z"/>
		<path class="st13" d="M461.16,806.89h4.36v4.29h-4.36V806.89z M459.57,812.78h7.54v-7.47h-7.54V812.78z"/>
		<path class="st13" d="M477.79,806.89h4.36v4.29h-4.36V806.89z M476.2,812.78h7.54v-7.47h-7.54V812.78z"/>
		<polygon class="st13" points="492.83,805.3 492.83,808.51 494.42,807.36 494.42,806.89 495.06,806.89 497.26,805.3 		"/>
		<rect x="460.36" y="811.98" class="st13" width="5.95" height="22.61"/>
		<rect x="460.36" y="834.6" class="st13" width="5.95" height="3.08"/>
		<rect x="460.36" y="806.1" class="st13" width="5.95" height="5.88"/>
		<rect x="476.99" y="806.1" class="st13" width="5.95" height="5.88"/>
		<polygon class="st13" points="493.62,806.1 493.62,807.94 496.16,806.1 		"/>
		<polygon class="st13" points="569.86,796.7 574.86,800.32 590.91,790.07 615.21,805.9 582.57,805.9 590.98,811.98 624.88,811.98 
			624.9,805.15 590.87,783.43 		"/>
		<path class="st13" d="M574.17,799.82l1.39,1l15.35-9.8l21.63,14.08h-31.07l2.2,1.59h34.23l-26.98-17.57L574.17,799.82z
			 M569.17,796.2l1.39,1.01l20.31-12.84l33.24,21.22l-0.01,5.6h-34.21l2.2,1.59h33.6l0.02-8.06l-34.83-22.24L569.17,796.2z"/>
		<g>
			<defs>
				<polygon id="SVGID_00000111186822956070483830000004396379146088461721_" points="558.7,788.63 600.44,818.83 601.33,844.59 
					636.86,844.59 642.19,797.51 596,764.65 				"/>
			</defs>
			<clipPath id="SVGID_00000147184691072960437200000005977082864097545614_">
				<use xlink:href="#SVGID_00000111186822956070483830000004396379146088461721_"  style="overflow:visible;"/>
			</clipPath>
			<polygon style="clip-path:url(#SVGID_00000147184691072960437200000005977082864097545614_);fill:#FFFFFF;" points="
				572.44,775.71 571.61,775.71 571.61,772.94 574.27,775.66 			"/>
		</g>
		<path class="st13" d="M613.5,812.78h4.36v21.02h-4.36V812.78z M611.91,835.39h7.54v-24.2h-7.54V835.39z"/>
		<path class="st13" d="M613.5,835.39h4.36v1.49h-4.36V835.39z M611.91,838.47h7.54v-4.67h-7.54V838.47z"/>
		<path class="st13" d="M613.5,806.89h4.36v4.29h-4.36V806.89z M611.91,812.78h7.54v-7.47h-7.54V812.78z"/>
		<path class="st13" d="M596.86,806.89h4.36v4.29h-4.36V806.89z M595.27,812.78h7.54v-7.47h-7.54V812.78z"/>
		<polygon class="st13" points="581.75,805.3 583.95,806.89 584.59,806.89 584.59,807.36 586.18,808.51 586.18,805.3 		"/>
		<rect x="612.7" y="811.98" class="st13" width="5.95" height="22.61"/>
		<rect x="612.7" y="834.6" class="st13" width="5.95" height="3.08"/>
		<rect x="612.7" y="806.1" class="st13" width="5.95" height="5.88"/>
		<rect x="596.07" y="806.1" class="st13" width="5.95" height="5.88"/>
		<polygon class="st13" points="582.85,806.1 585.39,807.94 585.39,806.1 		"/>
		<path class="st9" d="M559.5,776.24c0-2.47-1.51-9.13-9.34-9.13l-0.17-0.03h-10.02v0.01h-2.97l-5.2,0.03
			c-6.08,0-6.07-6.21-5.75,0.41c0,2.47,1.51,9.13,9.34,9.13l0.16,0.03h10.02v-0.01h2.97l5.2-0.03
			C559.82,776.65,559.82,782.86,559.5,776.24"/>
	</g>
	<g>
		<g>
			<path d="M505.12,459.81h33.21c8.08,0,18.73,0,24.24,3.33c6.03,3.59,10.77,10.13,10.77,19.11c0,9.74-5.12,17.05-13.59,20.51v0.26
				c11.29,2.31,17.44,10.77,17.44,22.06c0,13.46-9.62,26.29-27.83,26.29h-44.25V459.81z M517.3,499.19h24.38
				c13.84,0,19.49-5,19.49-14.62c0-12.7-8.97-14.49-19.49-14.49H517.3V499.19z M517.3,541.12h30.53c10.51,0,17.19-6.41,17.19-16.41
				c0-11.93-9.62-15.26-19.88-15.26H517.3V541.12z"/>
			<path d="M608.35,505.64c0,38.47-31.18,69.65-69.66,69.65c-38.46,0-69.64-31.18-69.64-69.65c0-38.46,31.18-69.64,69.64-69.64
				C577.17,435.99,608.35,467.17,608.35,505.64z M538.69,425.37c-44.3,0-80.22,35.92-80.22,80.23c0,44.3,35.92,80.23,80.22,80.23
				c44.32,0,80.24-35.92,80.24-80.23C618.93,461.29,583.01,425.37,538.69,425.37z"/>
		</g>
		<g>
			<rect x="458.63" y="602.74" width="160.13" height="10.53"/>
			<path d="M613.75,591.16c0.2,0,0.38-0.01,0.56-0.02c0.16-0.01,0.33-0.05,0.46-0.11c0.14-0.07,0.25-0.16,0.33-0.28
				c0.08-0.13,0.12-0.29,0.12-0.52c0-0.19-0.03-0.34-0.11-0.44c-0.07-0.12-0.17-0.2-0.28-0.25c-0.12-0.07-0.24-0.11-0.39-0.13
				c-0.15-0.01-0.29-0.02-0.44-0.02h-1.15v1.78H613.75z M614.13,588.67c0.67,0,1.15,0.13,1.47,0.39c0.32,0.27,0.49,0.67,0.49,1.21
				c0,0.51-0.15,0.87-0.42,1.11c-0.29,0.23-0.64,0.37-1.06,0.42l1.6,2.46h-0.93l-1.53-2.41h-0.92v2.41h-0.88v-5.58H614.13z
				 M610.2,593.07c0.19,0.51,0.46,0.94,0.82,1.31c0.35,0.36,0.77,0.65,1.25,0.86c0.47,0.21,1,0.3,1.55,0.3
				c0.56,0,1.08-0.09,1.55-0.3c0.48-0.21,0.89-0.5,1.25-0.86c0.34-0.37,0.63-0.8,0.82-1.31c0.21-0.49,0.31-1.04,0.31-1.61
				c0-0.59-0.1-1.11-0.31-1.61c-0.19-0.5-0.48-0.93-0.82-1.29c-0.36-0.36-0.78-0.64-1.25-0.85c-0.47-0.2-0.99-0.31-1.55-0.31
				c-0.55,0-1.08,0.11-1.55,0.31c-0.49,0.21-0.91,0.5-1.25,0.85c-0.36,0.37-0.64,0.79-0.82,1.29c-0.21,0.5-0.3,1.02-0.3,1.61
				C609.89,592.03,609.99,592.58,610.2,593.07 M609.4,589.56c0.26-0.58,0.6-1.06,1.04-1.5c0.44-0.43,0.95-0.75,1.54-1
				c0.58-0.25,1.21-0.36,1.85-0.36c0.67,0,1.28,0.11,1.88,0.36c0.57,0.25,1.07,0.57,1.5,1c0.43,0.44,0.79,0.93,1.04,1.5
				c0.27,0.58,0.39,1.22,0.39,1.9c0,0.69-0.12,1.32-0.39,1.89c-0.25,0.59-0.6,1.09-1.04,1.52c-0.43,0.44-0.93,0.76-1.5,1.01
				c-0.59,0.24-1.21,0.35-1.88,0.35c-0.64,0-1.27-0.12-1.85-0.35c-0.58-0.25-1.1-0.57-1.54-1.01c-0.43-0.43-0.78-0.93-1.04-1.52
				c-0.27-0.58-0.37-1.21-0.37-1.89C609.03,590.78,609.14,590.15,609.4,589.56"/>
		</g>
		<g>
			<path d="M478.04,390.09c-0.38-0.61-0.85-1.14-1.42-1.6c-0.57-0.46-1.21-0.82-1.93-1.08c-0.72-0.26-1.47-0.38-2.25-0.38
				c-1.43,0-2.65,0.28-3.65,0.83c-1,0.56-1.81,1.3-2.43,2.23c-0.62,0.93-1.07,1.99-1.36,3.18c-0.28,1.19-0.42,2.42-0.42,3.69
				c0,1.21,0.14,2.4,0.42,3.55c0.28,1.15,0.74,2.18,1.36,3.1c0.62,0.92,1.43,1.65,2.43,2.21c1,0.55,2.22,0.83,3.65,0.83
				c1.95,0,3.47-0.59,4.56-1.78c1.1-1.19,1.76-2.76,2.01-4.7h6.16c-0.16,1.81-0.58,3.45-1.26,4.9c-0.68,1.46-1.57,2.71-2.68,3.73
				c-1.11,1.03-2.41,1.81-3.89,2.35c-1.49,0.54-3.12,0.81-4.91,0.81c-2.22,0-4.21-0.39-5.98-1.16c-1.77-0.77-3.27-1.83-4.48-3.18
				c-1.22-1.35-2.15-2.94-2.8-4.76c-0.65-1.82-0.97-3.79-0.97-5.9c0-2.16,0.32-4.17,0.97-6.02c0.65-1.85,1.58-3.47,2.8-4.85
				c1.21-1.38,2.71-2.46,4.48-3.25c1.77-0.78,3.76-1.18,5.98-1.18c1.59,0,3.1,0.23,4.52,0.69c1.42,0.46,2.69,1.13,3.81,2.01
				c1.12,0.88,2.05,1.97,2.78,3.26c0.73,1.3,1.19,2.79,1.38,4.46h-6.16C478.66,391.37,478.41,390.7,478.04,390.09z"/>
			<path d="M493.48,406.3c0.86,0.84,2.11,1.26,3.73,1.26c1.16,0,2.16-0.29,3-0.87c0.84-0.58,1.35-1.2,1.54-1.85h5.07
				c-0.81,2.52-2.06,4.31-3.73,5.39c-1.68,1.08-3.7,1.62-6.08,1.62c-1.65,0-3.14-0.26-4.46-0.79c-1.33-0.53-2.45-1.28-3.37-2.25
				c-0.92-0.97-1.63-2.14-2.13-3.49c-0.5-1.35-0.75-2.84-0.75-4.46c0-1.57,0.26-3.03,0.77-4.38c0.51-1.35,1.24-2.52,2.19-3.51
				c0.95-0.99,2.08-1.76,3.39-2.33c1.31-0.57,2.76-0.85,4.36-0.85c1.78,0,3.34,0.34,4.66,1.03c1.32,0.69,2.41,1.62,3.26,2.78
				c0.85,1.16,1.47,2.49,1.85,3.97c0.38,1.49,0.51,3.04,0.4,4.66h-15.13C492.14,404.11,492.61,405.46,493.48,406.3z M499.99,395.27
				c-0.69-0.76-1.74-1.14-3.14-1.14c-0.92,0-1.68,0.16-2.29,0.47c-0.61,0.31-1.1,0.7-1.46,1.16c-0.36,0.46-0.62,0.95-0.77,1.46
				c-0.15,0.51-0.24,0.97-0.26,1.38h9.37C501.16,397.13,500.67,396.02,499.99,395.27z"/>
			<path d="M515.25,390.36v3.89h0.08c0.27-0.65,0.63-1.25,1.09-1.81c0.46-0.55,0.99-1.03,1.58-1.42c0.59-0.39,1.23-0.7,1.91-0.91
				c0.68-0.22,1.38-0.32,2.11-0.32c0.38,0,0.8,0.07,1.26,0.2v5.35c-0.27-0.05-0.6-0.1-0.98-0.14c-0.38-0.04-0.74-0.06-1.09-0.06
				c-1.05,0-1.95,0.18-2.68,0.53c-0.73,0.35-1.32,0.83-1.76,1.44c-0.45,0.61-0.76,1.32-0.95,2.13c-0.19,0.81-0.28,1.69-0.28,2.64
				v9.45h-5.76v-20.97H515.25z"/>
			<path d="M538.7,390.36v3.85h-4.22v10.38c0,0.98,0.16,1.62,0.49,1.95c0.32,0.32,0.97,0.49,1.94,0.49c0.33,0,0.64-0.01,0.93-0.04
				c0.3-0.03,0.58-0.07,0.85-0.12v4.46c-0.49,0.08-1.03,0.13-1.62,0.16c-0.59,0.03-1.17,0.04-1.74,0.04c-0.89,0-1.74-0.06-2.53-0.18
				c-0.8-0.12-1.5-0.36-2.11-0.71c-0.61-0.35-1.09-0.85-1.44-1.5c-0.35-0.65-0.53-1.5-0.53-2.55v-12.37h-3.49v-3.85h3.49v-6.29h5.76
				v6.29H538.7z"/>
			<path d="M542.05,387.11v-4.75h5.76v4.75H542.05z M547.81,390.36v20.97h-5.76v-20.97H547.81z"/>
			<path d="M550.09,394.21v-3.85h3.45v-1.62c0-1.86,0.58-3.39,1.74-4.58c1.16-1.19,2.92-1.79,5.27-1.79c0.51,0,1.03,0.02,1.54,0.06
				c0.51,0.04,1.01,0.08,1.5,0.1v4.3c-0.68-0.08-1.38-0.12-2.11-0.12c-0.78,0-1.35,0.18-1.68,0.55c-0.34,0.37-0.51,0.98-0.51,1.85
				v1.26h3.97v3.85h-3.97v17.11h-5.76v-17.11H550.09z"/>
			<path d="M567.18,387.11v-4.75h5.76v4.75H567.18z M572.93,390.36v20.97h-5.76v-20.97H572.93z"/>
			<path d="M582.02,406.3c0.87,0.84,2.11,1.26,3.73,1.26c1.16,0,2.16-0.29,3-0.87c0.84-0.58,1.35-1.2,1.54-1.85h5.07
				c-0.81,2.52-2.05,4.31-3.73,5.39c-1.68,1.08-3.71,1.62-6.09,1.62c-1.65,0-3.14-0.26-4.46-0.79c-1.32-0.53-2.45-1.28-3.37-2.25
				c-0.92-0.97-1.63-2.14-2.13-3.49c-0.5-1.35-0.75-2.84-0.75-4.46c0-1.57,0.26-3.03,0.77-4.38c0.51-1.35,1.24-2.52,2.19-3.51
				c0.95-0.99,2.07-1.76,3.39-2.33c1.31-0.57,2.76-0.85,4.36-0.85c1.78,0,3.34,0.34,4.66,1.03c1.32,0.69,2.41,1.62,3.26,2.78
				c0.85,1.16,1.47,2.49,1.84,3.97c0.38,1.49,0.51,3.04,0.41,4.66H580.6C580.68,404.11,581.15,405.46,582.02,406.3z M588.53,395.27
				c-0.69-0.76-1.74-1.14-3.14-1.14c-0.92,0-1.68,0.16-2.29,0.47c-0.61,0.31-1.1,0.7-1.46,1.16c-0.36,0.46-0.62,0.95-0.77,1.46
				c-0.15,0.51-0.24,0.97-0.26,1.38h9.37C589.7,397.13,589.22,396.02,588.53,395.27z"/>
			<path d="M613.21,408.65c-0.68,1.14-1.56,1.95-2.66,2.45c-1.09,0.5-2.33,0.75-3.71,0.75c-1.57,0-2.95-0.3-4.14-0.91
				c-1.19-0.61-2.17-1.43-2.94-2.47c-0.77-1.04-1.35-2.24-1.74-3.59c-0.39-1.35-0.59-2.76-0.59-4.22c0-1.41,0.19-2.76,0.59-4.08
				c0.39-1.31,0.97-2.47,1.74-3.47c0.77-1,1.74-1.8,2.9-2.41c1.16-0.61,2.51-0.91,4.06-0.91c1.24,0,2.43,0.26,3.55,0.79
				c1.12,0.53,2.01,1.3,2.66,2.33H613v-10.54h5.76v28.96h-5.47v-2.68H613.21z M612.96,398.29c-0.16-0.8-0.44-1.5-0.83-2.11
				c-0.39-0.61-0.9-1.1-1.52-1.48c-0.62-0.38-1.41-0.57-2.35-0.57s-1.74,0.19-2.39,0.57c-0.65,0.38-1.17,0.88-1.56,1.5
				c-0.39,0.62-0.67,1.33-0.85,2.13c-0.18,0.8-0.26,1.63-0.26,2.49c0,0.81,0.09,1.62,0.28,2.43c0.19,0.81,0.49,1.53,0.91,2.17
				c0.42,0.64,0.95,1.15,1.58,1.54c0.63,0.39,1.4,0.59,2.29,0.59c0.95,0,1.74-0.19,2.37-0.57c0.63-0.38,1.14-0.89,1.52-1.52
				c0.38-0.63,0.65-1.36,0.81-2.17c0.16-0.81,0.25-1.65,0.25-2.51S613.12,399.08,612.96,398.29z"/>
		</g>
		<g>
			<path d="M472.68,633.94c-0.29-2.03-2.23-3.57-4.46-3.57c-4.02,0-5.54,3.43-5.54,7c0,3.39,1.52,6.82,5.54,6.82
				c2.74,0,4.29-1.88,4.62-4.57h4.35c-0.46,5.09-3.97,8.34-8.97,8.34c-6.31,0-10.02-4.71-10.02-10.59c0-6.06,3.71-10.77,10.02-10.77
				c4.49,0,8.25,2.63,8.8,7.34H472.68z"/>
			<path d="M486.55,632.31c4.66,0,7.65,3.08,7.65,7.79c0,4.68-3,7.77-7.65,7.77c-4.63,0-7.62-3.08-7.62-7.77
				C478.93,635.39,481.93,632.31,486.55,632.31z M486.55,644.82c2.77,0,3.6-2.37,3.6-4.71c0-2.37-0.83-4.74-3.6-4.74
				c-2.74,0-3.57,2.37-3.57,4.74C482.98,642.44,483.81,644.82,486.55,644.82z"/>
			<path d="M496.71,632.68h3.85v2.74h0.06c0.74-1.85,2.74-3.14,4.71-3.14c0.29,0,0.62,0.05,0.89,0.14v3.77
				c-0.38-0.08-0.97-0.14-1.46-0.14c-2.97,0-4,2.14-4,4.74v6.65h-4.05V632.68z"/>
			<path d="M507.8,632.71h3.86v1.88h0.06c0.97-1.57,2.57-2.28,4.39-2.28c4.63,0,6.71,3.74,6.71,7.94c0,3.94-2.17,7.63-6.48,7.63
				c-1.77,0-3.45-0.77-4.42-2.23h-0.06v7.03h-4.05V632.71z M518.77,640.14c0-2.35-0.94-4.77-3.54-4.77c-2.66,0-3.51,2.37-3.51,4.77
				c0,2.4,0.91,4.68,3.54,4.68C517.92,644.82,518.77,642.53,518.77,640.14z"/>
			<path d="M531.72,632.31c4.66,0,7.66,3.08,7.66,7.79c0,4.68-3,7.77-7.66,7.77c-4.62,0-7.62-3.08-7.62-7.77
				C524.1,635.39,527.1,632.31,531.72,632.31z M531.72,644.82c2.77,0,3.6-2.37,3.6-4.71c0-2.37-0.83-4.74-3.6-4.74
				c-2.74,0-3.57,2.37-3.57,4.74C528.15,642.44,528.98,644.82,531.72,644.82z"/>
			<path d="M541.88,632.68h3.85v2.74h0.06c0.74-1.85,2.74-3.14,4.71-3.14c0.28,0,0.63,0.05,0.89,0.14v3.77
				c-0.37-0.08-0.97-0.14-1.46-0.14c-2.97,0-4,2.14-4,4.74v6.65h-4.05V632.68z"/>
			<path d="M552.58,637.25c0.23-3.8,3.63-4.94,6.94-4.94c2.94,0,6.48,0.66,6.48,4.19v7.68c0,1.34,0.14,2.68,0.52,3.29h-4.12
				c-0.14-0.46-0.26-0.94-0.29-1.43c-1.28,1.35-3.16,1.83-4.96,1.83c-2.8,0-5.03-1.4-5.03-4.43c0-3.34,2.52-4.14,5.03-4.48
				c2.49-0.37,4.8-0.29,4.8-1.94c0-1.74-1.21-2-2.63-2c-1.54,0-2.54,0.63-2.69,2.23H552.58z M561.96,640.25
				c-0.69,0.6-2.11,0.63-3.37,0.86c-1.26,0.25-2.4,0.69-2.4,2.17c0,1.51,1.17,1.88,2.49,1.88c3.17,0,3.28-2.51,3.28-3.4V640.25z"/>
			<path d="M574.2,632.71h2.97v2.71h-2.97v7.31c0,1.38,0.35,1.72,1.71,1.72c0.43,0,0.83-0.03,1.26-0.11v3.17
				c-0.69,0.11-1.58,0.14-2.37,0.14c-2.48,0-4.65-0.58-4.65-3.51v-8.71h-2.46v-2.71h2.46v-4.43h4.05V632.71z"/>
			<path d="M584.29,630.42h-4.06v-3.34h4.06V630.42z M580.23,632.71h4.06v14.76h-4.06V632.71z"/>
			<path d="M594.63,632.31c4.66,0,7.66,3.08,7.66,7.79c0,4.68-3,7.77-7.66,7.77c-4.62,0-7.62-3.08-7.62-7.77
				C587.01,635.39,590.01,632.31,594.63,632.31z M594.63,644.82c2.78,0,3.6-2.37,3.6-4.71c0-2.37-0.82-4.74-3.6-4.74
				c-2.74,0-3.57,2.37-3.57,4.74C591.06,642.44,591.89,644.82,594.63,644.82z"/>
			<path d="M604.91,632.71h3.86v2.06h0.08c1.03-1.66,2.8-2.46,4.51-2.46c4.31,0,5.4,2.43,5.4,6.08v9.08h-4.05v-8.34
				c0-2.43-0.72-3.63-2.6-3.63c-2.2,0-3.14,1.23-3.14,4.23v7.74h-4.05V632.71z"/>
		</g>
	</g>
	<polygon points="1743.57,326.05 1746.19,330.5 1748.59,329.08 1748.59,329.09 1748.59,329.08 1748.59,329.08 1746.35,325.27 
		1745.97,324.64 1745.97,324.64 1745.97,324.64 1745.53,323.89 1743.13,325.31 1743.57,326.05 	"/>
	<rect x="1746.21" y="329.73" transform="matrix(0.8615 -0.5078 0.5078 0.8615 74.4166 933.1315)" width="2.79" height="0.86"/>
	<polygon points="1730.4,303.71 1730.94,304.62 1733.34,303.2 1729.84,297.27 1727.44,298.69 1727.78,299.26 	"/>
</g>
</svg>
