<svg xmlns="http://www.w3.org/2000/svg" xmlns:xlink="http://www.w3.org/1999/xlink" viewBox="0 0 480 359.999987">
  <title>Business Declares logo</title>
  <style>
    .green-line {
      fill:#94d600;
    }
    .bg-line {
      fill: currentColor;
    }
  </style>
  <defs>
    <clipPath id="5f2a4b523c">
      <path
        d="M 117.375 192.941406 C 113.800781 192.941406 110.902344 195.84375 110.902344 199.414062 C 110.902344 202.984375 113.800781 205.894531 117.375 205.894531 C 120.953125 205.894531 123.847656 203 123.847656 199.421875 C 123.847656 195.84375 120.945312 192.949219 117.375 192.949219 " />
    </clipPath>
    <clipPath id="6ff9fd982b">
      <path
        d="M 122.746094 153.003906 L 166.523438 228.828125 L 68.746094 228.828125 L 112 153.917969 L 112 132.410156 L 50.125 239.578125 L 185.152344 239.578125 L 122.746094 131.492188 Z M 122.746094 153.003906 " />
    </clipPath>
    <clipPath id="fc725de6a2">
      <path
        d="M 117.339844 122.296875 L 117.828125 122.296875 L 117.828125 122.78125 L 117.339844 122.78125 Z M 117.339844 122.296875 " />
    </clipPath>
    <clipPath id="18a34a953a">
      <path
        d="M 117.640625 122.644531 L 117.625 122.671875 L 117.652344 122.671875 Z M 117.640625 122.644531 " />
    </clipPath>
    <clipPath id="ba46fc9d13">
      <path
        d="M 112 122.671875 L 122.746094 122.671875 L 122.746094 185.75 L 112 185.75 Z M 112 122.671875 " />
    </clipPath>
    <clipPath id="82a2c83598">
      <path
        d="M 215.984375 228.816406 L 429.875 228.816406 L 429.875 239.570312 L 215.984375 239.570312 Z M 215.984375 228.816406 " />
    </clipPath>
    <clipPath id="e341fd262e">
      <path
        d="M 237.515625 196.933594 C 237.515625 201.433594 235.140625 203.804688 229.882812 203.804688 L 224.625 203.804688 L 224.625 182.675781 L 229.882812 182.675781 C 235.140625 182.675781 237.515625 185.054688 237.515625 189.554688 Z M 231.449219 175.542969 L 215.984375 175.542969 L 215.984375 210.929688 L 231.449219 210.929688 C 241.207031 210.929688 246.210938 205.019531 246.210938 196.875 L 246.210938 189.597656 C 246.210938 181.460938 241.207031 175.542969 231.449219 175.542969 " />
    </clipPath>
    <clipPath id="c03eadee18">
      <path
        d="M 258.234375 194.855469 C 258.234375 191.824219 259.546875 189.851562 262.636719 189.851562 C 265.613281 189.851562 266.933594 191.824219 266.933594 194.449219 L 266.933594 195.417969 L 258.234375 195.417969 Z M 274.710938 200.367188 L 274.710938 195.515625 C 274.710938 189.195312 270.613281 183.839844 262.574219 183.839844 C 254.535156 183.839844 250.042969 188.894531 250.042969 196.273438 L 250.042969 199.558594 C 250.042969 207.140625 255.15625 211.535156 262.785156 211.535156 C 268.800781 211.535156 273.652344 207.945312 274.558594 203.046875 L 267.082031 203.046875 C 266.519531 204.359375 265.15625 205.574219 262.785156 205.574219 C 259.808594 205.574219 258.234375 203.609375 258.234375 200.96875 L 258.234375 200.359375 Z M 274.710938 200.367188 " />
    </clipPath>
    <clipPath id="784c8d4dfa">
      <path
        d="M 291.1875 211.535156 C 298.460938 211.535156 303.472656 207.035156 303.621094 200.722656 L 295.941406 200.722656 C 295.792969 202.894531 294.324219 204.816406 291.335938 204.816406 C 288.203125 204.816406 286.738281 202.84375 286.738281 199.917969 L 286.738281 195.464844 C 286.738281 192.539062 288.203125 190.566406 291.335938 190.566406 C 294.316406 190.566406 295.792969 192.484375 295.941406 194.660156 L 303.621094 194.660156 C 303.472656 188.339844 298.460938 183.847656 291.1875 183.847656 C 282.847656 183.847656 278.242188 188.945312 278.242188 195.972656 L 278.242188 199.414062 C 278.242188 206.445312 282.847656 211.542969 291.1875 211.542969 " />
    </clipPath>
    <clipPath id="27d2a24fa0">
      <path
        d="M 308.210938 174.027344 L 316.710938 174.027344 L 316.710938 210.9375 L 308.210938 210.9375 Z M 308.210938 174.027344 " />
    </clipPath>
    <clipPath id="e010e089ac">
      <path
        d="M 334.238281 199.964844 C 336.871094 199.964844 338.789062 201.277344 338.789062 203.054688 C 338.789062 204.832031 336.71875 206.136719 334.140625 206.136719 C 331.453125 206.136719 329.542969 205.070312 329.542969 203.054688 C 329.542969 200.984375 331.363281 199.964844 334.246094 199.964844 M 331.3125 211.535156 C 334.746094 211.535156 337.636719 210.476562 339.148438 208.707031 L 339.148438 210.929688 L 347.289062 210.929688 L 347.289062 194.449219 C 347.289062 187.925781 342.886719 183.839844 335.355469 183.839844 C 329.136719 183.839844 324.636719 187.027344 323.527344 192.335938 L 331.261719 192.335938 C 331.964844 191.023438 333.328125 190.410156 335.101562 190.410156 C 337.476562 190.410156 338.789062 191.878906 338.789062 193.851562 L 338.789062 196.933594 C 337.476562 195.875 335.046875 194.960938 331.867188 194.960938 C 325.703125 194.960938 321.609375 197.742188 321.609375 203.203125 C 321.609375 208.0625 325.246094 211.542969 331.3125 211.542969 " />
    </clipPath>
    <clipPath id="clip-fix">
      <path
        d="M 352.582031 184.4375 L 352.582031 210.9375 L 361.078125 210.9375 L 361.078125 198.800781 C 361.078125 194.195312 363.203125 192.582031 367.148438 192.582031 L 368.257812 192.582031 L 368.257812 184.242188 L 367.851562 184.242188 C 364.066406 184.242188 361.433594 185.160156 360.621094 189.097656 L 360.621094 184.445312 Z M 352.582031 184.4375 " />
    </clipPath>
    <clipPath id="f6af17d307">
      <path
        d="M 378.816406 194.855469 C 378.816406 191.824219 380.128906 189.851562 383.210938 189.851562 C 386.191406 189.851562 387.511719 191.824219 387.511719 194.449219 L 387.511719 195.417969 L 378.816406 195.417969 Z M 395.296875 200.367188 L 395.296875 195.515625 C 395.296875 189.195312 391.199219 183.839844 383.160156 183.839844 C 375.121094 183.839844 370.628906 188.894531 370.628906 196.273438 L 370.628906 199.558594 C 370.628906 207.140625 375.734375 211.535156 383.363281 211.535156 C 389.378906 211.535156 394.230469 207.945312 395.144531 203.046875 L 387.660156 203.046875 C 387.105469 204.359375 385.734375 205.574219 383.363281 205.574219 C 380.386719 205.574219 378.816406 203.609375 378.816406 200.96875 L 378.816406 200.359375 Z M 395.296875 200.367188 " />
    </clipPath>
    <clipPath id="aaec343374">
      <path
        d="M 398.730469 202.492188 L 398.730469 203.046875 C 398.730469 208.402344 403.378906 211.535156 410.40625 211.535156 C 417.480469 211.535156 422.234375 207.589844 422.234375 202.289062 C 422.234375 198.652344 420.015625 196.371094 416.421875 195.515625 L 408.691406 193.640625 C 407.527344 193.386719 407.015625 192.882812 407.015625 191.871094 C 407.015625 190.402344 408.03125 189.695312 410.203125 189.695312 C 412.582031 189.695312 413.542969 190.753906 413.542969 192.375 L 413.542969 192.832031 L 420.871094 192.832031 L 420.871094 192.375 C 420.871094 187.0625 416.371094 183.832031 410.101562 183.832031 C 403.6875 183.832031 399.128906 187.011719 399.128906 192.726562 C 399.128906 196.46875 401.257812 198.945312 405.351562 199.851562 L 412.679688 201.523438 C 413.992188 201.824219 414.449219 202.386719 414.449219 203.339844 C 414.449219 204.859375 412.726562 205.664062 410.453125 205.664062 C 407.925781 205.664062 406.207031 204.703125 406.207031 202.828125 L 406.207031 202.476562 Z M 398.730469 202.492188 " />
    </clipPath>
    <clipPath id="97ca311fcd">
      <path
        d="M 224.480469 151.261719 L 224.480469 143.566406 L 232.664062 143.566406 C 235.191406 143.566406 236.707031 144.984375 236.707031 147.351562 C 236.707031 149.632812 235.289062 151.253906 232.8125 151.253906 Z M 224.480469 129.523438 L 230.847656 129.523438 C 233.121094 129.523438 234.484375 130.835938 234.484375 133.011719 C 234.484375 135.335938 233.226562 136.800781 230.945312 136.800781 L 224.480469 136.800781 Z M 245.308594 148.171875 C 245.308594 143.21875 242.324219 140.84375 238.484375 139.777344 C 241.617188 138.105469 243.125 135.480469 243.125 131.738281 C 243.125 126.734375 239.585938 122.691406 232.917969 122.691406 L 215.984375 122.691406 L 215.984375 158.078125 L 233.121094 158.078125 C 240.097656 158.078125 245.308594 154.238281 245.308594 148.171875 " />
    </clipPath>
    <clipPath id="736928cfac">
      <path
        d="M 258.839844 158.683594 C 262.226562 158.683594 264.851562 157.417969 266.21875 154.996094 L 266.21875 158.078125 L 274.355469 158.078125 L 274.355469 131.59375 L 265.867188 131.59375 L 265.867188 147.515625 C 265.867188 150.554688 264.097656 151.558594 261.929688 151.558594 C 259.5 151.558594 258.285156 150.039062 258.285156 147.613281 L 258.285156 131.59375 L 249.785156 131.59375 L 249.785156 148.679688 C 249.785156 154.800781 252.921875 158.691406 258.839844 158.691406 " />
    </clipPath>
    <clipPath id="e2b6fdf87b">
      <path
        d="M 290.886719 158.683594 C 297.957031 158.683594 302.714844 154.746094 302.714844 149.4375 C 302.714844 145.792969 300.484375 143.519531 296.894531 142.65625 L 289.160156 140.789062 C 287.992188 140.535156 287.488281 140.03125 287.488281 139.019531 C 287.488281 137.550781 288.492188 136.84375 290.675781 136.84375 C 293.054688 136.84375 294.011719 137.902344 294.011719 139.53125 L 294.011719 139.980469 L 301.347656 139.980469 L 301.347656 139.53125 C 301.347656 134.21875 296.847656 130.980469 290.570312 130.980469 C 284.160156 130.980469 279.605469 134.167969 279.605469 139.882812 C 279.605469 143.625 281.726562 146.101562 285.824219 147.007812 L 293.152344 148.679688 C 294.464844 148.980469 294.921875 149.542969 294.921875 150.496094 C 294.921875 152.011719 293.203125 152.828125 290.929688 152.828125 C 288.402344 152.828125 286.6875 151.859375 286.6875 149.992188 L 286.6875 149.640625 L 279.207031 149.640625 L 279.207031 150.195312 C 279.207031 155.558594 283.859375 158.691406 290.886719 158.691406 " />
    </clipPath>
    <clipPath id="e48c932202">
      <path
        d="M 311.644531 129.210938 C 314.472656 129.210938 316.347656 127.492188 316.347656 124.816406 C 316.347656 122.136719 314.480469 120.421875 311.644531 120.421875 C 308.8125 120.421875 306.945312 122.136719 306.945312 124.816406 C 306.945312 127.492188 308.820312 129.210938 311.644531 129.210938 " />
    </clipPath>
    <clipPath id="3ad4f30cb2">
      <path
        d="M 307.402344 131.59375 L 315.898438 131.59375 L 315.898438 158.085938 L 307.402344 158.085938 Z M 307.402344 131.59375 " />
    </clipPath>
    <clipPath id="03f5138e97">
      <path
        d="M 330.605469 142.410156 C 330.605469 139.378906 332.421875 138.367188 334.597656 138.367188 C 337.175781 138.367188 338.4375 139.882812 338.4375 142.304688 L 338.4375 158.085938 L 346.925781 158.085938 L 346.925781 140.992188 C 346.925781 134.878906 343.695312 130.988281 337.625 130.988281 C 334.234375 130.988281 331.609375 132.246094 330.246094 134.675781 L 330.246094 131.585938 L 322.109375 131.585938 L 322.109375 158.085938 L 330.605469 158.085938 Z M 330.605469 142.410156 " />
    </clipPath>
    <clipPath id="a5254d2570">
      <path
        d="M 359.707031 142.003906 C 359.707031 138.976562 361.019531 137.003906 364.109375 137.003906 C 367.085938 137.003906 368.40625 138.976562 368.40625 141.601562 L 368.40625 142.566406 L 359.707031 142.566406 Z M 364.257812 158.683594 C 370.273438 158.683594 375.125 155.09375 376.035156 150.195312 L 368.546875 150.195312 C 367.992188 151.507812 366.628906 152.722656 364.25 152.722656 C 361.265625 152.722656 359.699219 150.75 359.699219 148.117188 L 359.699219 147.511719 L 376.183594 147.511719 L 376.183594 142.664062 C 376.183594 136.34375 372.082031 130.980469 364.046875 130.980469 C 356.015625 130.980469 351.515625 136.035156 351.515625 143.421875 L 351.515625 146.707031 C 351.515625 154.289062 356.625 158.683594 364.257812 158.683594 " />
    </clipPath>
    <clipPath id="a430b4c11e">
      <path
        d="M 391.699219 158.683594 C 398.773438 158.683594 403.527344 154.746094 403.527344 149.4375 C 403.527344 145.792969 401.308594 143.519531 397.714844 142.65625 L 389.984375 140.789062 C 388.820312 140.535156 388.3125 140.03125 388.3125 139.019531 C 388.3125 137.550781 389.324219 136.84375 391.5 136.84375 C 393.875 136.84375 394.835938 137.902344 394.835938 139.53125 L 394.835938 139.980469 L 402.164062 139.980469 L 402.164062 139.53125 C 402.164062 134.21875 397.671875 130.980469 391.402344 130.980469 C 384.980469 130.980469 380.429688 134.167969 380.429688 139.882812 C 380.429688 143.625 382.550781 146.101562 386.644531 147.007812 L 393.972656 148.679688 C 395.285156 148.980469 395.742188 149.542969 395.742188 150.496094 C 395.742188 152.011719 394.027344 152.828125 391.753906 152.828125 C 389.226562 152.828125 387.507812 151.859375 387.507812 149.992188 L 387.507812 149.640625 L 380.03125 149.640625 L 380.03125 150.195312 C 380.03125 155.558594 384.679688 158.691406 391.707031 158.691406 " />
    </clipPath>
    <clipPath id="867c29759f">
      <path
        d="M 418.035156 158.683594 C 425.113281 158.683594 429.859375 154.746094 429.859375 149.4375 C 429.859375 145.792969 427.640625 143.519531 424.046875 142.65625 L 416.308594 140.789062 C 415.144531 140.535156 414.636719 140.03125 414.636719 139.019531 C 414.636719 137.550781 415.648438 136.84375 417.824219 136.84375 C 420.199219 136.84375 421.160156 137.902344 421.160156 139.53125 L 421.160156 139.980469 L 428.496094 139.980469 L 428.496094 139.53125 C 428.496094 134.21875 423.988281 130.980469 417.726562 130.980469 C 411.304688 130.980469 406.753906 134.167969 406.753906 139.882812 C 406.753906 143.625 408.875 146.101562 412.972656 147.007812 L 420.304688 148.679688 C 421.617188 148.980469 422.074219 149.542969 422.074219 150.496094 C 422.074219 152.011719 420.351562 152.828125 418.085938 152.828125 C 415.558594 152.828125 413.832031 151.859375 413.832031 149.992188 L 413.832031 149.640625 L 406.355469 149.640625 L 406.355469 150.195312 C 406.355469 155.558594 411.007812 158.691406 418.035156 158.691406 " />
    </clipPath>
  </defs>
  <g id="7e76dd4076">
    <g clip-path="url(#5f2a4b523c)">
      <path class="bg-line"
        d="M 46.375 118.894531 L 188.792969 118.894531 L 188.792969 243.328125 L 46.375 243.328125 Z M 46.375 118.894531 " />
    </g>
    <g clip-path="url(#6ff9fd982b)">
      <path class="bg-line"
        d="M 46.375 118.894531 L 188.792969 118.894531 L 188.792969 243.328125 L 46.375 243.328125 Z M 46.375 118.894531 " />
    </g>
    <g clip-path="url(#18a34a953a)">
      <path class="bg-line"
        d="M 46.375 118.894531 L 188.792969 118.894531 L 188.792969 243.328125 L 46.375 243.328125 Z M 46.375 118.894531 " />
    </g>
    <g clip-path="url(#ba46fc9d13)">
      <path class="green-line"
        d="M 46.375 118.894531 L 188.792969 118.894531 L 188.792969 243.328125 L 46.375 243.328125 Z M 46.375 118.894531 " />
    </g>
    <g clip-path="url(#82a2c83598)">
      <path class="green-line"
        d="M 215.984375 228.816406 L 429.863281 228.816406 L 429.863281 239.570312 L 215.984375 239.570312 Z M 215.984375 228.816406 " />
    </g>
    <g clip-path="url(#e341fd262e)">
      <path class="bg-line"
        d="M 212.234375 170.277344 L 426.03125 170.277344 L 426.03125 215.289062 L 212.234375 215.289062 Z M 212.234375 170.277344 " />
    </g>
    <g clip-path="url(#c03eadee18)">
      <path class="bg-line"
        d="M 212.234375 170.277344 L 426.03125 170.277344 L 426.03125 215.289062 L 212.234375 215.289062 Z M 212.234375 170.277344 " />
    </g>
    <g clip-path="url(#784c8d4dfa)">
      <path class="bg-line"
        d="M 212.234375 170.277344 L 426.03125 170.277344 L 426.03125 215.289062 L 212.234375 215.289062 Z M 212.234375 170.277344 " />
    </g>
    <g clip-path="url(#27d2a24fa0)">
      <path class="bg-line"
        d="M 212.234375 170.277344 L 426.03125 170.277344 L 426.03125 215.289062 L 212.234375 215.289062 Z M 212.234375 170.277344 " />
    </g>
    <g clip-path="url(#e010e089ac)">
      <path class="bg-line"
        d="M 212.234375 170.277344 L 426.03125 170.277344 L 426.03125 215.289062 L 212.234375 215.289062 Z M 212.234375 170.277344 " />
    </g>
    <g clip-path="url(#clip-fix)">
      <path class="bg-line"
        d="M 212.234375 170.277344 L 426.03125 170.277344 L 426.03125 215.289062 L 212.234375 215.289062 Z M 212.234375 170.277344 " />
    </g>
    <g clip-path="url(#f6af17d307)">
      <path class="bg-line"
        d="M 212.234375 170.277344 L 426.03125 170.277344 L 426.03125 215.289062 L 212.234375 215.289062 Z M 212.234375 170.277344 " />
    </g>
    <g clip-path="url(#aaec343374)">
      <path class="bg-line"
        d="M 212.234375 170.277344 L 426.03125 170.277344 L 426.03125 215.289062 L 212.234375 215.289062 Z M 212.234375 170.277344 " />
    </g>
    <g clip-path="url(#97ca311fcd)">
      <path class="bg-line"
        d="M 212.234375 116.671875 L 433.5625 116.671875 L 433.5625 162.4375 L 212.234375 162.4375 Z M 212.234375 116.671875 " />
    </g>
    <g clip-path="url(#736928cfac)">
      <path class="bg-line"
        d="M 212.234375 116.671875 L 433.5625 116.671875 L 433.5625 162.4375 L 212.234375 162.4375 Z M 212.234375 116.671875 " />
    </g>
    <g clip-path="url(#e2b6fdf87b)">
      <path class="bg-line"
        d="M 212.234375 116.671875 L 433.5625 116.671875 L 433.5625 162.4375 L 212.234375 162.4375 Z M 212.234375 116.671875 " />
    </g>
    <g clip-path="url(#e48c932202)">
      <path class="bg-line"
        d="M 212.234375 116.671875 L 433.5625 116.671875 L 433.5625 162.4375 L 212.234375 162.4375 Z M 212.234375 116.671875 " />
    </g>
    <g clip-path="url(#3ad4f30cb2)">
      <path class="bg-line"
        d="M 212.234375 116.671875 L 433.5625 116.671875 L 433.5625 162.4375 L 212.234375 162.4375 Z M 212.234375 116.671875 " />
    </g>
    <g clip-path="url(#03f5138e97)">
      <path class="bg-line"
        d="M 212.234375 116.671875 L 433.5625 116.671875 L 433.5625 162.4375 L 212.234375 162.4375 Z M 212.234375 116.671875 " />
    </g>
    <g clip-path="url(#a5254d2570)">
      <path class="bg-line"
        d="M 212.234375 116.671875 L 433.5625 116.671875 L 433.5625 162.4375 L 212.234375 162.4375 Z M 212.234375 116.671875 " />
    </g>
    <g clip-path="url(#a430b4c11e)">
      <path class="bg-line"
        d="M 212.234375 116.671875 L 433.5625 116.671875 L 433.5625 162.4375 L 212.234375 162.4375 Z M 212.234375 116.671875 " />
    </g>
    <g clip-path="url(#867c29759f)">
      <path class="bg-line"
        d="M 212.234375 116.671875 L 433.5625 116.671875 L 433.5625 162.4375 L 212.234375 162.4375 Z M 212.234375 116.671875 " />
    </g>
  </g>
</svg>
