<svg viewBox="0 0 95 22" fill="#000" xmlns="http://www.w3.org/2000/svg" class="header__logo-svg"><path fill="#000" d="M94.556 8.514V6.072H90.376V0L87.868 1.54V6.072H84.59V8.514H87.868V16.94C87.868 20.306 89.056 21.912 92.246 21.912C93.104 21.912 93.896 21.736 94.556 21.494V19.008C93.962 19.294 93.434 19.426 92.686 19.426C91.19 19.426 90.376 18.656 90.376 16.478V8.514H94.556ZM33.462 5.764C30.184 5.764 27.896 8.008 27.236 12.694V0.0660002H24.574V21.648H27.236V12.914C27.896 9.438 29.634 8.008 32.252 8.008C35.508 8.008 36.762 9.878 36.762 12.848V21.648H39.38V12.056C39.358 8.206 37.29 5.764 33.462 5.764ZM0 1.34201H2.728V21.648H0V1.34201ZM8.95404 12.518C9.65804 7.964 11.99 5.764 15.246 5.764C19.184 5.764 21.164 8.206 21.164 12.056V21.648H18.458V12.848C18.458 9.878 17.204 8.008 13.948 8.008C11.33 8.008 9.59204 9.438 8.93204 12.914V21.648H6.27004V6.072H8.95404V12.518ZM56.54 11.44V18.106C56.54 19.206 56.87 19.47 57.662 19.47C58.124 19.47 58.41 19.382 58.608 19.25V21.626C58.256 21.824 57.53 21.956 56.804 21.956C54.868 21.956 53.9 21.054 53.9 18.722C53.9 18.4776 53.9131 17.8942 53.9275 17.2461L53.9276 17.2452V17.2449L53.9276 17.2444L53.9276 17.2439L53.9276 17.2435C53.9457 16.434 53.966 15.5242 53.966 15.048C53.02 18.832 50.182 22 46.596 22C43.34 22 41.998 20.394 41.998 18.436C41.998 17.094 42.57 16.192 43.648 15.488C44.572 14.85 45.694 14.476 47.08 14.124C47.8067 13.9164 48.6558 13.736 49.4775 13.5614L49.4776 13.5614L49.4779 13.5613C49.7009 13.5139 49.922 13.467 50.138 13.42C52.206 13.002 54.032 12.562 54.032 11.418C54.032 9.548 52.976 8.074 49.918 8.074C47.366 8.074 45.584 9.108 44.44 11.528L42.086 10.186C43.78 7.304 46.376 5.764 49.984 5.764C54.362 5.764 56.54 7.854 56.54 11.44ZM48.18 19.712C50.974 19.712 53.328 18.084 54.032 14.278H54.01V12.056C53.4859 12.995 51.7914 13.3487 49.8085 13.7627L49.764 13.772C46.618 14.366 44.704 14.982 44.704 17.27C44.704 18.7 45.848 19.712 48.18 19.712ZM70.07 5.852C66.704 5.852 64.086 8.14 63.426 12.474L63.558 10.12V0.0660002H60.896V21.648H63.558V17.886L63.426 15.114C63.976 19.228 65.956 21.868 69.916 21.868C73.7 21.868 77.088 18.964 77.088 13.75C77.088 8.338 73.59 5.852 70.07 5.852ZM69.124 19.47C65.45 19.47 63.426 17.138 63.426 13.86C63.426 10.626 65.428 8.206 69.08 8.206C72.138 8.206 74.47 10.186 74.47 13.794C74.47 17.27 72.424 19.47 69.124 19.47ZM79.728 6.07202H82.456V21.648H79.728V6.07202ZM79.376 1.716C79.376 0.77 80.146 0 81.092 0C82.038 0 82.808 0.77 82.808 1.716C82.808 2.662 82.038 3.432 81.092 3.432C80.146 3.432 79.376 2.662 79.376 1.716Z" class="header__logo-path"></path></svg>
