<?xml version="1.0" encoding="UTF-8"?> <svg xmlns="http://www.w3.org/2000/svg" viewBox="0 0 802.44 430.23"><defs><style>.a{fill:#3c3c3b;}.b{fill:#95c11f;}.c{fill:#fff;}</style></defs><title>logo-chiara</title><path class="a" d="M19.72,422.13c0-49.13,43.53-90.38,95.21-90.38a97.19,97.19,0,0,1,71,30.8l-36.4,31.82c-8.15-10.69-20.88-17.82-34.62-17.82-23.93,0-44.3,20.88-44.3,45.57,0,24.95,20.37,45.82,44.3,45.82,14,0,26.48-7.13,34.88-17.82L186,481.7a96.45,96.45,0,0,1-71,31.06C63.26,512.76,19.72,471.26,19.72,422.13Z" transform="translate(-19.72 -82.52)"></path><path class="a" d="M338.46,425.94V509.7H291.62V437.4c0-12.73-8.15-21.64-19.86-21.64-10.95,0-18.84,8.4-18.84,20.11V509.7H203.79v-178h49.13v59.57c8.15-10.18,21.38-16.29,37.17-16.29C318.35,375,338.46,396.16,338.46,425.94Z" transform="translate(-19.72 -82.52)"></path><path class="b" d="M364.18,338.62c0-13.24,11.2-24.95,25.46-24.95,13.75,0,24.95,11.71,24.95,24.95,0,13.75-11.2,25.46-24.95,25.46A25.53,25.53,0,0,1,364.18,338.62Zm0.51,39.46h49.13V509.7H364.68V378.08Z" transform="translate(-19.72 -82.52)"></path><path class="a" d="M565.55,432.05V509.7h-47.1v-9.42c-8.91,8.15-21.38,12.47-33.86,12.47-28.26,0-50.66-17.31-50.66-42C433.93,445,458.88,427,490.7,427a75.47,75.47,0,0,1,27.75,5.86v-0.76c0-13-11.71-20.62-27-20.62-12.47,0-20.88,3.31-31.82,8.91l-15-29.79C463,381.39,482.55,375,504.7,375,538.05,375,565.55,396.16,565.55,432.05Zm-47.1,38.7V458.28c-4.58-2.29-13.24-4.07-20.88-4.07-9.93,0-17.06,6.36-17.06,15.27,0,8.4,6.62,14.26,16,14.26C508.27,483.73,517.43,478.39,518.45,470.75Z" transform="translate(-19.72 -82.52)"></path><path class="a" d="M680.87,375v40.73c-26,0-41.24,14.26-41.24,38.19V509.7H590.5V378.08h49.13V401.5C648.29,385.21,663.05,375,680.87,375Z" transform="translate(-19.72 -82.52)"></path><path class="a" d="M822.17,432.05V509.7h-47.1v-9.42c-8.91,8.15-21.38,12.47-33.86,12.47-28.26,0-50.66-17.31-50.66-42C690.55,445,715.5,427,747.32,427a75.47,75.47,0,0,1,27.75,5.86v-0.76c0-13-11.71-20.62-27-20.62-12.47,0-20.88,3.31-31.82,8.91l-15-29.79c18.33-9.16,37.93-15.53,60.08-15.53C794.67,375,822.17,396.16,822.17,432.05Zm-47.1,38.7V458.28c-4.58-2.29-13.24-4.07-20.88-4.07-9.93,0-17.06,6.36-17.06,15.27,0,8.4,6.62,14.26,16,14.26C764.88,483.73,774.05,478.39,775.07,470.75Z" transform="translate(-19.72 -82.52)"></path><path class="b" d="M533.84,279.22c10.35-.64,18-10,16.94-20.74l-12.3-128.83c-1-10.76-10.67-20.46-21.43-21.54L264.51,82.62a19.36,19.36,0,0,0-21.24,17.61L228,278.78c-0.92,10.77,7.15,19,17.94,18.36l179.83-11.2c10.79-.67,16.53,7.07,12.76,17.2l-3.79,10.18c-3.77,10.13.76,13.93,10.08,8.45l53.33-31.41C507.41,284.88,523.5,279.86,533.84,279.22Z" transform="translate(-19.72 -82.52)"></path><path class="a" d="M381.81,244a59.82,59.82,0,0,1-3.7-5.21c-1.31-1.93-2.45-4.16-3.71-6.48-0.61-1.17-1.12-2.42-1.7-3.67s-1.17-2.53-1.62-3.88l-1.5-4.06c-0.53-1.36-.86-2.81-1.3-4.22s-0.85-2.86-1.24-4.3l-1-4.39c-0.3-1.47-.7-2.92-0.92-4.39L364.47,199l-0.66-4.32-0.4-4.24L363,186.38l-0.18-2-0.07-1.94-0.27-7.19c-0.13-2.22,0-4.26,0-6.07s0.06-3.38.08-4.68c0-2.59.07-4.07,0.07-4.07l0.24,4.07,0.27,4.66c0.12,1.8.17,3.83,0.47,6l0.8,7.1,0.22,1.91,0.33,1.94,0.69,4,0.71,4.14,1,4.18,1,4.24c0.33,1.42.82,2.8,1.22,4.21l1.26,4.18c0.48,1.37,1,2.71,1.5,4.05s0.94,2.69,1.55,3.95l1.71,3.75a39.48,39.48,0,0,0,1.8,3.54c0.63,1.13,1.19,2.27,1.84,3.31,1.33,2.06,2.53,4,3.85,5.69a52.78,52.78,0,0,0,3.63,4.38,60.42,60.42,0,0,1,15.48-67.91,64.68,64.68,0,0,0-40.68-31.19A64.52,64.52,0,0,0,382.64,245Z" transform="translate(-19.72 -82.52)"></path><path class="a" d="M437.92,168.17a52.38,52.38,0,0,0-46.47,75c0.57-1.72,1.36-4,2.31-6.61l1.82-4.83c0.68-1.7,1.35-3.5,2.14-5.34s1.55-3.74,2.41-5.65,1.73-3.85,2.64-5.77,1.89-3.81,2.82-5.68,2-3.65,2.93-5.4,2-3.36,3-4.92,2-2.94,2.88-4.26,1.86-2.42,2.64-3.45a28.25,28.25,0,0,1,2.17-2.53l2-2.13-1.72,2.33a27.75,27.75,0,0,0-1.88,2.72c-0.66,1.1-1.47,2.29-2.23,3.66s-1.56,2.87-2.38,4.47-1.6,3.33-2.39,5.12-1.58,3.65-2.31,5.58-1.51,3.86-2.17,5.84-1.38,3.94-2,5.91-1.22,3.89-1.77,5.77-1,3.7-1.53,5.43l-1.27,4.89c-0.75,3-1.34,5.57-1.72,7.34l-0.35,1.69A52.4,52.4,0,0,0,437.92,168.17Z" transform="translate(-19.72 -82.52)"></path><path class="c" d="M410.47,344.74a9.11,9.11,0,0,1-18.23,0h18.23Z" transform="translate(-19.72 -82.52)"></path></svg> 