<?xml version="1.0" encoding="utf-8"?>
<svg version="1.1" id="Layer_1" xmlns="http://www.w3.org/2000/svg" xmlns:xlink="http://www.w3.org/1999/xlink" x="0px" y="0px"
	 viewBox="0 0 455.8 190.8" xml:space="preserve">
<style type="text/css">
	.st0{fill:#FFFFFF;}
	.st1{fill:#1E1E1C;}
	.st2{fill:#00FF00;}
</style>
<rect width="455.7" height="190.8" fill="none" />
<g>
	<g>
		<g>
			<g>
				<path class="st0" d="M127.3,46.7c-1.6,0-2.9,1.3-2.9,2.9s1.3,2.9,2.9,2.9c1.6,0,2.9-1.3,2.9-2.9C130.2,48,128.9,46.7,127.3,46.7
					z"/>
				<path class="st0" d="M159.7,80.4c0-38.1-26.6-69.9-62.3-77.9v22.6c0,3.9-3.2,7.1-7.1,7.1c-3.9,0-7.1-3.2-7.1-7.1v-5.6v-6.2
					c0-2.7-2.2-4.8-4.8-4.8c-2.7,0-4.8,2.2-4.8,4.8l-0.3,4.6v36.7c0,2.5-2,4.5-4.5,4.5s-4.5-2-4.5-4.5V2c-6.5,1.3-12.7,3.3-18.5,6.1
					v28.6c0,2.5-2,4.4-4.4,4.4c-2.5,0-4.4-2-4.4-4.4v-3.2V21.2v-3.3c0-1.2-1-2.2-2.2-2.2s-2.2,1-2.2,2.2v0.4v10.4v2
					c0,1.6-1.3,2.9-2.9,2.9s-2.9-1.3-2.9-2.9v-9.9C10.4,35.4,0,56.7,0,80.4c0,17.5,5.6,33.6,15.1,46.8v24.6c0,3.5,2.6,6.6,6,7
					c4,0.4,7.4-2.8,7.4-6.7v-10.5l0,0l0,0c0-3.7,3-6.7,6.7-6.7s6.7,3,6.7,6.7v10.5v12.1c0,1.8,1.3,3.4,3,3.5c2,0.2,3.7-1.4,3.7-3.3
					v-2v-5.9c0-1.8,1.3-3.4,3-3.5c2-0.2,3.7,1.4,3.7,3.3v27.4c0,3.6,2.6,6.7,6.2,7.1c4.1,0.4,7.5-2.8,7.5-6.8v-24.5
					c3.6,0.5,7.2,0.8,10.9,0.8c17.2,0,33.1-5.4,46.1-14.7v5c0,3.7,3,6.7,6.7,6.7s6.7-3,6.7-6.7v-9.9v-36.8c0-2.9,2.3-5.2,5.2-5.2
					s5.2,2.3,5.2,5.2v17.7c0,2.7,2.2,5,5,5c2.7,0,5-2.2,5-5v-41l0,0C159.7,80.5,159.7,80.5,159.7,80.4z M54.5,108.8H41V66.7l-12,3.9
					V58.7l14.3-5.6h11.2V108.8z M67.8,109.9c-4.2,0-7.7-3.4-7.7-7.7c0-4.2,3.4-7.7,7.7-7.7c4.2,0,7.7,3.4,7.7,7.7
					C75.5,106.4,72,109.9,67.8,109.9z M99.1,109.9c-10,0-19.3-5.3-20.5-16.6h12.9c0.6,3.3,3.5,5.6,7.6,5.6c5.4,0,8.6-3.7,8.6-8.5
					c0-4.7-3-8.4-8.4-8.4c-3.7,0-6.4,1.5-7.5,4H79.4l5.3-33h31.2v10.7H95.4l-1.7,9.9c2.3-1.8,5.3-2.5,9.2-2.5
					c9.7,0,18.2,6.8,18.2,18.9C121.1,101,112.1,109.9,99.1,109.9z M127.3,57.3c-4.2,0-7.7-3.4-7.7-7.7c0-4.2,3.4-7.7,7.7-7.7
					c4.2,0,7.7,3.4,7.7,7.7C135,53.9,131.5,57.3,127.3,57.3z"/>
				<path d="M102.9,71.1c-3.8,0-6.8,0.8-9.2,2.5l1.7-9.9h20.5V53H84.7l-5.3,33h12.4c1.1-2.5,3.7-4,7.5-4c5.4,0,8.4,3.7,8.4,8.4
					c0,4.9-3.2,8.5-8.6,8.5c-4.1,0-7.1-2.2-7.6-5.6H78.6c1.3,11.3,10.5,16.6,20.5,16.6c13,0,22-8.9,22-19.9
					C121.1,77.9,112.6,71.1,102.9,71.1z"/>
				<polygon points="28.9,58.6 28.9,70.5 41,66.6 41,108.8 54.5,108.8 54.5,53 43.3,53 				"/>
				<path class="st0" d="M28.4,141.6C28.4,141.6,28.5,141.6,28.4,141.6L28.4,141.6L28.4,141.6z"/>
				<path class="st1" d="M127.3,42c-4.2,0-7.7,3.4-7.7,7.7c0,4.2,3.4,7.7,7.7,7.7c4.2,0,7.7-3.4,7.7-7.7C135,45.4,131.5,42,127.3,42
					z M127.3,52.6c-1.6,0-2.9-1.3-2.9-2.9s1.3-2.9,2.9-2.9c1.6,0,2.9,1.3,2.9,2.9C130.2,51.3,128.9,52.6,127.3,52.6z"/>
				<path d="M67.8,94.5c-4.2,0-7.7,3.4-7.7,7.7c0,4.2,3.4,7.7,7.7,7.7c4.2,0,7.7-3.4,7.7-7.7C75.5,97.9,72,94.5,67.8,94.5z"/>
			</g>
			<g>
				<path class="st0" d="M225.9,24l4.3-22.4h8.3l-8.2,34.2h-7.9l-6.7-23.9L209,35.8h-7.9l-8.2-34.2h8.3l4.3,22.4l6.4-22.4h7.8
					L225.9,24z"/>
				<path class="st0" d="M247.3,25.5v0.6c0,2.5,1.5,4.4,4.4,4.4c2.3,0,3.6-1.2,4.2-2.4h7.2c-0.9,4.7-5.6,8.2-11.4,8.2
					c-7.4,0-12.3-4.3-12.3-11.6v-3.2c0-7.1,4.4-12,12.1-12s11.7,5.2,11.7,11.3v4.7H247.3z M247.3,20.7h8.4v-0.9
					c0-2.5-1.3-4.4-4.2-4.4c-3,0-4.3,1.9-4.3,4.8v0.5H247.3z"/>
				<path class="st0" d="M294.4,1.5c9.4,0,14.3,5.7,14.3,13.6v7c0,7.9-4.8,13.6-14.3,13.6h-15V1.5H294.4z M300.3,15.1
					c0-4.3-2.3-6.6-7.4-6.6h-5.1v20.4h5.1c5.1,0,7.4-2.3,7.4-6.6V15.1z"/>
				<path class="st0" d="M320.8,25.5v0.6c0,2.5,1.5,4.4,4.4,4.4c2.3,0,3.6-1.2,4.2-2.4h7.2c-0.9,4.7-5.6,8.2-11.4,8.2
					c-7.4,0-12.3-4.3-12.3-11.6v-3.2c0-7.1,4.4-12,12.1-12c7.8,0,11.7,5.2,11.7,11.3v4.7H320.8z M320.8,20.7h8.4v-0.9
					c0-2.5-1.3-4.4-4.2-4.4c-3,0-4.3,1.9-4.3,4.8v0.5H320.8z"/>
				<path class="st0" d="M340.7,24.6v-3.3c0-6.8,4.4-11.7,12.5-11.7c7,0,11.9,4.4,12,10.5h-7.4c-0.1-2.1-1.6-4-4.5-4
					c-3,0-4.4,1.9-4.4,4.7v4.3c0,2.8,1.4,4.7,4.4,4.7c2.9,0,4.3-1.9,4.5-4h7.4c-0.1,6.1-5,10.5-12,10.5
					C345.1,36.3,340.7,31.4,340.7,24.6z"/>
				<path class="st0" d="M370.2,35.7V0h8.2v35.7C378.4,35.7,370.2,35.7,370.2,35.7z"/>
				<path class="st0" d="M400.6,35.7v-2.2c-1.5,1.7-4.3,2.7-7.6,2.7c-5.9,0-9.4-3.4-9.4-8.1c0-5.3,4-8,9.9-8c3.1,0,5.4,0.9,6.7,1.9
					v-3c0-1.9-1.3-3.3-3.6-3.3c-1.7,0-3,0.6-3.7,1.9h-7.5c1.1-5.1,5.4-8.2,11.4-8.2c7.3,0,11.5,4,11.5,10.3v15.9L400.6,35.7
					L400.6,35.7z M400.2,28.1c0-1.7-1.9-3-4.4-3c-2.8,0-4.5,1-4.5,3s1.9,3,4.4,3S400.2,29.8,400.2,28.1z"/>
				<path class="st0" d="M429.2,18h-1.1c-3.8,0-5.9,1.6-5.9,6v11.7H414V10.1h7.8v4.5c0.8-3.8,3.3-4.7,7-4.7h0.4L429.2,18L429.2,18z"
					/>
				<path class="st0" d="M439.9,25.5v0.6c0,2.5,1.5,4.4,4.4,4.4c2.3,0,3.6-1.2,4.2-2.4h7.2c-0.9,4.7-5.6,8.2-11.4,8.2
					c-7.4,0-12.3-4.3-12.3-11.6v-3.2c0-7.1,4.3-12,12.1-12s11.7,5.2,11.7,11.3v4.7H439.9z M439.9,20.7h8.4v-0.9
					c0-2.5-1.3-4.4-4.2-4.4c-3,0-4.3,1.9-4.3,4.8v0.5H439.9z"/>
				<path class="st0" d="M215.4,76.9H203l-1.9,6.4h-8.4l12.2-34.2h8.6l12.2,34.2h-8.3L215.4,76.9z M205.1,70.2h8.3l-4.1-13.5
					L205.1,70.2z"/>
				<path class="st0" d="M255.4,77c4.5,0,6.6-2.9,6.8-6.4h7.8c-0.1,7.2-5.4,13.3-14.5,13.3c-10.6,0-15.6-6.6-15.6-15.5v-4.5
					c0-8.9,5.1-15.5,15.6-15.5c9,0,14.4,6.1,14.5,13.3h-7.8c-0.1-3.4-2.3-6.4-6.8-6.4c-5.1,0-7.1,3.4-7.1,8.2v5.3
					C248.3,73.6,250.3,77,255.4,77z"/>
				<path class="st0" d="M275.3,83.3V47.6h8.2v35.7H275.3z"/>
				<path class="st0" d="M294,46.8c2.7,0,4.5,1.7,4.5,4.3c0,2.6-1.8,4.3-4.5,4.3s-4.5-1.7-4.5-4.3C289.4,48.5,291.3,46.8,294,46.8z
					 M289.9,83.3V57.7h8.2v25.6H289.9z"/>
				<path class="st0" d="M328,68.1v15.2h-8.2V68c0-2.3-1.1-3.8-3.6-3.8c-2.1,0-3.8,1.1-3.8,3.9v15.2h-8.2V57.7h7.9v3
					c1-2.2,3.6-3.6,6.9-3.6c3.5,0,6,1.3,7.4,3.6c1.9-2.2,4.3-3.6,8.1-3.6c5.9,0,9,3.8,9,9.7v16.5h-8.2V68c0-2.3-1.1-3.8-3.6-3.8
					C329.7,64.2,328,65.3,328,68.1z"/>
				<path class="st0" d="M365.2,83.3v-2.2c-1.5,1.7-4.3,2.7-7.6,2.7c-5.9,0-9.4-3.4-9.4-8.1c0-5.3,4-8,9.9-8c3.1,0,5.4,0.9,6.7,1.9
					v-3c0-1.9-1.3-3.3-3.6-3.3c-1.7,0-3,0.6-3.7,1.9H350c1.1-5.1,5.4-8.2,11.4-8.2c7.3,0,11.5,4,11.5,10.3v15.9h-7.7V83.3z
					 M364.9,75.6c0-1.7-1.9-3-4.4-3c-2.8,0-4.5,1-4.5,3s1.9,3,4.4,3S364.9,77.3,364.9,75.6z"/>
				<path class="st0" d="M387.9,50.8v6.9h4.9v6.4h-4.9V75c0,1.2,0.6,1.7,1.9,1.7h2.7v6.6h-5.4c-4.9,0-7.3-2.9-7.3-7.6V64h-3.4v-6.4
					h3.3v-6.9h8.2V50.8z"/>
				<path class="st0" d="M404.3,73v0.6c0,2.5,1.5,4.4,4.4,4.4c2.3,0,3.6-1.2,4.2-2.4h7.2c-0.9,4.7-5.6,8.2-11.4,8.2
					c-7.4,0-12.3-4.3-12.3-11.6v-3.1c0-7.1,4.4-12,12.1-12c7.8,0,11.7,5.2,11.7,11.3v4.7h-15.9V73z M404.3,68.3h8.4v-0.9
					c0-2.5-1.3-4.4-4.2-4.4c-3,0-4.3,1.9-4.3,4.8v0.5H404.3z"/>
				<path class="st0" d="M192.8,95.2h24.8v7h-16.4v6.4h14.9v7h-14.9v6.8h16.4v7h-24.8L192.8,95.2L192.8,95.2z"/>
				<path class="st0" d="M246.6,114.3v15.2h-8.2v-15.3c0-2.3-1.1-3.8-3.6-3.8c-2.1,0-3.8,1.1-3.8,3.9v15.2h-8.2v-25.6h7.9v3
					c1-2.2,3.6-3.6,6.9-3.6c3.5,0,6,1.3,7.4,3.6c1.9-2.2,4.4-3.6,8.1-3.6c5.9,0,9,3.8,9,9.7v16.5h-8.2v-15.3c0-2.3-1.1-3.8-3.6-3.8
					C248.4,110.4,246.6,111.4,246.6,114.3z"/>
				<path class="st0" d="M274.6,119.2v0.6c0,2.5,1.5,4.4,4.4,4.4c2.3,0,3.6-1.2,4.2-2.4h7.2c-0.9,4.7-5.6,8.2-11.4,8.2
					c-7.4,0-12.3-4.3-12.3-11.6v-3.2c0-7.1,4.4-12,12.1-12s11.7,5.2,11.7,11.3v4.7H274.6z M274.6,114.4h8.4v-0.9
					c0-2.5-1.3-4.4-4.2-4.4c-3,0-4.3,1.9-4.3,4.8v0.5H274.6z"/>
				<path class="st0" d="M310.7,111.7h-1.1c-3.8,0-5.9,1.6-5.9,6v11.7h-8.2v-25.6h7.8v4.5c0.8-3.8,3.3-4.7,7-4.7h0.4L310.7,111.7
					L310.7,111.7z"/>
				<path class="st0" d="M339,128.6c0,5.6-5.2,9.9-12.8,9.9c-6.3,0-11.5-3.1-12.4-8.2h8c0.6,1.4,2.3,2.1,4.4,2.1
					c2.9,0,4.6-1.7,4.6-4v-3c-1.2,1.5-3.9,2.8-6.7,2.8c-7.1,0-10.6-5.2-10.6-10.7V114c0-5.7,3.5-10.7,10.6-10.7c3.5,0,6.3,1.9,7,3.3
					v-2.7h7.8v24.7H339z M326.2,109.9c-3.1,0-4.5,2-4.5,4.6v2.4c0,2.7,1.5,4.6,4.5,4.6c2.8,0,4.6-1.7,4.6-4.4v-2.7
					C330.8,111.4,328.6,109.9,326.2,109.9z"/>
				<path class="st0" d="M351.7,119.2v0.6c0,2.5,1.5,4.4,4.4,4.4c2.3,0,3.6-1.2,4.2-2.4h7.2c-0.9,4.7-5.6,8.2-11.4,8.2
					c-7.4,0-12.3-4.3-12.3-11.6v-3.2c0-7.1,4.3-12,12.1-12c7.8,0,11.7,5.2,11.7,11.3v4.7H351.7z M351.7,114.4h8.4v-0.9
					c0-2.5-1.3-4.4-4.2-4.4c-3,0-4.3,1.9-4.3,4.8v0.5H351.7z"/>
				<path class="st0" d="M372.6,129.4v-25.6h7.9v3c1.3-2.3,3.9-3.6,7.1-3.6c5.9,0,9,3.8,9,9.7v16.5h-8.2v-15.3
					c0-2.3-1.2-3.8-3.7-3.8c-2.1,0-3.9,1-3.9,3.9v15.2L372.6,129.4L372.6,129.4z"/>
				<path class="st0" d="M401.1,118.3V115c0-6.8,4.4-11.7,12.5-11.7c7,0,11.9,4.4,12,10.5h-7.4c-0.1-2.1-1.6-4-4.4-4
					c-3,0-4.4,1.9-4.4,4.7v4.3c0,2.8,1.4,4.7,4.4,4.7c2.9,0,4.3-1.9,4.4-4h7.4c-0.1,6.1-5,10.5-12,10.5
					C405.6,130,401.1,125.1,401.1,118.3z"/>
				<path class="st0" d="M434.1,137.9l2.5-8.5l-9.2-25.6h8.2l4.9,17.3l4.1-17.3h8.2l-10.7,34.1H434.1L434.1,137.9z"/>
			</g>
		</g>
	</g>
	<rect x="192.8" y="150.4" class="st2" width="262.9" height="9.9"/>
</g>
</svg>
