<svg id="Layer_1" data-name="Layer 1" xmlns="http://www.w3.org/2000/svg" viewBox="0 0 330.52 304.76"><defs><style>.cls-1{fill:#fff}</style></defs><title>doteco-logo-white</title><path class="cls-1" d="M87.72 14.31a71.16 71.16 0 1 0 71.18 71.17 71.16 71.16 0 0 0-71.18-71.17zM251.65 176a71.17 71.17 0 1 0 71.17 71.18A71.17 71.17 0 0 0 251.65 176zm0 110a38.88 38.88 0 1 1 38.88-38.88 38.87 38.87 0 0 1-38.79 38.95h-.09zm-126.5-28.23A38.87 38.87 0 1 1 125 236h33a71.12 71.12 0 1 0 .11 21.74zm159.11-149.89a38.87 38.87 0 0 1-68.32-11.2h107.2a71.18 71.18 0 1 0-2.85 11.2zM253 45.94A38.87 38.87 0 0 1 287.56 67h-69.17A38.92 38.92 0 0 1 253 45.94zM324 317v-13.2h-2.92v-2h8.09v2h-3V317zm20.83 0v-12.87L339.65 317h-1.35l-5.16-12.91V317h-2.23v-15.24h3.51l4.58 11.71 4.6-11.71h3.5V317z" transform="translate(-16.58 -13.59)"/></svg>