<svg width="120" height="32" viewBox="0 0 120 32" xmlns="http://www.w3.org/2000/svg" fill="#1e7cae">
  <path d="M109.242 16.6c-1.13-1.06-3.592-.727-5.458-.26-1.537.385-3.135 1.194-4.553 2.811.654-3.851.781-8.037.886-11.493.126-4.14.221-7.234 1.15-7.456 3.067-.733 3.107 4.485 3.139 8.693.019 2.514.035 4.667.692 4.976 1.246-.219 2.771-3.208 4.325-6.254 1.724-3.378 3.483-6.826 4.933-6.636 1.83.238.467 6.384-1.821 12.423-.935.784-2.266 2.079-3.24 3.263-.01-.01-.017-.02-.024-.032-.009-.012-.017-.024-.029-.035ZM3.19 30.09h6.652A17.32 17.32 0 0 0 14 29.605c1.32-.328 2.491-.821 3.48-1.468a7.518 7.518 0 0 0 2.429-2.56c.599-1.04.902-2.266.902-3.64 0-.996-.165-1.916-.492-2.737a6.435 6.435 0 0 0-1.41-2.166 7.087 7.087 0 0 0-2.151-1.47 8.566 8.566 0 0 0-.384-.16 6.959 6.959 0 0 0 1.687-1.388c.988-1.118 1.49-2.509 1.49-4.134 0-1.38-.286-2.558-.852-3.505a6.859 6.859 0 0 0-2.2-2.276 9.097 9.097 0 0 0-3-1.213 15.337 15.337 0 0 0-3.234-.35H3.19C1.25 2.54.137 3.61.137 5.475v21.681c0 1.865 1.112 2.934 3.053 2.934Zm6.27-4.619H5.515v-7.324h4.288c1.898 0 3.347.304 4.307.905.862.54 1.282 1.424 1.282 2.702 0 .726-.154 1.32-.46 1.765a3.492 3.492 0 0 1-1.287 1.129c-.57.3-1.22.514-1.933.633-.752.126-1.51.19-2.252.19Zm.192-11.943H5.515V7.122h3.523c1.659 0 2.978.268 3.92.796.825.463 1.21 1.205 1.21 2.334 0 .58-.109 1.07-.325 1.457-.223.4-.52.723-.906.987a4.394 4.394 0 0 1-1.437.617 7.803 7.803 0 0 1-1.848.215ZM29.701 29.833c1.285.487 2.683.734 4.153.734 1.47 0 2.867-.246 4.155-.735a10.184 10.184 0 0 0 3.379-2.073 9.611 9.611 0 0 0 2.243-3.172c.536-1.216.809-2.565.809-4.01 0-1.445-.273-2.789-.81-3.995a9.488 9.488 0 0 0-2.247-3.136c-.949-.873-2.085-1.563-3.375-2.052-1.287-.487-2.684-.733-4.154-.733-1.47 0-2.866.246-4.153.733-1.292.49-2.423 1.181-3.36 2.055a9.592 9.592 0 0 0-2.223 3.133c-.538 1.206-.81 2.55-.81 3.995 0 1.445.272 2.794.808 4.01a9.748 9.748 0 0 0 2.22 3.168c.939.89 2.072 1.59 3.365 2.078ZM31.615 15.5c.641-.292 1.395-.44 2.24-.44.844 0 1.598.148 2.239.44a4.852 4.852 0 0 1 1.627 1.182c.443.5.785 1.089 1.019 1.752.238.677.36 1.398.36 2.143 0 .745-.122 1.467-.36 2.143a5.499 5.499 0 0 1-1.024 1.776c-.433.5-.98.902-1.622 1.195-.641.293-1.394.44-2.24.44-.846 0-1.6-.147-2.239-.44a4.708 4.708 0 0 1-1.622-1.195 5.463 5.463 0 0 1-1.024-1.776 6.443 6.443 0 0 1-.359-2.143c0-.745.12-1.466.36-2.143a5.275 5.275 0 0 1 1.018-1.752 4.84 4.84 0 0 1 1.627-1.182ZM57.178 30.567c1.47 0 2.866-.246 4.154-.735a10.184 10.184 0 0 0 3.38-2.073 9.611 9.611 0 0 0 2.242-3.172c.536-1.216.809-2.565.809-4.01 0-1.445-.273-2.789-.81-3.995a9.488 9.488 0 0 0-2.247-3.136c-.95-.873-2.085-1.563-3.375-2.052-1.287-.487-2.683-.733-4.153-.733-1.47 0-2.867.246-4.154.733-1.292.49-2.422 1.181-3.36 2.055a9.592 9.592 0 0 0-2.223 3.133c-.538 1.206-.81 2.55-.81 3.995 0 1.445.272 2.794.809 4.01a9.748 9.748 0 0 0 2.22 3.168c.938.89 2.07 1.59 3.364 2.078 1.286.487 2.684.734 4.154.734Zm0-15.508c.844 0 1.598.15 2.239.44a4.852 4.852 0 0 1 1.627 1.183c.443.5.785 1.089 1.019 1.752.239.677.36 1.398.36 2.143 0 .745-.121 1.467-.36 2.143a5.499 5.499 0 0 1-1.024 1.776c-.433.5-.979.902-1.622 1.195-.641.293-1.393.44-2.24.44-.845 0-1.599-.147-2.239-.44a4.708 4.708 0 0 1-1.622-1.195 5.463 5.463 0 0 1-1.024-1.776 6.443 6.443 0 0 1-.358-2.143c0-.745.12-1.466.358-2.143a5.275 5.275 0 0 1 1.02-1.752 4.84 4.84 0 0 1 1.626-1.182c.641-.292 1.395-.44 2.24-.44ZM84.144 30.181c.348.134.691.202 1.021.202.717 0 1.355-.25 1.846-.715a2.403 2.403 0 0 0 .594-2.603c-.112-.323-.327-.65-.657-1.001l-5.356-5.928 4.603-5.195.01-.011c.303-.355.496-.688.591-1.016.084-.292.125-.539.125-.756 0-.676-.253-1.258-.736-1.685-.47-.414-1.044-.624-1.705-.624-.304 0-.626.065-.991.197-.405.148-.784.44-1.127.868l-4.036 4.865-3.921-4.751c-.4-.51-.795-.832-1.209-.983a2.994 2.994 0 0 0-1.028-.197c-.689 0-1.289.223-1.784.663a2.288 2.288 0 0 0-.583 2.62c.124.309.327.612.621.927l4.561 5.12-5.297 6.006-.01.01c-.288.34-.488.658-.608.972a2.431 2.431 0 0 0-.183.872c0 .67.25 1.255.722 1.691.47.434 1.062.654 1.757.654.304 0 .626-.065.991-.197.407-.149.786-.442 1.158-.896l4.804-5.593 4.617 5.475c.426.535.81.856 1.21 1.01ZM107.922 21.614c.038-.087.078-.18.116-.283 1.079-.552 1.948-1.218 2.188-2.215.139-.574.119-1.058-.025-1.469 1.013-1.262 2.195-2.475 3.257-3.315 1.305-.53 2.812.964 2.395 2.434a9.038 9.038 0 0 0-.256.35c-.166.232-.362.507-.542.715-3.705 4.27-5.478 5.375-6.31 5.395-.38.01-.576-.053-.815-.333-.147-.176-.204-.442-.166-.793.018-.168.083-.316.158-.486Z"></path>
  <path d="M117.094 17.548c-.46.256-.814.683-1.11 1.049-.268.351-.577.705-.904 1.08-.955 1.096-2.067 2.373-2.784 4.297-.386 1.036-.349 1.766.239 2.13.558.345 1.523.323 2.562-.811 1.345-1.465 1.835-2.28 1.742-3.297-.017-.192.111-.583.408-.608.312-.027.478.233.495.424.111 1.225-.405 2.586-1.893 4.207-1.013 1.104-2.391 1.524-3.218 1.391a1.872 1.872 0 0 1-.691-.251c-.681-.42-1.558-1.643-.813-3.25.104-.224.218-.447.322-.651.166-.326.308-.604.349-.765-1.337 1.324-2.125 1.875-3.152 1.9-.612.013-1.384-.42-1.769-.872-.279-.327-.406-.58-.347-1.132.012-.116.037-.238.064-.36-1.12.555-2.211 1.097-2.997 2.149-.083.11-.329.33-.672.129-.314-.183-.134-.617-.018-.773.951-1.27 2.231-1.951 3.491-2.573l.37-.183c.114-.063.24-.13.373-.198 1.12-.585 2.712-1.417 1.791-2.962l-.034-.049c-.021-.031-.042-.062-.07-.089-.684-.642-2.471-.825-4.771-.086l-.071.023c-1.706.547-3.157 1.014-4.738 3.302-.643.93-.882 2.342-.619 3.918.498 2.99 2.292 4.603 3.718 5.583 3.012 2.072 13.849 4.716 17.407-8.363.568-2.087-.373-4.94-2.66-4.309Z"></path>
</svg>
