<svg width="75" height="32" viewBox="0 0 75 32" fill="none" xmlns="http://www.w3.org/2000/svg">
<g clip-path="url(#clip0_946_1471)">
<path d="M24.0107 0.512695V31.9379H30.9555V0.512695H24.0107Z" fill="#100C06"/>
<path d="M73.2995 15.3763C72.544 14.098 71.4294 13.0735 70.0933 12.4297C68.7125 11.7448 67.1177 11.4033 65.3071 11.4033H44.7222V31.9398H50.9672V19.7038C50.9654 18.1829 52.1936 16.9475 53.7102 16.9457C55.2268 16.9438 56.4587 18.1754 56.4605 19.6963C56.4605 19.6982 56.4605 19.7 56.4605 19.7019V31.938H62.7V19.7019C62.7 18.181 63.9301 16.9475 65.4467 16.9475C66.9633 16.9475 68.1933 18.181 68.1933 19.7019V31.938H74.4347V19.8829C74.4347 18.1586 74.0569 16.6564 73.2995 15.3763Z" fill="#100C06"/>
<path d="M34.3721 11.4033V31.9398H41.3168V11.4033H34.3721Z" fill="#100C06"/>
<path d="M37.8445 9.11184C36.661 9.12676 35.5259 8.64904 34.7052 7.79436C33.8529 6.97141 33.3766 5.83309 33.3915 4.64624C33.3766 3.46126 33.8529 2.32107 34.7052 1.49999C36.4135 -0.237361 39.2029 -0.259754 40.9373 1.45333C40.9522 1.46826 40.9689 1.48319 40.9838 1.49999C41.8361 2.32294 42.3106 3.46126 42.2976 4.64624C42.3125 5.83309 41.8361 6.97141 40.9838 7.79436C40.1632 8.65091 39.028 9.12676 37.8445 9.11184Z" fill="#100C06"/>
<path d="M0 0.481445V31.9403H7.14388V19.1406H8.38694L14.619 31.9403H21.9694L14.1333 16.6849L21.4335 4.14088H14.0831L8.51906 14.1395H7.14388V0.481445H0Z" fill="#100C06"/>
</g>
<defs>
<clipPath id="clip0_946_1471">
<rect width="74.4348" height="32" fill="white"/>
</clipPath>
</defs>
</svg>
