<svg width="150" viewBox="0 0 150 51" xmlns="http://www.w3.org/2000/svg" fill="#403b3e">
  <path d="M78.5683 35.5893H65.0407V14.4465H68.7878V31.8395H78.5683V35.5893Z"></path>
  <path d="M137.754 35.5866H134.01V14.4465H142.841C144.74 14.4465 146.562 15.2008 147.904 16.5436C149.247 17.8863 150.001 19.7075 150.001 21.6064C150.001 23.5054 149.247 25.3265 147.904 26.6693C146.562 28.012 144.74 28.7664 142.841 28.7664H137.754V35.5866ZM137.754 25.0165H142.841C143.746 25.0165 144.614 24.6571 145.254 24.0173C145.893 23.3775 146.253 22.5098 146.253 21.605C146.253 20.7003 145.893 19.8326 145.254 19.1928C144.614 18.553 143.746 18.1936 142.841 18.1936H137.754V25.0165Z"></path>
  <path d="M100.619 18.1936V14.4465H86.0708V35.5893H100.619V31.8395H89.8179V26.8791H98.7152V23.132H89.8179V18.1936H100.619Z"></path>
  <path d="M123.459 35.5866H127.457L119.597 14.4437H115.076L107.216 35.5866H111.217L113.06 30.6344H121.602L123.459 35.5866ZM114.449 26.8791L117.33 19.1207L120.227 26.8791H114.449Z"></path>
  <path d="M0 25.0165C0 29.9643 1.46719 34.801 4.21604 38.9149C6.96489 43.0289 10.8719 46.2353 15.4431 48.1287C20.0143 50.0222 25.0443 50.5176 29.897 49.5523C34.7497 48.5871 39.2072 46.2045 42.7059 42.7058C46.2045 39.2072 48.5871 34.7497 49.5523 29.897C50.5176 25.0443 50.0222 20.0143 48.1287 15.4431C46.2353 10.8719 43.0289 6.96489 38.9149 4.21604C34.801 1.46719 29.9643 0 25.0165 0C18.3833 0.00510052 12.0232 2.6424 7.3328 7.3328C2.6424 12.0232 0.00510052 18.3833 0 25.0165ZM36.0405 43.1743L20.312 26.8901H39.7876L17.5911 5.11995C22.5402 3.2889 27.9937 3.36553 32.8894 5.33493C37.7851 7.30432 41.7725 11.0255 44.075 15.7736C46.3775 20.5218 46.8302 25.957 45.345 31.0206C43.8597 36.0843 40.5429 40.4138 36.0405 43.1661V43.1743ZM3.73611 25.0165C3.7425 21.3629 4.69041 17.7727 6.48838 14.5921C8.28635 11.4116 10.8737 8.74813 14.0008 6.8587L30.6207 23.143H11.4752L32.5162 44.8966C29.2997 46.1217 25.8334 46.5459 22.4163 46.1326C18.9992 45.7192 15.734 44.4808 12.9024 42.524C10.0707 40.5673 7.7576 37.951 6.1626 34.9009C4.5676 31.8508 3.7386 28.4585 3.74711 25.0165H3.73611Z"></path>
</svg>
