<svg viewBox="0 0 189 64" fill="none" xmlns="http://www.w3.org/2000/svg">
<path fill-rule="evenodd" clip-rule="evenodd" d="M96.9311 12.4196C97.6941 12.9395 98.4256 13.5084 99.1231 14.1122C101.007 15.7338 102.66 17.6443 103.966 19.7742C105.245 21.9095 106.326 24.1947 106.899 26.6189C107.181 27.498 107.316 28.4125 107.45 29.3229C107.496 29.6374 107.542 29.9515 107.595 30.2634L107.659 30.7236L107.68 31.1892L107.712 32.1151C107.734 32.7305 107.745 33.3459 107.745 33.956C107.621 33.3513 107.504 32.7519 107.391 32.1525L107.231 31.2534L107.15 30.8039L107.027 30.3651C106.928 30.0076 106.838 29.6487 106.748 29.2905C106.543 28.4743 106.339 27.6622 106.027 26.8812C105.94 26.6486 105.86 26.4133 105.78 26.178C105.667 25.8446 105.554 25.511 105.422 25.1847L104.689 23.5418C104.53 23.1402 104.322 22.761 104.114 22.382C104.033 22.2356 103.953 22.0892 103.875 21.9416C103.807 21.8177 103.74 21.6929 103.673 21.5681C103.638 21.501 103.602 21.4338 103.565 21.3669C103.211 21.5699 102.83 21.7334 102.43 21.8614C99.0374 22.9424 94.2263 21.4814 91.5237 19.9241C86.643 17.1038 85.0697 11.2652 83.7318 6.19182C82.5758 1.80885 80.4619 0 80.4619 0C84.9947 0.155197 89.6239 0.561921 94.0229 1.72857C101.087 3.60699 108.36 10.4571 105.92 18.3453C105.709 19.0235 105.412 19.5977 105.044 20.0794C104.764 19.5507 104.466 19.0313 104.154 18.5219C102.842 16.3706 101.13 14.4761 99.214 12.8706C97.2981 11.2759 95.1307 9.9433 92.7706 9.19408C94.2596 10.1726 95.6424 11.2545 96.9311 12.4196Z" fill="#17263D"/>
<path d="M115.727 17.5107C115.157 17.8966 114.611 18.3203 114.091 18.7737C112.705 19.9724 111.485 21.3799 110.522 22.9479C109.58 24.5267 108.777 26.2071 108.36 27.9945C108.149 28.641 108.051 29.314 107.953 29.9829C107.919 30.2165 107.885 30.4497 107.846 30.681C107.795 30.9636 107.789 31.2548 107.784 31.545C107.78 31.711 107.777 31.8767 107.766 32.0403C107.744 32.4952 107.733 32.9501 107.733 33.3996C107.828 32.9962 107.898 32.5917 107.967 32.1891C108.05 31.7051 108.132 31.2239 108.258 30.7506C108.339 30.4679 108.411 30.1836 108.483 29.8997C108.63 29.3183 108.777 28.7392 108.996 28.1818C109.062 28.0056 109.122 27.8284 109.181 27.6515C109.263 27.4093 109.345 27.1676 109.441 26.9295L109.981 25.7201C110.094 25.4252 110.245 25.1517 110.396 24.8788C110.458 24.7654 110.521 24.6521 110.58 24.5374C110.628 24.45 110.675 24.3624 110.722 24.2749C110.751 24.2208 110.78 24.1668 110.809 24.113C111.073 24.2653 111.357 24.3879 111.656 24.4838C114.155 25.2812 117.703 24.2056 119.694 23.055C123.296 20.9785 124.457 16.6758 125.442 12.935C126.293 9.70267 127.85 8.37012 127.85 8.37012C124.511 8.4825 121.096 8.78219 117.853 9.6438C112.646 11.0299 107.284 16.0764 109.082 21.8937C109.238 22.3959 109.459 22.8204 109.732 23.176C109.94 22.783 110.159 22.3965 110.388 22.0167C111.367 20.438 112.609 19.0305 114.027 17.8532C115.44 16.6758 117.04 15.7018 118.779 15.1453C117.685 15.8615 116.672 16.6553 115.727 17.5107Z" fill="#17263D"/>
<path d="M134.39 54.4469C133.747 53.8047 132.768 53.6228 131.949 54.0135C130.659 54.6235 129.305 54.9179 127.877 54.8751C125.228 54.8055 123.055 53.9278 121.364 52.2421C119.667 50.5563 118.795 48.3729 118.752 45.697C118.725 44.2735 119.014 42.9303 119.603 41.6673C119.983 40.8645 119.764 39.9012 119.132 39.2751L115.707 35.8661C114.69 34.8547 112.999 35.0955 112.271 36.3317C110.671 39.0557 109.842 42.1115 109.788 45.499C109.702 50.6366 111.474 55.0035 115.102 58.6105C118.731 62.2175 123.114 63.93 128.251 63.7534C131.542 63.641 134.555 62.7901 137.285 61.206C138.526 60.4836 138.772 58.8032 137.756 57.7917L134.39 54.4469Z" fill="#17263D"/>
<path d="M122.638 35.7966C123.269 36.4228 124.232 36.6368 125.041 36.2622C126.309 35.6735 127.652 35.3792 129.081 35.4006C131.762 35.4381 133.951 36.2943 135.647 37.9801C137.344 39.6658 138.216 41.844 138.28 44.5091C138.313 45.9219 138.024 47.2598 137.43 48.5281C137.05 49.3416 137.232 50.3049 137.874 50.9417L141.326 54.3774C142.31 55.3568 143.98 55.1909 144.702 54.0028C146.431 51.1558 147.276 47.9983 147.244 44.5305C147.196 39.4036 145.409 35.0902 141.877 31.5796C140.234 29.942 138.296 28.6843 136.081 27.8067C133.86 26.929 131.57 26.4795 129.209 26.4581C126.844 26.4313 124.441 26.929 122.001 27.9351C121.23 28.2508 120.481 28.6201 119.753 29.0375C118.501 29.7547 118.255 31.4404 119.271 32.4572L122.638 35.7966Z" fill="#17263D"/>
<path d="M91.7857 54.9178C90.9134 54.0455 89.5862 53.7297 88.4463 54.206C87.285 54.6877 86.0702 54.9178 84.7965 54.8803C82.1475 54.8108 79.9801 53.9331 78.2836 52.2473C76.5871 50.5616 75.7202 48.3781 75.672 45.7023C75.6506 44.4607 75.8647 43.2834 76.3142 42.1649C76.7637 41.0357 76.539 39.7567 75.672 38.9004L73.4136 36.6527C71.9633 35.2131 69.5123 35.6038 68.6025 37.4234C67.3877 39.8637 66.7562 42.5609 66.708 45.5043C66.6224 50.6418 68.3938 55.0088 72.0222 58.6158C75.6506 62.2228 80.0336 63.9353 85.1711 63.7587C88.0342 63.657 90.6833 63.0041 93.1236 61.7946C94.9485 60.8902 95.3392 58.4552 93.8943 57.021L91.7857 54.9178Z" fill="#17263D"/>
<path d="M79.1663 35.4168C80.0333 36.2784 81.323 36.4978 82.4575 36.0483C83.576 35.6041 84.7534 35.3847 85.995 35.4007C88.6815 35.4382 90.8649 36.2944 92.5614 37.9802C94.2525 39.666 95.1302 41.8441 95.1944 44.5092C95.2211 45.7668 94.9964 46.9709 94.5254 48.1162C94.0598 49.24 94.3809 50.5351 95.2479 51.3967L97.4635 53.6016C98.9084 55.0412 101.349 54.6451 102.269 52.8309C103.559 50.2996 104.185 47.5328 104.158 44.5306C104.11 39.4037 102.323 35.0903 98.7907 31.5797C97.1477 29.9421 95.2158 28.6844 92.9949 27.8068C90.774 26.9291 88.4835 26.4796 86.1234 26.4528C83.7633 26.4314 81.3605 26.9238 78.9148 27.9299C78.5241 28.0904 78.1388 28.267 77.7588 28.449C75.9232 29.3534 75.5272 31.7884 76.9775 33.2333L79.1663 35.4168Z" fill="#17263D"/>
<path d="M156.519 26.5552C155.406 26.5552 154.544 26.705 153.939 27.0047C153.533 27.2081 153.249 27.5666 153.078 28.0857C152.906 28.6048 152.826 29.3005 152.826 30.1728C152.826 31.0452 152.912 31.7516 153.078 32.2867C153.244 32.8219 153.581 33.2179 154.089 33.4694C154.592 33.721 155.39 33.8441 156.471 33.8441H166.184V59.1037C166.184 59.8743 166.211 60.4577 166.259 60.8376C166.307 61.2229 166.462 61.6618 166.714 62.1488C166.965 62.6358 167.404 62.9783 168.03 63.1816C168.651 63.385 169.486 63.4813 170.535 63.4813C171.578 63.4813 172.424 63.3796 173.066 63.1816C173.708 62.9783 174.152 62.6358 174.409 62.1488C174.661 61.6618 174.816 61.2336 174.864 60.8644C174.912 60.4951 174.939 59.9278 174.939 59.1519V33.8387H184.604C185.717 33.8387 186.579 33.6889 187.184 33.3892C187.59 33.1858 187.874 32.8273 188.045 32.3081C188.216 31.789 188.302 31.0933 188.302 30.221C188.302 29.3487 188.216 28.6423 188.045 28.1071C187.874 27.572 187.542 27.1759 187.034 26.9244C186.531 26.6729 185.733 26.5498 184.652 26.5498H156.519V26.5552Z" fill="#17263D"/>
<path d="M50.4871 43.0595C54.6025 39.1368 57.6368 36.0489 59.5955 33.8012C60.607 32.6292 61.1154 31.6124 61.1154 30.7561C61.1154 29.8999 60.4411 28.8938 59.0925 27.7378C57.7439 26.5819 56.6307 26.0039 55.7531 26.0039C54.8754 26.0039 53.8479 26.6943 52.6652 28.0643C49.8288 31.3502 46.1201 35.5619 41.5338 40.6941V31.0879C41.5338 29.9159 41.4482 29.0436 41.2823 28.471C40.8434 27.2294 39.4413 26.6086 37.0813 26.6086C34.9246 26.6086 33.6027 27.0635 33.1318 27.9679C32.8642 28.471 32.7036 28.9152 32.6501 29.3005C32.602 29.6858 32.5752 30.2638 32.5752 31.0344V59.0127C32.5752 60.19 32.6769 61.0409 32.8802 61.5815C33.287 62.8551 34.6677 63.492 37.0277 63.492C39.1898 63.492 40.5009 63.0371 40.9772 62.1327C41.2448 61.6296 41.4054 61.1908 41.4589 60.8215C41.507 60.4523 41.5338 59.8636 41.5338 59.0609V49.246L52.6652 61.8758C53.88 63.2833 54.9182 63.9897 55.7798 63.9897C56.6414 63.9897 57.7439 63.4117 59.0925 62.2558C60.4411 61.0998 61.1154 60.0937 61.1154 59.2374C61.1154 58.3812 60.5588 57.3323 59.4457 56.0907C57.2836 53.6075 53.6231 49.9042 48.4641 44.97L50.4871 43.0595Z" fill="#17263D"/>
<path d="M1.3165 58.3063C0.438833 57.2306 0 56.2673 0 55.411C0 54.5548 0.722468 53.4256 2.17811 52.0181C3.01831 51.2154 3.91738 50.8087 4.85927 50.8087C5.80115 50.8087 7.11765 51.6489 8.80341 53.3239C9.27435 53.8912 9.94866 54.4371 10.8263 54.9615C11.704 55.4806 12.5121 55.7428 13.256 55.7428C16.392 55.7428 17.96 54.4692 17.96 51.9164C17.96 51.1458 17.5319 50.4983 16.6703 49.9792C15.8087 49.46 14.7384 49.0801 13.454 48.85C12.1749 48.6145 10.7889 48.2399 9.30646 47.7154C7.82407 47.1963 6.438 46.5862 5.15896 45.8798C3.87457 45.1734 2.80425 44.0603 1.94264 42.5351C1.08103 41.0098 0.652898 39.1742 0.652898 37.0229C0.652898 34.0688 1.76068 31.4947 3.96555 29.3005C6.17577 27.101 9.18873 26.0039 12.9991 26.0039C15.022 26.0039 16.8683 26.2661 18.538 26.7852C20.2077 27.3043 21.3637 27.8342 22.0059 28.3693L23.2688 29.3273C24.3124 30.3013 24.8369 31.1201 24.8369 31.7944C24.8369 32.4687 24.4301 33.3891 23.622 34.5611C22.4768 36.2362 21.2941 37.0764 20.0793 37.0764C19.3729 37.0764 18.4952 36.7446 17.4463 36.0703C17.3446 36.0061 17.1519 35.8348 16.8629 35.5672C16.574 35.2997 16.3171 35.0802 16.0763 34.9143C15.3698 34.4809 14.4654 34.2615 13.3683 34.2615C12.2713 34.2615 11.3615 34.5237 10.639 35.0428C9.9112 35.5619 9.55264 36.2844 9.55264 37.2048C9.55264 38.1253 9.98077 38.8745 10.8424 39.4418C11.704 40.0144 12.7743 40.3998 14.0587 40.5978C15.3377 40.8011 16.7399 41.1115 18.2597 41.5289C19.7796 41.9464 21.1764 42.4601 22.4607 43.0649C23.7398 43.6696 24.8155 44.7185 25.6771 46.2116C26.5387 47.7047 26.9668 49.5403 26.9668 51.7238C26.9668 53.9072 26.528 55.8231 25.6503 57.4875C24.7726 59.1465 23.6274 60.4309 22.2092 61.3353C19.4745 63.112 16.5579 64.0004 13.454 64.0004C11.8699 64.0004 10.3661 63.8077 8.95326 63.4224C7.53508 63.0371 6.38983 62.5608 5.51217 61.9882C3.72473 60.9179 2.4778 59.8743 1.77139 58.8682L1.3165 58.3063Z" fill="#17263D"/>
</svg>
