<?xml version="1.0" encoding="UTF-8"?> <svg xmlns="http://www.w3.org/2000/svg" width="67.111" height="114.765" viewBox="0 0 67.111 114.765"><g transform="translate(2.4 68.551)"><path d="M148.011,275.783l3.223,17.262.913,4.89a1.787,1.787,0,0,0,2.19,1.258,1.852,1.852,0,0,0,1.243-2.216l-3.223-17.262-.913-4.89a1.788,1.788,0,0,0-2.19-1.258,1.852,1.852,0,0,0-1.243,2.216Z" transform="translate(-147.97 -273.498)"></path></g><path d="M143.79,204.341l21.41-2.274,6-.637-.9-3.357L159.656,204.8l-10.645,6.732-6.025,3.811a1.8,1.8,0,0,0,.9,3.357q10.9-.05,21.785-.786,3.058-.208,6.111-.469a1.9,1.9,0,0,0,1.259-.528,1.84,1.84,0,0,0,.521-1.274,1.812,1.812,0,0,0-1.78-1.8q-10.863.929-21.768,1.173-3.064.068-6.128.082l.9,3.357,10.645-6.732,10.645-6.732,6.025-3.81a1.847,1.847,0,0,0,.818-2.034,2.151,2.151,0,0,0-.458-.795,1.753,1.753,0,0,0-1.259-.528l-21.41,2.274-6,.637a1.917,1.917,0,0,0-1.259.528,1.843,1.843,0,0,0-.522,1.274,1.81,1.81,0,0,0,1.78,1.8Z" transform="translate(-141.453 -152.964)"></path><path d="M247.058,199.567l.8,15.846c.031.608.04,1.222.112,1.827a4.168,4.168,0,0,0,.994,2.424,5.187,5.187,0,0,0,3.684,1.344c2.663.149,5.332.232,8,.348l9.082.394a1.775,1.775,0,0,0,1.78-1.744,1.8,1.8,0,0,0-1.78-1.743l-14.036-.608c-1.224-.053-2.472-.041-3.689-.19l.473.062a4.4,4.4,0,0,1-.988-.238l.425.176a2.7,2.7,0,0,1-.293-.14c-.047-.026-.093-.054-.137-.084q.375.3.17.127c-.041-.035-.079-.072-.116-.111q-.176-.2.123.164a3.4,3.4,0,0,0-.184-.329l.179.417a3.112,3.112,0,0,1-.187-.733l.063.464c-.133-1.1-.132-2.225-.188-3.331l-.175-3.47-.351-6.94-.2-3.933a1.781,1.781,0,0,0-3.56,0Z" transform="translate(-213.999 -152.964)"></path><path d="M248.744,200.733l14.85-.14,4.2-.039a1.8,1.8,0,0,0,0-3.6l-14.85.14-4.2.039a1.8,1.8,0,0,0,0,3.6Z" transform="translate(-213.934 -152.366)"></path><path d="M255.131,228.366,269.564,228l4.046-.1a1.809,1.809,0,0,0,0-3.6l-14.433.368-4.046.1a1.809,1.809,0,0,0,0,3.6Z" transform="translate(-218.438 -171.146)"></path><path d="M147.628,278.636A92.688,92.688,0,0,1,157.6,276.5l-.466.065a32.043,32.043,0,0,1,8.716-.12l-.466-.064a9.161,9.161,0,0,1,2.312.577l-.419-.182a5.463,5.463,0,0,1,.556.278q.131.076.258.162c.142.1.35.343-.058-.058.137.135.27.27.4.409-.381-.395-.17-.238-.074-.076a2.476,2.476,0,0,1,.126.25l-.177-.43a2.359,2.359,0,0,1,.149.552l-.063-.479a2.418,2.418,0,0,1-.006.585l.063-.479a2.717,2.717,0,0,1-.144.517l.177-.43a3.749,3.749,0,0,1-.28.515q-.117.169.138-.182c-.038.047-.078.093-.118.138-.061.067-.126.132-.192.194-.033.031-.067.061-.1.091q-.156.132.178-.141a2.3,2.3,0,0,0-.239.163,5.027,5.027,0,0,1-.613.322l.418-.182a19.9,19.9,0,0,1-3.145.911q-1.652.406-3.316.755-3.383.71-6.807,1.185l.466-.064q-4.769.658-9.582.86a1.8,1.8,0,0,0,0,3.6,104.451,104.451,0,0,0,11.393-1.12,92.315,92.315,0,0,0,10.7-2.238c1.9-.527,3.907-1.624,4.413-3.762a4.035,4.035,0,0,0-.411-2.951,4.928,4.928,0,0,0-1.787-1.729,11.821,11.821,0,0,0-4.979-1.241,30.684,30.684,0,0,0-5.477.029,79.484,79.484,0,0,0-12.453,2.433,1.826,1.826,0,0,0-1.224,2.216,1.783,1.783,0,0,0,2.156,1.258Z" transform="translate(-142.513 -204.324)"></path><path d="M204.057,302.443l4.407,10.614a1.706,1.706,0,0,0,.809.923,2.022,2.022,0,0,0,1.357.156c.848-.241,1.568-1.087,1.23-1.9l-4.407-10.614a1.706,1.706,0,0,0-.809-.923,2.023,2.023,0,0,0-1.357-.156c-.848.241-1.567,1.087-1.23,1.9Z" transform="translate(-184.245 -223.486)"></path><path d="M154.848,361.767a13.2,13.2,0,0,0-4.052-.8,12.341,12.341,0,0,0-3.988.443,9.139,9.139,0,0,0-5.867,4.63,7.618,7.618,0,0,0-.677,4.049,8.723,8.723,0,0,0,1.387,3.91,9.956,9.956,0,0,0,6.624,4.127,14.5,14.5,0,0,0,4.788-.033,11.927,11.927,0,0,0,4.249-1.693,1.841,1.841,0,0,0,.639-2.465,1.8,1.8,0,0,0-2.436-.646,12.252,12.252,0,0,1-1.6.849l.425-.182a10.248,10.248,0,0,1-2.6.72l.473-.065a12.526,12.526,0,0,1-3.279,0l.473.064a9.806,9.806,0,0,1-2.355-.644l.425.182a8.807,8.807,0,0,1-1.246-.648q-.158-.1-.312-.207c-.115-.08-.442-.378-.015,0-.163-.145-.336-.278-.5-.428s-.312-.308-.458-.473c-.08-.091-.152-.193-.235-.281.384.4.1.128.009,0a7.1,7.1,0,0,1-.656-1.2l.179.43a7.187,7.187,0,0,1-.483-1.755l.064.479a6.547,6.547,0,0,1-.009-1.625l-.064.479a5.882,5.882,0,0,1,.366-1.395l-.179.431a6.623,6.623,0,0,1,.648-1.16c.19-.28-.285.341-.064.085.077-.089.151-.18.23-.267q.208-.229.437-.437.115-.1.234-.2c.311-.26-.314.226-.047.034.169-.122.339-.243.515-.354a8.929,8.929,0,0,1,1.19-.625l-.425.182a9.811,9.811,0,0,1,2.474-.683l-.473.065a12.231,12.231,0,0,1,3.2.008l-.473-.064a11.534,11.534,0,0,1,2.518.635,1.776,1.776,0,0,0,1.372-.182,1.813,1.813,0,0,0,.639-2.465,2.024,2.024,0,0,0-1.064-.828Z" transform="translate(-140.214 -265.023)"></path><path d="M217.115,351.492c.151.083.3.172.443.269.062.042.121.088.183.13.121.082-.392-.32-.117-.09a5.406,5.406,0,0,1,.673.675c.093.111.281.4-.066-.1.037.053.076.1.113.156q.148.212.279.436a7.478,7.478,0,0,1,.438.887l-.17-.409a9.876,9.876,0,0,1,.627,2.41l-.06-.455a13.794,13.794,0,0,1-.018,3.569l.06-.455a13.869,13.869,0,0,1-.9,3.426l.17-.409a8.991,8.991,0,0,1-.792,1.5c-.078.117-.16.231-.242.346-.117.162.27-.341.1-.133-.048.059-.1.12-.145.179q-.282.339-.6.648t-.627.563c-.268.22.247-.186.1-.077l-.153.115q-.186.137-.377.264a10.028,10.028,0,0,1-1.553.839l.4-.173a10.092,10.092,0,0,1-2.583.715l.449-.061a9.365,9.365,0,0,1-2.441,0l.45.061a8.664,8.664,0,0,1-2.161-.6l.4.172a9.13,9.13,0,0,1-1.59-.886c-.118-.083-.577-.449-.1-.064-.123-.1-.247-.2-.367-.3q-.345-.3-.661-.633t-.6-.693c-.082-.1-.23-.349.069.093-.045-.066-.1-.129-.141-.194q-.128-.179-.248-.364a10.875,10.875,0,0,1-.883-1.665l.171.409a10.537,10.537,0,0,1-.718-2.626l.06.455a9.65,9.65,0,0,1,0-2.485l-.06.455a9.946,9.946,0,0,1,.655-2.4l-.171.409a10.684,10.684,0,0,1,.946-1.77q.145-.218.3-.429c.223-.3-.239.3-.045.058.051-.063.1-.126.152-.188q.321-.388.675-.746t.74-.682l.187-.153c.239-.194-.32.24-.088.07.14-.1.28-.206.425-.3a10.7,10.7,0,0,1,1.789-.983l-.4.172a9.9,9.9,0,0,1,2.467-.691l-.449.061a8.725,8.725,0,0,1,2.317.007l-.45-.061a9.727,9.727,0,0,1,2.372.666l-.4-.172a11.112,11.112,0,0,1,1.761.951q.211.14.416.289c.068.05.136.1.2.152.224.166-.266-.214-.108-.085.264.216.523.436.771.67a15.222,15.222,0,0,1,1.352,1.489c-.375-.461.012.022.094.137q.149.21.289.427.28.431.525.884a1.7,1.7,0,0,0,2.313.614,1.757,1.757,0,0,0,.606-2.341,14.318,14.318,0,0,0-5.655-5.727,10.873,10.873,0,0,0-8.038-1.015,11.8,11.8,0,0,0-6.134,19.1,10.535,10.535,0,0,0,6.373,3.8,11.448,11.448,0,0,0,7.509-1.381,10.641,10.641,0,0,0,2.859-2.371,11.418,11.418,0,0,0,1.927-3.375,14.128,14.128,0,0,0,.752-3.047,15.455,15.455,0,0,0,.131-3.56,9.685,9.685,0,0,0-2.685-6.32,7.1,7.1,0,0,0-1.384-1.013,1.706,1.706,0,0,0-2.313.614,1.749,1.749,0,0,0,.607,2.34Z" transform="translate(-181.864 -254.981)"></path><path d="M250.932,281.591c.092-.156.19-.308.3-.454.046-.063.1-.124.142-.187.09-.123-.347.4-.1.119a5.655,5.655,0,0,1,.725-.678c.119-.093.423-.277-.1.065.056-.036.11-.075.166-.112q.225-.147.461-.274a7.571,7.571,0,0,1,.932-.421l-.428.161a9.963,9.963,0,0,1,2.508-.551l-.471.043a13.876,13.876,0,0,1,3.671.181l-.465-.084a14.014,14.014,0,0,1,3.484,1.105l-.413-.2a9.173,9.173,0,0,1,1.51.9c.117.087.23.179.345.271.162.13-.339-.3-.132-.113.059.054.119.106.177.16q.335.313.64.658.291.33.551.686c.214.292-.18-.268-.075-.111.037.055.075.111.111.167q.132.2.254.409a10.692,10.692,0,0,1,.793,1.674l-.159-.433a10.853,10.853,0,0,1,.619,2.754l-.042-.476a10.136,10.136,0,0,1-.111,2.571l.083-.47a9.3,9.3,0,0,1-.715,2.25l.2-.418a9.678,9.678,0,0,1-.983,1.635c-.09.121-.488.588-.07.106-.109.125-.217.251-.33.372q-.325.35-.681.668t-.74.6c-.11.081-.369.226.1-.069-.07.044-.137.094-.206.14q-.191.126-.386.245a11.085,11.085,0,0,1-1.753.855l.428-.161a10.643,10.643,0,0,1-2.734.637l.471-.043a9.687,9.687,0,0,1-2.556-.111l.465.084a10.053,10.053,0,0,1-2.443-.8l.412.2a10.9,10.9,0,0,1-1.778-1.077q-.218-.162-.427-.336c-.3-.249.294.265.058.05-.062-.056-.125-.111-.187-.168q-.385-.356-.737-.746t-.667-.811c-.05-.067-.1-.135-.149-.2-.189-.26.233.348.068.1-.1-.152-.2-.3-.294-.461a11.381,11.381,0,0,1-.931-1.929l.159.433a10.642,10.642,0,0,1-.6-2.631l.042.476a9.428,9.428,0,0,1,.112-2.44l-.084.471a10.448,10.448,0,0,1,.793-2.468l-.2.417a11.8,11.8,0,0,1,1.059-1.811q.153-.216.316-.425c.054-.07.11-.138.165-.208.181-.228-.232.271-.093.11.234-.268.472-.531.724-.782a15.739,15.739,0,0,1,1.593-1.357c-.492.374.023-.012.145-.092q.223-.147.452-.285c.3-.184.616-.354.933-.514a1.811,1.811,0,0,0,.736-2.409,1.786,1.786,0,0,0-2.38-.745,14.893,14.893,0,0,0-6.148,5.7,11.7,11.7,0,0,0-1.409,8.421c1.19,5.382,6.085,9.842,11.619,9.954a12.468,12.468,0,0,0,7.756-2.626,11.144,11.144,0,0,0,4.2-6.54,12.319,12.319,0,0,0-1.08-7.972,11.179,11.179,0,0,0-2.309-3.12,11.714,11.714,0,0,0-3.385-2.183,14.26,14.26,0,0,0-3.1-.93,15.564,15.564,0,0,0-3.656-.3,9.85,9.85,0,0,0-6.624,2.541,7.452,7.452,0,0,0-1.1,1.412,1.824,1.824,0,0,0,.526,2.464,1.777,1.777,0,0,0,2.435-.533Z" transform="translate(-212.851 -206.054)"></path><path d="M143.885,54.673c16.643-1.464,27.5,9.9,29.53,22a25.385,25.385,0,0,1,.377,4.053c.022,5.039-.028,10.079-.055,15.119,0,.233-.033.466-.058.816a33.154,33.154,0,0,1-10.695-.944,26.662,26.662,0,0,1-19.243-25.626c-.022-4.8.041-9.6.07-14.4C143.813,55.344,143.86,55,143.885,54.673Z" transform="translate(-142.646 -54.545)" fill="#00b985"></path><path d="M273.77,127.82c1.14,6.277-2.5,13.677-8.3,16.975a16.214,16.214,0,0,1-8.168,2.231c-3.239-.008-6.479-.035-9.819-.055a17.692,17.692,0,0,1,1.855-10.149c3.174-5.794,8.05-8.913,14.629-9.106,3.007-.088,6.02,0,9.031.022A7.437,7.437,0,0,1,273.77,127.82Z" transform="translate(-214.238 -104.782)" fill="#00b985"></path><path d="M281.363,363.631c.165-.234.325-.48.507-.7-.033.04-.254.321-.1.136.051-.062.1-.125.152-.187.092-.111.187-.219.285-.324s.176-.183.268-.27q.086-.081.175-.158c.049-.042.233-.189,0-.007s-.012.015.047-.025.1-.069.158-.1a3.673,3.673,0,0,1,.4-.208l-.425.182a2.929,2.929,0,0,1,.729-.2l-.473.064a3.078,3.078,0,0,1,.681,0l-.473-.065a2.7,2.7,0,0,1,.643.171l-.425-.182a2.3,2.3,0,0,1,.258.131c.016.009.107.083.12.079-.042.015-.373-.343-.167-.123a1.082,1.082,0,0,0,.1.1c.118.093-.211-.331-.145-.194.052.108.12.2.168.316l-.18-.43a2.414,2.414,0,0,1,.123.477l-.064-.479a3.437,3.437,0,0,1-.012.8l.064-.479a19.958,19.958,0,0,1-.633,2.552q-.365,1.288-.78,2.561-.839,2.572-1.88,5.07l.179-.43q-.263.63-.538,1.255a2.028,2.028,0,0,0-.211,1.149,1.719,1.719,0,0,0,.49,1.034,1.858,1.858,0,0,0,2.157.282q.646-.3,1.3-.579l-.425.182a45.922,45.922,0,0,1,11.775-3.244l-.473.065a45.9,45.9,0,0,1,5.993-.407,1.8,1.8,0,0,0,0-3.6,47.137,47.137,0,0,0-15.591,2.681c-1.485.526-2.945,1.132-4.376,1.8l2.436,2.465a71.605,71.605,0,0,0,3.408-9.427c.477-1.7,1.171-3.675.2-5.332a4.055,4.055,0,0,0-4.423-1.7c-1.846.384-3.073,2.021-4.1,3.478a1.813,1.813,0,0,0,.639,2.465,1.816,1.816,0,0,0,2.436-.646Z" transform="translate(-235.403 -263.151)"></path></svg> 