<svg width="120" height="39" viewBox="0 0 120 39" fill="none" xmlns="http://www.w3.org/2000/svg">
<g clip-path="url(#clip0_729_2954)">
<path fill-rule="evenodd" clip-rule="evenodd" d="M50.7951 24.691C51.607 24.9262 52.3542 25.2844 52.9508 25.9215V25.9184C53.8472 26.8763 53.8718 28.3419 53.1 29.3356C52.5926 29.9898 51.8899 30.3294 51.1149 30.5194C50.776 30.6023 50.4322 30.6626 50.0788 30.7246C49.9079 30.7546 49.7348 30.7849 49.5589 30.8184L49.6277 31.0697L49.6278 31.0702L49.6284 31.0723C49.7315 31.4491 49.8326 31.8181 49.9356 32.186C50.0963 32.7561 50.2573 33.3261 50.4184 33.8962C50.5795 34.4663 50.7405 35.0363 50.9012 35.6064C50.974 35.8644 51.0458 36.1225 51.1176 36.3806L51.118 36.3819L51.1184 36.3834L51.1186 36.3841C51.2528 36.8666 51.387 37.3488 51.527 37.829C51.5977 38.072 51.5347 38.2792 51.3994 38.4661C51.1196 38.8524 50.7259 38.991 50.2739 38.9147C49.8111 38.8368 49.5297 38.5346 49.4021 38.0783C49.2208 37.4277 49.0381 36.7772 48.8555 36.1266C48.7639 35.8006 48.6724 35.4745 48.581 35.1485C48.2443 33.9492 47.9075 32.7514 47.5692 31.5521C47.5427 31.459 47.5144 31.367 47.484 31.2683L47.4838 31.2674L47.4837 31.2671C47.4649 31.2059 47.4452 31.1422 47.4247 31.0739C45.0414 31.3138 42.6474 31.4275 40.2349 31.387C40.2349 31.4495 40.2338 31.5091 40.2326 31.5667C40.2303 31.6843 40.2282 31.7933 40.2365 31.901C40.2718 32.3822 40.3095 32.8631 40.3472 33.344C40.3848 33.8249 40.4225 34.3058 40.4579 34.7871C40.4946 35.29 40.526 35.7937 40.5574 36.2975L40.5576 36.3015L40.5578 36.3054C40.571 36.5168 40.5842 36.7282 40.5978 36.9397C40.6038 37.0349 40.6106 37.1301 40.6175 37.2253C40.6352 37.4713 40.6529 37.7175 40.6562 37.9646C40.6639 38.5253 40.2995 38.9598 39.7429 39.0829C39.3231 39.1748 38.8003 38.8991 38.6081 38.4381C38.5325 38.2573 38.5165 38.0471 38.501 37.8447L38.4974 37.7979C38.4409 37.1112 38.3927 36.4244 38.3444 35.7377L38.3237 35.4429C38.2938 35.0176 38.266 34.5923 38.2381 34.167C38.2172 33.8478 38.1963 33.5285 38.1745 33.2093C38.1606 33.0001 38.1454 32.7912 38.1302 32.5824L38.1301 32.5818L38.1301 32.5812L38.1301 32.581L38.13 32.5809C38.1049 32.2367 38.0799 31.8928 38.0608 31.5489C38.0515 31.3885 38.0085 31.3231 37.8363 31.3231C37.5257 31.32 37.2151 31.2935 36.906 31.2624C36.5662 31.2281 36.2233 30.8683 36.1142 30.4929C35.8482 29.5786 36.5939 28.9291 37.3565 29.0132C37.4674 29.0252 37.5791 29.0265 37.6909 29.0278C37.7388 29.0284 37.7868 29.029 37.8347 29.0304C37.8333 28.9823 37.8324 28.9341 37.8314 28.886C37.8292 28.7737 37.8269 28.6614 37.8194 28.5491C37.7873 28.0884 37.754 27.6277 37.7206 27.167C37.6739 26.5218 37.6272 25.8767 37.5841 25.2315C37.5518 24.7595 37.5257 24.2876 37.5164 23.8156C37.5057 23.2923 37.8824 22.8063 38.3468 22.7129C38.8695 22.607 39.3816 22.8655 39.5768 23.3795C39.6505 23.5752 39.6613 23.7988 39.6718 24.0148L39.6752 24.0835L39.6764 24.1067C39.6881 24.3374 39.6939 24.4525 39.7539 24.5028C39.8137 24.5529 39.9273 24.5388 40.1538 24.5107L40.1565 24.5103C40.4002 24.4804 40.6437 24.4493 40.8873 24.4183L40.8874 24.4182C41.4813 24.3425 42.0751 24.2667 42.6705 24.2081C44.1927 24.0586 45.7211 24.0025 47.2494 24.0913C48.4503 24.1614 49.6373 24.3546 50.7951 24.691ZM50.3646 28.3855C50.6398 28.3404 50.9304 28.2672 51.1657 28.1239L51.1626 28.1223C51.627 27.8404 51.6177 27.6877 51.2518 27.3793C50.8459 27.0367 50.3461 26.8949 49.8526 26.7719C48.8947 26.532 47.9167 26.4028 46.9327 26.342C45.7626 26.2704 44.5925 26.2891 43.427 26.4059C42.6888 26.4793 41.9532 26.573 41.2177 26.6666L41.2176 26.6666L41.2174 26.6666C40.8147 26.7179 40.412 26.7691 40.0089 26.8171C39.8859 26.8326 39.8674 26.8918 39.8751 26.9946C39.8927 27.2265 39.9095 27.4584 39.9263 27.6902C39.949 28.0049 39.9718 28.3193 39.9966 28.6332C40.0057 28.7396 40.0194 28.8461 40.0334 28.9547L40.0335 28.9554C40.0408 29.0118 40.0482 29.0689 40.055 29.1269C40.3611 29.1269 40.6657 29.1291 40.9693 29.1313C41.6539 29.1363 42.3332 29.1412 43.0118 29.1207C43.8489 29.0966 44.6847 29.0323 45.5205 28.968L45.7626 28.9494C46.4622 28.8964 47.1633 28.8326 47.8599 28.7469C48.6978 28.6441 49.5328 28.5226 50.3646 28.3855ZM104.171 35.5332L103.936 35.5716C103.948 35.544 103.957 35.5206 103.964 35.5002L103.965 35.4992L103.965 35.4989L103.965 35.4989C103.978 35.4649 103.988 35.4389 104.001 35.4148C104.248 34.9368 104.499 34.4601 104.749 33.9834L104.75 33.9823L104.75 33.9809L104.751 33.9806C105.333 32.8707 105.916 31.7611 106.468 30.6362C106.95 29.6565 107.36 28.6394 107.755 27.6208C108.006 26.9697 108.063 26.2766 107.917 25.5819C107.565 23.9153 106.073 23.1459 104.649 23.1833C104.053 23.1988 103.504 23.4169 102.998 23.7362C102.252 24.2082 101.628 24.8187 101.019 25.4526C100.645 25.842 100.546 26.2766 100.679 26.7859C100.824 27.3326 101.362 27.7469 101.905 27.5678C102.149 27.4884 102.372 27.3108 102.575 27.1395C102.763 26.981 102.944 26.8135 103.125 26.646C103.348 26.4398 103.571 26.2336 103.807 26.0445C104.188 25.7392 104.646 25.5835 105.137 25.61C105.537 25.6318 105.858 25.9713 105.8 26.4043C105.769 26.6317 105.71 26.8607 105.624 27.0725C104.803 29.1082 103.844 31.0754 102.794 32.9959C102.312 33.8761 101.8 34.7404 101.288 35.6041C101.086 35.9462 100.883 36.2883 100.682 36.6313C100.516 36.9148 100.419 37.2091 100.432 37.544C100.458 38.2215 101.093 38.7355 101.745 38.5907C102.062 38.5201 102.378 38.4461 102.694 38.3721L102.694 38.3721L102.694 38.3721L102.694 38.3721L102.694 38.3721L102.695 38.372C103.152 38.2649 103.61 38.1578 104.07 38.0611C104.697 37.9287 105.327 37.8072 105.961 37.7169C106.736 37.6063 107.515 37.5191 108.295 37.4521C109.144 37.3789 109.994 37.3213 110.844 37.2948C111.527 37.2746 112.211 37.2886 112.894 37.3228C113.79 37.368 114.69 37.4163 115.58 37.5222C116.231 37.6003 116.878 37.704 117.526 37.8077C117.937 37.8736 118.349 37.9395 118.761 37.9988C118.957 38.0269 119.177 38.0378 119.36 37.977C120.021 37.7543 120.307 37.0908 120.073 36.3976C119.928 35.9709 119.664 35.6765 119.215 35.5939C118.565 35.474 117.914 35.3619 117.261 35.2622C116.661 35.1703 116.058 35.0784 115.454 35.0223L115.354 35.013C114.586 34.9412 113.817 34.8693 113.048 34.8603C111.716 34.8448 110.383 34.8619 109.052 34.9102C108.392 34.9331 107.734 35.0157 107.076 35.0981C106.975 35.1108 106.874 35.1235 106.773 35.136C106.303 35.1936 105.833 35.2685 105.364 35.3434L105.364 35.3434C105.173 35.3739 104.983 35.4043 104.792 35.4335C104.589 35.4644 104.386 35.4978 104.171 35.5332ZM14.1373 26.5258C13.8683 26.5383 13.5992 26.5503 13.3302 26.5624C13.061 26.5745 12.7919 26.5865 12.5228 26.599C12.3477 26.6074 12.1725 26.6154 11.9975 26.6234C11.8146 26.6317 11.6319 26.6401 11.4496 26.6489C10.1396 26.7112 8.82954 26.775 7.51951 26.8389L7.46262 26.8416C6.63123 26.8812 5.79843 26.9208 4.9671 26.9635C4.73398 26.9755 4.50087 26.9873 4.26776 26.9991L4.26693 26.9991C3.44713 27.0405 2.62754 27.0818 1.80888 27.1364C1.43832 27.1613 1.21691 26.9868 1.07084 26.6816C0.920154 26.3623 0.835586 26.0243 0.940143 25.6676C1.10159 25.1209 1.33377 24.8577 1.89499 24.8296C2.32312 24.8082 2.75124 24.7901 3.17904 24.7721C3.46722 24.7599 3.75524 24.7478 4.04301 24.7346C5.3386 24.6754 6.63418 24.6132 7.92977 24.5509L7.93159 24.5508C8.47664 24.5251 9.02102 24.4979 9.56561 24.4708L9.56567 24.4708L9.56572 24.4708L9.56577 24.4708L9.56582 24.4708L9.56587 24.4708L9.56592 24.4708C9.84468 24.4569 10.1235 24.443 10.4025 24.4293C11.0468 24.3974 11.6914 24.3658 12.3361 24.3343C12.9807 24.3028 13.6253 24.2712 14.2696 24.2393C14.6847 24.2191 15.0998 24.1984 15.515 24.1778L15.5153 24.1778C15.9304 24.1571 16.3454 24.1365 16.7605 24.1163C16.8987 24.1098 17.0371 24.1046 17.1756 24.0994L17.1756 24.0994C17.4697 24.0883 17.7639 24.0772 18.0566 24.0539C18.3642 24.0306 18.5625 24.1863 18.7086 24.4215C19.0884 25.0368 18.9008 25.895 18.3165 26.2875C16.4753 27.5214 14.6407 28.767 12.806 30.0127C12.1418 30.4637 11.4776 30.9147 10.813 31.3652C8.73113 32.7779 6.64923 34.1906 4.56887 35.6033C4.4966 35.6516 4.42741 35.7061 4.35668 35.812C4.41627 35.8177 4.47587 35.8244 4.53552 35.8311C4.65594 35.8446 4.77658 35.8582 4.89791 35.8634L4.89834 35.8634C6.08676 35.9148 7.27518 35.9662 8.46513 36.0098C9.2493 36.0378 10.0335 36.0581 10.8176 36.0674C12.4352 36.0877 14.0527 36.1033 15.6703 36.1095C16.2792 36.1126 16.8881 36.0892 17.4954 36.0659C17.8029 36.0534 18.0182 36.1858 18.1597 36.4475C18.4303 36.9537 18.4533 37.4646 18.1474 37.9646C17.9828 38.234 17.7307 38.3664 17.4185 38.3695C17.0652 38.3733 16.7119 38.3753 16.3586 38.3774C16.123 38.3787 15.8874 38.3801 15.6518 38.382C15.2948 38.385 14.9378 38.3892 14.5807 38.3935L14.5804 38.3935H14.5804H14.5804H14.5804H14.5803C13.8211 38.4026 13.0616 38.4116 12.3014 38.4085C11.2328 38.4038 10.1642 38.382 9.09554 38.3508C8.06228 38.3212 7.02902 38.2823 5.99575 38.2278C5.08923 38.1792 4.1827 38.1186 3.27617 38.0581L3.27615 38.0581H3.27614L3.27592 38.0581C3.04932 38.0429 2.82273 38.0278 2.59613 38.0128C2.37416 37.9984 2.15246 37.9809 1.93069 37.9633H1.93068H1.93067L1.93045 37.9633L1.93038 37.9633C1.62687 37.9393 1.32323 37.9153 1.01856 37.8991C0.552669 37.8742 0.343556 37.5674 0.220548 37.178C0.0314243 36.5752 0.2513 35.9973 0.772545 35.6438C3.39876 33.865 6.02343 32.0863 8.6481 30.306C9.53895 29.7018 10.4294 29.0972 11.3199 28.4926C12.2107 27.8878 13.1016 27.2829 13.9928 26.6784L14.1542 26.5663C14.1512 26.5601 14.1481 26.5534 14.145 26.5468C14.1419 26.5402 14.1389 26.5336 14.1358 26.5274L14.1373 26.5258ZM27.8832 31.0684H27.8834H27.8835H27.8837H27.8839C28.3846 31.068 28.8852 31.0677 29.3856 31.0677L29.3826 31.0708V31.0879L30.282 31.088H30.2821H30.2823H30.2824H30.2826C31.4797 31.0883 32.676 31.0885 33.8723 31.0848C33.9969 31.0848 34.1291 31.0614 34.246 31.0178C34.6811 30.8574 34.9763 30.3823 34.9071 29.9774C34.8026 29.373 34.4213 29.0179 33.88 29.0148L26.1229 28.9727L25.4568 28.9687C24.5687 28.9633 23.6805 28.9578 22.7924 28.9603C22.6018 28.9603 22.5556 28.8917 22.5464 28.7111C22.5095 27.9666 22.4695 27.2205 22.4019 26.4775C22.3834 26.2672 22.4434 26.247 22.611 26.2501C23.2319 26.2632 23.8528 26.2746 24.4737 26.286C24.8876 26.2936 25.3015 26.3012 25.7154 26.3093C26.1854 26.318 26.6551 26.3275 27.1248 26.3371L27.125 26.3371L27.1252 26.3371L27.1255 26.3371L27.1257 26.3371L27.1257 26.3371L27.1258 26.3371L27.1258 26.3371L27.1258 26.3371C27.7514 26.3498 28.3768 26.3625 29.0028 26.3732C29.3841 26.3802 29.7649 26.3827 30.1455 26.3853H30.1455C30.4417 26.3873 30.7378 26.3893 31.0339 26.3934C31.1769 26.3955 31.3203 26.4021 31.4636 26.4086C31.6378 26.4166 31.812 26.4246 31.9857 26.4246C32.1106 26.4242 32.2358 26.4257 32.361 26.4272C32.7429 26.4318 33.125 26.4364 33.5002 26.3872C34.0307 26.3171 34.3582 25.8545 34.3213 25.3607C34.2829 24.8343 33.8739 24.4153 33.3511 24.381C32.9944 24.3592 32.6361 24.3452 32.2779 24.3374C31.2554 24.3156 30.2344 24.2969 29.2134 24.2782C28.0033 24.2549 26.7917 24.2331 25.5816 24.2128C25.3207 24.2088 25.0597 24.2057 24.7988 24.2025C24.4508 24.1983 24.1029 24.1941 23.755 24.1879C23.4492 24.1817 23.1433 24.1747 22.8372 24.1676L22.8371 24.1676L22.8371 24.1676L22.837 24.1676L22.8369 24.1676C22.298 24.1553 21.7587 24.1429 21.2195 24.1349C20.7151 24.1272 20.0309 24.5711 20.137 25.2938C20.164 25.4766 20.1706 25.663 20.1773 25.8496C20.1805 25.9396 20.1838 26.0296 20.1893 26.1193L20.227 26.7034C20.2663 27.315 20.3057 27.9261 20.3477 28.5382C20.373 28.9061 20.4003 29.2745 20.4275 29.6429V29.6429V29.6429V29.6429L20.4276 29.644C20.4549 30.0128 20.4822 30.3816 20.5076 30.7499C20.5358 31.1604 20.5616 31.5703 20.5874 31.9804L20.5875 31.9806L20.5875 31.9808L20.5875 31.981L20.5875 31.9812L20.5875 31.9813L20.5875 31.9815L20.5875 31.9817L20.5875 31.9818C20.6081 32.3088 20.6287 32.6359 20.6506 32.9632C20.6641 33.1626 20.6771 33.3622 20.6901 33.5619L20.6901 33.5622C20.7286 34.1547 20.7672 34.7479 20.8212 35.3385C20.8281 35.4131 20.8345 35.488 20.8409 35.5631V35.5632V35.5632V35.5632V35.5632C20.8778 35.993 20.915 36.4278 21.038 36.8322C21.3548 37.8711 22.1928 38.2589 23.1753 38.3633C23.7779 38.4278 24.3852 38.4475 24.992 38.4673L25.2387 38.4754C25.8023 38.4953 26.3659 38.5063 26.9295 38.5172C27.2516 38.5235 27.5736 38.5298 27.8957 38.5377C28.3078 38.5479 28.7202 38.5592 29.1327 38.5704C29.5452 38.5817 29.9576 38.593 30.3697 38.6032L31.0924 38.621C32.1896 38.6483 33.2878 38.6756 34.3859 38.6935C34.9118 38.7028 35.4007 38.2418 35.4099 37.7527C35.4207 37.1795 35.0132 36.7123 34.4259 36.6796C33.562 36.6328 32.6964 36.6111 31.831 36.5894H31.831H31.831C31.5135 36.5815 31.196 36.5735 30.8786 36.5643C30.2078 36.5446 29.5355 36.5263 28.8646 36.5081L28.8643 36.5081L28.8106 36.5067C28.3002 36.4927 27.7899 36.479 27.2796 36.4654L27.2794 36.4654L27.2792 36.4654L27.279 36.4654L27.2788 36.4654C26.7684 36.4518 26.258 36.4381 25.7477 36.4241C25.5294 36.4181 25.3112 36.4124 25.0931 36.4068C24.5815 36.3936 24.0702 36.3804 23.5581 36.3618C23.1507 36.3478 23.0615 36.2372 23.04 35.8291C23.0031 35.1111 22.9554 34.3931 22.9077 33.6766C22.8539 32.8698 22.7955 32.0645 22.7325 31.2592C22.7186 31.0848 22.7801 31.0318 22.9493 31.0365C23.592 31.0536 24.2347 31.0661 24.8774 31.0677C25.879 31.0697 26.8812 31.069 27.8832 31.0684ZM77.9506 38.977C75.8226 38.9318 73.9606 38.3664 72.3353 37.1063C71.1375 36.1796 70.3042 34.9834 69.8921 33.5115C69.6461 32.6283 69.5738 31.7218 69.7045 30.8091C69.8921 29.4976 70.3718 28.303 71.1298 27.2236C71.9494 26.0539 72.9826 25.1318 74.2481 24.4838C75.0384 24.0789 75.8733 23.8203 76.7528 23.691C77.4401 23.5898 78.1274 23.5664 78.8147 23.6427C80.2478 23.8032 81.5747 24.2798 82.7725 25.0991C83.1323 25.3452 83.303 25.8 83.1923 26.1987C83.0647 26.6613 82.8079 27.032 82.3082 27.0943C82.1067 27.1192 81.8561 27.0476 81.6808 26.9339C80.952 26.4666 80.1832 26.0912 79.3406 25.9152C77.3817 25.504 75.5935 25.8903 74.0298 27.1924C73.141 27.9323 72.4937 28.8481 72.0878 29.9415C71.7956 30.7281 71.7172 31.5427 71.8218 32.362C71.9263 33.1844 72.2984 33.9024 72.8381 34.527C73.773 35.6111 74.9708 36.2606 76.3146 36.6546C77.0742 36.8774 77.8614 36.9443 78.6425 36.8431C80.3062 36.625 81.607 35.8213 82.4373 34.3105C82.6418 33.9398 82.9063 33.6781 83.3599 33.703C84.0902 33.7435 84.7237 34.5286 84.324 35.3027C83.5475 36.8057 82.3512 37.8259 80.8013 38.4318C80.0694 38.7184 79.3099 38.8897 78.5226 38.9302C78.3493 38.9387 78.1768 38.9547 78.0494 38.9665L78.049 38.9666C78.0127 38.97 77.9801 38.973 77.9521 38.9754L77.9506 38.977ZM68.5067 29.8356C68.4767 29.6146 68.4152 29.3973 68.3545 29.1825L68.3314 29.1005C67.8348 27.3155 66.8184 25.9168 65.2747 24.92C64.1937 24.2222 63.0113 23.8265 61.7367 23.6864C60.7587 23.5789 59.8054 23.6786 58.8752 23.9745C57.3714 24.4527 56.2044 25.4059 55.2957 26.6925C54.6314 27.6332 54.2147 28.6784 54.0149 29.8216C53.8703 30.6518 53.8903 31.4726 54.0487 32.2919C54.2071 33.1049 54.4869 33.8806 54.8867 34.6049C55.4233 35.5768 56.0614 36.4724 56.8732 37.2325C56.884 37.2426 56.8948 37.2526 56.9055 37.2625C57.0072 37.3563 57.104 37.4457 57.09 37.6203C57.0835 37.7112 57.1232 37.8099 57.1607 37.9032C57.1676 37.9202 57.1744 37.9371 57.1808 37.9536C57.3391 38.3617 57.6728 38.5331 58.0633 38.6561C58.8936 38.9162 59.7455 39.0424 60.6065 39.1125C61.1278 39.1561 61.6413 39.0969 62.158 39.0081C62.7576 38.9053 63.345 38.7729 63.9123 38.5549C65.2255 38.0518 66.3264 37.2512 67.1551 36.0955C68.1684 34.6843 68.6174 33.0831 68.642 31.1097C68.6358 31.0499 68.6289 30.9784 68.6211 30.8978L68.621 30.8976C68.5938 30.6167 68.5558 30.2252 68.5021 29.8356H68.5067ZM66.4217 31.5926C66.3986 32.7841 66.0035 33.9507 65.2208 34.9678C64.7042 35.6407 64.0215 36.1079 63.2404 36.4148C62.3871 36.7496 61.4999 36.9116 60.585 36.8338C60.0422 36.787 59.5717 36.5129 59.1335 36.1998C57.8819 35.3089 57.0162 34.108 56.4519 32.6828C55.9737 31.4742 56.0322 30.2577 56.5196 29.0693C57.0639 27.7391 57.9603 26.7376 59.3057 26.2065C60.0868 25.8981 60.9017 25.8265 61.7336 25.9402C62.7161 26.0741 63.6094 26.4308 64.3998 27.0367C65.33 27.75 65.9358 28.6815 66.231 29.8294C66.371 30.3777 66.4402 30.929 66.4217 31.5941V31.5926ZM96.205 25.0897C97.5304 26.0165 98.4253 27.2656 98.925 28.8107H98.9219C99.1895 29.6362 99.3186 30.4836 99.3094 31.3542C99.2863 33.3027 98.7405 35.069 97.4627 36.5581C96.4833 37.6997 95.244 38.4302 93.8048 38.8041C92.9607 39.0237 92.1027 39.2044 91.2247 39.1062C90.6204 39.0379 90.0209 38.9276 89.4219 38.8175C89.3381 38.8021 89.2543 38.7866 89.1705 38.7714C88.9414 38.7293 88.7169 38.6467 88.497 38.5626C88.0942 38.4084 87.8435 38.1172 87.7897 37.6748C87.7697 37.5066 87.7036 37.3758 87.576 37.2543C86.5289 36.2497 85.7109 35.0799 85.1604 33.728C84.8498 32.9663 84.653 32.1766 84.6161 31.348C84.5208 29.2173 85.2373 27.3996 86.6611 25.8529C87.4561 24.9885 88.394 24.3374 89.5164 23.9854C90.4682 23.6879 91.4384 23.5742 92.4348 23.6879C93.8079 23.8452 95.0672 24.2938 96.205 25.0897ZM93.6541 36.5144C95.5607 35.8494 96.6094 34.4304 97.0015 32.4726H97.003C97.1691 31.6455 97.146 30.8184 96.9523 29.9898C96.7831 29.2671 96.5048 28.5973 96.0558 28.0179C94.9518 26.5959 93.4681 25.951 91.5922 25.8747C91.5252 25.8841 91.4517 25.894 91.3733 25.9046C91.128 25.9376 90.8349 25.977 90.5436 26.0289C90.359 26.0616 90.1792 26.1286 90.0039 26.1971C89.026 26.5772 88.2618 27.2282 87.6975 28.1161C86.8287 29.482 86.5151 30.9539 87.0686 32.5099C87.6191 34.0566 88.5508 35.3416 89.9147 36.2715C90.3191 36.5471 90.7527 36.7855 91.2432 36.8337C92.0658 36.9147 92.8776 36.7855 93.6541 36.5144Z" fill="#403b3e"/>
<path fill-rule="evenodd" clip-rule="evenodd" d="M18.787 11.7167C17.7153 5.31196 11.9709 -0.708022 3.1666 0.0676445V0.069202C3.16258 0.125272 3.15707 0.182676 3.15148 0.240924C3.14 0.360663 3.12817 0.483965 3.12817 0.606561C3.12377 1.33203 3.11788 2.05763 3.11198 2.78331C3.09723 4.59877 3.08247 6.4148 3.09126 8.23083C3.12048 14.5717 7.25353 20.0621 13.2701 21.8003C15.1199 22.3346 17.0019 22.3797 18.927 22.3003C18.9316 22.2388 18.9366 22.1839 18.9411 22.1334C18.9502 22.0333 18.9577 21.9507 18.9577 21.8689C18.9613 21.183 18.9657 20.497 18.9702 19.811C18.9831 17.8283 18.9961 15.8452 18.9869 13.863C18.9823 13.1465 18.9054 12.4238 18.787 11.7167ZM29.6132 21.1882C32.6823 19.4422 34.6058 15.5234 34.0031 12.1995H34.0046C33.9671 12.1951 33.9291 12.1896 33.8905 12.184C33.7945 12.1702 33.6954 12.1559 33.5956 12.1559C33.1123 12.1535 32.629 12.1473 32.1457 12.1411C31.0362 12.1268 29.9269 12.1125 28.8183 12.145C25.3372 12.2478 22.7586 13.8988 21.0796 16.9672C20.1739 18.6214 19.9494 20.4266 20.0986 22.3408C20.577 22.3438 21.0516 22.347 21.5234 22.3501C22.7937 22.3586 24.0436 22.367 25.2926 22.3704C26.8379 22.3735 28.2709 21.953 29.6132 21.1882Z" fill="#00B985"/>
</g>
</svg>
