<?xml version="1.0" encoding="UTF-8"?>
<svg id="Logo" xmlns="http://www.w3.org/2000/svg" width="1.902in" height="2.6836in" version="1.1" viewBox="0 0 136.941 193.219">
  <!-- Generator: Adobe Illustrator 29.5.0, SVG Export Plug-In . SVG Version: 2.1.0 Build 137)  -->
  <defs>
    <style>
      .st0 {
        fill: #fff;
      }
    </style>
  </defs>
  <g>
    <path class="st0" d="M48.2709,60.0291h19.9812c4.8631,0,11.2668,0,14.5841,2.0059,3.6265,2.1602,6.4787,6.0948,6.4787,11.4972,0,5.8625-3.0827,10.26-8.1761,12.3415v.1555c6.7925,1.3874,10.4928,6.481,10.4928,13.2715,0,8.098-5.7878,15.8152-16.7419,15.8152h-26.6188v-55.0867ZM55.5964,83.7151h14.6666c8.3291,0,11.7275-3.0088,11.7275-8.7966,0-7.6388-5.3986-8.7168-11.7275-8.7168h-14.6666v17.5135ZM55.5964,108.9427h18.3681c6.3249,0,10.3392-3.8569,10.3392-9.8737,0-7.1764-5.7872-9.1822-11.9624-9.1822h-16.7448v19.0559Z"/>
    <path class="st0" d="M110.372,87.5952c0,23.1428-18.7582,41.9028-41.9064,41.9028s-41.898-18.76-41.898-41.9028,18.759-41.8965,41.898-41.8965,41.9064,18.7567,41.9064,41.8965ZM68.4656,39.3076c-26.6525,0-48.2614,21.6089-48.2614,48.2644s21.6089,48.2638,48.2614,48.2638,48.2713-21.6098,48.2713-48.2638-21.6098-48.2644-48.2713-48.2644Z"/>
  </g>
  <rect class="st0" x="20.304" y="146.0167" width="96.333" height="6.3322"/>
  <g>
    <path class="st0" d="M28.7545,164.7816c-.1744-1.22-1.3421-2.148-2.6824-2.148-2.421,0-3.3332,2.0634-3.3332,4.2113,0,2.0423.9122,4.1043,3.3332,4.1043,1.6482,0,2.5808-1.1336,2.7823-2.7493h2.616c-.2765,3.0595-2.3899,5.0171-5.3983,5.0171-3.7954,0-6.0285-2.8351-6.0285-6.3721,0-3.6439,2.2331-6.479,6.0285-6.479,2.6983,0,4.9649,1.5817,5.2932,4.4156h-2.6107Z"/>
    <path class="st0" d="M37.1013,163.8036c2.801,0,4.6047,1.8525,4.6047,4.6894,0,2.8175-1.8037,4.673-4.6047,4.673-2.7835,0-4.5866-1.8555-4.5866-4.673,0-2.8369,1.8031-4.6894,4.5866-4.6894ZM37.1013,171.327c1.6662,0,2.1637-1.4267,2.1637-2.834,0-1.4254-.4975-2.8515-2.1637-2.8515-1.6487,0-2.1497,1.4261-2.1497,2.8515,0,1.4073.5011,2.834,2.1497,2.834Z"/>
    <path class="st0" d="M43.2113,164.0276h2.3165v1.6487h.0358c.4446-1.1159,1.6487-1.8883,2.8363-1.8883.1715,0,.3759.0329.5332.084v2.2678c-.2272-.0511-.5855-.0835-.8769-.0835-1.789,0-2.4086,1.2887-2.4086,2.8505v4.0034h-2.4363v-8.8825Z"/>
    <path class="st0" d="M49.8855,164.0433h2.3206v1.133h.0334c.5832-.944,1.5447-1.3727,2.6436-1.3727,2.7858,0,4.0368,2.2495,4.0368,4.7739,0,2.3717-1.3028,4.5884-3.8988,4.5884-1.0643,0-2.0769-.4641-2.6613-1.3404h-.0358v4.2265h-2.4386v-12.0088ZM56.4814,168.5113c0-1.4121-.5674-2.8698-2.1299-2.8698-1.5975,0-2.112,1.4261-2.112,2.8698,0,1.4413.5492,2.8157,2.1297,2.8157,1.5994,0,2.1122-1.3744,2.1122-2.8157Z"/>
    <path class="st0" d="M64.2745,163.8036c2.8017,0,4.6083,1.8525,4.6083,4.6894,0,2.8175-1.8067,4.673-4.6083,4.673-2.7816,0-4.5848-1.8555-4.5848-4.673,0-2.8369,1.8031-4.6894,4.5848-4.6894ZM64.2745,171.327c1.6669,0,2.1661-1.4267,2.1661-2.834,0-1.4254-.4992-2.8515-2.1661-2.8515-1.6469,0-2.1467,1.4261-2.1467,2.8515,0,1.4073.4998,2.834,2.1467,2.834Z"/>
    <path class="st0" d="M70.3881,164.0276h2.3188v1.6487h.037c.4439-1.1159,1.6468-1.8883,2.8322-1.8883.1714,0,.3787.0329.5332.084v2.2678c-.2231-.0511-.585-.0835-.8763-.0835-1.7867,0-2.4057,1.2887-2.4057,2.8505v4.0034h-2.4393v-8.8825Z"/>
    <path class="st0" d="M76.8254,166.775c.1398-2.2859,2.1825-2.9714,4.1759-2.9714,1.7685,0,3.9012.3941,3.9012,2.5226v4.6231c0,.8088.0834,1.6147.3113,1.9765h-2.4774c-.0834-.2767-.1551-.5674-.1738-.8605-.7706.8094-1.9035,1.1007-2.9866,1.1007-1.6839,0-3.0231-.8411-3.0231-2.6642,0-2.0087,1.5142-2.4892,3.0231-2.6959,1.4953-.2244,2.888-.1721,2.888-1.17,0-1.0455-.7255-1.2012-1.5818-1.2012-.9287,0-1.5283.3771-1.6164,1.3404h-2.4404ZM82.464,168.5776c-.4154.3636-1.2723.3764-2.0294.5163-.7558.1515-1.4431.4136-1.4431,1.3057,0,.9109.7049,1.1324,1.4966,1.1324,1.9042,0,1.9759-1.5095,1.9759-2.0433v-.9111Z"/>
    <path class="st0" d="M89.8294,164.0433h1.7879v1.6322h-1.7879v4.3951c0,.8276.2079,1.0332,1.0302,1.0332.2584,0,.4998-.0176.7577-.0669v1.9065c-.4147.0687-.948.0857-1.4284.0857-1.4907,0-2.7969-.346-2.7969-2.1145v-5.2391h-1.4795v-1.6322h1.4795v-2.6642h2.4374v2.6642Z"/>
    <path class="st0" d="M95.897,162.6682h-2.4398v-2.011h2.4398v2.011ZM93.4572,164.0433h2.4398v8.8825h-2.4398v-8.8825Z"/>
    <path class="st0" d="M102.1196,163.8036c2.8022,0,4.6095,1.8525,4.6095,4.6894,0,2.8175-1.8073,4.673-4.6095,4.673-2.7804,0-4.583-1.8555-4.583-4.673,0-2.8369,1.8026-4.6894,4.583-4.6894ZM102.1196,171.327c1.6705,0,2.1667-1.4267,2.1667-2.834,0-1.4254-.4963-2.8515-2.1667-2.8515-1.6481,0-2.1467,1.4261-2.1467,2.8515,0,1.4073.4986,2.834,2.1467,2.834Z"/>
    <path class="st0" d="M108.305,164.0433h2.32v1.2375h.0505c.6191-.9973,1.6839-1.4772,2.7159-1.4772,2.5937,0,3.2457,1.4596,3.2457,3.6586v5.4635h-2.4387v-5.0177c0-1.4596-.4311-2.1833-1.5623-2.1833-1.3256,0-1.8917.7408-1.8917,2.5457v4.6553h-2.4393v-8.8825Z"/>
  </g>
  <g>
    <polygon class="st0" points="27.0297 20.6202 20.8309 20.6202 20.8309 18.2973 30.6994 18.2973 30.6994 20.4795 23.9737 28.5378 30.8753 28.5378 30.8753 30.8608 20.304 30.8608 20.304 28.6793 27.0297 20.6202"/>
    <path class="st0" d="M37.6274,23.8931c-.2989-.3285-.752-.4932-1.3608-.4932-.3981,0-.7289.0682-.9923.2023-.2635.1349-.4741.3024-.6319.5019-.1585.1995-.27.4105-.3344.6332-.0637.2234-.1021.4228-.1136.5983h4.0563c-.1172-.6332-.3243-1.1147-.6232-1.4425M34.8089,28.6791c.3749.3634.9135.5454,1.6156.5454.5031,0,.9366-.1262,1.3-.3786.3626-.2524.5848-.5193.6666-.8007h2.1953c-.351,1.0908-.8903,1.8719-1.6156,2.3404-.726.4692-1.604.7042-2.6339.7042-.7144,0-1.3579-.1146-1.9312-.343-.574-.2292-1.0604-.5548-1.4577-.9769-.3981-.4221-.7065-.9262-.9229-1.5136-.2164-.586-.3243-1.2315-.3243-1.935,0-.6803.1115-1.3141.3337-1.9002.2222-.5867.5378-1.0937.9482-1.5223.4097-.4279.8983-.7651,1.4657-1.0117.5682-.2466,1.1972-.3699,1.8884-.3699.7723,0,1.4454.1494,2.0194.4489.5733.2995,1.0445.7013,1.4136,1.2054.3684.5048.6348,1.0792.7991,1.7239.1636.6455.2222,1.32.1759,2.0242h-6.5505c.0355.8094.2396,1.3961.6145,1.7595"/>
    <path class="st0" d="M44.5019,21.764v1.6891h.0355c.1165-.2821.2751-.5425.4734-.7833.1998-.2401.4278-.446.6855-.6157.2576-.1697.532-.3017.8251-.396.2924-.0936.5972-.1407.9128-.1407.1643,0,.346.0297.545.0885v2.3223c-.1172-.0232-.2577-.0442-.4213-.0617-.1643-.0174-.3221-.0268-.4748-.0268-.456,0-.8425.0769-1.1588.2292-.3156.1523-.5711.3604-.7637.6252-.1932.2633-.3315.5715-.4125.9232-.0818.3518-.1231.7332-.1231,1.1437v4.0999h-2.4943v-9.0969h2.3712Z"/>
    <path class="st0" d="M54.9155,21.764v1.6717h-1.8262v4.5038c0,.4228.0702.7042.2106.8449.1404.1407.4212.2111.8425.2111.1404,0,.2751-.0058.4039-.0174.1289-.0116.2519-.0297.3692-.0529v1.9357c-.2113.0348-.4451.0587-.7028.0704-.2577.0109-.5088.0174-.7549.0174-.3865,0-.752-.0268-1.0973-.0791-.346-.0529-.6499-.1552-.9134-.3075-.2635-.153-.4712-.3699-.6232-.652-.1527-.2814-.228-.6506-.228-1.1082v-5.3662h-1.5106v-1.6717h1.5106v-2.727h2.4935v2.727h1.8262Z"/>
    <path class="st0" d="M58.5856,30.8611h-2.4935v-9.0969h2.4935v9.0969ZM56.092,18.2975h2.4935v2.059h-2.4935v-2.059Z"/>
    <path class="st0" d="M59.5157,23.4355v-1.6717h1.4925v-.7035c0-.8094.2519-1.4723.7549-1.9887.5038-.5164,1.2653-.7746,2.2829-.7746.223,0,.4452.0094.6674.0268.2222.0174.4394.0326.6499.0435v1.8654c-.2931-.0355-.5971-.0522-.9127-.0522-.3402,0-.5827.0791-.7289.2372-.1462.1581-.22.425-.22.8007v.5454h1.7212v1.6717h-1.7212v7.4252h-2.4935v-7.4252h-1.4925Z"/>
    <path class="st0" d="M68.7878,30.8611h-2.4935v-9.0969h2.4935v9.0969ZM66.2942,18.2975h2.4935v2.059h-2.4935v-2.059Z"/>
    <polygon class="st0" points="74.8283 23.6466 70.4557 23.6466 70.4557 21.7638 78.1122 21.7638 78.1122 23.6466 73.3886 28.9779 78.4459 28.9779 78.4459 30.8607 70.1047 30.8607 70.1047 28.9779 74.8283 23.6466"/>
    <path class="st0" d="M82.2565,30.8611h-2.4935v-9.0969h2.4935v9.0969ZM79.7629,18.2975h2.4935v2.059h-2.4935v-2.059Z"/>
    <path class="st0" d="M89.6232,23.8931c-.2989-.3285-.752-.4932-1.3608-.4932-.3981,0-.7289.0682-.9923.2023-.2635.1349-.4741.3024-.6319.5019-.1585.1995-.27.4105-.3344.6332-.0637.2234-.1021.4228-.1136.5983h4.0563c-.1172-.6332-.3243-1.1147-.6232-1.4425M86.8047,28.6791c.3742.3634.9135.5454,1.6156.5454.5031,0,.9366-.1262,1.3-.3786.3626-.2524.5848-.5193.6666-.8007h2.1953c-.351,1.0908-.8903,1.8719-1.6156,2.3404-.726.4692-1.604.7042-2.6339.7042-.7144,0-1.3579-.1146-1.9319-.343-.5733-.2292-1.0597-.5548-1.457-.9769-.3988-.4221-.7065-.9262-.9229-1.5136-.2164-.586-.3243-1.2315-.3243-1.935,0-.6803.1115-1.3141.3337-1.9002.2222-.5867.5378-1.0937.9482-1.5223.4097-.4279.8983-.7651,1.4657-1.0117.5682-.2466,1.1972-.3699,1.8884-.3699.7723,0,1.4454.1494,2.0194.4489.5733.2995,1.0445.7013,1.4136,1.2054.3684.5048.6348,1.0792.7991,1.7239.1636.6455.2222,1.32.1759,2.0242h-6.5505c.0355.8094.2396,1.3961.6145,1.7595"/>
    <path class="st0" d="M96.4975,21.764v1.6891h.0355c.1165-.2821.2751-.5425.4734-.7833.1998-.2401.4278-.446.6855-.6157.2576-.1697.5327-.3017.8251-.396.2924-.0936.5972-.1407.9135-.1407.1636,0,.3453.0297.5443.0885v2.3223c-.1172-.0232-.2577-.0442-.4213-.0617-.1643-.0174-.3221-.0268-.4741-.0268-.4568,0-.8433.0769-1.1595.2292-.3156.1523-.5704.3604-.7637.6252-.1932.2633-.3315.5715-.4125.9232-.0818.3518-.1231.7332-.1231,1.1437v4.0999h-2.4935v-9.0969h2.3705Z"/>
    <path class="st0" d="M106.9108,21.764v1.6717h-1.8262v4.5038c0,.4228.0702.7042.2106.8449.1404.1407.4212.2111.8425.2111.1404,0,.2751-.0058.4039-.0174.1289-.0116.2519-.0297.3692-.0529v1.9357c-.2113.0348-.4451.0587-.7028.0704-.2577.0109-.5088.0174-.7549.0174-.3865,0-.752-.0268-1.0973-.0791-.346-.0529-.6499-.1552-.9134-.3075-.2635-.153-.4712-.3699-.6232-.652-.1527-.2814-.228-.6506-.228-1.1082v-5.3662h-1.5106v-1.6717h1.5106v-2.727h2.4935v2.727h1.8262Z"/>
    <path class="st0" d="M113.5042,23.8931c-.2989-.3285-.752-.4932-1.3608-.4932-.3981,0-.7289.0682-.9923.2023-.2635.1349-.4741.3024-.6319.5019-.1585.1995-.27.4105-.3344.6332-.0637.2234-.1021.4228-.1136.5983h4.057c-.118-.6332-.325-1.1147-.6239-1.4425M110.6857,28.6791c.3749.3634.9135.5454,1.6156.5454.5031,0,.9366-.1262,1.3-.3786.3626-.2524.5848-.5193.6674-.8007h2.1946c-.351,1.0908-.8903,1.8719-1.6156,2.3404-.726.4692-1.604.7042-2.6339.7042-.7144,0-1.3579-.1146-1.9312-.343-.574-.2292-1.0604-.5548-1.4577-.9769-.3981-.4221-.7057-.9262-.9229-1.5136-.2164-.586-.3243-1.2315-.3243-1.935,0-.6803.1115-1.3141.3337-1.9002.2222-.5867.5378-1.0937.9482-1.5223.4097-.4279.8983-.7651,1.4664-1.0117.5675-.2466,1.1965-.3699,1.8877-.3699.773,0,1.4454.1494,2.0194.4489.5733.2995,1.0445.7013,1.4136,1.2054.3684.5048.6348,1.0792.7991,1.7239.1636.6455.2222,1.32.1759,2.0242h-6.5505c.0355.8094.2396,1.3961.6145,1.7595"/>
  </g>
  <path class="st0" d="M102.7516,130.1701c.3958-.8684.9267-1.6064,1.5926-2.2155.6659-.6107,1.4361-1.0817,2.3091-1.4146.8746-.3329,1.789-.5002,2.7433-.5002.9559,0,1.8703.1672,2.7433.5002s1.6432.804,2.3091,1.4146c.6659.6091,1.1983,1.3471,1.5941,2.2155.3958.8669.5938,1.835.5938,2.9029,0,1.0817-.1979,2.0544-.5938,2.9228-.3958.8669-.9283,1.6079-1.5941,2.2247-.6659.6153-1.4361,1.0863-2.3091,1.4131s-1.7875.491-2.7433.491c-.9543,0-1.8688-.1642-2.7433-.491-.873-.3268-1.6432-.7978-2.3091-1.4131-.6659-.6168-1.1968-1.3579-1.5926-2.2247-.3958-.8684-.5938-1.8412-.5938-2.9228,0-1.0679.1979-2.036.5938-2.9029ZM104.4946,135.2977c.2762.6782.6536,1.2658,1.1323,1.7629.4772.4971,1.0387.8822,1.6862,1.1599.6475.2762,1.3425.4143,2.0836.4143.7288,0,1.4177-.1381,2.0652-.4143.6475-.2777,1.209-.6628,1.6877-1.1599.4772-.4971.8577-1.0848,1.14-1.7629s.4235-1.4208.4235-2.2247-.1412-1.5435-.4235-2.2155-.6628-1.2535-1.14-1.7445c-.4787-.4894-1.0403-.873-1.6877-1.1492s-1.3364-.4143-2.0652-.4143c-.7411,0-1.4361.1381-2.0836.4143s-1.209.6597-1.6862,1.1492c-.4787.491-.8561,1.0725-1.1323,1.7445s-.4143,1.4116-.4143,2.2155.1381,1.5466.4143,2.2247ZM109.567,129.113c.9927,0,1.7552.1764,2.2907.5278.5339.3529.8009.9559.8009,1.8105,0,.3652-.0537.6766-.1596.9329-.1074.2578-.2547.4695-.4434.6321-.1887.1642-.4081.29-.6597.3774s-.5217.1442-.8116.1688l2.1127,3.4506h-1.6402l-1.924-3.3739h-.9804v3.3739h-1.565v-7.9001h2.9796ZM109.5486,132.4133c.4511,0,.8224-.0629,1.1108-.1887.29-.1258.4342-.4265.4342-.9052,0-.2133-.0506-.3836-.1504-.5094-.1013-.1243-.2301-.2225-.3866-.2915-.158-.069-.3329-.1166-.5278-.1412-.1949-.0261-.3805-.0384-.557-.0384h-1.3195v2.0744h1.3962Z"/>
</svg>