<?xml version="1.0" encoding="UTF-8"?>
<svg id="Logo" xmlns="http://www.w3.org/2000/svg" width="1.902in" height="2.8993in" version="1.1" viewBox="0 0 136.941 208.7508">
  <!-- Generator: Adobe Illustrator 29.5.0, SVG Export Plug-In . SVG Version: 2.1.0 Build 137)  -->
  <defs>
    <style>
      .st0 {
        fill: #fff;
      }
    </style>
  </defs>
  <g>
    <path class="st0" d="M48.2709,66.9187h19.9812c4.8631,0,11.2668,0,14.5841,2.0059,3.6265,2.1602,6.4787,6.0948,6.4787,11.4972,0,5.8625-3.0827,10.26-8.1761,12.3415v.1555c6.7925,1.3874,10.4928,6.481,10.4928,13.2715,0,8.098-5.7878,15.8152-16.7419,15.8152h-26.6188v-55.0867ZM55.5964,90.6047h14.6666c8.3291,0,11.7275-3.0088,11.7275-8.7966,0-7.6388-5.3986-8.7168-11.7275-8.7168h-14.6666v17.5135ZM55.5964,115.8323h18.3681c6.3249,0,10.3392-3.8569,10.3392-9.8737,0-7.1764-5.7872-9.1822-11.9624-9.1822h-16.7448v19.0559Z"/>
    <path class="st0" d="M110.372,94.4849c0,23.1428-18.7582,41.9028-41.9064,41.9028s-41.898-18.76-41.898-41.9028,18.759-41.8965,41.898-41.8965,41.9064,18.7567,41.9064,41.8965ZM68.4656,46.1973c-26.6525,0-48.2614,21.6089-48.2614,48.2644s21.6089,48.2638,48.2614,48.2638,48.2713-21.6098,48.2713-48.2638-21.6098-48.2644-48.2713-48.2644Z"/>
  </g>
  <rect class="st0" x="20.304" y="152.9064" width="96.333" height="6.3322"/>
  <g>
    <g>
      <path class="st0" d="M31.9584,172.2306c-.2269-.3639-.5097-.6831-.8492-.9583-.3398-.2751-.7241-.4893-1.1527-.643-.4288-.1537-.8775-.2305-1.3465-.2305-.8577,0-1.5857.1661-2.1838.4971-.5986.3317-1.084.7769-1.4558,1.3346-.3723.5582-.643,1.1933-.813,1.9047-.1697.7118-.2546,1.4481-.2546,2.2081,0,.7277.0848,1.4357.2546,2.1227.1701.6882.4407,1.3069.813,1.8567.3718.5498.8572.9911,1.4558,1.3222.5981.3317,1.3261.4972,2.1838.4972,1.1645,0,2.0745-.3554,2.7297-1.0673.6551-.7119,1.0554-1.6499,1.2009-2.8149h3.6881c-.0972,1.0842-.3481,2.0629-.7523,2.9364-.4046.873-.9383,1.6176-1.6013,2.2319-.6635.6153-1.4399,1.0842-2.3292,1.4074-.8899.3232-1.8685.4854-2.9359.4854-1.3266,0-2.5196-.2306-3.5791-.6916-1.0594-.4611-1.953-1.0956-2.681-1.9047-.728-.8086-1.2859-1.7589-1.6741-2.8511-.3881-1.0917-.5823-2.2686-.5823-3.5302,0-1.294.1942-2.4952.5823-3.6032.3882-1.108.9461-2.0748,1.6741-2.8996.7281-.825,1.6217-1.4714,2.681-1.9409,1.0594-.4689,2.2524-.7034,3.5791-.7034.9541,0,1.8561.1373,2.7053.4125.8492.2751,1.6092.6752,2.2807,1.2007.671.526,1.2252,1.1769,1.662,1.9532.4368.7764.7117,1.6662.8249,2.6691h-3.6879c-.0649-.4367-.2104-.8373-.4367-1.2012Z"/>
      <path class="st0" d="M41.8965,181.9241c.5176.5017,1.2618.752,2.2324.752.6953,0,1.2939-.1734,1.7954-.5215.5015-.3475.8088-.7159.9221-1.104h3.033c-.4853,1.504-1.2295,2.5804-2.2324,3.2268-1.0032.6475-2.2163.9707-3.6395.9707-.9868,0-1.8764-.1577-2.6689-.473-.7927-.3158-1.4642-.7645-2.0137-1.3469-.5503-.582-.9749-1.2775-1.2738-2.0866-.2998-.8085-.4489-1.6985-.4489-2.6686,0-.9385.1534-1.8114.4611-2.6206.3071-.8091.7435-1.508,1.31-2.099.5661-.5904,1.2413-1.0554,2.0261-1.395.7842-.3396,1.6535-.5097,2.6081-.5097,1.0676,0,1.9976.2062,2.7903.6187.7924.4124,1.4439.9667,1.9532,1.6622.5097.6955.8772,1.4883,1.1041,2.3776.2263.8899.3071,1.8199.2427,2.7906h-9.0505c.0486,1.1159.3314,1.925.8492,2.4262ZM45.7909,175.3241c-.4125-.4526-1.0397-.6792-1.8804-.6792-.5501,0-1.0069.0933-1.371.2791-.3639.1859-.6552.4165-.8733.6916-.2184.2751-.3724.5661-.4611.8735-.0893.3074-.1418.582-.1579.825h5.6049c-.1619-.8736-.4489-1.5369-.8613-1.99Z"/>
      <path class="st0" d="M54.9258,172.3883v2.3296h.0486c.1616-.3882.3799-.7481.6551-1.0797.2748-.3317.5904-.6147.9463-.8492.3554-.2345.7357-.4164,1.1403-.5458.4043-.1294.8249-.1944,1.2617-.1944.2263,0,.4769.0407.7523.1215v3.2025c-.1619-.0322-.3559-.0604-.5825-.0847-.2266-.0243-.445-.0362-.6549-.0362-.6308,0-1.1648.1051-1.6015.3153-.4367.2102-.7884.4971-1.0555.8611-.2669.3639-.4571.7887-.5701,1.2741-.1133.4854-.1698,1.0109-.1698,1.577v5.6535h-3.4455v-12.5445h3.2754Z"/>
      <path class="st0" d="M68.8564,172.3883v2.3052h-2.5236v6.2113c0,.5825.0972.9706.2912,1.1645.1941.1943.5823.2915,1.1645.2915.1941,0,.38-.0079.5583-.0243.1777-.0158.3475-.0401.5096-.0729v2.6691c-.2912.0486-.6151.0808-.9707.0972-.3559.0159-.7037.0238-1.0433.0238-.5339,0-1.0396-.0361-1.5164-.1091-.4775-.0729-.8979-.2141-1.2618-.4243-.3639-.2102-.6515-.5097-.8613-.8978-.2105-.3882-.3156-.8978-.3156-1.529v-7.4h-2.0866v-2.3052h2.0866v-3.7608h3.4455v3.7608h2.5236Z"/>
      <path class="st0" d="M70.681,170.4474v-2.8386h3.4454v2.8386h-3.4454ZM74.1264,172.3883v12.5445h-3.4454v-12.5445h3.4454Z"/>
      <path class="st0" d="M75.8017,174.6935v-2.3052h2.0623v-.9701c0-1.1165.3475-2.0301,1.043-2.7421.6955-.7113,1.747-1.0673,3.1545-1.0673.3068,0,.6147.0118.9221.0362.3068.0243.6062.0446.8978.0605v2.5719c-.4045-.0486-.8249-.0729-1.2616-.0729-.4696,0-.8051.1096-1.0069.3277-.2029.2187-.3035.5865-.3035,1.104v.7521h2.3776v2.3052h-2.3776v10.2392h-3.4454v-10.2392h-2.0623ZM85.7736,170.4474v-2.8386h3.4455v2.8386h-3.4455ZM89.2191,172.3883v12.5445h-3.4455v-12.5445h3.4455Z"/>
      <path class="st0" d="M95.1996,181.9241c.5176.5017,1.2617.752,2.2324.752.6956,0,1.294-.1734,1.7957-.5215.5012-.3475.8086-.7159.9221-1.104h3.033c-.4854,1.504-1.2295,2.5804-2.2324,3.2268-1.0035.6475-2.2166.9707-3.6398.9707-.9866,0-1.8764-.1577-2.6686-.473-.7927-.3158-1.4645-.7645-2.0137-1.3469-.5504-.582-.9752-1.2775-1.2741-2.0866-.2994-.8085-.4486-1.6985-.4486-2.6686,0-.9385.1531-1.8114.461-2.6206.3069-.8091.7436-1.508,1.3098-2.099.5661-.5904,1.2413-1.0554,2.0261-1.395.7842-.3396,1.6538-.5097,2.6081-.5097,1.0679,0,1.9979.2062,2.7905.6187.7922.4124,1.4436.9667,1.9533,1.6622.5096.6955.8769,1.4883,1.1041,2.3776.226.8899.3068,1.8199.2424,2.7906h-9.0504c.0486,1.1159.3316,1.925.8492,2.4262ZM99.0943,175.3241c-.4124-.4526-1.0396-.6792-1.8803-.6792-.5504,0-1.0069.0933-1.3713.2791-.3639.1859-.6549.4165-.873.6916-.2187.2751-.3723.5661-.461.8735-.0893.3074-.1418.582-.1582.825h5.6049c-.1616-.8736-.4486-1.5369-.8611-1.99Z"/>
      <path class="st0" d="M108.6233,181.9241c.5176.5017,1.2617.752,2.2324.752.6956,0,1.294-.1734,1.7957-.5215.5012-.3475.8086-.7159.9221-1.104h3.033c-.4854,1.504-1.2295,2.5804-2.2324,3.2268-1.0035.6475-2.2166.9707-3.6398.9707-.9866,0-1.8764-.1577-2.6686-.473-.7927-.3158-1.4645-.7645-2.0137-1.3469-.5504-.582-.9752-1.2775-1.2741-2.0866-.2994-.8085-.4486-1.6985-.4486-2.6686,0-.9385.1531-1.8114.461-2.6206.3069-.8091.7436-1.508,1.3098-2.099.5661-.5904,1.2413-1.0554,2.0261-1.395.7842-.3396,1.6538-.5097,2.6081-.5097,1.0679,0,1.9979.2062,2.7905.6187.7922.4124,1.4436.9667,1.9533,1.6622.5096.6955.8769,1.4883,1.1041,2.3776.226.8899.3068,1.8199.2424,2.7906h-9.0504c.0486,1.1159.3316,1.925.8492,2.4262ZM112.518,175.3241c-.4124-.4526-1.0396-.6792-1.8803-.6792-.5504,0-1.0069.0933-1.3713.2791-.3639.1859-.6549.4165-.873.6916-.2187.2751-.3723.5661-.461.8735-.0893.3074-.1418.582-.1582.825h5.6049c-.1616-.8736-.4486-1.5369-.8611-1.99Z"/>
    </g>
    <polygon class="st0" points="96.0028 170.5763 98.6382 166.6786 102.9476 166.6786 98.72 170.5763 96.0028 170.5763"/>
  </g>
  <g>
    <path class="st0" d="M30.9531,23.5027v2.6323h-7.5182v3.0515h6.8999v2.4331h-6.8999v3.4894h7.6775v2.6323h-10.8084v-14.2386h10.6491Z"/>
    <path class="st0" d="M35.6196,27.431v1.436h.0597c.359-.5977.8245-1.0336,1.396-1.3058s1.1569-.4093,1.755-.4093c.7574,0,1.3788.1036,1.8645.3097.4852.2061.8674.4921,1.1465.8571.2791.3659.4754.8117.5883,1.3364.1129.5257.1696,1.1066.1696,1.7447v6.3416h-2.832v-5.8229c0-.8511-.1327-1.4863-.3984-1.9045-.2663-.4192-.7382-.6282-1.4163-.6282-.7708,0-1.3295.2288-1.6747.6884-.3462.4586-.5188,1.2131-.5188,2.2625v5.4047h-2.8315v-10.3103h2.692Z"/>
    <path class="st0" d="M50.4164,27.431v1.8946h-2.0741v5.1059c0,.4783.0799.7969.2392.9567.1598.1598.4788.2397.9572.2397.1598,0,.3122-.0069.4586-.0207.1465-.0128.286-.0325.4192-.0592v2.1934c-.2397.0395-.5055.0661-.7979.0799-.2924.0128-.5784.0197-.8576.0197-.4389,0-.8546-.0296-1.2461-.0897-.3925-.0602-.7382-.1756-1.0371-.3491-.2993-.1726-.5355-.4182-.7081-.7377-.1731-.3186-.2594-.7377-.2594-1.2565v-6.0823h-1.7146v-1.8946h1.7146v-3.0909h2.832v3.0909h2.0741Z"/>
    <path class="st0" d="M62.9001,35.2688c.4251.4123,1.0366.6184,1.8344.6184.5715,0,1.0637-.143,1.4754-.429.4123-.286.6647-.5888.7579-.9074h2.4928c-.3989,1.2358-1.0104,2.1205-1.8344,2.652-.8245.5316-1.8216.7979-2.9913.7979-.8112,0-1.5425-.1302-2.1939-.3886-.6514-.2594-1.2032-.6282-1.6549-1.1076-.4522-.4783-.8013-1.0494-1.0469-1.7151-.2461-.6638-.3689-1.3956-.3689-2.1934,0-.7703.1262-1.4883.3787-2.153.2525-.6647.6115-1.2397,1.077-1.725.465-.4852,1.0203-.8679,1.6653-1.147.6445-.2791,1.3591-.4192,2.1436-.4192.8773,0,1.6416.1696,2.293.5089.6514.3393,1.1865.7949,1.6056,1.366.4187.572.721,1.223.9074,1.9548.1859.7308.252,1.4952.1992,2.293h-7.4384c.0399.9172.2722,1.582.6983,1.9942ZM66.1005,29.8444c-.3388-.3718-.8546-.5582-1.5455-.5582-.4522,0-.8275.0769-1.1268.2288-.2988.1529-.5385.3432-.718.5691s-.3057.4655-.3787.718-.1164.4783-.1297.6776h4.6068c-.1331-.718-.3689-1.2624-.7081-1.6352Z"/>
    <path class="st0" d="M55.056,27.431v1.9153h.0399c.1327-.3195.3122-.6154.5385-.8876.2259-.2722.4852-.505.7777-.6983.2924-.1923.6046-.3422.9374-.4487.3319-.1065.6781-.1598,1.0366-.1598.1864,0,.392.0335.6184.0996v2.6323c-.1331-.0256-.2924-.0493-.4783-.069-.1864-.0207-.3659-.0306-.5385-.0306-.5188,0-.9572.0868-1.3162.2594-.359.1736-.6485.4093-.8674.7081-.2194.2988-.3763.648-.469,1.0474-.0932.3984-.1396.8304-.1396,1.2959v4.6463h-2.8315v-10.3103h2.692Z"/>
    <path class="st0" d="M73.6675,27.431v1.3167h.0399c.3457-.5582.7841-.9636,1.3162-1.2161.5316-.2525,1.1169-.3797,1.755-.3797.8107,0,1.5085.1529,2.0938.4586.5849.3067,1.0701.7121,1.4557,1.217.3851.505.6711,1.0938.8576,1.7644.1859.6716.2791,1.3729.2791,2.1037,0,.6914-.0932,1.3561-.2791,1.9942-.1864.6381-.469,1.2042-.8477,1.6954-.3787.4921-.8511.8847-1.4158,1.1766-.5651.2919-1.2264.4389-1.9844.4389-.6381,0-1.2264-.1302-1.7649-.3886-.5385-.2594-.9803-.6421-1.326-1.147h-.0399v4.8859h-2.8315v-13.92h2.692ZM77.3467,35.6071c.3122-.1854.5651-.428.7579-.7279.1923-.2988.3289-.648.4088-1.0464s.1193-.8038.1193-1.2161-.0429-.8176-.1292-1.217c-.0868-.3984-.2293-.7545-.429-1.0671-.1992-.3117-.4557-.5641-.7678-.7574-.3126-.1923-.6948-.289-1.1465-.289-.4655,0-.8546.0967-1.1667.289-.3122.1933-.5651.4418-.7574.7476-.1933.3067-.3294.6588-.4088,1.0573-.0799.3984-.1198.8107-.1198,1.2368,0,.4123.0429.8176.1297,1.2161.0863.3984.2259.7476.4187,1.0464.1928.2998.4487.5424.7678.7279.3191.1864.7047.2801,1.1564.2801.4655,0,.8541-.0937,1.1667-.2801Z"/>
    <path class="st0" d="M85.8517,27.431v1.9153h.0399c.1327-.3195.3122-.6154.5385-.8876.2259-.2722.4852-.505.7777-.6983.2924-.1923.6046-.3422.9374-.4487.3319-.1065.6781-.1598,1.0366-.1598.1864,0,.392.0335.6184.0996v2.6323c-.1331-.0256-.2924-.0493-.4783-.069-.1864-.0207-.3659-.0306-.5385-.0306-.5188,0-.9572.0868-1.3162.2594-.359.1736-.6485.4093-.8674.7081-.2194.2988-.3763.648-.469,1.0474-.0932.3984-.1396.8304-.1396,1.2959v4.6463h-2.8315v-10.3103h2.692Z"/>
    <path class="st0" d="M90.9965,25.8362v-2.3335h2.832v2.3335h-2.832ZM93.8285,27.431v10.3103h-2.832v-10.3103h2.832Z"/>
    <path class="st0" d="M98.4447,35.179c.1262.2189.2895.3984.4887.5385.1992.1391.4285.2426.6879.3087.2594.0671.5286.0996.8077.0996.1992,0,.4088-.0227.6282-.07.2194-.0464.4187-.1193.5982-.2189s.3289-.2328.4487-.3984c.1198-.1667.1795-.3758.1795-.6282,0-.4261-.2826-.7446-.8477-.9577-.5651-.212-1.3527-.4251-2.3631-.6381-.4123-.0927-.8146-.2022-1.2067-.3284s-.7412-.2929-1.0469-.499-.5518-.4655-.7377-.7782c-.1864-.3117-.2791-.6943-.2791-1.146,0-.6647.1297-1.2101.3891-1.6352.2589-.4251.6011-.7614,1.0267-1.007.4256-.2466.9039-.4192,1.436-.5188.5316-.0996,1.077-.1499,1.6352-.1499s1.0997.0533,1.6254.1598c.5247.1065.9937.286,1.4059.5385.4118.2525.754.5888,1.0267,1.007.2727.4192.4354.9478.4887,1.5859h-2.692c-.0399-.5454-.2461-.9143-.6184-1.1076-.3723-.1923-.8112-.289-1.3162-.289-.1593,0-.3324.0099-.5183.0306-.1864.0197-.356.0631-.5089.1292-.1529.0671-.2826.1627-.3886.289-.1065.1262-.1598.2959-.1598.5089,0,.2525.0932.4586.2796.6184.1859.1588.4285.289.7279.3886.2988.0996.6411.1894,1.0267.2692s.7777.1667,1.1766.2594c.4118.0927.8142.2061,1.2067.3383.392.1331.7407.3097,1.0469.5286.3057.2199.5513.4921.7377.8176.1859.3265.2791.7279.2791,1.2072,0,.6776-.1366,1.2456-.4088,1.7043-.2727.4586-.6282.8275-1.0666,1.1076-.4389.2791-.9409.4754-1.5055.5878-.5656.1124-1.1401.1696-1.725.1696-.5987,0-1.1835-.0602-1.755-.1795-.572-.1193-1.0804-.3195-1.5257-.5987s-.8112-.648-1.0967-1.1066c-.286-.4586-.4423-1.0336-.4685-1.725h2.692c0,.3057.0631.5681.1894.788Z"/>
    <path class="st0" d="M109.802,35.2688c.4251.4123,1.0366.6184,1.8344.6184.5715,0,1.0637-.143,1.4754-.429.4123-.286.6647-.5888.7579-.9074h2.4928c-.3989,1.2358-1.0104,2.1205-1.8344,2.652-.8245.5316-1.8216.7979-2.9913.7979-.8112,0-1.5425-.1302-2.1939-.3886-.6514-.2594-1.2032-.6282-1.6549-1.1076-.4522-.4783-.8013-1.0494-1.0469-1.7151-.2461-.6638-.3689-1.3956-.3689-2.1934,0-.7703.1262-1.4883.3787-2.153s.6115-1.2397,1.077-1.725c.465-.4852,1.0203-.8679,1.6653-1.147.6445-.2791,1.3591-.4192,2.1436-.4192.8773,0,1.6416.1696,2.293.5089.6514.3393,1.1865.7949,1.6056,1.366.4187.572.721,1.223.9074,1.9548.1859.7308.252,1.4952.1992,2.293h-7.4384c.0399.9172.2722,1.582.6983,1.9942ZM113.0024,29.8444c-.3388-.3718-.8546-.5582-1.5455-.5582-.4522,0-.8275.0769-1.1268.2288-.2988.1529-.5385.3432-.718.5691s-.3057.4655-.3787.718-.1164.4783-.1297.6776h4.6068c-.1331-.718-.3689-1.2624-.7081-1.6352Z"/>
  </g>
  <path class="st0" d="M102.7516,137.0598c.3958-.8684.9267-1.6064,1.5926-2.2155.6659-.6107,1.4361-1.0817,2.3091-1.4146.8746-.3329,1.789-.5002,2.7433-.5002.9559,0,1.8703.1672,2.7433.5002s1.6432.804,2.3091,1.4146c.6659.6091,1.1983,1.3471,1.5941,2.2155.3958.8669.5938,1.835.5938,2.9029,0,1.0817-.1979,2.0544-.5938,2.9228-.3958.8669-.9283,1.6079-1.5941,2.2247-.6659.6153-1.4361,1.0863-2.3091,1.4131s-1.7875.491-2.7433.491c-.9543,0-1.8688-.1642-2.7433-.491-.873-.3268-1.6432-.7978-2.3091-1.4131-.6659-.6168-1.1968-1.3579-1.5926-2.2247-.3958-.8684-.5938-1.8412-.5938-2.9228,0-1.0679.1979-2.036.5938-2.9029ZM104.4946,142.1874c.2762.6782.6536,1.2658,1.1323,1.7629.4772.4971,1.0387.8822,1.6862,1.1599.6475.2762,1.3425.4143,2.0836.4143.7288,0,1.4177-.1381,2.0652-.4143.6475-.2777,1.209-.6628,1.6877-1.1599.4772-.4971.8577-1.0848,1.14-1.7629s.4235-1.4208.4235-2.2247-.1412-1.5435-.4235-2.2155-.6628-1.2535-1.14-1.7445c-.4787-.4894-1.0403-.873-1.6877-1.1492s-1.3364-.4143-2.0652-.4143c-.7411,0-1.4361.1381-2.0836.4143s-1.209.6597-1.6862,1.1492c-.4787.491-.8561,1.0725-1.1323,1.7445s-.4143,1.4116-.4143,2.2155.1381,1.5466.4143,2.2247ZM109.567,136.0027c.9927,0,1.7552.1764,2.2907.5278.5339.3529.8009.9559.8009,1.8105,0,.3652-.0537.6766-.1596.9329-.1074.2578-.2547.4695-.4434.6321-.1887.1642-.4081.29-.6597.3774s-.5217.1442-.8116.1688l2.1127,3.4506h-1.6402l-1.924-3.3739h-.9804v3.3739h-1.565v-7.9001h2.9796ZM109.5486,139.3029c.4511,0,.8224-.0629,1.1108-.1887.29-.1258.4342-.4265.4342-.9052,0-.2133-.0506-.3836-.1504-.5094-.1013-.1243-.2301-.2225-.3866-.2915-.158-.069-.3329-.1166-.5278-.1412-.1949-.0261-.3805-.0384-.557-.0384h-1.3195v2.0744h1.3962Z"/>
</svg>