<?xml version="1.0" encoding="UTF-8"?>
<svg id="Logo" xmlns="http://www.w3.org/2000/svg" width="1.902in" height="2.7793in" version="1.1" viewBox="0 0 136.941 200.1086">
  <!-- Generator: Adobe Illustrator 29.5.0, SVG Export Plug-In . SVG Version: 2.1.0 Build 137)  -->
  <defs>
    <style>
      .st0 {
        fill: #fff;
      }
    </style>
  </defs>
  <path class="st0" d="M102.7516,137.0598c.3958-.8684.9267-1.6064,1.5926-2.2155.6659-.6107,1.4361-1.0817,2.3091-1.4146.8746-.3329,1.789-.5002,2.7433-.5002.9559,0,1.8703.1672,2.7433.5002s1.6432.804,2.3091,1.4146c.6659.6091,1.1983,1.3471,1.5941,2.2155.3958.8669.5938,1.835.5938,2.9029,0,1.0817-.1979,2.0544-.5938,2.9228-.3958.8669-.9283,1.6079-1.5941,2.2247-.6659.6153-1.4361,1.0863-2.3091,1.4131s-1.7875.491-2.7433.491c-.9543,0-1.8688-.1642-2.7433-.491-.873-.3268-1.6432-.7978-2.3091-1.4131-.6659-.6168-1.1968-1.3579-1.5926-2.2247-.3958-.8684-.5938-1.8412-.5938-2.9228,0-1.0679.1979-2.036.5938-2.9029ZM104.4946,142.1874c.2762.6782.6536,1.2658,1.1323,1.7629.4772.4971,1.0387.8822,1.6862,1.1599.6475.2762,1.3425.4143,2.0836.4143.7288,0,1.4177-.1381,2.0652-.4143.6475-.2777,1.209-.6628,1.6877-1.1599.4772-.4971.8577-1.0848,1.14-1.7629s.4235-1.4208.4235-2.2247-.1412-1.5435-.4235-2.2155-.6628-1.2535-1.14-1.7445c-.4787-.4894-1.0403-.873-1.6877-1.1492s-1.3364-.4143-2.0652-.4143c-.7411,0-1.4361.1381-2.0836.4143s-1.209.6597-1.6862,1.1492c-.4787.491-.8561,1.0725-1.1323,1.7445s-.4143,1.4116-.4143,2.2155.1381,1.5466.4143,2.2247ZM109.567,136.0027c.9927,0,1.7552.1764,2.2907.5278.5339.3529.8009.9559.8009,1.8105,0,.3652-.0537.6766-.1596.9329-.1074.2578-.2547.4695-.4434.6321-.1887.1642-.4081.29-.6597.3774s-.5217.1442-.8116.1688l2.1127,3.4506h-1.6402l-1.924-3.3739h-.9804v3.3739h-1.565v-7.9001h2.9796ZM109.5486,139.3029c.4511,0,.8224-.0629,1.1108-.1887.29-.1258.4342-.4265.4342-.9052,0-.2133-.0506-.3836-.1504-.5094-.1013-.1243-.2301-.2225-.3866-.2915-.158-.069-.3329-.1166-.5278-.1412-.1949-.0261-.3805-.0384-.557-.0384h-1.3195v2.0744h1.3962Z"/>
  <g>
    <path class="st0" d="M48.2709,66.9187h19.9812c4.8631,0,11.2668,0,14.5841,2.0059,3.6265,2.1602,6.4787,6.0948,6.4787,11.4972,0,5.8625-3.0827,10.26-8.1761,12.3415v.1555c6.7925,1.3874,10.4928,6.481,10.4928,13.2715,0,8.098-5.7878,15.8152-16.7419,15.8152h-26.6188v-55.0867ZM55.5964,90.6047h14.6666c8.3291,0,11.7275-3.0088,11.7275-8.7966,0-7.6388-5.3986-8.7168-11.7275-8.7168h-14.6666v17.5135ZM55.5964,115.8323h18.3681c6.3249,0,10.3392-3.8569,10.3392-9.8737,0-7.1764-5.7872-9.1822-11.9624-9.1822h-16.7448v19.0559Z"/>
    <path class="st0" d="M110.372,94.4849c0,23.1428-18.7582,41.9028-41.9064,41.9028s-41.898-18.76-41.898-41.9028,18.759-41.8965,41.898-41.8965,41.9064,18.7567,41.9064,41.8965ZM68.4656,46.1973c-26.6525,0-48.2614,21.6089-48.2614,48.2644s21.6089,48.2638,48.2614,48.2638,48.2713-21.6098,48.2713-48.2638-21.6098-48.2644-48.2713-48.2644Z"/>
  </g>
  <rect class="st0" x="20.304" y="152.9064" width="96.333" height="6.3322"/>
  <g>
    <path class="st0" d="M31.9784,24.9751c-.2291-.366-.513-.6871-.8548-.9634-.3419-.277-.7274-.4918-1.1584-.6471-.4322-.154-.8826-.2314-1.3544-.2314-.8619,0-1.5945.1664-2.1962.5001-.6015.3341-1.0898.7811-1.4635,1.3418-.3743.5609-.6465,1.1997-.8177,1.9152-.1713.7162-.2556,1.4565-.2556,2.221,0,.7309.0843,1.443.2556,2.1337.1712.6919.4434,1.3142.8177,1.8674.3737.5525.862.9954,1.4635,1.3295.6017.333,1.3343.4995,2.1962.4995,1.1714,0,2.0864-.3572,2.7442-1.0728.6589-.7161,1.0615-1.659,1.2079-2.8297h3.7088c-.0974,1.0887-.3496,2.0734-.7557,2.9507-.4073.879-.9446,1.6277-1.6106,2.2446-.6671.6188-1.4475,1.0905-2.3427,1.4157-.8943.3248-1.8785.4883-2.9519.4883-1.3342,0-2.5339-.232-3.5989-.696-1.0651-.463-1.9648-1.1017-2.6957-1.9152-.7315-.813-1.2934-1.7682-1.6838-2.8663-.3908-1.0976-.5857-2.2813-.5857-3.5495,0-1.3017.1949-2.5097.5857-3.6243.3903-1.114.9522-2.0858,1.6838-2.9148.7309-.83,1.6306-1.4801,2.6957-1.9524,1.065-.4712,2.2647-.7073,3.5989-.7073.9594,0,1.8669.1388,2.72.4145.8542.2769,1.6188.6795,2.2935,1.2085.6748.5284,1.2322,1.1831,1.6709,1.9635.4397.7805.716,1.6756.83,2.6834h-3.7088c-.065-.4386-.2114-.8413-.4381-1.2074Z"/>
    <path class="st0" d="M41.2663,34.7223c.5201.5037,1.2687.7557,2.2446.7557.6997,0,1.3012-.1747,1.8055-.5247.5036-.349.8129-.7192.9275-1.11h3.05c-.4889,1.5132-1.2369,2.5953-2.2453,3.2454-1.0088.6506-2.2286.9758-3.6597.9758-.9924,0-1.8869-.1582-2.6834-.4753-.7975-.3176-1.4723-.7686-2.0256-1.3549-.5525-.5849-.9806-1.2846-1.281-2.0975-.3013-.813-.4511-1.708-.4511-2.684,0-.9427.1546-1.8219.4634-2.6348.3089-.8135.7487-1.5166,1.3172-2.1106.5704-.5933,1.2493-1.0609,2.038-1.4021.7888-.3425,1.6625-.5125,2.6226-.5125,1.0734,0,2.0084.2072,2.8061.6217.7965.4151,1.4518.9718,1.9636,1.6713.5124.6996.8826,1.4967,1.1104,2.3912.2268.8944.3082,1.8301.2433,2.8055h-9.0996c.0485,1.1222.3324,1.9359.8537,2.44ZM45.1823,28.0859c-.4151-.4546-1.0462-.6831-1.8916-.6831-.5525,0-1.0126.094-1.3779.2805-.3661.1872-.6589.4187-.8785.6949-.2196.2775-.3743.5698-.4641.8797-.0891.3088-.1423.5844-.1576.8289h5.6358c-.1624-.8792-.4517-1.5457-.8661-2.0008Z"/>
    <path class="st0" d="M54.3674,25.134v2.3426h.0491c.1624-.3909.3819-.7527.6583-1.0864.2768-.333.5939-.6181.9517-.8542.3578-.235.7403-.4186,1.1477-.5491.4062-.1298.8289-.1943,1.2682-.1943.2278,0,.4788.0408.7568.1216v3.22c-.1641-.0324-.3583-.0602-.5868-.085-.2273-.0242-.4475-.0366-.6583-.0366-.6347,0-1.1708.1062-1.61.3176-.4399.2108-.7934.4995-1.0615.8655-.268.3661-.4599.7929-.5733,1.2812-.114.4877-.1707,1.0166-.1707,1.5853v5.6853h-3.4649v-12.6135h3.2938Z"/>
    <path class="st0" d="M68.4705,25.134v2.3172h-2.5386v6.2456c0,.5869.0985.9764.2941,1.1718.1948.1949.5856.2929,1.1694.2929.1955,0,.3831-.0082.5615-.0248.1784-.016.3496-.0402.5136-.0732v2.6839c-.2928.049-.6199.0809-.9771.0968-.3572.0166-.7067.0254-1.0491.0254-.536,0-1.0455-.0366-1.5249-.1104-.4801-.0727-.9015-.2144-1.2681-.4264-.3661-.2119-.6547-.5124-.8667-.9032-.2119-.3903-.316-.9027-.316-1.5362v-7.4424h-2.0988v-2.3172h2.0988v-3.7821h3.4633v3.7821h2.5386Z"/>
    <path class="st0" d="M70.4881,23.1821v-2.8551h3.4648v2.8551h-3.4648ZM73.9529,25.134v12.6135h-3.4648v-12.6135h3.4648Z"/>
    <path class="st0" d="M75.3258,27.4512v-2.3172h2.074v-.9765c0-1.1217.3496-2.0409,1.0492-2.7558.6989-.7162,1.7575-1.0745,3.1722-1.0745.3076,0,.6181.0123.9274.0371.3071.0243.6088.0454.901.0608v2.5865c-.4062-.0496-.8295-.0738-1.2682-.0738-.4711,0-.8094.1098-1.0119.3293-.2031.2196-.3046.5898-.3046,1.1106v.7563h2.3897v2.3172h-2.3897v10.2963h-3.4651v-10.2963h-2.074Z"/>
    <path class="st0" d="M85.6036,23.1821v-2.8551h3.4649v2.8551h-3.4649ZM89.0685,25.134v12.6135h-3.4649v-12.6135h3.4649Z"/>
    <path class="st0" d="M94.5324,34.7223c.5214.5037,1.2699.7557,2.2442.7557.7001,0,1.3018-.1747,1.8065-.5247.5042-.349.8136-.7192.9269-1.11h3.0488c-.4865,1.5132-1.2357,2.5953-2.2423,3.2454-1.0113.6506-2.2299.9758-3.661.9758-.9936,0-1.8874-.1582-2.6838-.4753-.7971-.3176-1.4731-.7686-2.025-1.3549-.5533-.5849-.9801-1.2846-1.2812-2.0975-.3-.813-.4516-1.708-.4516-2.684,0-.9427.1559-1.8219.464-2.6348.3094-.8135.7474-1.5166,1.3178-2.1106.5691-.5933,1.248-1.0609,2.0369-1.4021.7887-.3425,1.6629-.5125,2.623-.5125,1.0734,0,2.0091.2072,2.8062.6217.797.4151,1.4512.9718,1.9641,1.6713.5119.6996.8815,1.4967,1.1082,2.3912.2291.8944.3094,1.8301.2455,2.8055h-9.1001c.0484,1.1222.3331,1.9359.853,2.44ZM98.4479,28.0859c-.4139-.4546-1.0455-.6831-1.8899-.6831-.5537,0-1.0119.094-1.3785.2805-.3666.1872-.6588.4187-.8785.6949-.2196.2775-.3743.5698-.4641.8797-.0885.3088-.1416.5844-.1576.8289h5.6346c-.1605-.8792-.4498-1.5457-.8661-2.0008Z"/>
    <path class="st0" d="M113.2954,36.1369c-.4079.6836-.9404,1.176-1.5993,1.476-.6577.301-1.4015.4516-2.2316.4516-.9446,0-1.773-.1824-2.4879-.5491-.7161-.3654-1.3065-.8613-1.7699-1.4878-.4641-.6257-.8142-1.3454-1.0492-2.159-.2356-.813-.3524-1.659-.3524-2.5374,0-.8455.1169-1.6631.3524-2.452.2349-.7893.5851-1.4842,1.0492-2.0869.4634-.6004,1.0455-1.0851,1.7445-1.4512.6996-.3661,1.5126-.5486,2.4407-.5486.7479,0,1.4594.1577,2.1329.4753.676.317,1.2087.7845,1.5994,1.4028h.0484v-6.3437h3.4644v17.4204h-3.2932v-1.6106h-.0484ZM113.1478,29.903c-.0968-.4794-.2645-.9021-.4995-1.2686-.2355-.3655-.5407-.6619-.915-.8903-.3743-.2278-.8454-.3413-1.4145-.3413s-1.0498.1134-1.4399.3413c-.3903.2284-.7043.5284-.9406.9033-.2349.3743-.4049.8011-.5106,1.2805-.1069.4801-.1577.9802-.1577,1.5008,0,.4871.0555.9753.1689,1.4636.1139.4883.2975.9232.5491,1.3054.2531.3831.5691.6912.9527.9269.3814.2367.8419.3535,1.378.3535.5691,0,1.0449-.1127,1.4276-.3412.3814-.2279.6872-.5325.9151-.915.2261-.3819.3896-.8172.4864-1.3048.098-.4883.1476-.9924.1476-1.5126s-.0496-1.0208-.1476-1.5014Z"/>
  </g>
  <g>
    <path class="st0" d="M28.7545,171.6713c-.1744-1.22-1.3421-2.148-2.6824-2.148-2.421,0-3.3332,2.0634-3.3332,4.2113,0,2.0423.9122,4.1043,3.3332,4.1043,1.6482,0,2.5808-1.1336,2.7823-2.7493h2.616c-.2765,3.0595-2.3899,5.0171-5.3983,5.0171-3.7954,0-6.0285-2.8351-6.0285-6.3721,0-3.6439,2.2331-6.479,6.0285-6.479,2.6983,0,4.9649,1.5817,5.2932,4.4156h-2.6107Z"/>
    <path class="st0" d="M37.1013,170.6933c2.801,0,4.6047,1.8525,4.6047,4.6894,0,2.8175-1.8037,4.673-4.6047,4.673-2.7835,0-4.5866-1.8555-4.5866-4.673,0-2.8369,1.8031-4.6894,4.5866-4.6894ZM37.1013,178.2166c1.6662,0,2.1637-1.4267,2.1637-2.834,0-1.4254-.4975-2.8515-2.1637-2.8515-1.6487,0-2.1497,1.4261-2.1497,2.8515,0,1.4073.5011,2.834,2.1497,2.834Z"/>
    <path class="st0" d="M43.2113,170.9173h2.3165v1.6487h.0358c.4446-1.1159,1.6487-1.8883,2.8363-1.8883.1715,0,.3759.0329.5332.084v2.2678c-.2272-.0511-.5855-.0835-.8769-.0835-1.789,0-2.4086,1.2887-2.4086,2.8505v4.0034h-2.4363v-8.8825Z"/>
    <path class="st0" d="M49.8855,170.9329h2.3206v1.133h.0334c.5832-.944,1.5447-1.3727,2.6436-1.3727,2.7858,0,4.0368,2.2495,4.0368,4.7739,0,2.3717-1.3028,4.5884-3.8988,4.5884-1.0643,0-2.0769-.4641-2.6613-1.3404h-.0358v4.2265h-2.4386v-12.0088ZM56.4814,175.4009c0-1.4121-.5674-2.8698-2.1299-2.8698-1.5975,0-2.112,1.4261-2.112,2.8698,0,1.4413.5492,2.8157,2.1297,2.8157,1.5994,0,2.1122-1.3744,2.1122-2.8157Z"/>
    <path class="st0" d="M64.2745,170.6933c2.8017,0,4.6083,1.8525,4.6083,4.6894,0,2.8175-1.8067,4.673-4.6083,4.673-2.7816,0-4.5848-1.8555-4.5848-4.673,0-2.8369,1.8031-4.6894,4.5848-4.6894ZM64.2745,178.2166c1.6669,0,2.1661-1.4267,2.1661-2.834,0-1.4254-.4992-2.8515-2.1661-2.8515-1.6469,0-2.1467,1.4261-2.1467,2.8515,0,1.4073.4998,2.834,2.1467,2.834Z"/>
    <path class="st0" d="M70.3881,170.9173h2.3188v1.6487h.037c.4439-1.1159,1.6468-1.8883,2.8322-1.8883.1714,0,.3787.0329.5332.084v2.2678c-.2231-.0511-.585-.0835-.8763-.0835-1.7867,0-2.4057,1.2887-2.4057,2.8505v4.0034h-2.4393v-8.8825Z"/>
    <path class="st0" d="M76.8254,173.6647c.1398-2.2859,2.1825-2.9714,4.1759-2.9714,1.7685,0,3.9012.3941,3.9012,2.5226v4.6231c0,.8088.0834,1.6147.3113,1.9765h-2.4774c-.0834-.2767-.1551-.5674-.1738-.8605-.7706.8094-1.9035,1.1007-2.9866,1.1007-1.6839,0-3.0231-.8411-3.0231-2.6642,0-2.0087,1.5142-2.4892,3.0231-2.6959,1.4953-.2244,2.888-.1721,2.888-1.17,0-1.0455-.7255-1.2012-1.5818-1.2012-.9287,0-1.5283.3771-1.6164,1.3404h-2.4404ZM82.464,175.4672c-.4154.3636-1.2723.3764-2.0294.5163-.7558.1515-1.4431.4136-1.4431,1.3057,0,.9109.7049,1.1324,1.4966,1.1324,1.9042,0,1.9759-1.5095,1.9759-2.0433v-.9111Z"/>
    <path class="st0" d="M89.8294,170.9329h1.7879v1.6322h-1.7879v4.3951c0,.8276.2079,1.0332,1.0302,1.0332.2584,0,.4998-.0176.7577-.0669v1.9065c-.4147.0687-.948.0857-1.4284.0857-1.4907,0-2.7969-.346-2.7969-2.1145v-5.2391h-1.4795v-1.6322h1.4795v-2.6642h2.4374v2.6642Z"/>
    <path class="st0" d="M95.897,169.5579h-2.4398v-2.011h2.4398v2.011ZM93.4572,170.9329h2.4398v8.8825h-2.4398v-8.8825Z"/>
    <path class="st0" d="M102.1196,170.6933c2.8022,0,4.6095,1.8525,4.6095,4.6894,0,2.8175-1.8073,4.673-4.6095,4.673-2.7804,0-4.583-1.8555-4.583-4.673,0-2.8369,1.8026-4.6894,4.583-4.6894ZM102.1196,178.2166c1.6705,0,2.1667-1.4267,2.1667-2.834,0-1.4254-.4963-2.8515-2.1667-2.8515-1.6481,0-2.1467,1.4261-2.1467,2.8515,0,1.4073.4986,2.834,2.1467,2.834Z"/>
    <path class="st0" d="M108.305,170.9329h2.32v1.2375h.0505c.6191-.9973,1.6839-1.4772,2.7159-1.4772,2.5937,0,3.2457,1.4596,3.2457,3.6586v5.4635h-2.4387v-5.0177c0-1.4596-.4311-2.1833-1.5623-2.1833-1.3256,0-1.8917.7408-1.8917,2.5457v4.6553h-2.4393v-8.8825Z"/>
  </g>
</svg>
