<?xml version="1.0" encoding="utf-8"?>
<!-- Generator: Adobe Illustrator 15.0.0, SVG Export Plug-In . SVG Version: 6.00 Build 0)  -->
<!DOCTYPE svg PUBLIC "-//W3C//DTD SVG 1.1//EN" "http://www.w3.org/Graphics/SVG/1.1/DTD/svg11.dtd">
<svg version="1.1" id="Default" xmlns="http://www.w3.org/2000/svg" xmlns:xlink="http://www.w3.org/1999/xlink" x="0px" y="0px"
	 width="360px" height="150px" viewBox="0 0 360 150" enable-background="new 0 0 360 150" xml:space="preserve" fill="#403B3E">
<g>
	<path d="M18,64.503v-0.056c0-5.553,4.188-10.101,10.186-10.101c3.682,0,5.885,1.229,7.699,3.014l-2.732,3.152
		c-1.508-1.363-3.041-2.202-4.997-2.202c-3.294,0-5.663,2.733-5.663,6.082v0.056c0,3.349,2.318,6.14,5.663,6.14
		c2.235,0,3.604-0.896,5.136-2.286l2.732,2.762c-2.006,2.148-4.24,3.489-8.007,3.489C22.268,74.552,18,70.113,18,64.503"/>
	<path d="M37.014,64.503v-0.056c0-5.553,4.384-10.101,10.409-10.101c6.029,0,10.354,4.494,10.354,10.045v0.056
		c0,5.551-4.38,10.105-10.406,10.105C41.342,74.552,37.014,70.057,37.014,64.503 M53.283,64.503v-0.056
		c0-3.347-2.453-6.137-5.912-6.137c-3.461,0-5.868,2.733-5.868,6.082v0.056c0,3.349,2.458,6.14,5.92,6.14
		C50.884,70.587,53.283,67.854,53.283,64.503"/>
	<polygon points="60.629,54.682 64.593,54.682 73.745,66.708 73.745,54.682 77.985,54.682 77.985,74.216 
		74.33,74.216 64.869,61.797 64.869,74.216 60.629,74.216 	"/>
	<path d="M81.427,71.372l2.538-3.046c1.759,1.454,3.603,2.376,5.833,2.376c1.756,0,2.817-0.704,2.817-1.846v-0.055
		c0-1.088-0.665-1.646-3.933-2.483c-3.937-1.003-6.474-2.096-6.474-5.975v-0.052c0-3.545,2.847-5.888,6.838-5.888
		c2.844,0,5.271,0.892,7.251,2.483l-2.229,3.237c-1.732-1.199-3.429-1.925-5.077-1.925c-1.646,0-2.512,0.753-2.512,1.702v0.054
		c0,1.285,0.835,1.703,4.212,2.566c3.959,1.033,6.191,2.461,6.191,5.862v0.057c0,3.878-2.959,6.055-7.169,6.055
		C86.757,74.495,83.771,73.46,81.427,71.372"/>
	<polygon points="100.647,54.682 115.379,54.682 115.379,58.507 104.917,58.507 104.917,62.466 114.124,62.466 
		114.124,66.291 104.917,66.291 104.917,70.396 115.523,70.396 115.523,74.216 100.647,74.216 	"/>
	<path d="M119.953,54.682h8.925c2.485,0,4.409,0.697,5.693,1.984c1.09,1.083,1.675,2.623,1.675,4.461v0.058
		c0,3.153-1.702,5.133-4.183,6.054l4.77,6.978h-5.023l-4.183-6.253h-0.061h-3.319v6.253h-4.294V54.682z M128.602,64.171
		c2.09,0,3.292-1.118,3.292-2.76v-0.06c0-1.838-1.287-2.795-3.38-2.795h-4.267v5.615H128.602z"/>
	<polygon points="137.818,54.682 142.559,54.682 147.665,68.443 152.773,54.682 157.407,54.682 149.509,74.358 
		145.714,74.358 	"/>
	<path d="M163.974,54.54h3.964l8.375,19.676h-4.494l-1.788-4.383h-8.262l-1.785,4.383h-4.378L163.974,54.54z
		 M168.499,66.042l-2.596-6.339l-2.598,6.339H168.499z"/>
	<polygon points="181.084,58.646 175.14,58.646 175.14,54.682 191.327,54.682 191.327,58.646 185.379,58.646 
		185.379,74.216 181.084,74.216 	"/>
	<rect x="194.537" y="54.682" width="4.291" height="19.535"/>
	<path d="M202.298,64.503v-0.056c0-5.553,4.383-10.101,10.412-10.101c6.025,0,10.351,4.494,10.351,10.045v0.056
		c0,5.551-4.386,10.105-10.408,10.105C206.628,74.552,202.298,70.057,202.298,64.503 M218.568,64.503v-0.056
		c0-3.347-2.455-6.137-5.916-6.137c-3.462,0-5.861,2.733-5.861,6.082v0.056c0,3.349,2.457,6.14,5.919,6.14
		C216.17,70.587,218.568,67.854,218.568,64.503"/>
	<polygon points="226.605,54.682 230.565,54.682 239.721,66.708 239.721,54.682 243.96,54.682 243.96,74.216 
		240.309,74.216 230.845,61.797 230.845,74.216 226.605,74.216 	"/>
	<rect x="20.67" y="81.979" width="2.145" height="19.02"/>
	<polygon points="28.034,81.979 30.047,81.979 42.031,97.225 42.031,81.979 44.121,81.979 44.121,100.999 
		42.414,100.999 30.126,85.4 30.126,100.999 28.034,100.999 	"/>
	<polygon points="54.174,83.965 47.789,83.965 47.789,81.979 62.739,81.979 62.739,83.965 56.354,83.965 
		56.354,101.001 54.174,101.001 	"/>
	<polygon points="66.407,81.979 80.155,81.979 80.155,83.937 68.552,83.937 68.552,90.431 78.933,90.431 
		78.933,92.385 68.552,92.385 68.552,99.046 80.292,99.046 80.292,100.999 66.407,100.999 	"/>
	<path d="M84.259,81.979h8.179c2.336,0,4.212,0.708,5.405,1.904c0.923,0.924,1.471,2.252,1.471,3.747v0.051
		c0,3.156-2.175,5.003-5.164,5.548l5.843,7.771h-2.641l-5.51-7.394h-0.057h-5.379v7.394h-2.147V81.979z M92.251,91.683
		c2.852,0,4.888-1.471,4.888-3.918v-0.05c0-2.341-1.792-3.752-4.862-3.752h-5.871v7.72H92.251z"/>
	<polygon points="103.549,81.979 105.559,81.979 117.543,97.225 117.543,81.979 119.638,81.979 119.638,100.999 
		117.924,100.999 105.639,85.4 105.639,100.999 103.549,100.999 	"/>
	<path d="M131.7,81.846h2.015l8.665,19.155h-2.309l-2.228-5.027H127.49l-2.257,5.027h-2.199L131.7,81.846z
		 M137.002,94.044l-4.325-9.7l-4.345,9.7H137.002z"/>
	<polygon points="148.356,83.965 141.97,83.965 141.97,81.979 156.92,81.979 156.92,83.965 150.531,83.965 
		150.531,101.001 148.356,101.001 	"/>
	<rect x="160.776" y="81.979" width="2.147" height="19.02"/>
	<path d="M167.299,91.547V91.49c0-5.246,3.942-9.835,9.729-9.835c5.793,0,9.678,4.534,9.678,9.778
		c0.028,0.031,0.028,0.031,0,0.057c0,5.246-3.943,9.836-9.73,9.836C171.186,101.326,167.299,96.79,167.299,91.547 M184.474,91.547
		V91.49c0-4.323-3.147-7.853-7.498-7.853c-4.348,0-7.448,3.479-7.448,7.796v0.057c0,4.321,3.152,7.855,7.5,7.855
		C181.379,99.346,184.474,95.863,184.474,91.547"/>
	<polygon points="190.893,81.979 192.902,81.979 204.889,97.225 204.889,81.979 206.979,81.979 206.979,100.999 
		205.267,100.999 192.983,85.4 192.983,100.999 190.893,100.999 	"/>
	<path d="M219.048,81.846h2.007l8.673,19.155h-2.313l-2.227-5.027h-10.351l-2.263,5.027h-2.193L219.048,81.846z
		 M224.342,94.044l-4.318-9.7l-4.349,9.7H224.342z"/>
	<polygon points="233.122,81.979 235.269,81.979 235.269,99.021 245.973,99.021 245.973,100.999 233.122,100.999 	
		"/>
	<path d="M271.83,93.478c-7.42-7.41-12.037-17.733-12.027-29.059c-0.01-11.325,4.607-21.649,12.027-29.067
		c7.416-7.425,17.738-12.039,29.068-12.033c11.324-0.006,21.65,4.608,29.062,12.033C337.383,42.77,342,53.094,342,64.419
		c0,11.325-4.617,21.648-12.039,29.059c-7.414,7.43-17.738,12.046-29.062,12.039h-0.016
		C289.563,105.517,279.238,100.907,271.83,93.478 M283.041,46.565c-4.584,4.591-7.393,10.852-7.396,17.854
		c0.004,6.998,2.812,13.264,7.396,17.855c4.597,4.574,10.856,7.387,17.857,7.393c6.999-0.006,13.259-2.818,17.855-7.393
		c4.577-4.592,7.391-10.857,7.393-17.855c-0.002-7.002-2.815-13.263-7.393-17.854c-4.597-4.586-10.856-7.395-17.855-7.395
		C293.897,39.17,287.638,41.979,283.041,46.565"/>
	<rect x="270.463" y="110.832" width="60.873" height="15.849"/>
</g>
</svg>
