<?xml version="1.0" encoding="utf-8"?>
<!-- Generator: Adobe Illustrator 26.2.1, SVG Export Plug-In . SVG Version: 6.00 Build 0)  -->
<svg version="1.1" xmlns="http://www.w3.org/2000/svg" xmlns:xlink="http://www.w3.org/1999/xlink" x="0px" y="0px"
	 viewBox="0 0 136.94 208.75" style="enable-background:new 0 0 136.94 208.75;" xml:space="preserve">
<style type="text/css">
	.st0{fill:#FFFFFF;}
</style>
<g id="Logo">
	<g>
		<path class="st0" d="M48.27,66.92h19.98c4.86,0,11.27,0,14.58,2.01c3.63,2.16,6.48,6.09,6.48,11.5c0,5.86-3.08,10.26-8.18,12.34
			v0.16c6.79,1.39,10.49,6.48,10.49,13.27c0,8.1-5.79,15.82-16.74,15.82H48.27V66.92z M55.6,90.6h14.67c8.33,0,11.73-3.01,11.73-8.8
			c0-7.64-5.4-8.72-11.73-8.72H55.6V90.6z M55.6,115.83h18.37c6.32,0,10.34-3.86,10.34-9.87c0-7.18-5.79-9.18-11.96-9.18H55.6
			V115.83z"/>
		<path class="st0" d="M110.37,94.48c0,23.14-18.76,41.9-41.91,41.9c-23.14,0-41.9-18.76-41.9-41.9c0-23.14,18.76-41.9,41.9-41.9
			C91.61,52.59,110.37,71.35,110.37,94.48z M68.47,46.2c-26.65,0-48.26,21.61-48.26,48.26c0,26.65,21.61,48.26,48.26,48.26
			c26.66,0,48.27-21.61,48.27-48.26C116.74,67.81,95.13,46.2,68.47,46.2z"/>
	</g>
	<g>
		<rect x="20.3" y="152.91" class="st0" width="96.33" height="6.33"/>
		<path class="st0" d="M113.62,145.94c0.12,0,0.23-0.01,0.34-0.01c0.1-0.01,0.2-0.03,0.28-0.06c0.09-0.04,0.15-0.1,0.2-0.17
			c0.05-0.08,0.07-0.18,0.07-0.31c0-0.11-0.02-0.21-0.06-0.27c-0.04-0.07-0.1-0.12-0.17-0.15c-0.07-0.04-0.14-0.06-0.24-0.08
			c-0.09-0.01-0.17-0.01-0.27-0.01h-0.69v1.07H113.62z M113.85,144.44c0.4,0,0.69,0.08,0.89,0.24c0.19,0.16,0.29,0.4,0.29,0.73
			c0,0.31-0.09,0.52-0.25,0.67c-0.17,0.14-0.38,0.22-0.64,0.25l0.96,1.48h-0.56l-0.92-1.45h-0.55v1.45h-0.53v-3.36H113.85z
			 M111.49,147.09c0.11,0.3,0.28,0.57,0.5,0.79c0.21,0.22,0.46,0.39,0.75,0.52c0.28,0.12,0.6,0.18,0.93,0.18
			c0.34,0,0.65-0.06,0.93-0.18c0.29-0.13,0.54-0.3,0.75-0.52c0.21-0.22,0.38-0.48,0.49-0.79c0.12-0.3,0.19-0.62,0.19-0.97
			c0-0.35-0.06-0.67-0.19-0.97c-0.12-0.3-0.29-0.56-0.49-0.78c-0.22-0.22-0.47-0.39-0.75-0.51c-0.28-0.12-0.6-0.19-0.93-0.19
			c-0.33,0-0.65,0.07-0.93,0.19c-0.29,0.13-0.55,0.3-0.75,0.51c-0.22,0.22-0.38,0.48-0.5,0.78c-0.12,0.3-0.18,0.61-0.18,0.97
			C111.3,146.46,111.36,146.79,111.49,147.09 M111.01,144.98c0.15-0.35,0.36-0.64,0.62-0.9c0.26-0.26,0.57-0.45,0.92-0.6
			c0.35-0.15,0.73-0.22,1.11-0.22c0.4,0,0.77,0.07,1.13,0.22c0.34,0.15,0.65,0.34,0.9,0.6c0.26,0.26,0.48,0.56,0.62,0.9
			c0.16,0.35,0.23,0.73,0.23,1.14c0,0.41-0.07,0.79-0.23,1.14c-0.15,0.36-0.36,0.66-0.62,0.92c-0.26,0.27-0.56,0.46-0.9,0.61
			c-0.36,0.14-0.73,0.21-1.13,0.21c-0.39,0-0.76-0.07-1.11-0.21c-0.35-0.15-0.66-0.34-0.92-0.61c-0.26-0.26-0.47-0.56-0.62-0.92
			c-0.16-0.35-0.22-0.73-0.22-1.14C110.78,145.71,110.85,145.33,111.01,144.98"/>
	</g>
	<g>
		<g>
			<path class="st0" d="M31.96,172.23c-0.23-0.36-0.51-0.68-0.85-0.96c-0.34-0.28-0.72-0.49-1.15-0.64
				c-0.43-0.15-0.88-0.23-1.35-0.23c-0.86,0-1.59,0.17-2.18,0.5c-0.6,0.33-1.08,0.78-1.46,1.33c-0.37,0.56-0.64,1.19-0.81,1.9
				c-0.17,0.71-0.25,1.45-0.25,2.21c0,0.73,0.08,1.44,0.25,2.12c0.17,0.69,0.44,1.31,0.81,1.86c0.37,0.55,0.86,0.99,1.46,1.32
				c0.6,0.33,1.33,0.5,2.18,0.5c1.16,0,2.07-0.36,2.73-1.07c0.66-0.71,1.06-1.65,1.2-2.81h3.69c-0.1,1.08-0.35,2.06-0.75,2.94
				c-0.4,0.87-0.94,1.62-1.6,2.23c-0.66,0.62-1.44,1.08-2.33,1.41c-0.89,0.32-1.87,0.49-2.94,0.49c-1.33,0-2.52-0.23-3.58-0.69
				c-1.06-0.46-1.95-1.1-2.68-1.9c-0.73-0.81-1.29-1.76-1.67-2.85c-0.39-1.09-0.58-2.27-0.58-3.53c0-1.29,0.19-2.5,0.58-3.6
				c0.39-1.11,0.95-2.07,1.67-2.9c0.73-0.82,1.62-1.47,2.68-1.94c1.06-0.47,2.25-0.7,3.58-0.7c0.95,0,1.86,0.14,2.71,0.41
				c0.85,0.28,1.61,0.68,2.28,1.2c0.67,0.53,1.23,1.18,1.66,1.95c0.44,0.78,0.71,1.67,0.82,2.67H32.4
				C32.33,173,32.18,172.59,31.96,172.23z"/>
			<path class="st0" d="M41.9,181.92c0.52,0.5,1.26,0.75,2.23,0.75c0.7,0,1.29-0.17,1.8-0.52c0.5-0.35,0.81-0.72,0.92-1.1h3.03
				c-0.49,1.5-1.23,2.58-2.23,3.23c-1,0.65-2.22,0.97-3.64,0.97c-0.99,0-1.88-0.16-2.67-0.47c-0.79-0.32-1.46-0.76-2.01-1.35
				c-0.55-0.58-0.97-1.28-1.27-2.09c-0.3-0.81-0.45-1.7-0.45-2.67c0-0.94,0.15-1.81,0.46-2.62c0.31-0.81,0.74-1.51,1.31-2.1
				c0.57-0.59,1.24-1.06,2.03-1.39c0.78-0.34,1.65-0.51,2.61-0.51c1.07,0,2,0.21,2.79,0.62c0.79,0.41,1.44,0.97,1.95,1.66
				c0.51,0.7,0.88,1.49,1.1,2.38c0.23,0.89,0.31,1.82,0.24,2.79h-9.05C41.1,180.61,41.38,181.42,41.9,181.92z M45.79,175.32
				c-0.41-0.45-1.04-0.68-1.88-0.68c-0.55,0-1.01,0.09-1.37,0.28c-0.36,0.19-0.66,0.42-0.87,0.69c-0.22,0.28-0.37,0.57-0.46,0.87
				c-0.09,0.31-0.14,0.58-0.16,0.82h5.6C46.49,176.44,46.2,175.78,45.79,175.32z"/>
			<path class="st0" d="M54.93,172.39v2.33h0.05c0.16-0.39,0.38-0.75,0.66-1.08c0.27-0.33,0.59-0.61,0.95-0.85
				c0.36-0.23,0.74-0.42,1.14-0.55c0.4-0.13,0.82-0.19,1.26-0.19c0.23,0,0.48,0.04,0.75,0.12v3.2c-0.16-0.03-0.36-0.06-0.58-0.08
				c-0.23-0.02-0.44-0.04-0.65-0.04c-0.63,0-1.16,0.11-1.6,0.32c-0.44,0.21-0.79,0.5-1.06,0.86c-0.27,0.36-0.46,0.79-0.57,1.27
				c-0.11,0.49-0.17,1.01-0.17,1.58v5.65h-3.45v-12.54H54.93z"/>
			<path class="st0" d="M68.86,172.39v2.31h-2.52v6.21c0,0.58,0.1,0.97,0.29,1.16c0.19,0.19,0.58,0.29,1.16,0.29
				c0.19,0,0.38-0.01,0.56-0.02c0.18-0.02,0.35-0.04,0.51-0.07v2.67c-0.29,0.05-0.62,0.08-0.97,0.1c-0.36,0.02-0.7,0.02-1.04,0.02
				c-0.53,0-1.04-0.04-1.52-0.11c-0.48-0.07-0.9-0.21-1.26-0.42c-0.36-0.21-0.65-0.51-0.86-0.9c-0.21-0.39-0.32-0.9-0.32-1.53v-7.4
				H60.8v-2.31h2.09v-3.76h3.45v3.76H68.86z"/>
			<path class="st0" d="M70.68,170.45v-2.84h3.45v2.84H70.68z M74.13,172.39v12.54h-3.45v-12.54H74.13z"/>
			<path class="st0" d="M75.8,174.69v-2.31h2.06v-0.97c0-1.12,0.35-2.03,1.04-2.74c0.7-0.71,1.75-1.07,3.15-1.07
				c0.31,0,0.61,0.01,0.92,0.04c0.31,0.02,0.61,0.04,0.9,0.06v2.57c-0.4-0.05-0.82-0.07-1.26-0.07c-0.47,0-0.81,0.11-1.01,0.33
				c-0.2,0.22-0.3,0.59-0.3,1.1v0.75h2.38v2.31h-2.38v10.24h-3.45v-10.24H75.8z M85.77,170.45v-2.84h3.45v2.84H85.77z M89.22,172.39
				v12.54h-3.45v-12.54H89.22z"/>
			<path class="st0" d="M95.2,181.92c0.52,0.5,1.26,0.75,2.23,0.75c0.7,0,1.29-0.17,1.8-0.52c0.5-0.35,0.81-0.72,0.92-1.1h3.03
				c-0.49,1.5-1.23,2.58-2.23,3.23c-1,0.65-2.22,0.97-3.64,0.97c-0.99,0-1.88-0.16-2.67-0.47c-0.79-0.32-1.46-0.76-2.01-1.35
				c-0.55-0.58-0.98-1.28-1.27-2.09c-0.3-0.81-0.45-1.7-0.45-2.67c0-0.94,0.15-1.81,0.46-2.62c0.31-0.81,0.74-1.51,1.31-2.1
				c0.57-0.59,1.24-1.06,2.03-1.39c0.78-0.34,1.65-0.51,2.61-0.51c1.07,0,2,0.21,2.79,0.62c0.79,0.41,1.44,0.97,1.95,1.66
				c0.51,0.7,0.88,1.49,1.1,2.38c0.23,0.89,0.31,1.82,0.24,2.79h-9.05C94.4,180.61,94.68,181.42,95.2,181.92z M99.09,175.32
				c-0.41-0.45-1.04-0.68-1.88-0.68c-0.55,0-1.01,0.09-1.37,0.28c-0.36,0.19-0.65,0.42-0.87,0.69c-0.22,0.28-0.37,0.57-0.46,0.87
				c-0.09,0.31-0.14,0.58-0.16,0.82h5.6C99.79,176.44,99.51,175.78,99.09,175.32z"/>
			<path class="st0" d="M108.62,181.92c0.52,0.5,1.26,0.75,2.23,0.75c0.7,0,1.29-0.17,1.8-0.52c0.5-0.35,0.81-0.72,0.92-1.1h3.03
				c-0.49,1.5-1.23,2.58-2.23,3.23c-1,0.65-2.22,0.97-3.64,0.97c-0.99,0-1.88-0.16-2.67-0.47c-0.79-0.32-1.46-0.76-2.01-1.35
				c-0.55-0.58-0.98-1.28-1.27-2.09c-0.3-0.81-0.45-1.7-0.45-2.67c0-0.94,0.15-1.81,0.46-2.62c0.31-0.81,0.74-1.51,1.31-2.1
				c0.57-0.59,1.24-1.06,2.03-1.39c0.78-0.34,1.65-0.51,2.61-0.51c1.07,0,2,0.21,2.79,0.62c0.79,0.41,1.44,0.97,1.95,1.66
				c0.51,0.7,0.88,1.49,1.1,2.38c0.23,0.89,0.31,1.82,0.24,2.79h-9.05C107.82,180.61,108.11,181.42,108.62,181.92z M112.52,175.32
				c-0.41-0.45-1.04-0.68-1.88-0.68c-0.55,0-1.01,0.09-1.37,0.28c-0.36,0.19-0.65,0.42-0.87,0.69c-0.22,0.28-0.37,0.57-0.46,0.87
				c-0.09,0.31-0.14,0.58-0.16,0.82h5.6C113.22,176.44,112.93,175.78,112.52,175.32z"/>
		</g>
		<polygon class="st0" points="96,170.58 98.64,166.68 102.95,166.68 98.72,170.58 		"/>
	</g>
	<g>
		<path class="st0" d="M30.95,23.5v2.63h-7.52v3.05h6.9v2.43h-6.9v3.49h7.68v2.63H20.3V23.5H30.95z"/>
		<path class="st0" d="M35.62,27.43v1.44h0.06c0.36-0.6,0.82-1.03,1.4-1.31c0.57-0.27,1.16-0.41,1.76-0.41
			c0.76,0,1.38,0.1,1.86,0.31c0.49,0.21,0.87,0.49,1.15,0.86c0.28,0.37,0.48,0.81,0.59,1.34c0.11,0.53,0.17,1.11,0.17,1.74v6.34
			h-2.83v-5.82c0-0.85-0.13-1.49-0.4-1.9c-0.27-0.42-0.74-0.63-1.42-0.63c-0.77,0-1.33,0.23-1.67,0.69
			c-0.35,0.46-0.52,1.21-0.52,2.26v5.4h-2.83V27.43H35.62z"/>
		<path class="st0" d="M50.42,27.43v1.89h-2.07v5.11c0,0.48,0.08,0.8,0.24,0.96c0.16,0.16,0.48,0.24,0.96,0.24
			c0.16,0,0.31-0.01,0.46-0.02c0.15-0.01,0.29-0.03,0.42-0.06v2.19c-0.24,0.04-0.51,0.07-0.8,0.08c-0.29,0.01-0.58,0.02-0.86,0.02
			c-0.44,0-0.85-0.03-1.25-0.09c-0.39-0.06-0.74-0.18-1.04-0.35c-0.3-0.17-0.54-0.42-0.71-0.74c-0.17-0.32-0.26-0.74-0.26-1.26
			v-6.08H43.8v-1.89h1.71v-3.09h2.83v3.09H50.42z"/>
		<path class="st0" d="M62.9,35.27c0.43,0.41,1.04,0.62,1.83,0.62c0.57,0,1.06-0.14,1.48-0.43c0.41-0.29,0.66-0.59,0.76-0.91h2.49
			c-0.4,1.24-1.01,2.12-1.83,2.65C66.8,37.73,65.8,38,64.63,38c-0.81,0-1.54-0.13-2.19-0.39c-0.65-0.26-1.2-0.63-1.65-1.11
			c-0.45-0.48-0.8-1.05-1.05-1.72c-0.25-0.66-0.37-1.4-0.37-2.19c0-0.77,0.13-1.49,0.38-2.15c0.25-0.66,0.61-1.24,1.08-1.72
			c0.47-0.49,1.02-0.87,1.67-1.15c0.64-0.28,1.36-0.42,2.14-0.42c0.88,0,1.64,0.17,2.29,0.51c0.65,0.34,1.19,0.79,1.61,1.37
			c0.42,0.57,0.72,1.22,0.91,1.95c0.19,0.73,0.25,1.5,0.2,2.29H62.2C62.24,34.19,62.47,34.86,62.9,35.27z M66.1,29.84
			c-0.34-0.37-0.85-0.56-1.55-0.56c-0.45,0-0.83,0.08-1.13,0.23c-0.3,0.15-0.54,0.34-0.72,0.57c-0.18,0.23-0.31,0.47-0.38,0.72
			c-0.07,0.25-0.12,0.48-0.13,0.68h4.61C66.68,30.76,66.44,30.22,66.1,29.84z"/>
		<path class="st0" d="M55.06,27.43v1.92h0.04c0.13-0.32,0.31-0.62,0.54-0.89c0.23-0.27,0.49-0.5,0.78-0.7
			c0.29-0.19,0.6-0.34,0.94-0.45c0.33-0.11,0.68-0.16,1.04-0.16c0.19,0,0.39,0.03,0.62,0.1v2.63c-0.13-0.03-0.29-0.05-0.48-0.07
			c-0.19-0.02-0.37-0.03-0.54-0.03c-0.52,0-0.96,0.09-1.32,0.26c-0.36,0.17-0.65,0.41-0.87,0.71c-0.22,0.3-0.38,0.65-0.47,1.05
			c-0.09,0.4-0.14,0.83-0.14,1.3v4.65h-2.83V27.43H55.06z"/>
		<path class="st0" d="M73.67,27.43v1.32h0.04c0.35-0.56,0.78-0.96,1.32-1.22c0.53-0.25,1.12-0.38,1.76-0.38
			c0.81,0,1.51,0.15,2.09,0.46c0.58,0.31,1.07,0.71,1.46,1.22c0.39,0.5,0.67,1.09,0.86,1.76c0.19,0.67,0.28,1.37,0.28,2.1
			c0,0.69-0.09,1.36-0.28,1.99c-0.19,0.64-0.47,1.2-0.85,1.7c-0.38,0.49-0.85,0.88-1.42,1.18C78.36,37.85,77.7,38,76.94,38
			c-0.64,0-1.23-0.13-1.76-0.39c-0.54-0.26-0.98-0.64-1.33-1.15h-0.04v4.89h-2.83V27.43H73.67z M77.35,35.61
			c0.31-0.19,0.57-0.43,0.76-0.73c0.19-0.3,0.33-0.65,0.41-1.05c0.08-0.4,0.12-0.8,0.12-1.22c0-0.41-0.04-0.82-0.13-1.22
			c-0.09-0.4-0.23-0.75-0.43-1.07c-0.2-0.31-0.46-0.56-0.77-0.76c-0.31-0.19-0.69-0.29-1.15-0.29c-0.47,0-0.85,0.1-1.17,0.29
			c-0.31,0.19-0.57,0.44-0.76,0.75c-0.19,0.31-0.33,0.66-0.41,1.06c-0.08,0.4-0.12,0.81-0.12,1.24c0,0.41,0.04,0.82,0.13,1.22
			c0.09,0.4,0.23,0.75,0.42,1.05c0.19,0.3,0.45,0.54,0.77,0.73c0.32,0.19,0.7,0.28,1.16,0.28C76.65,35.89,77.03,35.79,77.35,35.61z"
			/>
		<path class="st0" d="M85.85,27.43v1.92h0.04c0.13-0.32,0.31-0.62,0.54-0.89c0.23-0.27,0.49-0.5,0.78-0.7
			c0.29-0.19,0.6-0.34,0.94-0.45c0.33-0.11,0.68-0.16,1.04-0.16c0.19,0,0.39,0.03,0.62,0.1v2.63c-0.13-0.03-0.29-0.05-0.48-0.07
			c-0.19-0.02-0.37-0.03-0.54-0.03c-0.52,0-0.96,0.09-1.32,0.26c-0.36,0.17-0.65,0.41-0.87,0.71c-0.22,0.3-0.38,0.65-0.47,1.05
			c-0.09,0.4-0.14,0.83-0.14,1.3v4.65h-2.83V27.43H85.85z"/>
		<path class="st0" d="M91,25.84V23.5h2.83v2.33H91z M93.83,27.43v10.31H91V27.43H93.83z"/>
		<path class="st0" d="M98.44,35.18c0.13,0.22,0.29,0.4,0.49,0.54c0.2,0.14,0.43,0.24,0.69,0.31c0.26,0.07,0.53,0.1,0.81,0.1
			c0.2,0,0.41-0.02,0.63-0.07c0.22-0.05,0.42-0.12,0.6-0.22c0.18-0.1,0.33-0.23,0.45-0.4c0.12-0.17,0.18-0.38,0.18-0.63
			c0-0.43-0.28-0.74-0.85-0.96c-0.57-0.21-1.35-0.43-2.36-0.64c-0.41-0.09-0.81-0.2-1.21-0.33c-0.39-0.13-0.74-0.29-1.05-0.5
			c-0.31-0.21-0.55-0.47-0.74-0.78c-0.19-0.31-0.28-0.69-0.28-1.15c0-0.66,0.13-1.21,0.39-1.64c0.26-0.43,0.6-0.76,1.03-1.01
			c0.43-0.25,0.9-0.42,1.44-0.52c0.53-0.1,1.08-0.15,1.64-0.15c0.56,0,1.1,0.05,1.63,0.16c0.52,0.11,0.99,0.29,1.41,0.54
			c0.41,0.25,0.75,0.59,1.03,1.01c0.27,0.42,0.44,0.95,0.49,1.59h-2.69c-0.04-0.55-0.25-0.91-0.62-1.11
			c-0.37-0.19-0.81-0.29-1.32-0.29c-0.16,0-0.33,0.01-0.52,0.03c-0.19,0.02-0.36,0.06-0.51,0.13c-0.15,0.07-0.28,0.16-0.39,0.29
			c-0.11,0.13-0.16,0.3-0.16,0.51c0,0.25,0.09,0.46,0.28,0.62c0.19,0.16,0.43,0.29,0.73,0.39c0.3,0.1,0.64,0.19,1.03,0.27
			c0.39,0.08,0.78,0.17,1.18,0.26c0.41,0.09,0.81,0.21,1.21,0.34c0.39,0.13,0.74,0.31,1.05,0.53c0.31,0.22,0.55,0.49,0.74,0.82
			c0.19,0.33,0.28,0.73,0.28,1.21c0,0.68-0.14,1.25-0.41,1.7c-0.27,0.46-0.63,0.83-1.07,1.11c-0.44,0.28-0.94,0.48-1.51,0.59
			c-0.57,0.11-1.14,0.17-1.72,0.17c-0.6,0-1.18-0.06-1.76-0.18c-0.57-0.12-1.08-0.32-1.53-0.6c-0.45-0.28-0.81-0.65-1.1-1.11
			c-0.29-0.46-0.44-1.03-0.47-1.72h2.69C98.26,34.7,98.32,34.96,98.44,35.18z"/>
		<path class="st0" d="M109.8,35.27c0.43,0.41,1.04,0.62,1.83,0.62c0.57,0,1.06-0.14,1.48-0.43c0.41-0.29,0.66-0.59,0.76-0.91h2.49
			c-0.4,1.24-1.01,2.12-1.83,2.65c-0.82,0.53-1.82,0.8-2.99,0.8c-0.81,0-1.54-0.13-2.19-0.39c-0.65-0.26-1.2-0.63-1.65-1.11
			c-0.45-0.48-0.8-1.05-1.05-1.72c-0.25-0.66-0.37-1.4-0.37-2.19c0-0.77,0.13-1.49,0.38-2.15s0.61-1.24,1.08-1.72
			c0.47-0.49,1.02-0.87,1.67-1.15c0.64-0.28,1.36-0.42,2.14-0.42c0.88,0,1.64,0.17,2.29,0.51c0.65,0.34,1.19,0.79,1.61,1.37
			c0.42,0.57,0.72,1.22,0.91,1.95c0.19,0.73,0.25,1.5,0.2,2.29h-7.44C109.14,34.19,109.38,34.86,109.8,35.27z M113,29.84
			c-0.34-0.37-0.85-0.56-1.55-0.56c-0.45,0-0.83,0.08-1.13,0.23c-0.3,0.15-0.54,0.34-0.72,0.57c-0.18,0.23-0.31,0.47-0.38,0.72
			c-0.07,0.25-0.12,0.48-0.13,0.68h4.61C113.58,30.76,113.34,30.22,113,29.84z"/>
	</g>
</g>
<g id="Guides">
	<g>
	</g>
</g>
</svg>
