<?xml version="1.0" encoding="utf-8"?>
<!-- Generator: Adobe Illustrator 26.2.1, SVG Export Plug-In . SVG Version: 6.00 Build 0)  -->
<svg version="1.1" xmlns="http://www.w3.org/2000/svg" xmlns:xlink="http://www.w3.org/1999/xlink" x="0px" y="0px"
	 viewBox="0 0 136.94 193.22" style="enable-background:new 0 0 136.94 193.22;" xml:space="preserve">
<style type="text/css">
	.st0{fill:#FFFFFF;}
</style>
<g id="Logo">
	<g>
		<path class="st0" d="M48.27,60.03h19.98c4.86,0,11.27,0,14.58,2.01c3.63,2.16,6.48,6.09,6.48,11.5c0,5.86-3.08,10.26-8.18,12.34
			v0.16c6.79,1.39,10.49,6.48,10.49,13.27c0,8.1-5.79,15.82-16.74,15.82H48.27V60.03z M55.6,83.72h14.67
			c8.33,0,11.73-3.01,11.73-8.8c0-7.64-5.4-8.72-11.73-8.72H55.6V83.72z M55.6,108.94h18.37c6.32,0,10.34-3.86,10.34-9.87
			c0-7.18-5.79-9.18-11.96-9.18H55.6V108.94z"/>
		<path class="st0" d="M110.37,87.6c0,23.14-18.76,41.9-41.91,41.9c-23.14,0-41.9-18.76-41.9-41.9c0-23.14,18.76-41.9,41.9-41.9
			C91.61,45.7,110.37,64.46,110.37,87.6z M68.47,39.31c-26.65,0-48.26,21.61-48.26,48.26c0,26.65,21.61,48.26,48.26,48.26
			c26.66,0,48.27-21.61,48.27-48.26C116.74,60.92,95.13,39.31,68.47,39.31z"/>
	</g>
	<g>
		<rect x="20.3" y="146.02" class="st0" width="96.33" height="6.33"/>
		<path class="st0" d="M113.62,139.05c0.12,0,0.23-0.01,0.34-0.01c0.1-0.01,0.2-0.03,0.28-0.06c0.09-0.04,0.15-0.1,0.2-0.17
			c0.05-0.08,0.07-0.18,0.07-0.31c0-0.11-0.02-0.21-0.06-0.27c-0.04-0.07-0.1-0.12-0.17-0.15c-0.07-0.04-0.14-0.06-0.24-0.08
			c-0.09-0.01-0.17-0.01-0.27-0.01h-0.69v1.07H113.62z M113.85,137.55c0.4,0,0.69,0.08,0.89,0.24c0.19,0.16,0.29,0.4,0.29,0.73
			c0,0.31-0.09,0.52-0.25,0.67c-0.17,0.14-0.38,0.22-0.64,0.25l0.96,1.48h-0.56l-0.92-1.45h-0.55v1.45h-0.53v-3.36H113.85z
			 M111.49,140.2c0.11,0.3,0.28,0.57,0.5,0.79c0.21,0.22,0.46,0.39,0.75,0.52c0.28,0.12,0.6,0.18,0.93,0.18
			c0.34,0,0.65-0.06,0.93-0.18c0.29-0.13,0.54-0.3,0.75-0.52c0.21-0.22,0.38-0.48,0.49-0.79c0.12-0.3,0.19-0.62,0.19-0.97
			c0-0.35-0.06-0.67-0.19-0.97c-0.12-0.3-0.29-0.56-0.49-0.78c-0.22-0.22-0.47-0.39-0.75-0.51c-0.28-0.12-0.6-0.19-0.93-0.19
			c-0.33,0-0.65,0.07-0.93,0.19c-0.29,0.13-0.55,0.3-0.75,0.51c-0.22,0.22-0.38,0.48-0.5,0.78c-0.12,0.3-0.18,0.61-0.18,0.97
			C111.3,139.57,111.36,139.9,111.49,140.2 M111.01,138.09c0.15-0.35,0.36-0.64,0.62-0.9c0.26-0.26,0.57-0.45,0.92-0.6
			c0.35-0.15,0.73-0.22,1.11-0.22c0.4,0,0.77,0.07,1.13,0.22c0.34,0.15,0.65,0.34,0.9,0.6c0.26,0.26,0.48,0.56,0.62,0.9
			c0.16,0.35,0.23,0.73,0.23,1.14c0,0.41-0.07,0.79-0.23,1.14c-0.15,0.36-0.36,0.66-0.62,0.92c-0.26,0.27-0.56,0.46-0.9,0.61
			c-0.36,0.14-0.73,0.21-1.13,0.21c-0.39,0-0.76-0.07-1.11-0.21c-0.35-0.15-0.66-0.34-0.92-0.61c-0.26-0.26-0.47-0.56-0.62-0.92
			c-0.16-0.35-0.22-0.73-0.22-1.14C110.78,138.82,110.85,138.44,111.01,138.09"/>
	</g>
	<g>
		<path class="st0" d="M28.75,164.78c-0.17-1.22-1.34-2.15-2.68-2.15c-2.42,0-3.33,2.06-3.33,4.21c0,2.04,0.91,4.1,3.33,4.1
			c1.65,0,2.58-1.13,2.78-2.75h2.62c-0.28,3.06-2.39,5.02-5.4,5.02c-3.8,0-6.03-2.84-6.03-6.37c0-3.64,2.23-6.48,6.03-6.48
			c2.7,0,4.96,1.58,5.29,4.42H28.75z"/>
		<path class="st0" d="M37.1,163.8c2.8,0,4.6,1.85,4.6,4.69c0,2.82-1.8,4.67-4.6,4.67c-2.78,0-4.59-1.86-4.59-4.67
			C32.51,165.66,34.32,163.8,37.1,163.8z M37.1,171.33c1.67,0,2.16-1.43,2.16-2.83c0-1.43-0.5-2.85-2.16-2.85
			c-1.65,0-2.15,1.43-2.15,2.85C34.95,169.9,35.45,171.33,37.1,171.33z"/>
		<path class="st0" d="M43.21,164.03h2.32v1.65h0.04c0.44-1.12,1.65-1.89,2.84-1.89c0.17,0,0.38,0.03,0.53,0.08v2.27
			c-0.23-0.05-0.59-0.08-0.88-0.08c-1.79,0-2.41,1.29-2.41,2.85v4h-2.44V164.03z"/>
		<path class="st0" d="M49.89,164.04h2.32v1.13h0.03c0.58-0.94,1.54-1.37,2.64-1.37c2.79,0,4.04,2.25,4.04,4.77
			c0,2.37-1.3,4.59-3.9,4.59c-1.06,0-2.08-0.46-2.66-1.34h-0.04v4.23h-2.44V164.04z M56.48,168.51c0-1.41-0.57-2.87-2.13-2.87
			c-1.6,0-2.11,1.43-2.11,2.87c0,1.44,0.55,2.82,2.13,2.82C55.97,171.33,56.48,169.95,56.48,168.51z"/>
		<path class="st0" d="M64.27,163.8c2.8,0,4.61,1.85,4.61,4.69c0,2.82-1.81,4.67-4.61,4.67c-2.78,0-4.58-1.86-4.58-4.67
			C59.69,165.66,61.49,163.8,64.27,163.8z M64.27,171.33c1.67,0,2.17-1.43,2.17-2.83c0-1.43-0.5-2.85-2.17-2.85
			c-1.65,0-2.15,1.43-2.15,2.85C62.13,169.9,62.63,171.33,64.27,171.33z"/>
		<path class="st0" d="M70.39,164.03h2.32v1.65h0.04c0.44-1.12,1.65-1.89,2.83-1.89c0.17,0,0.38,0.03,0.53,0.08v2.27
			c-0.22-0.05-0.58-0.08-0.88-0.08c-1.79,0-2.41,1.29-2.41,2.85v4h-2.44V164.03z"/>
		<path class="st0" d="M76.83,166.77c0.14-2.29,2.18-2.97,4.18-2.97c1.77,0,3.9,0.39,3.9,2.52v4.62c0,0.81,0.08,1.61,0.31,1.98
			h-2.48c-0.08-0.28-0.16-0.57-0.17-0.86c-0.77,0.81-1.9,1.1-2.99,1.1c-1.68,0-3.02-0.84-3.02-2.66c0-2.01,1.51-2.49,3.02-2.7
			c1.5-0.22,2.89-0.17,2.89-1.17c0-1.05-0.73-1.2-1.58-1.2c-0.93,0-1.53,0.38-1.62,1.34H76.83z M82.46,168.58
			c-0.42,0.36-1.27,0.38-2.03,0.52c-0.76,0.15-1.44,0.41-1.44,1.31c0,0.91,0.7,1.13,1.5,1.13c1.9,0,1.98-1.51,1.98-2.04V168.58z"/>
		<path class="st0" d="M89.83,164.04h1.79v1.63h-1.79v4.4c0,0.83,0.21,1.03,1.03,1.03c0.26,0,0.5-0.02,0.76-0.07v1.91
			c-0.41,0.07-0.95,0.09-1.43,0.09c-1.49,0-2.8-0.35-2.8-2.11v-5.24h-1.48v-1.63h1.48v-2.66h2.44V164.04z"/>
		<path class="st0" d="M95.9,162.67h-2.44v-2.01h2.44V162.67z M93.46,164.04h2.44v8.88h-2.44V164.04z"/>
		<path class="st0" d="M102.12,163.8c2.8,0,4.61,1.85,4.61,4.69c0,2.82-1.81,4.67-4.61,4.67c-2.78,0-4.58-1.86-4.58-4.67
			C97.54,165.66,99.34,163.8,102.12,163.8z M102.12,171.33c1.67,0,2.17-1.43,2.17-2.83c0-1.43-0.5-2.85-2.17-2.85
			c-1.65,0-2.15,1.43-2.15,2.85C99.97,169.9,100.47,171.33,102.12,171.33z"/>
		<path class="st0" d="M108.3,164.04h2.32v1.24h0.05c0.62-1,1.68-1.48,2.72-1.48c2.59,0,3.25,1.46,3.25,3.66v5.46h-2.44v-5.02
			c0-1.46-0.43-2.18-1.56-2.18c-1.33,0-1.89,0.74-1.89,2.55v4.66h-2.44V164.04z"/>
	</g>
	<g>
		<polygon class="st0" points="27.03,20.62 20.83,20.62 20.83,18.3 30.7,18.3 30.7,20.48 23.97,28.54 30.88,28.54 30.88,30.86 
			20.3,30.86 20.3,28.68 		"/>
		<path class="st0" d="M37.63,23.89c-0.3-0.33-0.75-0.49-1.36-0.49c-0.4,0-0.73,0.07-0.99,0.2c-0.26,0.13-0.47,0.3-0.63,0.5
			c-0.16,0.2-0.27,0.41-0.33,0.63c-0.06,0.22-0.1,0.42-0.11,0.6h4.06C38.13,24.7,37.93,24.22,37.63,23.89 M34.81,28.68
			c0.37,0.36,0.91,0.55,1.62,0.55c0.5,0,0.94-0.13,1.3-0.38c0.36-0.25,0.58-0.52,0.67-0.8h2.2c-0.35,1.09-0.89,1.87-1.62,2.34
			c-0.73,0.47-1.6,0.7-2.63,0.7c-0.71,0-1.36-0.11-1.93-0.34c-0.57-0.23-1.06-0.55-1.46-0.98c-0.4-0.42-0.71-0.93-0.92-1.51
			c-0.22-0.59-0.32-1.23-0.32-1.93c0-0.68,0.11-1.31,0.33-1.9c0.22-0.59,0.54-1.09,0.95-1.52c0.41-0.43,0.9-0.77,1.47-1.01
			c0.57-0.25,1.2-0.37,1.89-0.37c0.77,0,1.45,0.15,2.02,0.45c0.57,0.3,1.04,0.7,1.41,1.21c0.37,0.5,0.63,1.08,0.8,1.72
			c0.16,0.65,0.22,1.32,0.18,2.02h-6.55C34.23,27.73,34.43,28.32,34.81,28.68"/>
		<path class="st0" d="M44.5,21.76v1.69h0.04c0.12-0.28,0.28-0.54,0.47-0.78c0.2-0.24,0.43-0.45,0.69-0.62
			c0.26-0.17,0.53-0.3,0.83-0.4c0.29-0.09,0.6-0.14,0.91-0.14c0.16,0,0.35,0.03,0.55,0.09v2.32c-0.12-0.02-0.26-0.04-0.42-0.06
			c-0.16-0.02-0.32-0.03-0.47-0.03c-0.46,0-0.84,0.08-1.16,0.23c-0.32,0.15-0.57,0.36-0.76,0.63c-0.19,0.26-0.33,0.57-0.41,0.92
			c-0.08,0.35-0.12,0.73-0.12,1.14v4.1h-2.49v-9.1H44.5z"/>
		<path class="st0" d="M54.92,21.76v1.67h-1.83v4.5c0,0.42,0.07,0.7,0.21,0.84c0.14,0.14,0.42,0.21,0.84,0.21
			c0.14,0,0.28-0.01,0.4-0.02c0.13-0.01,0.25-0.03,0.37-0.05v1.94c-0.21,0.03-0.45,0.06-0.7,0.07c-0.26,0.01-0.51,0.02-0.75,0.02
			c-0.39,0-0.75-0.03-1.1-0.08c-0.35-0.05-0.65-0.16-0.91-0.31c-0.26-0.15-0.47-0.37-0.62-0.65c-0.15-0.28-0.23-0.65-0.23-1.11
			v-5.37h-1.51v-1.67h1.51v-2.73h2.49v2.73H54.92z"/>
		<path class="st0" d="M58.59,30.86h-2.49v-9.1h2.49V30.86z M56.09,18.3h2.49v2.06h-2.49V18.3z"/>
		<path class="st0" d="M59.52,23.44v-1.67h1.49v-0.7c0-0.81,0.25-1.47,0.75-1.99c0.5-0.52,1.27-0.77,2.28-0.77
			c0.22,0,0.45,0.01,0.67,0.03c0.22,0.02,0.44,0.03,0.65,0.04v1.87c-0.29-0.04-0.6-0.05-0.91-0.05c-0.34,0-0.58,0.08-0.73,0.24
			c-0.15,0.16-0.22,0.42-0.22,0.8v0.55h1.72v1.67H63.5v7.43h-2.49v-7.43H59.52z"/>
		<path class="st0" d="M68.79,30.86h-2.49v-9.1h2.49V30.86z M66.29,18.3h2.49v2.06h-2.49V18.3z"/>
		<polygon class="st0" points="74.83,23.65 70.46,23.65 70.46,21.76 78.11,21.76 78.11,23.65 73.39,28.98 78.45,28.98 78.45,30.86 
			70.1,30.86 70.1,28.98 		"/>
		<path class="st0" d="M82.26,30.86h-2.49v-9.1h2.49V30.86z M79.76,18.3h2.49v2.06h-2.49V18.3z"/>
		<path class="st0" d="M89.62,23.89c-0.3-0.33-0.75-0.49-1.36-0.49c-0.4,0-0.73,0.07-0.99,0.2c-0.26,0.13-0.47,0.3-0.63,0.5
			c-0.16,0.2-0.27,0.41-0.33,0.63c-0.06,0.22-0.1,0.42-0.11,0.6h4.06C90.13,24.7,89.92,24.22,89.62,23.89 M86.8,28.68
			c0.37,0.36,0.91,0.55,1.62,0.55c0.5,0,0.94-0.13,1.3-0.38c0.36-0.25,0.58-0.52,0.67-0.8h2.2c-0.35,1.09-0.89,1.87-1.62,2.34
			c-0.73,0.47-1.6,0.7-2.63,0.7c-0.71,0-1.36-0.11-1.93-0.34c-0.57-0.23-1.06-0.55-1.46-0.98c-0.4-0.42-0.71-0.93-0.92-1.51
			c-0.22-0.59-0.32-1.23-0.32-1.93c0-0.68,0.11-1.31,0.33-1.9c0.22-0.59,0.54-1.09,0.95-1.52c0.41-0.43,0.9-0.77,1.47-1.01
			c0.57-0.25,1.2-0.37,1.89-0.37c0.77,0,1.45,0.15,2.02,0.45c0.57,0.3,1.04,0.7,1.41,1.21c0.37,0.5,0.63,1.08,0.8,1.72
			c0.16,0.65,0.22,1.32,0.18,2.02h-6.55C86.23,27.73,86.43,28.32,86.8,28.68"/>
		<path class="st0" d="M96.5,21.76v1.69h0.04c0.12-0.28,0.28-0.54,0.47-0.78c0.2-0.24,0.43-0.45,0.69-0.62
			c0.26-0.17,0.53-0.3,0.83-0.4c0.29-0.09,0.6-0.14,0.91-0.14c0.16,0,0.35,0.03,0.54,0.09v2.32c-0.12-0.02-0.26-0.04-0.42-0.06
			c-0.16-0.02-0.32-0.03-0.47-0.03c-0.46,0-0.84,0.08-1.16,0.23c-0.32,0.15-0.57,0.36-0.76,0.63c-0.19,0.26-0.33,0.57-0.41,0.92
			c-0.08,0.35-0.12,0.73-0.12,1.14v4.1h-2.49v-9.1H96.5z"/>
		<path class="st0" d="M106.91,21.76v1.67h-1.83v4.5c0,0.42,0.07,0.7,0.21,0.84c0.14,0.14,0.42,0.21,0.84,0.21
			c0.14,0,0.28-0.01,0.4-0.02c0.13-0.01,0.25-0.03,0.37-0.05v1.94c-0.21,0.03-0.45,0.06-0.7,0.07c-0.26,0.01-0.51,0.02-0.75,0.02
			c-0.39,0-0.75-0.03-1.1-0.08c-0.35-0.05-0.65-0.16-0.91-0.31c-0.26-0.15-0.47-0.37-0.62-0.65c-0.15-0.28-0.23-0.65-0.23-1.11
			v-5.37h-1.51v-1.67h1.51v-2.73h2.49v2.73H106.91z"/>
		<path class="st0" d="M113.5,23.89c-0.3-0.33-0.75-0.49-1.36-0.49c-0.4,0-0.73,0.07-0.99,0.2c-0.26,0.13-0.47,0.3-0.63,0.5
			c-0.16,0.2-0.27,0.41-0.33,0.63c-0.06,0.22-0.1,0.42-0.11,0.6h4.06C114.01,24.7,113.8,24.22,113.5,23.89 M110.69,28.68
			c0.37,0.36,0.91,0.55,1.62,0.55c0.5,0,0.94-0.13,1.3-0.38c0.36-0.25,0.58-0.52,0.67-0.8h2.19c-0.35,1.09-0.89,1.87-1.62,2.34
			c-0.73,0.47-1.6,0.7-2.63,0.7c-0.71,0-1.36-0.11-1.93-0.34c-0.57-0.23-1.06-0.55-1.46-0.98c-0.4-0.42-0.71-0.93-0.92-1.51
			c-0.22-0.59-0.32-1.23-0.32-1.93c0-0.68,0.11-1.31,0.33-1.9c0.22-0.59,0.54-1.09,0.95-1.52c0.41-0.43,0.9-0.77,1.47-1.01
			c0.57-0.25,1.2-0.37,1.89-0.37c0.77,0,1.45,0.15,2.02,0.45c0.57,0.3,1.04,0.7,1.41,1.21c0.37,0.5,0.63,1.08,0.8,1.72
			c0.16,0.65,0.22,1.32,0.18,2.02h-6.55C110.11,27.73,110.31,28.32,110.69,28.68"/>
	</g>
</g>
<g id="Guides">
	<g>
	</g>
</g>
</svg>
