<svg viewBox="0 0 121 168" version="1.1" xmlns="http://www.w3.org/2000/svg" xmlns:xlink="http://www.w3.org/1999/xlink" fill="#403B3E">
    <g id="Green_Cross" fill-rule="evenodd">
        <path d="M68.636,22.28 C63.34,22.404 60.507,23.758 55.334,24.867 C55.211,24.867 55.088,24.99 54.965,24.99 L54.965,2.943 L28.607,7.993 L28.607,32.134 C23.187,32.996 20.108,33.612 14.566,33.489 C9.762,33.489 7.052,33.119 2.372,32.01 L2.372,57.26 C7.176,58.861 10.132,59.477 15.182,59.6 C20.478,59.846 23.434,59.108 28.607,58.245 L28.607,81.893 L50.654,78.937 C48.806,74.749 47.821,70.069 47.821,65.143 C47.821,60.585 48.683,56.275 50.161,52.333 C50.285,52.21 50.285,52.087 50.408,51.84 C50.408,51.594 50.531,51.348 50.654,51.102 C50.777,50.855 50.9,50.732 50.9,50.609 C51.023,50.362 51.147,50.116 51.27,49.87 C51.393,49.624 51.393,49.5 51.516,49.377 C51.639,49.131 51.762,48.885 51.886,48.638 C52.009,48.515 52.009,48.269 52.132,48.146 C52.255,47.899 52.378,47.653 52.501,47.407 C52.625,47.283 52.748,47.16 52.871,46.914 C52.994,46.668 53.117,46.544 53.24,46.298 C53.364,46.175 53.487,45.929 53.487,45.806 C53.733,45.559 53.856,45.436 53.979,45.19 C54.103,45.066 54.226,44.82 54.349,44.697 C54.472,44.451 54.595,44.327 54.718,44.081 C61,35.706 70.853,30.163 82.061,29.793 L82.061,24.251 C77.012,22.65 73.933,22.157 68.636,22.28"></path>
        <path d="M82.308,29.67 C90.806,29.424 99.305,32.134 106.202,37.923 C121.229,50.609 123.2,73.025 110.637,88.175 C106.202,93.471 100.537,97.166 94.378,99.137 C101.399,94.703 110.513,85.958 112.854,74.873 C115.071,63.788 112.854,55.905 106.572,46.421 C103.616,41.864 101.399,39.401 96.965,36.198 C92.161,32.75 88.712,31.272 82.924,30.04 C87.974,32.257 90.683,34.104 94.748,37.923 C103.493,46.298 107.927,54.058 107.68,66.128 C107.434,81.524 98.689,90.885 85.387,98.644 C85.141,98.767 84.771,99.014 84.402,99.137 C82.185,98.644 79.721,95.442 78.736,93.348 C74.918,86.081 77.135,78.322 78.49,74.749 C80.83,68.838 93.393,56.398 93.639,49.993 C93.762,47.037 93.393,45.313 92.531,42.48 C90.56,36.445 87.727,33.119 82.308,30.04 L82.308,29.67"></path>
        <path d="M65.064,104.802 C73.071,104.31 77.874,102.955 84.525,99.137 C86.249,99.506 87.85,99.629 90.068,99.629 C90.929,99.629 91.422,99.506 92.285,99.383 L93.886,99.383 C92.654,100.122 91.545,100.738 90.56,101.108 C80.584,105.542 78.982,106.281 77.381,106.896 C76.15,107.266 74.795,107.635 69.375,109.606 L65.064,104.802"></path>
        <path d="M27.991,119.46 C26.02,118.474 23.064,117.735 20.108,117.735 C12.965,117.735 8.038,121.923 8.038,128.081 C8.038,134.117 12.965,138.304 19.985,138.304 C23.187,138.304 26.883,137.196 28.361,135.594 L28.361,127.465 L20.478,127.465 L20.478,131.16 L23.434,131.16 L23.434,133.501 C21.956,133.993 21.34,134.117 20.108,134.117 C15.92,134.117 13.211,131.776 13.211,128.204 C13.211,125.248 15.058,121.923 20.478,121.923 C22.941,121.923 25.405,122.539 27.991,123.77 L27.991,119.46"></path>
        <path d="M32.795,117.982 L32.795,138.058 L37.721,138.058 L37.721,129.929 L39.199,129.929 C41.909,129.929 42.648,133.747 44.865,138.058 L50.285,138.058 C47.452,132.146 46.836,129.682 44.865,128.697 C47.082,127.588 48.19,125.987 48.19,123.77 C48.19,120.814 45.85,117.982 41.663,117.982 L32.795,117.982 Z M37.721,121.677 L40.308,121.677 C42.155,121.677 43.141,122.415 43.141,124.017 C43.141,125.618 41.786,126.234 40.431,126.234 L37.721,126.234 L37.721,121.677 L37.721,121.677 Z"></path>
        <polyline points="67.405 134.363 57.674 134.363 57.674 129.559 66.789 129.559 66.789 125.864 57.674 125.864 57.674 121.677 67.281 121.677 67.281 117.982 52.625 117.982 52.625 138.058 67.405 138.058 67.405 134.363"></polyline>
        <polyline points="86.126 134.363 76.273 134.363 76.273 129.559 85.387 129.559 85.387 125.864 76.273 125.864 76.273 121.677 85.88 121.677 85.88 117.982 71.346 117.982 71.346 138.058 86.126 138.058 86.126 134.363"></polyline>
        <polyline points="110.144 117.982 105.217 117.982 105.217 130.298 94.502 117.982 89.944 117.982 89.944 138.058 94.871 138.058 94.871 125.248 105.956 138.058 110.144 138.058 110.144 117.982"></polyline>
        <path d="M27.499,156.903 C24.666,158.257 22.941,159.12 20.355,159.12 C16.167,159.12 13.211,156.533 13.211,152.961 C13.211,149.389 16.167,146.803 20.355,146.803 C22.941,146.803 25.158,147.665 27.375,148.896 L27.375,144.463 C25.405,143.231 22.818,142.738 20.108,142.738 C12.349,142.738 8.038,147.665 8.038,153.084 C8.038,158.134 11.856,163.184 19.739,163.184 C22.695,163.184 24.789,162.691 27.499,161.213 L27.499,156.903"></path>
        <path d="M32.425,142.985 L32.425,162.938 L37.352,162.938 L37.352,154.808 L38.83,154.808 C41.539,154.808 42.278,158.75 44.495,162.938 L49.915,162.938 C47.082,157.149 46.466,154.685 44.495,153.577 C46.712,152.591 47.944,150.867 47.944,148.65 C47.944,145.694 45.481,142.985 41.293,142.985 L32.425,142.985 Z M37.352,146.679 L39.938,146.679 C41.786,146.679 42.771,147.418 42.771,148.896 C42.771,150.621 41.416,151.237 40.061,151.237 L37.352,151.237 L37.352,146.679 L37.352,146.679 Z"></path>
        <path d="M74.795,152.961 C74.795,148.157 70.853,142.738 63.34,142.738 C55.827,142.738 51.886,148.157 51.886,152.961 C51.886,158.134 55.95,163.184 63.34,163.184 C70.484,163.184 74.795,158.134 74.795,152.961 Z M69.622,152.961 C69.622,156.656 67.158,159.12 63.34,159.12 C59.522,159.12 56.935,156.656 56.935,152.961 C56.935,149.266 59.522,146.803 63.34,146.803 C67.158,146.803 69.622,149.266 69.622,152.961 L69.622,152.961 Z"></path>
        <path d="M92.777,144.216 C90.191,143.108 88.22,142.738 86.003,142.738 C81.322,142.738 78.367,144.955 78.367,148.404 C78.367,155.671 88.466,154.439 88.466,157.765 C88.466,158.873 87.481,159.612 85.51,159.612 C83.416,159.612 81.569,158.873 78.736,157.026 L78.736,161.337 C80.707,162.322 82.431,163.184 86.003,163.184 C90.437,163.184 93.639,160.967 93.639,157.149 C93.639,150.128 83.416,150.99 83.416,148.034 C83.416,147.049 84.648,146.31 86.372,146.31 C88.097,146.31 89.821,146.803 92.777,148.157 L92.777,144.216"></path>
        <path d="M111.375,144.216 C108.789,143.108 106.818,142.738 104.601,142.738 C99.921,142.738 96.965,144.955 96.965,148.404 C96.965,155.671 107.064,154.439 107.064,157.765 C107.064,158.873 106.079,159.612 104.108,159.612 C102.015,159.612 100.167,158.873 97.334,157.026 L97.334,161.337 C99.305,162.322 101.029,163.184 104.601,163.184 C109.035,163.184 112.238,160.967 112.238,157.149 C112.238,150.128 102.015,150.99 102.015,148.034 C102.015,147.049 103.246,146.31 104.971,146.31 C106.695,146.31 108.419,146.803 111.375,148.157 L111.375,144.216"></path>
    </g>
</svg>
