<svg xmlns="http://www.w3.org/2000/svg" width="214.369" height="192.458" viewBox="0 0 214.369 192.458" fill="#403B3E">
  <g id="g12" transform="translate(0 192.458)">
    <path id="path14" d="M209.931-142.7c-2.741-3.572-7.411-5.633-12.076-6.459-12.623-1.243-24.976,1.357-36.643,4.233-1.2.359-2.395.739-3.589,1.117-39.292,12.5-74.845,35.564-102.661,64.961A242.246,242.246,0,0,0,38.007-58.9S16.018-76.791.217-81.135L0-81.239C21.249-54.024,27.154-25.9,31.99,0l5.62-12.09C49.162-37.532,66.69-60.817,85.694-81.151c24.032-24.962,52.178-48.824,86.361-60.471,11.119-2.873,28.824-7.94,37.051,2.907,5.071,8.1.812,18.526-2.624,26.346l1.645.415c4.675-8.781,8.385-21.817,1.805-30.741"/>
    <path id="path16" d="M38.413-99.162c-.764,5.933-4.042,6.7-9.359,6.015l-4.735-.6c-5.134-.658-8.254-2.614-7.542-8.149.457-3.567,2.052-6.472,6.895-5.851a1.114,1.114,0,0,1,.99,1.237l-.342,2.657a1.112,1.112,0,0,1-1.268.949,1.682,1.682,0,0,0-2.191,1.5c-.178,1.385.653,2.12,2.329,2.334L31.637-98c1.6.206,2.56-.337,2.738-1.721.262-2.039-3.161-2.182-3.161-2.182l-.331-.041-.116.909a1.12,1.12,0,0,1-1.273.984l-1.748-.224a1.093,1.093,0,0,1-.949-1.27l.6-4.7a1.114,1.114,0,0,1,1.269-.948l3.021.386c4.808.617,7.379,2.5,6.722,7.638" />
    <path id="path18" d="M28.893-123.819c-1.448-.53-2.34-.229-2.844,1.152l-.541,1.483,5.108,1.86.5-1.38c.541-1.483.224-2.223-1.328-2.79Zm15.5,1.427-.932,2.552a1.162,1.162,0,0,1-1.446.646,7.67,7.67,0,0,1-1.822-.469l-1.725-.627c-2.139-.78-3.378-.49-3.907.96l-.476,1.31,6.625,2.413a1.115,1.115,0,0,1,.691,1.425l-.93,2.553a1.113,1.113,0,0,1-1.447.645l-17.733-6.46a1.113,1.113,0,0,1-.692-1.425l2.162-5.933c1.42-3.9,3.661-5.114,7.214-3.821l.793.291c2.312.842,3.705,2.169,3.524,4.488,1.539-1.863,3.8-1.858,6.115-1.017l1.587.579a10.445,10.445,0,0,0,1.7.466,1.072,1.072,0,0,1,.7,1.425" />
    <path id="path20" d="M53.374-137.648l-5.119,7.885a1.111,1.111,0,0,1-1.555.3L30.87-139.736a1.113,1.113,0,0,1-.355-1.543l4.959-7.639a1.112,1.112,0,0,1,1.544-.355l1.631,1.059a1.145,1.145,0,0,1,.338,1.575L36.107-142.2l3.324,2.161,2.379-3.665a1.113,1.113,0,0,1,1.546-.356l1.662,1.079a1.146,1.146,0,0,1,.335,1.575l-2.381,3.664,3.757,2.44,3.043-4.68a1.109,1.109,0,0,1,1.542-.356l1.726,1.119a1.145,1.145,0,0,1,.335,1.575" />
    <path id="path22" d="M65.243-150.618l-6.66,6.633A1.111,1.111,0,0,1,57-144.016L43.682-157.388a1.113,1.113,0,0,1-.022-1.583l6.453-6.427a1.114,1.114,0,0,1,1.584-.021l1.372,1.379a1.143,1.143,0,0,1,0,1.609L49.318-158.7l2.8,2.809,3.1-3.083A1.112,1.112,0,0,1,56.8-159l1.4,1.405a1.142,1.142,0,0,1,0,1.609L55.1-152.9l3.161,3.175,3.954-3.939a1.114,1.114,0,0,1,1.584-.023l1.451,1.457a1.144,1.144,0,0,1,0,1.609" />
    <path id="path24" d="M81.959-162.18l-3.128,1.924c-.531.328-1.07.011-1.566-.373L67.4-169.17l.057.092,6.482,10.539a1.111,1.111,0,0,1-.393,1.533l-1.877,1.155a1.111,1.111,0,0,1-1.532-.393L60.25-172.314a1.113,1.113,0,0,1,.343-1.547l3.282-2.02c.564-.345,1.1-.031,1.567.373l9.318,7.931-6.1-9.912a1.111,1.111,0,0,1,.34-1.547l1.909-1.172a1.112,1.112,0,0,1,1.534.392l9.9,16.1a1.109,1.109,0,0,1-.39,1.533" />
    <path id="path26" d="M105.248-169.532c-4.154.748-6.81-.528-7.633-4.892a1.11,1.11,0,0,1,.883-1.315l2.422-.437a1.112,1.112,0,0,1,1.284.924c.228,1.267.808,2.207,2.506,1.9a1.691,1.691,0,0,0,1.518-2.139l-.124-.685c-.272-1.519-1.919-1.967-4.638-2.56-3.263-.717-4.734-2.059-5.34-5.419-.727-4.048,1.171-6.141,5-6.831,4.011-.723,6.867.219,7.595,4.267a1.061,1.061,0,0,1-.89,1.28l-2.346.421a1.061,1.061,0,0,1-1.281-.889c-.17-.939-.84-1.564-2.178-1.323a1.42,1.42,0,0,0-1.345,1.845l.1.577c.183,1.013,1.605,1.652,4.036,2.109,3.632.689,5.42,2.123,6.093,5.88.82,4.552-1.472,6.532-5.664,7.285" />
    <path id="path28" d="M127-171.1l-9.4-.217a1.111,1.111,0,0,1-1.074-1.163l.438-18.865a1.114,1.114,0,0,1,1.128-1.116l9.1.212a1.114,1.114,0,0,1,1.114,1.128l-.045,1.947a1.145,1.145,0,0,1-1.165,1.111l-5.287-.123-.091,3.965,4.369.1a1.114,1.114,0,0,1,1.113,1.128l-.047,1.981a1.145,1.145,0,0,1-1.163,1.112l-4.369-.1-.1,4.476,5.58.131a1.113,1.113,0,0,1,1.112,1.128l-.049,2.055A1.141,1.141,0,0,1,127-171.1" />
    <path id="path30" d="M144.846-184.752l-3.6,8.285,2.739.7Zm1.809,17.633-2.6-.667a1.225,1.225,0,0,1-.82-1.385l.267-2.66-3.771-.967-1.083,2.452a1.2,1.2,0,0,1-1.349.829l-2.561-.657a1.082,1.082,0,0,1-.821-1.387l8.351-17.339a1.188,1.188,0,0,1,1.348-.828l4.659,1.193a1.225,1.225,0,0,1,.821,1.385l-1.093,19.2a1.052,1.052,0,0,1-1.351.832" />
    <path id="path32" d="M162.348-159.806l-8.056-4.163a1.11,1.11,0,0,1-.457-1.517l8.663-16.765a1.114,1.114,0,0,1,1.5-.508l2.413,1.248a1.114,1.114,0,0,1,.457,1.517l-7.213,13.963,4.664,2.409a1.115,1.115,0,0,1,.505,1.5l-.961,1.859a1.113,1.113,0,0,1-1.516.456" />
    <path id="path34" d="M167.226-136.194c-.673.264-1.345.537-2.013.811-31.8,15.853-56.38,42.591-76.856,69.907-5.492,7.558-10.771,15.434-15.688,23.561a66.6,66.6,0,0,0,48.469,20.857,66.8,66.8,0,0,0,66.8-66.8,66.6,66.6,0,0,0-20.715-48.332Zm-46.088-18.471a66.8,66.8,0,0,0-66.8,66.8c0,1.525.057,3.037.161,4.534a248.374,248.374,0,0,1,99.247-62.828,66.4,66.4,0,0,0-32.607-8.509" />
    <g id="g36" transform="translate(0 -80)">
      <text id="text40" transform="translate(199.369 74.708)" font-size="20" font-family="Arial-BoldMT, Arial" font-weight="700"><tspan x="0" y="0">®</tspan></text>
    </g>
  </g>
</svg>
