<?xml version="1.0" encoding="UTF-8" standalone="no"?>
<svg xmlns="http://www.w3.org/2000/svg" xmlns:xlink="http://www.w3.org/1999/xlink" width="150" height="143.25842" version="1.0" fill="#403B3E">
  <defs>
    <radialGradient xlink:href="#a" id="b" cx="171.56894" cy="23.96701" r="65.006706" fx="171.56894" fy="23.96701" gradientTransform="matrix(1.42733 0 0 1.78219 -214.37475 -22.188845)" gradientUnits="userSpaceOnUse" />
    <linearGradient id="a">
      <stop offset="0"/>
      <stop offset=".5"/>
      <stop offset="1"/>
    </linearGradient>
  </defs>
  <path d="M42.37723 88.90547V56.330602h6.482585V88.90547H42.37723m12.592858-32.574868h6.844311v17.642869c-.000011 2.799762.084772 4.614413.254348 5.443958.292877 1.333222.986557 2.407199 2.081041 3.221934 1.109875.799934 2.620554 1.199898 4.532043 1.199893 1.942285.000005 3.406719-.377739 4.393307-1.133232.986544-.770295 1.580025-1.710951 1.780445-2.82197.200373-1.111002.300571-2.955279.300595-5.532839V56.330602h6.844309v17.109583c-.00003 3.910773-.18501 6.673486-.554944 8.288148-.369992 1.614677-1.055963 2.977517-2.057918 4.088524-.986594 1.111013-2.312292 1.999823-3.977098 2.666428-1.664854.651794-3.838382.97769-6.520592.97769-3.237188 0-5.695896-.355523-7.376131-1.06657-1.664841-.725861-2.982831-1.65911-3.953976-2.799751-.971158-1.155447-1.610884-2.362745-1.919182-3.621898-.447042-1.866491-.670561-4.621798-.670558-8.265929V56.330602m31.142686 16.487416c-.000002-3.318202.489111-6.103136 1.467342-8.354808.730016-1.659085 1.722843-3.147839 2.978484-4.466268 1.270228-1.318371 2.657266-2.29606 4.161118-2.933071 2.000245-.85915 4.307108-1.288741 6.920602-1.288774 4.7305.000033 8.51201 1.488788 11.34452 4.466267 1.84281 1.927266 3.08922 4.341708 3.73925 7.243327l-6.7962.071818c-.40508-1.364805-1.00674-2.499599-1.805-3.404383-1.60606-1.836846-3.74502-2.755281-6.41687-2.755309-2.671894.000028-4.825453.933276-6.460687 2.79975-1.635256 1.851709-2.452879 4.651455-2.45287 8.399249m0 0c-.000009 3.688572.839515 6.488319 2.518572 8.399249 1.679035 1.896133 3.810694 2.844196 6.394985 2.844191 2.58425.000005 4.70099-.940931 6.35117-2.821971.91855-1.04705 1.5841-2.380226 1.99571-4.000369l6.80705.151229c-.59831 3.165811-1.87541 5.78207-3.83131 7.848783-2.8179 2.9627-6.58481 4.444047-11.30072 4.444047-4.774351 0-8.570455-1.473941-11.388326-4.421827-2.817884-2.96269-4.226822-7.036396-4.22682-12.22113M120.83876 88.90547V56.330602h5.8125l14.86238 22.557184V56.330602h6.04555V88.90547h-5.6649l-15.28715-22.84969.63431 22.84969h-6.40269" font-family="Arial" font-size="45.17857361" font-weight="700" style="-inkscape-font-specification:Arial Bold"/>
  <path fill-rule="evenodd" d="m110.94969 106.84342 21.09476-.0591c-11.98418 20.56478-34.27571 34.39549-59.77793 34.39549-38.16371 0-69.13715-30.97344-69.13715-69.137143 0-38.163706 30.97344-69.137151 69.13715-69.137151 25.93292 0 48.54578 14.30182 60.37627 35.44316l-20.76519-.047852c-9.5477-11.19578-23.75491-18.298952-39.61108-18.298952-28.72652 0-52.0408 23.314277-52.0408 52.040794 0 28.726514 23.31428 52.040794 52.0408 52.040794 15.35032 0 29.15522-6.65719 38.68317-17.24004z"/>
</svg>
