<svg xmlns="http://www.w3.org/2000/svg" viewBox="0 0 312 188" fill="#403B3E">
    <g fill-rule="evenodd" clip-rule="evenodd" fill-opacity="1">
        <path d="M217.182 27.105c-.094-.108-.305 0-.409-.192-.099-.182-.364-.415-.567-.516-.156-.084-.355-.127-.461-.243-.167-.18-.125-.154-.319-.477-.083-.152-.356-.193-.463-.288-.176-.154-.4-.428-.517-.553-.116-.133-.249-.488-.143-.904.074-.283.213-.452.363-.68.062-.108-.057-.17.151-.387.008-.004.012-.004.019-.009-.117-.205.404-.574.524-.678-.114-.23.533-.296.468-.572.101-.043.213-.205.323-.32-.042-.065.182-.274.218-.287.04-.093.15-.274.134-.414-.18-.363.086-.642-.546-.593-.121.01-.246.02-.301.118-.069.038-.137.08-.201.116a2.063 2.063 0 0 0-.657.47c-.079.029-.741.27-.838.466-.093.19-.738.385-.8.41-.076.09-.567.116-.645.196-.66-.017-.609-.279-.948-.407-.34-.13-.179-.905-.457-1.145-.287-.237-.146-.936-.374-1.205-.209-.264.019-.257-.066-.41-.086-.145-.133-.35-.097-.375-.036-.178.053-.237.047-.444-.011-.009-.036-.154-.055-.165-.045-.057.055-.169-.017-.357-.066-.152-.131-.05-.167-.26-.024 0-.212-.08-.231-.08-.053-.006-.12-.11-.165-.114-.135-.057-.201.061-.288.158-.063.083-.162.13-.239.258-.044.06.011.177-.006.245-.047.156-.152.275-.214.446-.038.114-.023.245-.044.327-.047.167-.116.241-.144.321.087.235-.171.666-.07.947.049.127.153.676.074.961-.078.283.11.78.057 1.07-.052.29-.236.172-.431.4-.195.227-.394.178-.597.229-.194.052-.531-.051-.649-.009-.432.066-.154.127-.584.049-.029-.04-.163.086-.448-.072-.07-.04-.296-.02-.347.004-.009-.006-.129-.044-.129-.048-.005 0-.203.033-.212.027 0 0-.292-.093-.351-.061-.015-.002-.015-.007-.023-.009-.093-.006-.193-.01-.296-.019-.089-.027-.379-.135-.476-.165-.273.028-.643.201-.586.4.036.125 0 .141-.057.279-.06.137.084.101.12.17.224.227.195.284.55.377.328.245.552.35.899.363.097.144.356.192.487.292.112.205.459-.009.634.133.064.148.227.129.345.224.157.112.671.008 1.138.488.059.107.161.148.273.194.023-.006.313.266.336.338.18.357-.055.402.144.621.081.14-.051.605-.095.727.025.097-.034.273-.017.36.026.107.066.538-.087.751-.063.355-.175.446-.171.662.004.217-.241.631-.222.923.019.295-.102.496-.184.847-.085.169.165.304.082.558-.093.247.102.373.218.456.277.213.8.163.929-.097.176-.051.434-.655.427-.82-.021-.199.447-.38.455-.577.068-.378.252-.684.254-.784.285-.086.264-.779.495-.92.292-.182.165-.856.527-.985.258-.072.328-.39.342-.35.263-.075.478.137.696.1.138-.04.356.282.489.248.159.034.427.28.732.344.351.085.656.173.734.309.074.129.402.251.639.327.465.074.645.154.905.382.671.51 1.339.556 1.392.269.055-.317.493-.36.41-.72-.141-.628-.26-.24-.619-.65zM197.142 96.003c.588-.832 1.441-.285 1.825-.353.379-.07 2.683-.48 4.914-.025 1.589.328 3.643 1.223 5.716 2.273 1.735.883 2.854 1.139 2.854 1.139s.601-.35 1.584.082c.961.431 1.726.712 4.057.894.868.072 2.53-.07 3.846-.42.681-.184 2.111-.862 2.424-.569.322.288-.031.33-.347.412-.19.047-.366.2-.734.38-.319.146-.611.47-.806.537-.321.108-.75.061-1.104.165-.383.114-.691.376-.96.414-.334.038-.614-.019-1.094.074-.26.053-.543.277-1.007.306-.899.062-1.169.252-1.169.252l-.318.236s2.103 1.154 4.453 5.13c3.008 4.827 1.335 11.725 2.731 12.532.946.551 3.158.984 4.63 1.584.707.3 2.522 1.025 2.928 1.923.453 1.003.097 1.538-.188 1.937-.29.399-.882.264-.834-.087.085-.526-.651-.602-1.413-.439-.818.167-1.686.391-3.056.57-1.76.22-2.365-.94-2.425-.591-.048.346-.285 1.043-.74 1.398-.668.518-1.278.596-2.485 1.044-1.405.53-2.342 1.084-2.469 1.392-.127.283-.362.492-.675.471-.262-.008-.666-.315-.51-1.202.117-.672.208-1.587 1.862-3.788.751-.999 1.502-1.603 1.823-2.503.254-.697.512-1.384.136-2.842-.208-.79-.521-2.076-2.564-3.705-1.91-1.523-3.158-1.859-4.914-3.393-2.414-2.1-3.099-2.501-2.784-1.449.203.509-.03.452.089 1.109.042.234-.061.471-.051.724.019.406.108.848.074 1.243-.036.357-.209.676-.243.976-.057.418.017.773.034.904.076.355-.002.697-.246.705-.715.011-.486-1.702-1.009-3.105-.774-2.085-1.673-3.562-3.209-5.123-.956-.966-.833-1.525-.833-1.525s-1.286-.962-3.964-3.009c-2.672-2.041-3.076-4.417-3.395-4.724-.33-.291-1.058-1.062-.434-1.954zM246.946 83.01l-1.803 2.374c-.383.475-.698.262-.943-.015-.248-.276-.231-.388-.77-.545-.389-.097-.597.026-.721.25-.074-.009-.172-.013-.254-.034-.134-.038-.121-.237-.305-.302-.19-.068-.421-.317-.685-.423-.119-.036-.328-.363-.461-.405-.129-.049-.449-.017-.586-.068-.159-.06-.362-.355-.514-.414-.212-.087-.443.017-.652-.074-.212-.076-.266-.294-.457-.41-.328-.192-.799-.323-1.174-.484-1.354-.604-3.294-.524-4.624-1.107-2.005-.887-4.605-1.415-5.915-1.299-1.857.237-2.578-.621-4.366 0-1.595.55 1.963 2.52 3.4 3.315 3.198 2.431 5.383 3.8 10.775 3.371 1.94-.285 4.39-.34 5.674-1.193.131.036.569.156.897.384.387.269.378.706.366.92-.011.217.031.57-.574 1.523-.486.76-1.165 2.2-1.755 3.473-.468.974-.889 1.89-1.064 2.13-.295.392-.641.711-.832.736-.609.074-.609-.21-.744-.766-.134-.562-.102-1.319-.711-1.129-.106.03-.18.091-.262.159-.121-.235-.33-.4-.593-.65-.156-.157-.313-.434-.503-.596-.134-.108-.296-.108-.438-.214-.131-.101-.265-.308-.398-.397-.245-.17-.628-.175-.892-.344-.495-.33-.864-.826-1.316-1.143-4.011-2.487-6.188-2.618-9.473-2.538-1.396-.158-4.814-.494-3.771.484 1.155 1.092 2.015.91 3.369 1.813.98.61 3.156 1.388 5.009 1.724 1.234.213 2.698 1.069 3.963 1.286.338.055.744.19 1.064.205.124.013.323.045.42.032.051-.01.009-.091.087-.076.186.044.328.188.523.232.129.032.397-.05.541-.023.125.034.351.175.47.205.116.027.385-.068.495-.044.245.05.514.006.679.05.171.036.214-.09.328-.05.135.042.241.095.323.143a1.084 1.084 0 0 0-.188.304c-.116.298.028.567.246.704.321.454 1.421 1.301.53 1.597-1.7.57-2.866.482-2.866.482-.364-.017-.446.249-.476.42-.582-.585-2.17-.974-3.376-1.39-3.171-.934-3.725-.602-6.321-.913-.966.117-3.608.009-2.707.45.988.503 1.529.258 2.619.615.776.23 2.075 1.595 3.401 1.513.874-.05 2.029.247 2.923.194.242-.019.536 0 .754-.03.148-.02.194-.103.334-.114.133 0 .273.072.391.064.112-.006.273-.095.362-.097.095-.007.457.23.546.226.078-.007.71-.074.78-.079.102-.006.262-.038.396-.063l.034.07c-.051.101-.047.2.017.277.112.145.412.247 1.751-.078 2.587-.63 3.67-1.874 4.026-2.206.374-.389 1.002-1.637 1.561-2.774l.139-.29c1.631-3.282 2.12-4.229 2.264-4.453.152-.27.721-.97 1.28-1.641l1.311-2.064-.558-.79zM259.981 73.701c.064 2.197-.933 4.253-1.277 6.433-.493 1.69-.586 2.945-.785 4.024-.153.292-.343.607-.527.719-.899.566-2.932 1.618-4.556 2.805-.301-.327-1.007-.707-2.179-.938-1.625-.323-1.83.247-1.716.924-.725-.417-1.225-1.089-1.248-1.105-.025-.026-.07-.083-.137-.066-.064.025 0 .108 0 .144.112.317.22.547.429.826.328.427.605.566.897.665-.038.57.4 1.088 1.587.921.351-.042.662-.099.964-.17a4.512 4.512 0 0 0-.556.68c-.03.046-.057.09-.102.139-.833.087-2.339.84-4.017 2.246-1.923 1.61-1.8 2.704-.962 3.312-.434.46-.639.987-.887 1.557-.23.254-.22.968-.537 1.602-.182.543-.283 1.109-.561 1.852-.165.18-.287 1.177-.213.97.021-.076.218-.237.266-.319.036-.11.318-.655.375-.79.021-.059.334-.36.359-.418.022-.074.047-.453.077-.526.025-.079.107-.172.141-.254.047-.103.055-.237.093-.346.049-.112.098-.12.142-.216.087-.16.209-.27.286-.458.499-1.166.687-.736.878-1.183.171-.412.249-.672.294-.88.767.858 2.189.928 3.331-1.21.681-1.278 1.238-2.45 1.523-3.32.322-.29.645-.59.995-.9a8.045 8.045 0 0 0-.481 1.032c-.577 1.477-.048 1.85.629 1.843-.058.154-.307 1.043-1.151 1.852-.14.275.78-.198 1.036-.566.246-.334.4-.518.489-1.17.537.166 1.034-.184 1.233-1.435.21-1.396-.169-2.56-.522-2.672 1.22-1.09 2.471-2.185 3.621-3.023l-.956 3.373-1.235 2.795c-.715 2.195-1.107 3.77-1.286 4.843-.961.198-3.004 1.102-3.933 1.958-1.379 1.265-3.183 2.235-3.835 4.768-.239 1.115-.186 1.897.057 2.884.036.16.036.452.186.308.176-.148.176-.938.269-1.107.053-.074.512-.661.565-.733.048-.074.04-.545.089-.619.063-.097.247-.207.311-.325.093-.127.082-.279.179-.4.079-.143.201-.16.307-.285.163-.186.334-.509.474-.712.599-.849.076-.105.66-.931.857-1.251 1.756-1.91 2.507-2.548.797-.733 1.413-.934 2.062-1.494 0 .08-.011.159-.011.226-.985.917-3.137 3.29-4.112 5.449-.311.895-.34 2.262.629 2.438a9.53 9.53 0 0 1-.883 1.466c-.877 1.276-1.076.479-3.327 2.579-.808.744.258.974-1.853 2.941-.339.313-.451.693-.738.987-.172.19-.148.314-.356.498-.201.169-.469.285-.658.444-.152.133-.279.405-.416.534-.136.117-.94.387-1.062.507-.112.095-.51 1.065-.628 1.169-.233.217-1.172 1.267-1.371 1.43-1.932 1.648.761.562 1.396-.273 2.27-2.283 2.507-1.749 3.501-2.518 1.127-1.187 2.642-1.584 3.014-2.326 1.115-1.09 2.202-1.958 2.841-3.627.049 0 1.316-1.274 1.838-2.787.089-.245.172-.509.248-.771.85-.029 1.688-.49 2.02-1.777.228-.904.565-3.027.601-3.572.057-.904.057-1.715.017-2.294.448-.61 1.011-1.94 1.366-3.672.188-.961.442-2.269.838-3.496.391-1.232.931-2.396 1.246-3.744.264-1.162.935-1.806 1.275-3.3.531-2.328 1.153-4.988 1.741-8.49l-.808-2.377z"/>
        <path d="M239.564 110.408c.819 1.204 2.223-.693 3.101-.254.263-.226-.127-.619-.167-.716-.057-.218.294-.374.294-.374s.241-.091.098-.262c-1.771-.623-1.401-3.218-1.572-3.359-.116-.148-.438-.226-.356-.543.053-.321-.01-.63-.179-.79-1.064-.524-1.069-1.479-1.551-1.534-.888-.169-1.796-.811-1.796-.811s-1.652-.047-1.992.207c-.946.716-2.006 1.006-2.179 1.141.008.019-.675-.858-1.487-1.052-1.172-.226-1.699.547-1.953.843-.901-1.665-2.261-.453-2.335-.374 0 .194-.019.245-.18.657.015-.338-.04-.628-.138-.689l-.048-.047c-.542-.428-1.142-.319-1.428.028.068.051-.078.315-.245.653.048-.347.141-.545.088-.623 0 0-.234-.254-.594-.311-.332-.055-.605.245-.605.245l-.106.087c0 .131-.074.374-.182.602.049-.302.034-.583 0-.609l-.108-.107c-.063-.028-.154-.093-.175-.072-.466-.135-1.248.334-1.248.334s.19 1.035 1.106 1.375c0 0 .123.057.239-.18-.048.254-.116.3-.12.3-.017 1.433 1.038.877 1.038.877s.091-.199.205-.433c-.025.397-.126.705-.126.705-.075.81 1.256 1.399 1.74.924.028-.07-.01.074.142-.324.009.332-.148.799-.114.687-.569 1.394 1.233 3.019 2.01 2.381 0 0 .475.319.655 1.223.095.501.184.765.662.974.388.171.423-.034.703.053.471.167.374.382.562.551.172.038.409-.091.851.226.664-.234.96.121.99-.008.55-.423 1.057.065 1.106-.063.288-.37.829-.472 1.049-.453.33 0 .569-.705.781-.705.641-.292.871-.754.871-.754s1.532-.932 2.693.374zM210.642 118.852c-.286-.027-.501.089-.669-.346-.158-.431-.746-.378-.99-.513-.258-.146.083-.474-.456-.482-.534-.011-.498-.357-.658-.444-.17-.093-.337.028-.586.066-.282.048.16-1.09-.853-1.526-1.024-.435-.746-.68-1.07-.978-1.085-1.02-2.162.152-1.555 1.557.119.262.036.938 0 1.644-.03.534.15 1.022-.233 1.521-.772.986-1.081.822-1.95 1.337-.628.387-1.451 1.325-1.601 1.365-.813.205-1.409.885-1.845 1.684-.706 1.276-1.079.942-1.254.824-.299-.167.034-3.298 1.053-4.84.197-.292.673-1.317.053-1.488-.281-.061.474-1.888 1.316-2.735.366-.37.596-1.053.861-1.298.947-.874 1.371-.684 1.449-.64 1.068.706 3.315-.779 1.007-1.588-.303-.106-.445-.769-1.113-.803-.554.01-.73.35-.842.239-.137-.134-.163-.341-.421-.501-.252-.159-.833.236-.95-.374-.108-.615-.753-.704-1.322-.615-.201.042-.317-.025-.389-.201-.137-.297-.423-.306-.806-.297-.385 0-.15-.769-1.043-.788-1.61-.083-.926 1.121-.926 1.121s-1.136.391-1.722.009c-.897-.596-1.083-.828-.893-1.057.313-.399-.034-.561-.362-.762-.438-.053-.526-.017-.617-.072-.239-.139-.235-.336-.73-.583-.04-.015-.635.141-.84-.123-.376-.217-.275-.321-.622-.384-1.288-.235-1.223 1.578-.237 2.182.557.338 1.591.856 2.175 2.104.3.643 1.542 1.141 2.06 2.041.694 1.196 1.142 2.662.906 4.411-.083.609.249 1.297.175 1.73-.288 1.733-.882 2.05-1.077 2.882-.372 1.631.013 1.963-.078 2.863-.093.904-.571 1.667-.943 1.92-.375.256-1.312.433-2.24.913-.72.365-1.373.98-1.674 1.109-1.108.509-3.972.612-3.598-.714.267-.945.087-1.752.165-1.967.698-.292 1.999-.581 2.412-1.287.461-.79 1.47-.904 1.975-1.261.502-.344.445-1.956-.315-2.381-.753-.418-.962.406-1.804.989-.59.406-2.065 1.28-2.678 1.428-.057-.442-.138-2.208-.332-3.194-.178-.847 1.258-1.526.909-2.295-.899-1.985.614-2.275.891-2.313 1.142-.163 1.622-.182 1.827-.676.176-.435.11-1.299-.865-1.244-.359.029-.685.479-.791.253-.129-.243-.165-.433-.563-.631-.397-.184-.681.19-1.091.126-.531-.093-.231-.418-.645-.555-.417-.15-1.149.376-1.291.048-.567-1.339-1.7-.716-1.971-.969-1.013-.945-1.94-.076-1.938.416.023 1.474 1.652 1.829 2.729 4.069.262.551.326 1.485.034 2.362-.419 1.242.467 3.073.404 4.033a169.72 169.72 0 0 0-.246 3.414c-.042.657-.44.709-.831 1.757-1.053 2.859-.319 1.769-2.741 3.617l-.072.019c-.214.061-1.396.08-1.619.961-.228.885.149 1.779.54 2.284 1.104 1.432 2.796 2.089 3.573 1.265.588-.604 1.265-.154 2.221-.766 2.843-1.851 4.535-1.505 6.433-2.764 1.159-.49 2.841-1.071 3.397-1.288 1.204-.254 2.1-.816 2.731-1.175.742-.439 1.112-.346 1.677-.188.62.188 2.384-.431 3.408.131.796.433 2.541.351 3.814.351.893 0 1.523.076 1.94.464.537.522 1.172.624 1.265 1 .089.386.347 2.078 1.514 1.789.527-.122.195-.868.22-.868.347-.628.165-.706.138-.97-.028-.262.531-.245.457-.788-.116-.75.596-.845.434-1.455-.18-.641-.045-1.101.093-1.298.264-.365-.398-.574-.049-1.035.732-.921.313-1.223.053-1.308-1.53-.521-1.978 2.153-4.07 2.041-.853-.046-2.17-.329-2.64-.855-.658-.738-1.597-.774-1.984-.962.522-1.21 2.564-1.314 2.434-2.197-.038-.255-.198-.498-.431-.697.791-.534 1.369-1.278 1.369-1.278 1.028-1.149 2.13-.989 2.866-1.449.696-.444 1.62-.416 2.018-.351 1.191.188 2.01-.055 1.842-.976-.052-.294-.412-.701-.706-.746zM225.673 35.898c2.862-4.911 4.233-13.347 1.65-17.737-9.394-16.432-35.189-6.646-35.745-1.08-.296 2.439 4.357 2.177 3.784 4.612-.531 2.155-2.837 2.753-4.529 3.197-8.455 2.497-13.633-9.1-21.356-4.787-1.312.608-3.556 1.29-3.639 3.067-.089 1.77 2.19 1.92 3.292 2.947 1.647 5.195 16.042 7.802 25.433 2.094 11.15-6.712-1.375-5.427 4.713-11.757 4.677-4.912 22.058-1.485 24.855 4.432 2.581 5.624-.095 1.6-4.205 13.236-.984 2.81-.153 6.564.359 6.78.629.259 3.895-2.432 5.388-5.004z"/>
        <path d="M176.922 15.382c-.319.275-.592.526-.56.615.266.368 1.694 1.413 2.735 2 .364.206.799.32 1.057.119.434-.357 1.204-1.382 1.432-2.034.062-.003 1.898-.064 3.609-.543 0 .481-.044 2.18.874 2.423.588.154 1.483-3.309 1.629-3.507 2.674-1.525 5.802-4.542 6.856-8.362 1.337-5.182.332-5.905.097-5.989-.112-.061-1.561-.646-5.574 1.813-2.24 1.491-4.241 3.456-5.052 4.46a94.791 94.791 0 0 0-3.759-.973c-.317-.065-.577-.08-.655.243-.024.19.017.442.135.695.375.869.334 2.255.246 2.916-.034.291.181.397.469.382.089-.008.277.178.474.38-.626.592-1.991 1.3-2.532 1.33-1.028-.254-2.287-1.002-2.964-.782-.29.086-.469.743.028 1.255.122.09.241.156.332.202-.859.155-1.775.254-2.564.159-.078-.074-.093-.243-.152-.387-.049-.661.518-1.016.926-1.32.544-.389.478-.896.186-1.375-.291-.47-.975-.932-1.474-1.038-.368-.072-.876-.118-1.257-.395-.327-.236-.59-.568-.854-1.094-.465-.963-.812-1.958-1.646-2.723-.152-.127-.321-.068-.41.038-.328.441.677 4.768 1.722 6.255 1.33 2.094 3.465 4.181 6.646 5.237zM170.211 47.87c.051-.041.087-.274-.309-.635-.402-.355-.833-.695-.833-.695s-.009-.15-.138-.302c-.125-.154-.436-.182-.436-.182s.098-.038-1.034-.834c-.742-.526-1.495-.48-1.648-.569-.144-.07-.167-.145-.307-.302-.222-.257-1.542-.718-1.643-.627-.102.095.605.465.605.465s-.823-.3-.823-.138c0 .015.366.353.366.353s-.819-.313-.81-.108c0 .02.218.294.194.288-.074-.034-.387-.131-.448-.034-.004.013.186.21.175.2-.105-.054-.397.102-.397.102l.486.112c-.097-.017-.554 0-.588.09.011.011.356.252.356.252s-.271-.088-.36-.13c-.078-.037-.391-.083-.508-.005-.287.197-.207-.116-.818.097-1.058.364-1.054.349-1.561.66-.32.192-1.765 1.142-1.845.954-.064-.186-.476-.69-.613-.864-.14-.17-.472-.515-.605-.444-.468.269-.337 1.27-.011 2.115.343.881-.267 1.933-.125 2.102.136.171.901-.568 1.326-1.12.182-.209.87-.232 1.225-.027.504.288 1.291.68 1.291.68s.184.446.22.957c.019.195 0 .224.19.23.41.026.869-.443.869-.443s-.12-.08.419.118a.85.85 0 0 0 .495.047c-.148.12-.304.325-.48.467-.218.17-.596.733-.592.931.004.193.273.155.526.083.246-.066.601-.239 1.022-.495.428-.253.762-.606.893-.674.133-.078.23.05.23.05s-.046.555-.055.74c-.01.193-.097.875-.01.808.089-.074.214-.214.328-.547.125-.332.051-.846.205-.83 3.825.234 5.576-2.118 5.741-2.276.167-.165 0-.355 0-.355s-.224-.222-.165-.264zM240.9 27.507c.324.646.241 1.257.55 1.859.41.805 1.17.906 1.284.906.102.01.078-.059.019-.07-.074-.02-.759-.063-1.182-.889-.237-.463-.189-1.303-.5-1.905-.471-.907-1.404-.486-1.844-.218-.017.015-.064.046-.074.008-.009-.027.029-.048.046-.063.237-.137.559-.32.681-.429.161-.154-.19-.382-.224-.298-.07.144-.364.349-.605.467-.013.015-.053.025-.07.006-.008-.025.022-.046.053-.059.193-.112.415-.291.43-.469.017-.192-.136-.17-.186-.207-.631-.258-2.514-.663-3.7-1.343-.87-.499-1.602-1.346-2.118-2.533-.137-.347-.328-.21-.402.044-.457 1.612-.332 2.753-.321 4.301-.007.687-.21 1.481-.468 1.883-.124.207-.531.245-.685.454-.091.129-.138.287-.193.44-.268.04-.619-.007-.888.018-.207.023-.404.05-.588.241-.167.175-.165.433.008.579.428.384 1.075.148 1.581-.195.16-.12.355-.166.516-.042.313.3 1.053 1.524.981 2.098-.012.1-.122.258-.232.334-.269.167-.47.215-.73.408-.324.238-.523.517-.535.862 0 .107.063.293.184.344.562.239.909-.397 1.21-.797.059-.073.234-.17.304-.21.155.054.305.115.438.075.165-.05.385-.344.491-.266.592.431.573.292 1.1.401 1.927.396 3.226 2.303 4.302 3.087.466.334.576.072.474-.237-.22-.652-.433-1.24-.586-1.884-.569-2.189.593-5.476.819-5.974.044-.153.176-.497-.042-.478-.273.025-.445.08-.679.218-.028.002-.072.027-.083.002-.015-.02.017-.057.045-.066.416-.238.575-.238.725-.279.11-.023.125-.118.102-.192-.04-.112-.102-.137-.199-.13-.258.01-.48.145-.711.27-.04.023-.07.048-.087.019-.019-.032.009-.06.043-.07.461-.287 1.241-.6 1.546-.021zM236.93 60.917s1.327-.199 1.982-1.101c.675-.35 1.187-2.814 1.067-3.919.539-.617.727-1.436.685-2.195.25.338.586.786.698.91.205 1.317 1.339 3.292 1.339 3.292s.254.68-.036 1.145c.641-.348.745-.877.662-1.32.161-.254-.491-2.117-1.203-3.516-.485-.507-1.593-2.152-2.171-3.035a5.234 5.234 0 0 1-.158-1.319c.446.938 1.601 3.186 2.238 2.918.382.826 2.612 2.32 3.228 2.07.651.154 1.216-.14 1.499-.407-.56-.17-1.398-.214-1.398-.214s-2.064-1.705-2.877-2.108c-.782-.978-1.8-2.808-2.633-3.467 0-.178-.011-.36-.045-.543.69.583 3.061 2.503 3.823 2.108.799-.42 1.049-.245 1.307-.549.273-.31 1.142-1.407.912-2.966-.246-1.563-.639-1.88-.639-1.88s-.04 1.449 0 1.802c.042.355-1.14 1.069-1.271 2.499-1.035-.27-2.021-1.257-2.674-1.49-.677-.238-1.155.013-1.638-.27-.272-.75-.698-1.434-1.116-1.874a5.608 5.608 0 0 0-1.854-1.238c-.23-.585 0-.99-.137-1.639-.14-.69-1.125-1.72-1.335-2.772 1.426-.055 2.202-1.2 2.549-1.136.351.063 1.796.099 1.796.099s-.29-.414-1.828-.735c-1.544-.326-2.68.49-3.005.743-.326.25-.159.503-.62 1.285-.438.763 1.468 3.37 1.897 3.942a3.129 3.129 0 0 0-.609-.072c-.772-1.196-2.289-1.969-3.241-2.827-.351-.836-1.94-2.997-1.94-2.997s0-.833-.139-1.416c-.267.264-.595.824-.485 1.48-.285.605 1.083 2.93 1.889 3.354-.382.697 2.19 2.04 2.913 2.406a5.384 5.384 0 0 1-1.59-.285c-.635-.513-2.065-1.707-2.571-2.256-1.351-.79-3.162-1.545-3.426-1.403-.438-.1-.967-.034-1.35.6.486-.27 1.146.023 1.146.023s1.896 1.245 3.203 1.52c.106.196.673.582.922.745-.742-.12-1.597-.044-2.282.408-1.312-.057-3.751.344-4.131.992-.933.611-1.2 1.931-1.2 1.931s.98-1.039 1.401-1.238c.091.23 2.284-.32 2.976-.5-.011.027-.025.05-.034.08-.19.488-.3 1.025-.351 1.58-1.185.176-3.423.738-3.053 2.485-.56 1.185-.56 4.43.049 4.453.303 1.029 2.02 3.19 2.847 2.474-.873.002-1.368-2.149-1.222-2.529.452.393 1.73 1.646 1.671 1.897.23-.317-.722-2.488-.722-2.488s.026-2.407-.167-3.239c-.179-.742.466-1.534.612-1.699.129 1.399.59 2.764 1.275 3.691 1.187 1.606.959 2.106.959 2.106s.459 0 .702.269c.249.268.201.688.201.688s.501-.2 2.041 1.078c.889.735 2.232 1.282 3.617 1.479-.207.162-1.026.74-1.728.528-.816-.252-3.209-.349-3.209-.349s-2.113-1.069-2.441-.849c.245-.046 1.43 1.289 1.798 1.764-.393.133-2.496-.477-2.45-1.358-.753.798 1.293 2.628 2.298 2.987 0 .617 3.221.792 4.429.298 1.817.492 2.577-2.094 2.602-2.935a6.15 6.15 0 0 0 1.549-.247c-.151.522-.73 2.8-.5 2.913-.217.412-1.303 1.338-1.303 1.338zM265.335 68.757l.156-.085-.086-.809.148-.084-.227-.807.212-.064s-.734-.931-.305-.876c.102.02-.656-.784-.474-1.099.096-.188-1.258-.649-1.296-3.222-.009-1.109-.005-3.574-1.003-6.11-1.421-3.62-1.773-5.874-1.352-5.467.115.12.629.387.569.324-.021-.167-.021-.37-.021-.37l.421.323-.055-.205.476.378-.125-.274.356.302s.055-.214.12-.167l.531.39-.063-.316.34.181.051-.238s.37.247.226.11c-.137-.144-.105-.222-.105-.222l.342.158s-.101-.245-.01-.11c.093.125.662.391.495.239-.167-.144-.698-.786-.98-1.071-.287-.285-.772-.81-.998-1.19-.207-.38-.417-.779-.87-1.098-.437-.321-.812-.283-1.163-.156-1.053.371-1.034-1.221-2.348-3.4-.341-.562-.793-.954-.808-1.808-.055-3.57-2.454-3.752-3.008-4.227-.324-.27-.781-.047-.855-.03-.175.038-.323.112-.573-.002-.239-.118-.512-.357-.742-.543-.409-.334-.764-.462-.986-.22-.199.22-.415.38-.618.733-.209.353-.203.67-.144.911.059.243.777 2.298.628 2.624-.129.285-1.427 1.282-2.314 3.163-.112.209-.833 1.958-.01 4.97.397 1.465 1.178 2.453 1.15 2.508-.308.649-1.552 2.134-1.95 3.591-.266.972-.285 2.67-.114 3.545.175.824.531 1.701 1.168 2.464l.283-.621.091.238.324-.726.093.302.309-.723.101.264.366-.95.066.234.349-1.056.124.203.176-1.088.127.203.152-1.196.309.33a18.942 18.942 0 0 1-.051-.985c0-.442.165-1.038.25-.737.032.09 1.88 3.473 3.784 4.892 1.91 1.416 2.951 1.477 3.641 2.593.249.416.643.967.398 1.55-.214.522-.828 2.022-.828 2.76 0 .958.493 1.727.614 1.924.241.405.37 1.215.37 1.215l.089-.267.258.066.269-1.06.207.238.142-1.139.089.218.304-1.025.129.22s.167-1.198.241-.894c.009.034.024.085.036.144.011-.14.034-.251.07-.334.176-.361.186-.784.186-.769.028.117.017-.727.047-.674.095.233.433.241.29.643-.055.166-.074.382-.098.587-.093.792.356 2.113 1.405 2.869a5.38 5.38 0 0 0 1.026.562l.332.12-.157-.469.462.078-.161-.384zM227.84 10.561c.116.053.253.131.402.226.359.262.706.484 1.011.69 1.009.717 5.457 3.595 6.405 4.991-.584-.177-1.479-.963-3.184-2.275-1.677-1.333-3.955-2.311-5.034-3.036-1.005-.558.275.437.474.663 1.155 1.298 3.53 2.703 3.53 2.703s-5.606-2.857-6.327-4.181c-.33-.43-.207.283.163.741.789.881 1.796 1.885 3.368 2.73 1.584.847 3.308 1.533 4.588 2.539-.286.524-3.313-1.739-4.603-1.762-.057.032-.301.034.662.408 1.9.729 3.239 2.347 4.664 2.896 1.678.647 3.104.742 3.666 1.177.495.38 1.327.475 2.287.551-.711.155-1.381.142-1.72.051-.505-.13-1.07-.587-1.07-.587-.125.452 4.565 5.814 8.918 8.188 4.313 2.345 2.259 5.63 4.163 5.316 1.906-.324 3.7-1.266 3.7-1.266s.097-.186.042-.406c2.541 1.217 2.505.248 1.635-.475-.258-.218-.488-.46-.719-.703.207.074.48-.013.48-.013s.474-1.496-.209-2.683c-.402-.676-2.029-.26-3.184-1.6-1.144-1.334-1.21-1.844-1.796-2.725-1.728-2.573-7.196-6.468-7.196-6.468s.302.48-.064.86c-.143-.719-.465-1.452-1.707-1.891.017-.898-.634-1.095-1.267-.799-.651.281-.833.42-.833.42s-1.513-1.903-3.941-2.687c-2.283-.75-4.227-2.636-5.673-3.623-1.308-.826-.13.142.281.814.842 1.385 2.949 3.675 4.694 4.444 2.001.902 2.991 2.286 2.223 2.107-.78-.17-5.508-3.47-6.763-4.728-1.15-1.141-1.48-2.244-3.249-3.057-.18-.083-.819-.385-.895-.302-.108.097.138.262.193.378-.385-.152-1.519-.672-1.299-.268.85 1.286 2.204 2.171 3.184 2.642zM242.172 69.681c-.015.013-.032.013-.042.021-.337.091-.903-.065-1.113.028-.106.05-.072.076-.049.097.022.01.022.025.017.032-.402-.021-.829-.087-1.07.025-.171.08-.171.049-.135.125.078.177-.138.044-.432-.096.006-.006.032-.01.04-.012.093-.074.438-.264.415-.207-.072.253.696-.144.651-.068-.105.152.373-.103.324-.013-.104.17.485-.139.459-.08-.068.152.239.013.504-.036.154-.027-.201.062.012.125.186.055.318-.07.478-.114.036.061.036.129-.059.173zm11.958 4.542c-.29.29-1.265-1.929-1.423-1.03-.051.306-1.413-1.716-1.356-.58 0 0-1.291-1.637-1.238-.739.017.524-.66-.752-.802-.465-.564 1.052-.399-2.007-.784-.98-.079.207.165-1.05-.218-.619-.153.175.18-1.341-.22-.68-.1.16.22-.814-.163-.44-.161.159.645-1.105.142-.845-.102.051.332-.31.469-.494.136-.173-.209-.046-.089-.186.182-.199.404-.22.538-.36.122-.136-.049-.16.034-.219.19-.129.575-.148.725-.34.284-.353-.379-.306-.387-.342-.008-.034.036-.182.085-.345.038-.162-.028-.34-.17-.278-.137.059-.245.348-.239.272.049-.336-.338.454-.342.182-.019-.38-.282.653-.307.458-.097-.517-.307.735-.341.488-.063-.61-.171.888-.45.767-.22-.1.416-1.107.099-1.065-.082.013.51-.602.277-.551-.053.013.153-.353.03-.384-.055-.024.366-.387.156-.345-.078.01.273-.384.176-.587-.068-.146-.277.08-.277.08s.023-.29-.11-.275c-.097.013-.286.347-.315.58-.011.126-.108.346-.142.312-.131-.12-.25.908-.298.803-.102-.207.055.874-.087.653-.142-.218-.063.602-.116.545-.153-.148-.055.348 0 .597.023.134-.074-.194-.127-.057-.066.144.097.533.15.69.059.162-.317-.128.008.531.163.324-.325-.025-.105.427.167.323.717 1.335.545 1.46-.059.044-1.218-1.052-1.002-.376.057.177-1.094-1.02-.988-.553.065.278-.417.027-.576-.317h.011c0-.013-.011-.028-.027-.04 0-.02-.017-.03-.017-.045-.028-.11-.062-.198-.087-.29 0-.17.059-.413.239-.779.374-.452-.044-.39-.021-.425.099-.128.421-.483.11-.443-.146.023.395-.49.232-.401-.179.095.5-.615.282-.54-.053.016.177-.192.271-.456.088-.25.019-.39-.1-.3-.008 0-.013.007-.019.013-.004-.11.207-.427.322-.509.205-.15.556-.796.588-1.075.046-.38-.22-.207-.22-.207s.251-.66.139-.803c-.156-.2-.6.927-.569.718.087-.608-.347.693-.347.545-.004-.323-.378.89-.378.727-.009-.279-.28.868-.286.619-.004-.222-.087.253-.201.729-.017-.017-.027-.133-.114.063-.093.226-.119.336-.19.592-.117-.323.569-1.659.272-1.416-.055.05.483-.79.22-.587-.188.129.648-1.156.417-.972-.254.211.624-1.067.317-.87-.08.042.22-.338.307-.744.089-.386-.048-.543-.203-.378-.161.175-.429.703-.455.684-.023-.014.167-1.085-.241-.644-.101.114-.431.731-.55 1.342-.065.266-.074-.21-.201.226-.133.43-.106.57-.216 1.2-.065.447-.11-.167-.198.354-.083.54.057 1.414-.064 1.228-.027-.05-.065-.102-.137.076-.127.327.019 1.274-.083 1.798-.036.129-.093.169-.15.154a.46.46 0 0 0-.051-.087v-.002c.064-.376.087-.465.087-.767 0-.327-.229.243-.216.017.032-.424.193-.828-.004-.695-.07.051.26-.906.044-.716-.11.089.167-.689-.012-.5-.102.09.315-.85.127-1.019-.06-.046.021-.494.101-.657.136-.3.22-1.067.152-1.305-.088-.317-.279.046-.279.046s-.015-.701-.169-.71c-.216-.015-.212 1.19-.264 1.01-.146-.52-.064.816-.121.701-.123-.236-.021.968-.085.86-.112-.196.06.881-.033.693-.172-.296.34 1.515.063 1.468-.254-.044-.108-1.726-.288-1.288-.04.088.153-.995-.029-.617-.112.262.182-1.405.038-1.071-.15.372.182-1.316-.032-.906-.055.097.089-.442.008-.818-.055-.353-.243-.353-.327-.091-.079.266-.132.887-.163.887-.036.015-.237-.94-.459-.257-.064.188-.134.904-.024 1.455.047.247-.133-.093-.099.336.034.433.108.503.248 1.054.097.376-.136.026-.066.38-.114-.373-.212-.967-.381-1.18-.334-.406-.29.352-.558.002-.379-.49-.39-1.23-.662-1.587-.288-.344-.36.294-.464.032-.23-.594-.594-1.11-.837-1.105-.918.015-.39 1.517-.47 1.589-.07.063-.51-.47-1.237-.588-.33-.06-.584.218-.474.621.118.431.899.488.727.535-.717.203 1.13.646.555.737-.519.089 1.265.628.829.754-.641.19.967.647.821.71-.747.305 1.326.65 1.155 1.363-.225.834-1.976-.452-1.731.376.068.207-1.127-.452-.971-.034.068.203-1.18-.376-.761.173.139.199-1.028-.13-1.155.53-.083.461.658.377.658.377s-.722.448-.273.536c.448.087 1.112-.617.766-.038-.161.264 1.561-.498 1.434-.367-.777.76 1.7-.307 1.55-.038-.277.526.404.01.94.01.27 0 .983-.063.399.17-.567.221.483.447.825.493.229.034.254.153.142.233-.137-.061-.277-.114-.379-.102-.158.015-.143.066-.133.11.045.176-.438-.236-.846-.308-.417-.08-.025.146-.372.089-.478-.095-.557-.17-.918-.174-.368-.004-.068.153-.278.127-.473-.067-1.083.066-1.229.131-.554.27.278.4.278.438-.005.029-.51.135-.73.232-.21.106-.193.29.112.323.328.036.766-.137.692-.074-.316.241 1.064-.228.767-.048-.258.175 1.105-.252.906-.115-.298.208.596-.065.522-.023-.351.21 1.058-.067 1.124.186.076.273-1.515-.097-1.238.044.157.083-.774-.004-.599.096.102.057-.926.044-.715.152.102.042-1.03.067-.573.167.153.04-.861.126-.827.342.023.143.559.114.607.11v.004c-.019.019-.093.08-.106.14a.33.33 0 0 1-.082.008c-.47-.009-1.166-.002-.704.414.3.275-1.642-.382-1.168.137.228.25-.918.01-1.377.454-.764.717.391.995.41 1.072.011.078-.404.587-.634.916-.229.324-.083.74.368.697.461-.05.943-.633.882-.464-.284.705 1.326-.974 1.036-.414-.266.498 1.356-1.059 1.168-.649-.29.608.725-.425.702-.287-.152.788.857-.65 1.107-.085.262.62-1.602.467-1.132.685.273.124-1.054.304-.743.462.167.085-1.241.495-.901.643.176.076-1.364.604-.677.648.239.015-1.104.653-.916 1.145.131.347.916-.008.916-.008s-.067.674.394.43c.56-.293 1.087-1.324 1.106-.819.017.494.757-.927.747-.788-.045.674.947-.89.928-.621-.033.763.599-.522.569-.226-.044.585.785-.67.77-.478-.082.759 1.039-.895.864-.388-.191.564.668-.16.99-.313.351-.169-.075.526.42.192.498-.336.809-.466 1.058-.587.647-.245.218.387-.103.661-.371.313-1.077.412-1.327.72-.131.17-.074.204-.034.237.184.123-.575.192-1.002.511-.417.315.101.163-.246.431-.507.374-.969.92-.988 1.19-.017.518.51-.044.373.196-.307.53-.643 1.595-.629 1.813.03.811.582-.11.616-.089.032.028-.097.697-.093 1.014.019.309.235.389.423.036.197-.363.188-.972.25-.858.264.52.118-1.356.321-.948.229.48.167-1.428.303-1.14.239.502.347-.72.355-.611.036.76.641-1.042.979-.816.275.19-.755 1.53-.495 1.37.153-.098-.342.79-.036.525.089-.063-.224.735.041.51.074-.062-.112.865.148.447.08-.114.188.636.412.568.159-.046.064-.492.064-.492s.23.178.287-.048c.041-.174-.146-.645-.325-.795-.096-.08.067-.103.12-.074.148.085-.156-.822-.082-.756.222.182.029-.437.116-.277.163.307.229-.79.264-.693.079.28.364-.891.483-.587.131.334.311-.9.311-.803 0 .089.129.404.374-.302.114-.34.783-.986 1.348-1.215.19-.065.772-.181.624.013-.576.718 1.576-.336 1.068.167-.459.463 1.333.072 1.58.042.296-.03-.467.285-.085.34.451.07.715-.06.982-.122.423-.102-.531.353.212.374.33.008.812-.007.882-.06-.781.353.92.436.689.607-.429.327 1.453.484 1.09.613-.417.16 1.48.228 1.392-.415-.024-.183-.694-1.662-1.217-1.149zM168.848 121.25c-1.982-.019-3.78.97-4.994 2.092-1.198 1.118 1.066.499 1.662.336 1.798-.478 3.516.236 5.138 1.667.772.674 2.852.534 3.508-.378.873-1.241-1.982-3.676-5.314-3.717z"/>
        <path d="M169.872 112.102c-1.074 0-2.756-.129-4.12-1.486-2.145-2.123-5.433-3.545-7.821-3.771-2.38-.245-4.097-.319-8.106 1.061-4.499 1.565-3.568 4.694-1.83 5.053 1.752.347 4.07-.612 5.136-2.427.849-1.447 2.799-2.85 4.885-2.163 1.284.424 3.731 2.537 3.515 4.495-.101.885-3.82.313-9.161 3.659-3.909 2.455-2.828 6.788-.468 9 2.376 2.208 5.519 3.367 8.197 3.213 2.676-.146 6.258-1.369 6.029-2.21-.22-.834-1.18-1.24-2.479-.919-1.047.265-3.019.159-3.882-1.992-.744-1.855 2.389-4.102 5.369-4.789 2.97-.684 11.603-2.71 10.917-4.905-.683-2.202-5.112-1.819-6.181-1.819zM175.023 101.635c-6.008-1.141-4.652.462-4.199 1.297-.525.036-1.382-.592-4.574-.611-2.635-.017-4.958 1.597-4.958 1.597-.842.537-1.166 1.758-.749 1.469.408-.279 1.967-.723 4.021-.706 3.218.028 3.666 1.749 8.172 1.827 3.37.064 7.344-1.085 7.647-2.446.224-.868-3.742-2.125-5.36-2.427zM149.286 36.647c.519-.649 1.096-1.198 1.633-1.794.318-.325.635-.687.927-1.037.319-.366.721-.607 1.053-.95.601-.567 1.268-1.102 1.978-1.562.597-.423 1.401-.663 2.071-.923.832-.345 1.621-.416 2.424-.017.398.198.847.2 1.295.268.355.049.683.101 1.013.148.383.057.762-.027 1.121-.163.739-.262 1.488-.754 2.099.068.203.272.395.767.313 1.096-.231-.376-.635-.173-.965-.076-.402.114-.85.218-1.239.364-.449.162-.889.37-1.312.568-.624.294-1.229.807-1.506 1.443-.125.268-.207.44.059.526.21.065.523-.023.728-.064.364-.071.728-.111 1.089-.164.743-.108 1.473-.066 2.213-.26.897-.233 1.815-.492 2.731-.518.434-.01.808-.09 1.237-.143.445-.062.847-.264 1.278-.362.351-.078.641-.027.958.11.76.309 1.238.869 1.904 1.314.375.254.612.697 1.003.91.797.425 1.673.977 2.164 1.756.544.86 1.32 1.562 1.83 2.451.48.85.89 1.77 1.182 2.704.172.587.406 1.187.239 1.81-.101.318-.249.242-.539.127-.292-.116-.569-.257-.87-.331-.389-.104-.772-.29-1.123-.459-.228-.116-.374-.272-.567-.427-.389-.295-.981-.382-1.43-.534-.309-.11-.719-.273-.988-.452-.281-.184-.526-.456-.844-.59-.158-.07-.328-.08-.486-.17-.169-.1-.286-.244-.476-.332-.516-.243-1.098-.423-1.561-.738-.563-.386-1.308-.304-1.908-.6-.286-.141-.449-.242-.777-.198-.203.025-.328.082-.537.021-.161-.049-.269-.169-.446-.18-.136-.004-.233.09-.356.064-.154-.028-.199-.193-.37-.182-.269.017-.37.328-.689.29-.11-.013-.24-.136-.324-.136-.119-.004-.22.112-.322.14-.273.08-.575.031-.85.031-.226 0-.472.036-.696.028-.123-.009-.26-.063-.391-.063-.254.002-.497.071-.756.09-.283.022-.564-.086-.86-.088-.377-.002-.773.112-1.128.224-.292.09-.571.183-.878.236-.457.078-.527.152-.814.516-.851 1.09-1.75 2.148-2.75 3.107a16.08 16.08 0 0 1-1.578 1.378c-.468.342-1.058.52-1.489.898a30.74 30.74 0 0 1-1.155.95c-.929.716-1.834 1.39-2.873 1.94-.874.464-1.864.912-2.589 1.603-.612.583-.684 1.26-.838 2.039-.131.695-.884 1.056-1.225 1.629-.393.66-.823 1.404-1.398 1.947-.535.503-.872 1.186-1.506 1.591-.724.459-.038-.405-.072-.553-.455.359-.121-.416-.013-.58.227-.34.499-.75.821-1.028.226-.2.489-.35.673-.585.139-.19.23-.391.393-.566.233-.243.444-.51.671-.757.146-.156.37-.348.359-.568-.313.087-.696.368-.994.522-.376.19-.662.564-.998.809-.358.258-1.435 1.751-1.887 1.255-.1-.11.241-.23-.191-.182-.063.01-.488.2-.522.173-.218-.2.613-.813.744-.917-.285-.052.036-.363.07-.52.07-.35-.118-.396-.376-.194-.387.307-.961.837-1.437.974-.038-.352.117-.712.292-1.003.269-.446.595-.702.986-1.046.465-.414.812-.957 1.219-1.424.245-.28.499-.557.734-.849.215-.272.281-.471.414-.78.207-.505.662-.887.961-1.341.38-.596.74-1.221 1.195-1.77.342-.425.66-.873.753-1.424.025-.133.089-.326-.034-.435-.154-.153-.248.027-.436-.02-.167-.04-.194-.224-.349-.255-.15-.032-.264.133-.402.207-.364.209-.727.469-1.138.37-1.003-.237-1.69.49-2.17 1.341-.567 1.008-1.314 1.863-1.967 2.814-.802 1.151-1.773 2.136-2.611 3.254-.789 1.06-1.4 2.252-2.126 3.358-.389.588-.73 1.344-1.493 1.319.201-.896.296-1.891.818-2.679.684-1.041 1.559-1.944 2.198-3.006.483-.797.948-1.659 1.231-2.54.119-.386.324-.739.457-1.121.083-.23.159-.493.301-.695.188-.243.372-.294.493-.564.213-.472.495-.852.863-1.215.262-.252.516-.507.761-.77.284-.31.43-.652.645-1.005.223-.348.548-.59.823-.89.26-.295.459-.635.745-.91.497-.469 1.132-.826 1.701-1.2.954-.625 2.14-.76 3.154-1.25.526-.258 1.062-.543 1.584-.805.804-.414 1.46-1.13 2.024-1.821zM139.45 86.408v-.036c-.004-.304-.235-.623-.358-.908a36.045 36.045 0 0 0-.744-1.54 14.695 14.695 0 0 0-.922-1.578c-.377-.541-.914-1.002-.866-1.705.083-1.536 2.042-1.418 3.19-1.69.775-.18 1.511-.46 2.272-.668.694-.194 3.002-.856 2.348-1.944-.391-.64-1.681-.526-2.331-.5-.427.017-1.328.253-1.352-.37-.012-.361.214-.623.523-.76.594-.269 1.14-.358 1.785-.413.679-.059 1.227-.253 1.877-.411 1.097-.27 1.925-.153 2.802.58.629.516 1.365.892 2.01 1.378.624.465 1.367.338 2.117.406.821.076 1.64.07 2.452.234.929.19 1.841.507 2.676.942.44.226.952.288 1.373.552.269.167.506.384.759.57.381.277 1.902 1.739 1.858.471-.026-1.113-1.496-1.067-2.192-1.536-.615-.414-.749-1.356.129-1.44 1.147-.112 2.255.54 3.345.802 1.11.27 2.227 1 2.955 1.855.26.3.715.645.723 1.073.011.4-.249.645-.527.869-.442.355-1.171.382-1.474.87-.161.25-.25.535-.446.77-.265.312-.639.451-.584.872.108.766-.212 1.576-.028 2.31.172.706 1.24.64 1.862.64.408 0 .755.02 1.119.189.305.148.535.315.865.27.305-.031.48-.152.743.144.315.361.211.936.308 1.369.113.52.413.995.737 1.415.266.343.706.88.499 1.285-.279.555-.901.43-1.426.562-.914.234-2.054.925-3.021.494-.476-.215-.844-.615-1.311-.862-.774-.414-2.001-.89-2.919-.612-.307.09-.569.297-.878.403-.301.097-.671.144-.92.368-.246.222-.356.543-.684.745-.393.243-.848.393-1.271.545-.586.2-1.202.235-1.777.457-.197.072-.609.217-.706.43-.123.265.173.596.243.848.101.403.133.803.211 1.206.129.873.066 2.149-.869 2.584-.415.167-.897.334-1.307.473-.582.23-1.168.133-1.752.133-.516 0-.901.23-1.413.332a5.303 5.303 0 0 1-1.65.133c-1.003-.032-2.107 0-3.031-.465-.931-.503-1.893-.906-2.585-1.745-.233-.304-.337-.67-.408-1.008-.138-.604.376-.604.86-.604.825 0 1.653-.268 2.478-.236 1.241.036 2.515.604 3.754.441 1.132-.169.481-1.413.096-1.981-.44-.736-1.441-1.042-2.23-1.376-1.007-.395-1.933-.94-2.879-1.436-.19-.104-.455-.309-.666-.338-.197-.026-.472.093-.673.118-.55.072-1.113.061-1.665.078-.387.017-.728.212-1.113.273-.425.059-.871.038-1.3.031-1.752-.02-2.75-1.27-3.245-2.75-.083-.25-.144-.507-.278-.731-.158-.275-.469-.478-.676-.712-.377-.427-.498-1.086-.104-1.54.518-.604 1.157.088 1.684.338.626.302 1.241.961 1.937 1.06.671.097 1.437-.52 2.018-.126M148.326 64.563s-3.501-2.73-8.445-1.038c-4.95 1.695-4.964 3.021-4.964 3.021s-.599 1.122-1.166 1.314c-.563.197-4.501-.752-5.159-.758-.665-.002.524 1.067.846 1.73.332.664.696.894.696.894s.247 3.019.048 3.28c-.203.263 1.866-2.078 2.399-2.338.531-.262.804-1.052 1.527-1.082.732-.031 2.852.58 4.84.091 1.993-.486.527.235.527.235l1.453.086s2.334-1.128 2.928-1.421c.603-.292 2.894-1.177 3.323-1.802.438-.626.804-1.217 1.174-1.319.36-.097.43-.625-.027-.893zM159.968 69.168s-1.381-2.017-3.687-1.84c-2.318.182-2.403.903-2.403.903s-.347.52-.609.54c-.265.023-1.955-1.086-2.247-1.19-.3-.1.159.658.265 1.07.101.412.249.596.249.596s-.088 1.677-.194 1.793c-.112.114.967-.851 1.225-.915.245-.063.421-.454.748-.359.324.095 1.232.744 2.143.778.916.034.222.209.222.209l.637.262s1.111-.258 1.403-.33c.285-.07 1.356-.207 1.592-.484.24-.276.438-.544.605-.54.168.002.231-.275.051-.493zM144.611 58.215s2.012-3.068 5.49-2.865c3.477.2 3.634 1.278 3.634 1.278s.526.776.922.797c.4.03 2.898-1.688 3.347-1.849.442-.165-.229.99-.375 1.612-.135.621-.351.9-.351.9s.18 2.52.343 2.687c.163.17-1.479-1.248-1.858-1.333-.38-.089-.653-.674-1.146-.524-.482.152-1.819 1.154-3.194 1.232-1.38.082-.326.321-.326.321l-.948.412s-1.686-.361-2.117-.456c-.428-.096-2.05-.27-2.41-.68-.357-.406-.67-.803-.922-.795-.254.009-.362-.412-.089-.737zM14.4 108.393c-5.156 0-8.606 4.166-8.606 10.42 0 6.764 3.748 10.808 8.732 10.808 3.749 0 8.559-2.723 8.69-9.959.13-5.871-2.896-11.269-8.817-11.269zm-.045 26.414c-3.789 0-7.281-1.062-10.35-4.592C1.025 126.769 0 122.854 0 119.071c0-9.192 6.221-15.828 14.441-15.828 7.455 0 14.442 5.529 14.398 15.783-.043 8.592-5.24 15.781-14.484 15.781zM47.826 120.302c-.38-1.407-1.874-3.617-4.81-3.617-2.94 0-5.282 2.339-5.282 6.593 0 3.831 1.998 6.636 5.366 6.636 3.237 0 4.472-2.463 5.11-4.168l4.386 2.294c-1.66 4.597-5.874 6.64-9.58 6.64-5.923 0-10.565-4.557-10.565-11.273 0-6.506 4.686-11.273 10.736-11.273 5.364 0 8.091 3.571 9.197 6.04l-4.558 2.128zM70.99 120.684c-.47-3.315-2.513-4.464-4.77-4.464-2.727 0-4.605 1.569-5.198 4.464h9.968zm5.792 8.591c-2.64 3.531-6.048 5.405-10.393 5.405-5.58 0-10.95-3.531-10.95-11.358 0-7.151 4.604-11.188 10.61-11.188 5.622 0 7.966 3.359 8.39 4.001 1.746 2.465 2.131 6.165 2.171 8.29H60.85c.6 3.365 2.685 5.277 6.049 5.277 3.492 0 4.899-2.038 5.538-2.936l4.345 2.509zM93.82 123.448c-1.021.511-2.172.892-4.47 1.278-1.834.256-4.262.681-4.262 2.935 0 1.656 1.405 2.512 3.448 2.512 2.6 0 4.434-1.192 4.986-2.468.298-.644.298-1.28.298-1.918v-2.339zm-13.164-4.426c.085-1.06.172-1.956.855-3.188 2.041-3.699 7.112-3.699 8.476-3.699 2.042 0 4.514.254 6.389 1.359 2.513 1.535 2.555 3.53 2.555 5.828v11.273c0 1.616 0 2.17.937 3.446H93.82c-.044-.509-.129-1.359-.129-1.659-1.106.936-3.361 2.168-6.303 2.168-4.813 0-7.711-2.975-7.711-6.636 0-1.065.258-2.043.683-2.892 1.532-3.063 4.813-3.741 6.858-4.126 4.388-.896 4.726-.978 6.602-1.574 0-1.065-.084-3.232-3.623-3.232-2.126 0-3.277.68-3.791 1.358-.552.678-.51 1.283-.51 1.874l-5.24-.3zM104.12 112.77h5.151v2.509a5.982 5.982 0 0 1 1.665-1.656c1.278-.94 3.236-1.489 4.897-1.489 2.428 0 4.514 1.105 5.58 2.552 1.32 1.785 1.32 4.086 1.32 6.847v12.504h-5.068v-10.842c0-1.58 0-2.638-.171-3.236-.468-1.866-1.832-2.844-3.493-2.844a4.472 4.472 0 0 0-3.918 2.381c-.812 1.572-.812 3.74-.812 5.313v9.228h-5.151V112.77zM76.758 172.303c-.385.978-1.107 2.723-2.6 4.504-2.13 2.476-5.494 4.641-10.393 4.641-7.964 0-14.056-5.833-14.056-15.87 0-10.21 6.604-15.696 14.27-15.696 9.37 0 11.585 7.189 12.269 9.274l-5.625 1.491c-.085-.553-.34-1.833-1.108-2.983-.64-.931-2.302-2.638-5.41-2.638-4.896 0-8.304 4.043-8.304 10.466 0 6.849 3.621 10.639 8.347 10.639 2.81 0 4.516-1.365 5.754-2.939a9.876 9.876 0 0 0 1.573-3.105l5.283 2.216zM90.171 163.369c-3.192 0-5.493 2.548-5.493 6.46 0 4.384 2.686 6.811 5.75 6.811 3.706 0 5.582-3.234 5.453-6.764-.087-3.531-2.13-6.507-5.71-6.507zm.256 17.951c-6.644 0-11.074-4.851-11.074-11.362 0-6.507 4.517-11.184 10.863-11.184 5.92 0 10.991 4.122 11.031 11.184 0 6.636-4.387 11.362-10.82 11.362zM105.159 159.41h5.157v2.507a5.974 5.974 0 0 1 1.661-1.66c1.276-.93 3.234-1.483 4.895-1.483 2.431 0 4.514 1.107 5.58 2.55 1.32 1.787 1.32 4.086 1.32 6.847v12.511h-5.068v-10.853c0-1.57 0-2.634-.171-3.232-.466-1.872-1.832-2.85-3.493-2.85-1.66 0-3.194.978-3.918 2.381-.806 1.578-.806 3.748-.806 5.321v9.233h-5.157V159.41zM130.919 174.384c1.278 1.574 3.192 2.723 6.132 2.723 2.941 0 4.221-1.447 4.221-2.512 0-1.36-1.538-1.701-2.219-1.825-.722-.171-4.214-.809-4.982-1.021-5.068-1.193-6.008-4.125-6.008-6.046 0-3.612 3.281-6.929 9.117-6.929 3.237 0 5.581 1.018 7.028 2.038a9.285 9.285 0 0 1 2.172 1.915l-3.619 3.365c-.599-1.154-2.046-3.235-5.794-3.235-2.429 0-3.537 1.065-3.537 2.168 0 1.532 1.58 1.956 4.307 2.423 4.425.811 5.663 1.025 7.025 2.085 1.318 1.023 2.172 2.723 2.172 4.515 0 3.313-2.982 7.272-9.584 7.272-3.791 0-7.537-1.192-10.222-3.784l3.791-3.152zM165.588 167.324c-.472-3.317-2.511-4.467-4.772-4.467-2.727 0-4.603 1.572-5.2 4.467h9.972zm5.79 8.589c-2.638 3.531-6.048 5.407-10.393 5.407-5.578 0-10.949-3.535-10.949-11.362 0-7.145 4.601-11.184 10.609-11.184 5.622 0 7.966 3.359 8.389 3.995 1.747 2.469 2.13 6.169 2.173 8.296h-15.762c.597 3.359 2.687 5.275 6.05 5.275 3.492 0 4.897-2.043 5.534-2.934l4.349 2.507zM179.979 159.409v3.017c.636-1.103 2.043-3.613 6.818-3.49v5.235c-1.111.044-3.03.088-4.599 1.276-2.175 1.658-2.219 3.832-2.219 7.362v7.872h-4.944v-21.272h4.944zM208.597 159.413l-6.984 21.271h-5.494l-6.9-21.271h5.277l4.432 14.638 4.347-14.638h5.322zM224.523 170.086c-1.02.507-2.173.898-4.472 1.276-1.83.258-4.26.683-4.26 2.932 0 1.661 1.404 2.512 3.45 2.512 2.602 0 4.431-1.191 4.986-2.463.296-.638.296-1.276.296-1.918v-2.339zm-13.16-4.419c.083-1.067.167-1.963.853-3.195 2.041-3.699 7.114-3.699 8.474-3.699 2.043 0 4.516.254 6.392 1.361 2.513 1.529 2.551 3.53 2.551 5.828v11.275c0 1.612 0 2.166.942 3.446h-6.052c-.043-.513-.129-1.367-.129-1.663-1.105.938-3.362 2.17-6.304 2.17-4.813 0-7.706-2.977-7.706-6.638 0-1.06.256-2.038.679-2.892 1.533-3.057 4.814-3.741 6.862-4.126 4.385-.889 4.721-.978 6.598-1.572 0-1.06-.083-3.234-3.622-3.234-2.126 0-3.276.678-3.79 1.36-.555.683-.508 1.281-.508 1.874l-5.24-.295zM234.187 159.41h5.148v2.507a6.121 6.121 0 0 1 1.663-1.66c1.28-.93 3.239-1.483 4.897-1.483 2.433 0 4.518 1.107 5.582 2.55 1.32 1.787 1.32 4.086 1.32 6.847v12.511h-5.068v-10.853c0-1.57 0-2.634-.171-3.232-.468-1.872-1.83-2.85-3.493-2.85-1.662 0-3.196.978-3.917 2.381-.813 1.578-.813 3.748-.813 5.321v9.233h-5.148V159.41zM271.62 166.94c-.383-1.403-1.872-3.617-4.811-3.617-2.938 0-5.286 2.343-5.286 6.594 0 3.83 2.006 6.639 5.371 6.639 3.234 0 4.472-2.473 5.109-4.172l4.389 2.299c-1.663 4.597-5.876 6.637-9.583 6.637-5.923 0-10.564-4.552-10.564-11.275 0-6.511 4.688-11.272 10.732-11.272 5.368 0 8.095 3.57 9.204 6.039l-4.561 2.128zM305.743 168.023c-2.723 0-5.227-2.132-5.227-5.22 0-3.03 2.399-5.252 5.227-5.252 3.05 0 5.273 2.395 5.259 5.264-.015 2.897-2.298 5.208-5.259 5.208zm.034-9.819a4.575 4.575 0 0 0-4.612 4.599c0 2.56 2.069 4.569 4.595 4.569 2.581 0 4.577-2.021 4.592-4.557.017-2.522-1.954-4.611-4.575-4.611z"/>
        <path d="M305.693 159.613c.645 0 1.079.013 1.468.152.673.241 1.011.856 1.011 1.456 0 .796-.493 1.287-1.29 1.496.505.224.755.46.895 1.314.144.95.199 1.303.478 1.859h-1.276c-.053-.097-.15-.323-.249-.866-.03-.142-.125-.812-.153-.966-.169-.893-.605-.965-1.417-.976h-.391v2.808h-1.119v-6.277h2.043zm-.914 2.573h.927c.45 0 1.345.013 1.345-.866 0-.241-.097-.591-.446-.741-.224-.1-.366-.1-1.109-.1h-.717v1.707zM296.744 159.413l-5.413 18.55-1.189 3.995c-1.451 4.468-3.023 6.042-6.987 6.042-1.663 0-2.467-.171-3.067-.255v-4.466c.471.082.85.126 1.364.126.381 0 1.491 0 2.297-.551.599-.387 1.193-1.32 1.193-1.745l-7.712-21.696h5.5l4.727 15.865 4.045-15.865h5.242z"/>
    </g>
</svg>
