<svg id="Layer_1" data-name="Layer 1" xmlns="http://www.w3.org/2000/svg" viewBox="0 0 4818.9 5662.89" fill="#403B3E"><title>United Nations Environment Programme Logo</title><path class="cls-1" d="M2341.47,927.88c-505,80.77-845.53,362.15-1026.23,839.62-13.48,35.61-10.1,47.15,31.85,42.12,307.26-36.82,614.74-71.78,922.12-107.66,48-5.61,96-12.07,143.65-20,13.48-2.23,32.09-4.47,36.2-20.22,4.85-18.62-15.58-21.07-26.23-29.51-18.89-15-39.58-28.29-56.17-45.52-71.79-74.55-69.2-188.86,4.59-260.42,72.49-70.29,189.38-70.55,262.62-.58,76,72.59,79.38,183.1,8,260.14-18.82,20.31-41,36.26-64.73,50.29-9.68,5.73-21.66,10.89-19.25,24.69,2.35,13.43,15.7,15.72,26.23,18,26.74,5.73,53.66,11.19,80.79,14.37q492.26,57.61,984.59,114.64c57.38,6.72,58.41,6.29,38.93-50C3514.77,1256.17,3039.73,918.92,2505.52,918,2450.7,918.94,2396,919.16,2341.47,927.88Z" transform="translate(-70.87 -88.24)"/><path class="cls-1" d="M3737,1940.9c-13.21-70.21-13.06-69.07-83.45-59.85-220.49,28.9-440.9,58.53-661.72,84.69-208.36,24.69-306,107.63-358.11,311.82-20.48,80.25-26.8,162-27.1,266,2.21,31.78,4.34,85,9.87,137.93,24.51,234.23,91.3,454,223,651.91,20,30,38.85,32.86,70.89,21.85C3496.81,3153.73,3851.23,2548.12,3737,1940.9Z" transform="translate(-70.87 -88.24)"/><path class="cls-1" d="M2106.33,3358.8c25.26,9.27,40,5.29,55.44-18.16,31-47.19,60.77-94.94,85.5-145.65,96.8-198.5,143.83-409,151.75-629.36,1.63-144-4.46-287.29-75.13-418-54.58-100.92-135.86-165.12-255.35-174-59.31-4.42-118.16-15-177.23-22.6-186.8-24.14-373.7-47.53-560.32-72.91-36-4.9-50.1,4.64-57,41.66-33.08,176.62-36.42,353.17,7.17,527.54C1393.61,2897.31,1671.72,3199.28,2106.33,3358.8Z" transform="translate(-70.87 -88.24)"/><path class="cls-1" d="M2977.81,4225.7c11.62,13.42,18.93,32.72,46.08,17.6,56.08-31.24,58-33.73,13.84-79.95-14.49-15.16-29.29-30.05-44.55-44.42-130.71-123-282.28-212.78-448.1-283.61,42.9-13.58,85.67-11.45,128.57-6.1,111.5,13.89,215.15,54.82,318.39,95.51,199,78.45,402.45,125.34,618.19,103.06,138.93-14.36,274.22-40,395.5-114.29,19.48-11.93,42.65-21.08,55.55-52.72-65.34,23.17-125.63,34.2-188.92,33.85-132.67-.72-258.47-34.73-382.62-74.85-333.23-107.7-667.54-115.5-1004.07-18.2-22.74,6.58-43.88,3.52-66.26-2.95-116.49-33.67-235.49-52.7-356.45-61.79-228.75-17.19-449.26,22.29-666.29,90.93-106,33.54-213.32,61-325.73,66-76.37,3.4-149.87-6.26-222.64-30.42,57.77,58.5,128.18,92.84,203.83,115.39,261.37,77.91,520.71,72.76,778.14-20.7,116.39-42.25,230.11-93.09,352-118.6,61.43-12.84,123.61-24,193.81-4.5-55.79,25.92-104.77,46.35-151.62,70.86-135.24,70.77-258.46,158-361.21,272.08-8.55,9.49-26.13,17.39-17,35.11,17.17,33.23,68.4,37.86,93.23,9.07,89.86-104.19,184.09-204.9,303.16-275.48,213.53-126.58,215.06-126.74,428.73,0C2791.91,4018.09,2886.7,4120.48,2977.81,4225.7Z" transform="translate(-70.87 -88.24)"/><path class="cls-1" d="M2609.13,4558.28q-169.37-.36-338.74,0c-10.61,0-24.4-3-26.78,13.11-2.92,19.86,12.68,19.61,25.21,20.3,95.11,5.24,129.6,50.87,133.49,165.8,3.5,103.14,1.54,206.47,1.72,309.71.18,109.14,0,218.29,0,340.65-14-17.65-19.15-23.84-24-30.23q-298.45-392.91-596.25-786.33c-18.6-24.68-37.16-34.95-68-33.9-67.67,2.3-135.48.13-203.21,1.2-14.13.22-36.92-9.82-40.37,13.12-4.11,27.31,21.54,16.76,34.65,19.56,61.45,13.12,124.5,73.78,124.46,124.23-.21,271,0,542-2.35,813-.93,110.31-24.11,135.35-131.56,161.19-12,2.87-28,1-26.24,20.35,1.52,16.18,15.09,14.18,25.94,14.19q169.36.28,338.74,0c10.58,0,24.15,2.8,26.27-13.52,2.6-20-13.18-17.61-25.34-20.36-94.53-21.37-111.12-38.34-124.19-132.7-4.41-31.8-6-64.21-6.05-96.35q-.77-319.41.08-638.84c0-11.52-6.58-25.44,8.26-36.72,10.21,12.85,20.28,25.13,29.93,37.73q339.73,443.55,679.6,887c11.06,14.42,19.17,39.89,43,31.12s11.44-33.85,11.5-51.07c1.14-308.13.45-616.26,2-924.38.6-115.29,23.54-142.43,131.9-173.17,10.18-2.89,24.09-.91,23.95-17.68C2636.67,4555.13,2621.25,4558.31,2609.13,4558.28Z" transform="translate(-70.87 -88.24)"/><path class="cls-1" d="M3796.08,5429.41c-12.58-2.23-26.91-4.34-34.77,9.23-8.86,15.28-15.56,31.8-23.45,47.66-45.43,91.27-116,149.62-218.8,163.21-107.58,14.21-215.62,8.85-323.43,2.61-34.16-2-49.42-21.87-49.05-58.18q2.1-205.6,0-411.25c-.24-27.59,8.73-35.91,35.84-35.12,80.57,2.37,161.23,1.87,241.83,3.47,110.88,2.2,137.76,24.74,160.2,132.65,3.27,15.7,2.36,33.67,26.1,32.75,26.5-1,19.27-21.31,19.33-35.71.49-109.67.78-219.35-.33-329-.15-14.75,12.33-38.78-16.38-42.44-30.66-3.92-25.76,21.54-29.27,39.21-18.86,94.74-51.18,123.38-147.13,125.32-85.44,1.72-170.93.3-256.38,1.75-24.34.41-34-6-33.79-32.26q1.85-183.84.38-367.71c-.24-37.55,16.9-51.55,53.05-51.05,95.11,1.32,190.3-.56,285.37,2,130,3.5,160.41,28.65,194,156,4.84,18.36,9.68,29.89,30.74,27.53,23-2.59,16.84-20.18,16.58-33.26-1.28-62.87-4.3-125.71-4.92-188.58-.22-22.8-7.95-30.54-30.91-30.49-277.36.57-554.73.29-832.09.6-11.47,0-28-5.55-29.66,14.71-1.63,20.09,14.88,16.54,26.56,19.18,102.21,23.1,117.39,40.68,118.28,147.31,1.11,132.24.27,264.5.27,396.75,0,135.47.84,271-.26,406.42-.87,106.15-17.3,125.31-118.09,147.55-11.68,2.57-28.15-1.14-26.77,19,1.41,20.41,18,14.93,29.44,14.94q425.73.47,851.44.59c19.29,0,29.1-6,33.81-25.06,20.05-81.26,41.34-162.22,61.53-243.44C3807.76,5446.54,3813.75,5432.54,3796.08,5429.41Z" transform="translate(-70.87 -88.24)"/><path class="cls-1" d="M1230.62,4557.88q-157.27-1.19-314.58,0c-13.83.1-36.6-9.25-37.3,16.85-.59,22.3,20.68,15.39,33.24,18,82.63,16.92,111.5,42.12,117.21,128.8,14.83,225.45,9.91,451.2,2.38,676.92-5.67,170-123.32,252.32-262.11,271.83-169.94,23.88-297.28-55.63-329-209.84a566.15,566.15,0,0,1-11.22-110.5q-1.61-307.37-.32-614.74c.41-103.22,17.37-121.66,117.89-141.86,13.28-2.67,38.3,4.85,34.09-21.75-3.74-23.67-26-13.53-40-13.62q-196-1.22-392,0c-14,.09-36.91-10-40.19,13.23-4.23,30,24.08,19.63,38.14,22.38,89.63,17.53,106.9,35.63,108.32,129,1.51,100,.34,200.06.33,300.1,4.39,128.94-5.59,258.09,7.68,386.92,17.93,174.06,119.94,292.35,286.13,328.36,57,12.35,115,15.62,173.24,11.5,222.94-15.76,342.22-118.5,378.93-328.42,6.07-34.72,6.34-70.64,7.13-106.06,4.29-191.92-5.09-384,5.71-575.84,5.58-99.09,26-121.67,121.87-144.36,12.27-2.9,33.55,1.77,32-20.5C1266.49,4548.4,1244.38,4558,1230.62,4557.88Z" transform="translate(-70.87 -88.24)"/><path class="cls-1" d="M1159.39,3730.75c108.64-9.21,215.58-38.54,326.11-24.05,15.13,2,32,2.17,47.58-17.44-91.36-52.1-147.95-133.51-182.21-228.94-73.18-203.85-210.24-363.68-350.44-521.9a69.17,69.17,0,0,0-5-7c-.4-.46-3.19.13-3.37.71-5.67,18.17-3.2,35.5,5.8,52.07v0c1.92,77.58,11.58,154.29,30.76,229.39,46,180,129.42,333,307.53,415.65,8.93,4.15,22.11,7.31,17.71,23.47-18.81,2.19-34.41-5.56-49.94-13.74-150-79-310.19-129-478-142.86-161.21-13.27-292-82.16-410.31-184.54-36.19-31.31-71.72-63.37-110.83-98,1.3,8.93.95,13.74,2.7,17.61C474.87,3601.09,805.24,3760.78,1159.39,3730.75Z" transform="translate(-70.87 -88.24)"/><path class="cls-1" d="M743.2,3199.07C611.52,3046.92,487,2888.25,318.78,2771.64c-87.07-60.35-139.83-149.95-180.39-246.48-5-12-10.37-23.79-19.37-44.35-4.46,70.22-2.42,129.71,9.09,188.47,49.36,252.09,180.56,447,412.35,562.94,110.38,55.22,232.23,86,343.29,141.68,11.58,5.8,26.13,11.75,35.55-.08,7.7-9.68-2.66-21.1-7-31.09-42.63-97.1-66.48-197.12-59.54-304.62,7.06-109.31,11.11-219.14-18.45-326.7-25.44-92.55-55.47-183.2-108.41-272-32.37,80.27-53.53,156.05-60.84,234.21-14.39,153.74-15.68,306,72.64,443.92,20.64,32.23,33.92,69.19,50.58,104q-6.09,6.34-12.17,12.71C765.09,3222.5,753.68,3211.19,743.2,3199.07Z" transform="translate(-70.87 -88.24)"/><path class="cls-1" d="M3802.63,3740.1c107.36,8.65,209.44-3.82,307.43-44.41,198.09-82.06,348.07-223.88,473.75-393.6,22.43-30.29,38.18-65.38,48.69-106.53-10.13,2.44-16,2-18.48,4.72-120.67,132.78-279,199.09-445.21,249.86-134.23,41-266.52,85.72-390,153.85-33.69,18.59-69.9,32.68-105.21,48.27-25,11-50.83,11.6-79.81,3q166.68-112.45,266.38-282.45c67.89-115.64,70.18-249.63,102.16-385.58-148.74,123.38-250.62,269.36-327.65,432.31-50.82,107.52-103.72,211.2-203.52,282.42-3.26,2.33-4.63,7.32-12.44,20.31C3553.71,3686.55,3677.18,3730,3802.63,3740.1Z" transform="translate(-70.87 -88.24)"/><path class="cls-1" d="M497.89,2751.82c6.36,10.78,12.41,27.57,38.34,21.68-26.89-124.77,22.54-236.09,65-349C629,2350.74,658,2277.35,675,2200c27.13-123.91,41.31-248.78,32.6-388.79-42.52,57.56-63.39,114.42-104.24,157.47-53.46,56.33-83.77,125.21-107,198-37.26,117-18.61,236.61-18,355.42.09,17.64,7.34,37.29-9.56,53.26-18.87-25.93-19.15-25.89-22.29-48-18.94-133.23-68.85-252.86-146.08-363.76C213,2038,150.05,1901.05,146.78,1743.48c-.3-14.54-1.48-29.09-15.18-45.22C93.45,1786.77,72.73,1874.05,71,1965c-3.45,180.82,62.94,336.27,176.65,473.8C332.76,2541.74,429.31,2635.53,497.89,2751.82Z" transform="translate(-70.87 -88.24)"/><path class="cls-1" d="M359.89,2008.14c3.23,16.46,3.31,34.92,25.2,44,5-13.76,9.94-25.52,13.62-37.66,31.8-104.75,81.05-195.62,166.6-270.35,109.87-96,197.35-212.56,254.14-349,16.41-39.43,35.36-78.92,34.32-131.79C752.18,1338.61,645,1395,559.94,1481.84c-86.43,88.2-126.54,200-150.41,332.05-17.58-32.28-11.11-48.38-8.8-63.72,23.89-159,27.15-318.17-1.83-476.61-18.53-101.28-10.37-198.08,27.35-293.91,14.34-36.42,32.17-73.35,30.19-115.14-5.28.44-9-.28-11.36,1.17a42.37,42.37,0,0,0-10.62,9.6c-200.74,250.85-285.08,525.9-161.07,837.32C311.85,1809.19,340.05,1907,359.89,2008.14Z" transform="translate(-70.87 -88.24)"/><path class="cls-1" d="M515.45,1351.61c6.93-6.69,14.06-13.48,19.48-21.35,57.55-83.48,135.75-138.38,228.21-179.36,180.83-80.15,328.48-207.64,469.07-343.77,2.21-2.14,8.06-5.57,2.6-10.19-83.71,23.76-166.09,52.1-250.67,70C862,892.73,771.59,962,696,1056.32c-11.42,14.24-19.48,33.21-42.23,35.57-6.2-18.36,8.21-27.09,16.33-37.62,85.52-110.88,148.49-233,185.28-368.37,16.07-59.15,36.87-116.62,63.65-171.68,24.86-51.13,51.62-101.34,78.17-153.19-5.12,0-8.55-1-10.77.18-8.49,4.59-16.65,9.8-24.82,14.94C714,532,599.7,769.42,554.1,1047.35c-15.72,95.78,4.23,197.47-48.34,287.26-2.71,4.63-.35,12.23-.35,18.75C509.7,1352.7,513.7,1353.31,515.45,1351.61Z" transform="translate(-70.87 -88.24)"/><path class="cls-1" d="M4531,2495.86c-10.16-34.9-6.9-67.88-2.29-100.92,10.62-76.11,3.48-149.6-20.39-223.69-44.59-138.44-133.36-256.82-172.82-407-19.87,49.51-21.3,91.32-24.49,132.56-14.72,190.29,42.72,365.86,112.67,538.34,32.66,80.52,54.66,161.29,34.11,248.83-3.35,14.24-6.19,31.24,11.61,42.76,27.06-30.67,42.85-66.17,61.78-99.52,22.29-39.28,43.68-79,76.34-111,82.7-81,145.09-177,197.25-279,76.46-149.52,101-308.5,75.05-487.56-48.82,140.7-119.61,256-191.23,370.19C4615.34,2236.57,4576.38,2366.68,4531,2495.86Z" transform="translate(-70.87 -88.24)"/><path class="cls-1" d="M957.34,752.61c91-71.9,203.25-73,308.91-94.81,146.8-30.35,292.54-63.37,429.31-126.89,17.29-8,39.2-12,51.81-36.89-186.94,5.65-373.79-33.38-543.45,68.24l-11-10.47c97-69.54,192.37-140.39,264-238.54C1509.06,241.92,1560.07,168.93,1634,117c1.23-.86-.23-5.56-.43-8.56-13.1-4.37-25.34-.28-37.91,2.73-178.15,42.73-318.45,140.5-428.31,286.63-81.46,108.36-128.77,237.58-214.54,342.93C951.91,741.87,954.82,746.18,957.34,752.61Z" transform="translate(-70.87 -88.24)"/><path class="cls-1" d="M4466.87,1457.53c-60.4-58-122.69-114-184.13-170.87-5.29-9.39-16.4-23.87-22.31-16.21-8.34,10.81,1.54,27.23,9.46,39.7v0c2.85,12.49,4.9,25.23,8.69,37.43,48.85,157.52,131.26,297.61,231.89,426.23,50.22,64.19,89.17,129,90.58,212.11,0,2.11,3.63,4.16,6.39,7.12,22.65-7.35,23.8-28.15,27.92-46.26,12.19-53.6,30.91-104.75,53.79-154.69C4792.79,1566,4813,1337.61,4706,1106.2c-6.45-12.51-15.21-31.09-17.46.65s.32,63.82.77,95.75h0v0c-1.57,16-1.36,32.47-5,48-31.38,135.58-49.06,272.59-48.31,412,.21,40.41-4.76,80.85-7.6,125.18-16.46-13.22-15.69-27-16.35-39C4605.61,1630.66,4549.7,1537.05,4466.87,1457.53Z" transform="translate(-70.87 -88.24)"/><path class="cls-1" d="M4320,929c-90.7-57.62-198.45-84.3-279.22-160.7l-10.9,11.77c8.57,16.56,16.53,33.46,25.8,49.6,85.48,148.77,207.41,263,348.13,357.09,59.06,39.51,106.43,87.77,148,143.79,8.06,10.85,11.51,26.93,28.26,30.06,65.06-246.59-70.94-697.44-241.41-788.73,15.51,47.17,31.61,91.25,34.51,137.39,7.51,119.8,41.41,230.42,103.21,333.57,20.61,34.41,29.53,74.67,28.92,116.37-14.42-17.71-24.31-37.21-35-56.24C4431.91,1034.84,4386.84,971.44,4320,929Z" transform="translate(-70.87 -88.24)"/><path class="cls-1" d="M1569.16,369.31c93.23-14.38,176.9,17.18,262.55,48.07,143.15,51.61,291.67,57.22,443,32.33-90.14-25.36-167.12-80.23-256.91-105.68-90.85-25.76-185.29-8.12-277.46-23.71C1932.66,273.2,2097,152.79,2308.22,125c-88.22-33.91-163.51-42.34-242-33.46-208.51,23.58-359.66,155.23-520.91,275.18C1554.32,367.79,1562,370.41,1569.16,369.31Z" transform="translate(-70.87 -88.24)"/><path class="cls-1" d="M2354.3,378.79c89.13,92.3,208.44,115.83,325.6,144.41,7.16,1.75,15.91,2.85,23.16-11.87C2652.68,467.1,2602,421.08,2549.59,377c-54.83-46.16-131.68-42.44-191.26-81.95,80.23-1.57,159.53,9,238.21-8.78,77-17.36,155.7-21.89,247.3-15.48-160-115.63-441.52-104.67-642.53,17.18C2264.7,300.66,2312.44,335.44,2354.3,378.79Z" transform="translate(-70.87 -88.24)"/><path class="cls-1" d="M4156.9,607.34c-65.27-46.76-127.74-100.86-206.85-120-76.71-18.57-155.79-27.34-247.61-42.72,99.68,78.82,192.81,141.86,302.31,173.63,97.06,28.16,189.29,62.31,266.62,149.63-4.78-70.88-39.85-119-47.71-175-10-71.37-40.39-135.31-78.16-195.76-38.11-61-169.69-141.28-228-140.48Q4042.48,427.31,4167.44,598Z" transform="translate(-70.87 -88.24)"/><path class="cls-1" d="M3173.23,636.2c-18.56-112.3-250.7-255.39-437.35-255.23C2876.32,493.14,3029.28,562.4,3173.23,636.2Z" transform="translate(-70.87 -88.24)"/><path class="cls-1" d="M3467.15,175.33C3601.59,254.17,3718,364,3883.48,374.76,3820.31,264.92,3617.2,168.12,3467.15,175.33Z" transform="translate(-70.87 -88.24)"/><path class="cls-1" d="M4861.75,2408h0a109.64,109.64,0,0,0-29.22,49.26c-21.25,75.53-69.3,132.49-121.16,189-149.18,162.52-309.87,314.91-435.3,498.57-42.69,62.51-73.1,81.48-126.92,98.57,190.35-256.18,179.78-528.81,115.81-808-14,5.8-17,21.06-23.35,33.23-57.46,110.62-93.82,228.43-126.1,348.65-49.06,182.75-4.31,374.48-63.55,568.62,120.9-95.69,261.6-130,383.87-201.36,16.66-9.73,32.09-21.55,48-32.51,248.88-171.4,337.47-428.6,380.07-710.4,9.51-10.69,10.89-24.39,7.23-36.32C4867.72,2394,4863.14,2400.29,4861.75,2408Z" transform="translate(-70.87 -88.24)"/><path class="cls-1" d="M4614,4581c-116.75-34.22-237-19.58-341.81-22.84-93.13,0-172.17-.54-251.19.51-13.68.18-36.12-10.69-39,14.31-2.93,25.69,21.74,19.09,34.89,22,84.65,18.75,100.34,32.69,102.32,119,6.47,282.21,5.68,564.5.47,846.72-1.79,96.39-13.7,106.74-108.79,128.1-12.54,2.82-32.5-1.2-29.19,22.14,2.77,19.58,19.43,13.27,30.78,13.3q203.22.67,406.46.05c11.67,0,28.88,5.67,31.19-13.27,2.9-23.83-17.31-17.72-30.22-19.69-103.91-15.88-125.32-38.85-127-144.48-1.56-98.38.5-196.82-1.17-295.19-.54-31.47,6.33-40.11,40.57-37.39,109.79,8.75,219.56,5.4,324.34-34.25,157.91-59.74,244.68-235,195.5-394.22C4815.83,4668.13,4723.88,4613.18,4614,4581Zm64.35,348.87c-11.91,118.49-93.56,198.61-214.29,212.38-46.8,5.34-93.21,3.09-140,1.26-25.26-1-32.72-10.28-32.24-35,1.42-72.56.51-145.16.51-217.75,0-67.75-.64-135.51.22-203.25.68-53.64,12-65.49,66.16-65.63,53.23-.14,106.28,4.28,157.44,21C4640.87,4683.66,4693.66,4777.13,4678.31,4929.82Z" transform="translate(-70.87 -88.24)"/></svg>
