<?xml version="1.0" encoding="UTF-8"?>
<svg viewBox="0 0 108 158" version="1.1" xmlns="http://www.w3.org/2000/svg" xmlns:xlink="http://www.w3.org/1999/xlink" fill="#403B3E">
    <g>
        <path d="M37.6067131,127.943978 C36.666938,127.943978 35.8743567,128.540301 35.574937,129.353012 L31.4321268,139.832699 L31.0672878,141.024087 L30.7376746,139.810053 L27.5358974,129.62098 C27.5358974,129.576947 27.5069619,129.544238 27.4981555,129.526625 L27.4981555,129.498947 C27.1937036,128.642204 26.3860254,128.038333 25.4512826,128.038333 L20.2806328,128.038333 C19.1181801,128.103752 18.1935018,129.046044 18.1935018,130.222335 C18.1935018,130.534335 18.3432116,130.948239 18.4425988,131.340755 L19.1181801,133.47066 L16.5831778,139.845279 L16.1818548,141.024087 L15.8534997,139.832699 L12.6718516,129.62098 C12.6341096,129.576947 12.6341096,129.544238 12.6240451,129.526625 L12.6240451,129.498947 C12.3296578,128.642204 11.5005925,128.038333 10.5771723,128.038333 L5.40903854,128.038333 C4.26294071,128.103752 3.32316566,129.046044 3.32316566,130.222335 C3.32316566,130.534335 3.45023029,130.948239 3.58232719,131.340755 L11.318173,154.406131 C11.548399,155.34968 12.4240127,156.042875 13.4191426,156.042875 C14.404208,156.042875 15.2244669,155.411326 15.4936929,154.519357 L20.9159559,140.840409 L21.3147627,139.622602 L21.6393437,140.827829 L26.2036059,154.406131 C26.4363481,155.34968 27.2830262,156.042875 28.312124,156.042875 C29.3072539,156.042875 30.1275127,155.38239 30.4093194,154.45897 L39.578102,131.085368 C39.7089408,130.793497 39.7995215,130.473948 39.7995215,130.145593 C39.7995215,128.930302 38.8131981,127.943978 37.6067131,127.943978"></path>
        <path d="M76.1727161,127.943978 C75.232941,127.943978 74.4302951,128.540301 74.120811,129.353012 L70.003162,139.832699 L69.6081294,141.024087 L69.3087098,139.810053 L66.0817714,129.62098 C66.0817714,129.576947 66.0817714,129.544238 66.0691907,129.526625 L66.0691907,129.498947 C65.7597065,128.642204 64.9469961,128.038333 64.0021888,128.038333 L58.8340551,128.038333 C57.6741185,128.103752 56.764537,129.046044 56.764537,130.222335 C56.764537,130.534335 56.8815371,130.948239 57.0098598,131.340755 L57.6879572,133.47066 L55.1441485,139.845279 L54.7302449,141.024087 L54.4207607,139.832699 L51.2340804,129.62098 C51.2001126,129.576947 51.2001126,129.544238 51.1799836,129.526625 L51.1799836,129.498947 C50.8956607,128.642204 50.0816922,128.038333 49.1469494,128.038333 L43.9687512,128.038333 C42.7949759,128.103752 41.8791041,129.046044 41.8791041,130.222335 C41.8791041,130.534335 42.0237816,130.948239 42.1282011,131.340755 L49.8942404,154.406131 C50.1232084,155.34968 50.9736608,156.042875 51.992694,156.042875 C52.9551142,156.042875 53.7778892,155.411326 54.0659862,154.519357 L59.4819589,140.840409 L59.8631528,139.622602 L60.2053466,140.827829 L64.7494798,154.406131 C64.9985768,155.34968 65.8490292,156.042875 66.8668043,156.042875 C67.856902,156.042875 68.7035802,155.38239 68.9702901,154.45897 L78.1428469,131.085368 C78.2812341,130.793497 78.3617503,130.473948 78.3617503,130.145593 C78.3617503,128.930302 77.3741688,127.943978 76.1727161,127.943978"></path>
        <path d="M101.220803,127.990526 L83.1411418,127.990526 C82.091915,127.990526 81.2565594,128.837205 81.2565594,129.882657 L81.2565594,153.904163 C81.2565594,153.916744 81.2565594,153.894099 81.2565594,153.904163 L81.2615917,153.904163 C81.3043659,154.988616 82.2013667,155.871778 83.2858193,155.871778 L88.4074046,155.871778 C89.5207928,155.839068 90.3850839,154.964712 90.4115032,153.842518 L90.4115032,142.625604 C90.4115032,142.625604 97.7460261,142.607991 97.7799938,142.607991 C98.8594142,142.596669 99.7274795,141.721055 99.7274795,140.616473 C99.7274795,139.542085 98.8455755,138.645085 97.7359615,138.645085 L90.4228258,138.645085 L90.4115032,132.230208 L101.325223,132.230208 C102.447417,132.179885 103.345676,131.255207 103.345676,130.109109 C103.345676,128.932818 102.384514,127.990526 101.220803,127.990526"></path>
        <path d="M73.1772617,51.4561017 C76.4683615,55.1409761 76.8206199,66.1050183 85.0886274,61.7420466 C90.061761,59.124012 89.9900512,48.0580664 83.3613033,44.0674821 C77.9943951,40.8958986 75.0593279,45.1733218 73.1156165,50.4194556 C72.9659067,50.8308431 72.9558421,51.2447467 73.1772617,51.4561017"></path>
        <path d="M60.3361855,49.7023582 C56.8802791,52.5694899 54.5050511,60.4248519 48.1480453,57.7552365 C43.0101051,55.1422341 42.5182015,44.9632248 51.3737257,40.2593173 C57.5420216,37.4223792 60.6733471,43.0434166 60.7161213,49.0066479 C60.7161213,49.2142287 60.5135727,49.5300032 60.3361855,49.7023582"></path>
        <path d="M68.8671287,69.7408281 C72.2802609,69.3873117 71.5115828,66.2232765 68.9224836,65.428179 C66.6139331,64.7400171 63.1064461,64.2908877 60.6280567,64.336178 C56.2374075,64.4380813 56.3468592,67.7908263 58.6315065,68.359472 C60.3588306,68.9356661 61.4709607,69.164634 62.9655427,71.0844422 C64.3267698,73.7288963 63.7216402,70.2918609 68.8671287,69.7408281"></path>
        <path d="M84.9766596,13.0800667 C89.2628893,5.94180212 96.7219606,7.32567435 100.459674,10.883484 C104.57229,14.7482618 105.235291,19.2131368 103.657677,22.3557848 C101.511417,26.5690468 96.0237342,31.689374 92.4495696,26.7338534 C90.8732133,24.5498514 87.5204683,21.9343328 85.6950151,21.1794935 C82.8857544,19.9956537 82.3523346,17.4606513 84.9766596,13.0800667"></path>
        <path d="M103.11963,44.6564122 C102.731477,43.38658 102.098508,43.4573368 102.126415,44.5060539 C102.476513,57.5758492 94.642419,71.5743278 77.8744634,71.6703549 C73.5844849,71.6791995 74.8732543,78.5198677 67.0531131,75.0818444 C61.4084046,71.2913005 58.1788702,78.7510909 54.1692244,70.7239824 C53.2990514,68.4117507 51.9747647,67.4855945 50.2635935,67.0623171 C33.7087416,62.9748472 28.4268165,40.2770705 43.0168025,21.9523178 C45.9063859,23.6669072 46.9617561,23.9322453 50.0403421,21.1183982 C51.6474985,19.6426131 54.3404684,18.0101522 55.8080926,17.4706315 C59.3166913,16.1350965 61.219402,14.6441492 58.1788702,7.9803731 C54.2897295,-0.672175063 46.316103,1.77146222 42.6717776,4.76093783 C38.5568485,8.14589352 35.6647282,13.5916416 40.9669488,20.0065053 C26.1384897,29.9718452 23.5951997,42.2127749 23.9351507,52.851568 C24.286518,64.1688686 21.3804444,63.2048069 25.0057426,74.7242698 C25.325398,75.7338179 24.6175896,75.7110747 24.0708774,75.3850879 C8.61198683,65.5246198 0.256549712,35.4618162 24.3486732,18.8845043 C24.8903115,18.3993147 24.6670601,17.7700844 22.685704,18.9249368 C1.83199421,29.9111965 -0.0834012749,51.1887828 3.37445839,65.5246198 C5.065334,72.4663691 2.49413755,73.7475729 5.19852375,82.868885 C11.4038977,101.878463 16.6959706,103.380781 24.1710868,103.93041 C37.7754687,103.93041 28.5498585,96.4554578 29.0471002,87.0662806 C29.0471002,86.5179153 29.7206598,86.2500502 30.1050074,87.3808958 C37.59154,104.111093 42.8798074,119.33139 62.5589104,117.907409 C73.9536108,116.430361 67.6340742,110.791295 66.937682,107.59713 C58.5581439,79.8996257 78.8905109,73.3723091 73.1341767,100.376144 C69.3338291,115.846617 81.3488132,114.296284 89.8069967,108.745665 C98.5290228,103.039633 109.435361,65.3805791 103.11963,44.6564122 M68.9952576,77.4449755 C67.1070211,81.6860521 57.3100469,80.231352 57,76.1240906 C57,75.9611383 57.2617609,75.9978295 57.3748518,76.0194126 C61.7383809,76.8870527 65.888435,77.2960522 68.7004589,77.2874189 C68.804655,77.2874189 69.0359195,77.2377778 68.9952576,77.4449755"></path>
    </g>
</svg>
