<?xml version="1.0" standalone="no"?>
<!DOCTYPE svg PUBLIC "-//W3C//DTD SVG 20010904//EN"
 "http://www.w3.org/TR/2001/REC-SVG-20010904/DTD/svg10.dtd">
<svg version="1.0" xmlns="http://www.w3.org/2000/svg"
 width="923.000000pt" height="923.000000pt" viewBox="0 0 923.000000 923.000000"
 preserveAspectRatio="xMidYMid meet">
<metadata>
Created by potrace 1.11, written by Peter Selinger 2001-2013
</metadata>
<g transform="translate(0.000000,923.000000) scale(0.100000,-0.100000)"
fill="#000000" stroke="none">
<path d="M6845 9180 c-38 -5 -115 -18 -170 -30 -141 -29 -148 -30 -157 -36 -4
-3 -33 -12 -64 -20 -30 -8 -65 -20 -77 -26 -12 -7 -31 -13 -42 -15 -45 -8
-229 -97 -340 -166 -200 -123 -396 -283 -467 -382 -16 -22 -31 -38 -32 -35 -5
11 -156 -181 -156 -198 0 -6 -3 -12 -8 -14 -16 -7 -89 -127 -147 -243 -112
-220 -185 -460 -216 -705 -13 -110 -13 -377 1 -505 40 -357 181 -717 401
-1019 94 -128 316 -353 439 -443 302 -223 629 -357 988 -407 146 -21 450 -21
592 -1 631 90 1183 453 1527 1005 80 129 204 403 188 418 -3 3 -247 5 -541 4
l-536 -1 -21 -28 c-123 -159 -338 -313 -530 -379 -231 -79 -514 -84 -737 -12
-305 99 -561 323 -700 612 -21 45 -42 94 -45 109 l-7 27 1600 0 c916 0 1603 4
1606 9 14 23 33 198 35 326 9 552 -209 1104 -594 1504 -327 340 -717 548
-1190 633 -125 22 -479 33 -600 18z m472 -986 c225 -42 437 -156 609 -329 45
-45 83 -86 85 -91 2 -5 25 -40 50 -79 25 -38 49 -78 52 -87 6 -17 -47 -18
-1024 -18 l-1029 0 19 38 c33 65 135 194 207 263 194 184 397 280 689 323 56
8 254 -3 342 -20z"/>
<path d="M2011 9168 c-155 -8 -291 -31 -450 -74 -139 -38 -190 -58 -371 -146
-610 -295 -1038 -867 -1163 -1553 -18 -101 -22 -158 -22 -355 0 -261 8 -332
61 -538 197 -763 782 -1345 1552 -1543 200 -51 310 -62 562 -56 234 5 318 16
500 63 143 37 231 70 385 144 355 172 658 440 870 770 69 108 188 358 229 480
45 137 82 317 97 466 14 144 6 411 -16 544 -83 497 -325 936 -697 1266 -88 77
-114 97 -263 198 -343 232 -827 359 -1274 334z"/>
<path d="M1956 4308 c-496 -37 -1012 -282 -1357 -645 -378 -397 -580 -876
-596 -1413 -8 -279 24 -501 114 -775 40 -119 150 -345 227 -465 195 -302 489
-568 811 -732 217 -110 390 -168 640 -213 123 -22 425 -30 545 -15 52 6 117
14 144 17 80 7 302 68 416 113 202 80 413 200 560 319 92 73 261 242 336 334
231 284 378 612 448 995 l6 32 -497 -2 -497 -3 -27 -72 c-106 -288 -303 -509
-573 -645 -408 -206 -889 -155 -1248 130 -486 386 -578 1100 -208 1602 62 84
197 215 279 269 215 145 447 210 711 198 154 -7 259 -30 386 -82 300 -124 544
-379 654 -682 l23 -63 493 0 494 0 0 23 c0 12 -9 62 -20 110 -180 813 -823
1451 -1642 1626 -180 38 -427 54 -622 39z"/>
<path d="M6894 4308 c-220 -14 -423 -61 -646 -150 -316 -126 -608 -340 -836
-613 -203 -242 -363 -558 -433 -854 -42 -176 -51 -248 -56 -459 -8 -301 20
-493 108 -750 68 -198 208 -464 293 -555 14 -15 26 -32 26 -38 0 -5 5 -9 10
-9 6 0 10 -4 10 -10 0 -10 11 -24 85 -109 186 -212 374 -359 628 -488 51 -27
107 -54 125 -62 271 -112 486 -158 782 -168 238 -7 411 12 621 71 133 37 159
45 244 80 703 291 1188 906 1310 1666 21 125 28 408 14 535 -81 737 -529 1380
-1184 1701 -345 168 -701 237 -1101 212z m421 -996 c454 -110 795 -467 881
-921 22 -113 21 -329 -1 -434 -98 -472 -446 -823 -915 -923 -116 -24 -333 -25
-455 0 -346 68 -661 312 -815 630 -191 393 -152 855 101 1196 188 253 434 407
741 466 103 19 357 12 463 -14z"/>
</g>
</svg>
