<svg version="1.0" xmlns="http://www.w3.org/2000/svg"
 width="662.000000pt" height="662.000000pt" viewBox="0 0 662.000000 662.000000"
 preserveAspectRatio="xMidYMid meet">
<g transform="translate(0.000000,662.000000) scale(0.100000,-0.100000)"
fill="#000000" stroke="none">
<path d="M4588 6355 c-2 -2 -28 -6 -58 -10 -141 -18 -323 -78 -469 -156 -132
-71 -230 -145 -346 -263 -213 -218 -342 -476 -391 -786 -13 -85 -13 -362 1
-425 3 -16 12 -59 20 -95 23 -108 47 -175 111 -309 75 -157 150 -260 288 -396
200 -198 469 -335 759 -385 128 -23 385 -20 492 4 11 2 43 9 70 15 68 16 177
51 193 64 6 5 12 7 12 3 0 -11 208 101 287 156 106 72 275 243 351 355 34 50
65 100 69 110 4 10 9 20 13 23 12 9 91 200 87 208 -3 4 -166 7 -362 6 -354 -1
-356 -1 -371 -23 -16 -23 -97 -104 -132 -132 -11 -9 -42 -29 -68 -45 -27 -16
-50 -32 -52 -36 -2 -4 -10 -8 -18 -8 -8 0 -28 -7 -44 -15 -67 -35 -196 -58
-310 -57 -79 1 -98 4 -195 28 -225 58 -427 240 -515 464 l-18 46 1070 -1 c588
0 1072 3 1075 7 6 12 10 35 18 123 8 96 8 89 6 95 -1 3 -4 46 -6 95 -2 50 -7
105 -10 123 -3 17 -7 44 -9 60 -13 92 -70 260 -124 367 -39 79 -120 208 -133
213 -5 2 -9 9 -9 16 0 13 -189 210 -244 255 -85 69 -315 201 -351 201 -8 0
-15 5 -15 12 0 6 -3 9 -6 5 -3 -3 -26 3 -50 13 -24 11 -44 17 -44 14 0 -2 -8
0 -18 5 -15 8 -106 29 -202 48 -29 5 -347 13 -352 8z m237 -649 c203 -21 402
-133 520 -291 16 -22 33 -42 36 -45 7 -6 39 -67 39 -75 0 -3 -308 -5 -685 -5
-474 0 -685 3 -685 11 0 17 75 122 122 170 93 95 233 183 328 204 8 2 31 9 50
15 19 6 71 13 115 17 44 3 82 7 83 9 2 1 9 1 15 -1 7 -2 35 -6 62 -9z"/>
<path d="M1327 6344 c-1 -1 -29 -5 -62 -8 -33 -4 -71 -9 -85 -11 -14 -3 -34
-7 -45 -9 -198 -38 -430 -148 -598 -284 -101 -80 -237 -220 -237 -241 0 -5 -3
-11 -7 -13 -45 -19 -218 -357 -237 -461 -2 -15 -7 -30 -10 -35 -6 -9 -11 -36
-31 -157 -15 -91 -17 -294 -3 -381 4 -33 10 -70 12 -84 19 -126 96 -331 177
-469 24 -42 119 -171 158 -215 141 -157 344 -300 536 -377 46 -18 136 -49 157
-54 26 -5 110 -23 148 -30 81 -16 253 -22 360 -11 430 41 822 278 1056 637 90
138 168 316 190 428 1 7 7 34 13 60 6 25 14 60 17 76 10 50 14 347 4 390 -4
22 -11 58 -14 80 -26 187 -129 423 -262 601 -72 95 -250 274 -274 274 -4 0
-10 4 -12 8 -12 31 -238 155 -363 199 -16 6 -39 14 -50 19 -33 12 -43 14 -155
39 -41 9 -97 19 -125 21 -54 5 -254 11 -258 8z"/>
<path d="M1308 3104 c-2 -1 -28 -5 -58 -9 -251 -31 -523 -145 -718 -302 -90
-71 -233 -229 -282 -309 -13 -21 -30 -45 -37 -52 -7 -7 -13 -19 -13 -27 0 -7
-4 -15 -8 -17 -12 -5 -62 -105 -89 -178 -13 -36 -27 -72 -30 -80 -3 -8 -7 -19
-8 -25 -2 -5 -10 -37 -18 -70 -16 -60 -25 -104 -33 -160 -3 -16 -6 -94 -8
-172 -2 -128 2 -178 30 -338 22 -119 131 -366 218 -490 115 -164 280 -318 445
-414 168 -98 289 -141 532 -188 120 -24 394 -8 549 32 14 3 32 8 40 10 8 2 16
4 18 5 1 2 6 3 11 4 5 0 13 4 17 9 4 4 15 7 24 7 36 0 314 139 340 169 3 3 28
22 55 40 112 77 271 254 361 401 35 57 113 217 119 245 1 5 5 17 8 25 18 45
46 158 53 215 l5 40 -323 -2 c-178 -1 -326 -2 -329 -2 -4 -1 -10 -13 -13 -27
-14 -56 -85 -189 -131 -243 -39 -48 -139 -141 -157 -147 -10 -3 -18 -10 -18
-15 0 -5 -4 -9 -10 -9 -5 0 -31 -13 -57 -28 -47 -28 -123 -59 -159 -66 -11 -3
-41 -9 -67 -15 -105 -24 -272 -12 -387 28 -164 57 -301 158 -388 286 -15 22
-30 42 -34 43 -5 2 -8 12 -8 23 0 10 -3 19 -8 19 -8 0 -22 29 -51 110 -120
334 15 719 319 912 59 38 139 76 174 82 12 2 35 9 51 16 49 19 201 27 290 16
285 -35 529 -232 635 -513 l12 -33 82 0 c372 -3 568 -1 572 3 9 8 -15 112 -47
211 -93 283 -263 519 -506 702 -86 65 -98 72 -228 137 -79 39 -135 61 -250 97
-27 8 -188 37 -225 40 -41 2 -260 7 -262 4z"/>
<path d="M4568 3105 c-3 -3 -57 -12 -123 -21 -39 -5 -87 -16 -115 -26 -8 -3
-46 -16 -85 -28 -147 -48 -314 -141 -445 -248 -70 -58 -193 -185 -228 -237
-15 -22 -30 -42 -33 -45 -28 -24 -163 -287 -174 -340 -2 -8 -10 -34 -19 -58
-37 -104 -60 -258 -60 -412 0 -162 11 -250 49 -380 8 -30 17 -59 18 -65 34
-118 160 -363 211 -410 6 -5 23 -27 38 -47 49 -65 137 -150 247 -240 21 -18
80 -57 136 -90 56 -34 190 -94 265 -120 158 -54 253 -70 435 -74 299 -5 557
69 810 234 39 25 72 48 75 52 3 3 27 23 55 45 27 22 72 64 100 94 27 29 57 61
66 70 9 9 42 51 74 94 123 168 226 421 250 612 4 28 8 61 11 75 6 32 6 269 0
295 -2 11 -7 42 -10 69 -6 42 -15 82 -41 186 -2 8 -4 15 -5 15 -1 0 -3 7 -5
15 -30 118 -181 394 -261 477 -11 10 -37 39 -59 64 -55 62 -177 165 -250 210
-33 21 -65 42 -71 46 -25 19 -55 33 -69 33 -8 0 -15 3 -15 8 0 6 -84 46 -100
47 -3 0 -9 3 -15 6 -16 10 -136 48 -190 60 -27 6 -59 13 -70 16 -51 12 -387
28 -397 18z m252 -649 c76 -12 152 -36 230 -73 41 -19 77 -37 80 -41 3 -4 24
-20 48 -36 49 -34 132 -122 171 -181 14 -22 28 -42 31 -45 23 -21 86 -198 97
-270 8 -55 7 -222 -2 -270 -50 -270 -265 -512 -529 -596 -44 -13 -85 -23 -92
-20 -7 3 -15 2 -18 -2 -10 -10 -36 -13 -121 -13 -86 0 -118 4 -207 26 -67 17
-218 84 -218 96 0 5 -5 9 -10 9 -27 0 -163 133 -214 209 -102 154 -137 276
-132 466 2 61 4 110 6 110 1 0 3 10 6 22 8 45 56 179 70 194 8 8 14 19 14 23
0 16 75 116 127 169 120 121 278 200 448 222 28 4 51 8 52 9 5 4 122 -2 163
-8z"/>
<path d="M6138 592 c-30 -3 -38 -7 -38 -23 0 -14 7 -19 29 -19 l29 0 -2 -130
c-1 -129 -1 -130 22 -130 22 0 27 12 23 55 -1 11 -1 29 -1 40 1 11 1 26 1 33
-1 13 -1 24 -1 90 0 40 1 42 30 42 23 0 30 5 30 19 0 15 -9 20 -42 22 -24 2
-60 3 -80 1z"/>
<path d="M6301 581 c-10 -20 -8 -272 2 -288 4 -7 14 -10 22 -7 11 5 15 33 17
127 l3 121 48 -121 c27 -67 55 -124 62 -127 9 -3 28 32 59 108 25 62 46 119
46 127 0 11 2 11 8 2 5 -7 8 -61 7 -120 -1 -106 4 -126 32 -116 10 4 13 39 13
152 0 81 -2 150 -5 153 -3 2 -19 3 -36 0 -28 -4 -45 -25 -54 -67 -8 -35 -70
-165 -73 -154 -2 8 -10 28 -17 44 -15 37 -52 135 -59 156 -6 23 -65 30 -75 10z"/>
</g>
</svg>
