<?xml version="1.0" standalone="no"?>
<!DOCTYPE svg PUBLIC "-//W3C//DTD SVG 20010904//EN"
 "http://www.w3.org/TR/2001/REC-SVG-20010904/DTD/svg10.dtd">
<svg version="1.0" xmlns="http://www.w3.org/2000/svg"
 width="1282.000000pt" height="1282.000000pt" viewBox="0 0 1282.000000 1282.000000"
 preserveAspectRatio="xMidYMid meet">
<metadata>
Created by potrace 1.11, written by Peter Selinger 2001-2013
</metadata>
<g transform="translate(0.000000,1282.000000) scale(0.100000,-0.100000)"
fill="#000000" stroke="none">
<path d="M9493 12745 c-338 -43 -643 -135 -958 -290 -544 -268 -998 -703
-1294 -1241 -312 -567 -429 -1267 -320 -1911 181 -1076 945 -1974 1974 -2321
323 -109 612 -156 955 -156 271 0 475 25 730 89 831 211 1531 774 1925 1550
81 160 147 333 134 356 -9 18 -34 19 -744 19 -604 0 -736 -2 -747 -14 -7 -7
-42 -48 -78 -90 -219 -261 -559 -457 -914 -528 -161 -33 -452 -32 -614 0 -157
32 -276 73 -422 148 -280 143 -493 341 -655 608 -58 96 -135 267 -135 301 l0
25 2208 0 c1870 1 2210 3 2225 15 34 25 50 187 51 490 0 231 -3 291 -22 415
-103 663 -384 1223 -847 1685 -453 453 -1016 737 -1665 841 -146 23 -631 29
-787 9z m632 -1360 c343 -59 644 -220 891 -478 126 -130 265 -331 249 -357 -4
-6 -515 -10 -1415 -10 -900 0 -1411 4 -1415 10 -19 30 129 234 275 381 270
271 589 426 966 469 106 12 338 4 449 -15z"/>
<path d="M2682 12725 c-553 -55 -1086 -265 -1519 -599 -655 -504 -1065 -1237
-1154 -2065 -16 -145 -6 -585 15 -721 56 -351 179 -717 336 -1000 139 -252
296 -459 509 -671 215 -214 404 -358 646 -494 735 -411 1611 -492 2403 -220
337 115 617 267 893 486 123 97 377 349 473 469 354 444 571 973 637 1555 16
142 16 458 0 605 -89 812 -496 1544 -1136 2043 -592 461 -1361 685 -2103 612z"/>
<path d="M2730 5989 c-482 -42 -931 -191 -1340 -444 -328 -203 -688 -555 -902
-880 -258 -393 -417 -828 -473 -1295 -20 -164 -20 -526 0 -687 114 -917 609
-1694 1395 -2187 347 -218 782 -369 1210 -421 164 -20 526 -20 690 0 433 52
856 200 1218 426 375 233 728 586 961 961 182 292 311 616 386 968 24 115 25
124 9 141 -16 18 -46 19 -678 19 -504 -1 -665 -4 -676 -13 -9 -7 -26 -43 -39
-82 -34 -101 -142 -309 -214 -412 -79 -113 -257 -290 -370 -370 -171 -120
-412 -227 -607 -267 -41 -9 -134 -21 -206 -28 -290 -25 -584 32 -845 163 -321
160 -558 395 -718 709 -131 256 -175 439 -175 735 0 254 35 433 128 646 87
197 188 343 350 504 224 224 492 366 818 437 88 19 133 22 313 22 180 0 225
-3 313 -22 146 -32 251 -67 372 -123 387 -182 693 -520 840 -927 17 -46 30
-66 47 -73 35 -13 1309 -12 1334 1 25 14 24 39 -7 179 -193 860 -745 1580
-1529 1992 -482 254 -1073 374 -1605 328z"/>
<path d="M9560 5989 c-482 -42 -931 -191 -1340 -444 -328 -203 -688 -555 -902
-880 -124 -190 -200 -335 -281 -540 -206 -520 -262 -1067 -166 -1615 102 -581
371 -1111 784 -1539 486 -504 1103 -813 1795 -896 164 -20 526 -20 690 0 433
52 856 200 1218 426 375 233 727 585 962 961 397 636 537 1429 384 2162 -185
882 -741 1618 -1539 2037 -482 254 -1073 374 -1605 328z m553 -1379 c456 -97
838 -369 1073 -763 151 -254 218 -506 218 -822 0 -295 -44 -479 -175 -736 -81
-160 -164 -274 -289 -399 -126 -127 -253 -219 -411 -300 -201 -102 -373 -151
-605 -172 -298 -25 -590 33 -863 172 -160 81 -286 173 -411 299 -125 127 -208
241 -289 400 -116 228 -165 410 -178 666 -22 452 146 885 471 1211 258 257
573 413 936 464 111 15 411 4 523 -20z"/>
</g>
</svg>
