<?xml version="1.0" encoding="utf-8"?>
<!-- Generator: Adobe Illustrator 21.0.2, SVG Export Plug-In . SVG Version: 6.00 Build 0)  -->
<svg version="1.1" xmlns="http://www.w3.org/2000/svg" xmlns:xlink="http://www.w3.org/1999/xlink" x="0px" y="0px"
	 viewBox="0 0 300 300" style="enable-background:new 0 0 300 300;" xml:space="preserve">
<style type="text/css">
	.st0{fill:none;}
	.st1{fill:#9F1744;}
	.st2{fill:#454A73;}
	.st3{fill:#FFFFFF;}
	.st4{fill:#FE7635;}
	.st5{fill:#FFFEFD;}
	.st6{display:none;fill:none;stroke:#454A73;stroke-width:12;stroke-linecap:round;stroke-linejoin:round;stroke-miterlimit:10;}
	.st7{fill:none;stroke:#454A73;stroke-width:10;stroke-linecap:round;stroke-linejoin:round;stroke-miterlimit:10;}
</style>
<g id="test_x5F_back">
</g>
<g id="Layer_1">
</g>
<g id="Layer_2">
</g>
<g id="global">
</g>
<g id="_x21_">
</g>
<g id="Layer_6">
</g>
<g id="Layer_7">
</g>
<g id="Layer_8">
</g>
<g id="Layer_9">
</g>
<g id="Layer_10">
</g>
<g id="Layer_11">
</g>
<g id="Layer_12">
</g>
<g id="Layer_13">
</g>
<g id="DOWNLOAD">
</g>
<g id="Layer_15">
</g>
<g id="Layer_16">
</g>
<g id="Layer_17">
</g>
<g id="Layer_18">
</g>
<g id="Layer_19">
</g>
<g id="Layer_20">
	<circle class="st4" cx="150" cy="169" r="94"/>
	<g>
		<g>
			<path class="st5" d="M173.8,193c0,3.3-2.7,6-6,6h-36.9c-3.3,0-6-2.7-6-6c0-3.3,2.7-6,6-6H144v-40.5l-9.9,6.3
				c-2.8,1.8-6.5,1-8.3-1.8c-1.8-2.8-0.9-6.5,1.9-8.3l19.1-12.2c1.9-1.2,4.2-1.2,6.1-0.2c1.9,1.1,3.1,3.1,3.1,5.3V187h11.8
				C171.1,187,173.8,189.7,173.8,193z"/>
		</g>
	</g>
</g>
<g id="Layer_21">
</g>
<g id="Layer_22">
</g>
<g id="Layer_23">
</g>
<g id="Layer_24">
</g>
<g id="Layer_25">
</g>
</svg>
