<?xml version="1.0" encoding="utf-8"?>
<!-- Generator: Adobe Illustrator 21.0.2, SVG Export Plug-In . SVG Version: 6.00 Build 0)  -->
<svg version="1.1" xmlns="http://www.w3.org/2000/svg" xmlns:xlink="http://www.w3.org/1999/xlink" x="0px" y="0px"
	 viewBox="0 0 300 300" style="enable-background:new 0 0 300 300;" xml:space="preserve">
<style type="text/css">
	.st0{fill:none;}
	.st1{fill:#9F1744;}
	.st2{fill:#454A73;}
	.st3{fill:#FFFFFF;}
	.st4{fill:#FE7635;}
	.st5{fill:#FFFEFD;}
	.st6{display:none;fill:none;stroke:#454A73;stroke-width:12;stroke-linecap:round;stroke-linejoin:round;stroke-miterlimit:10;}
	.st7{fill:none;stroke:#454A73;stroke-width:10;stroke-linecap:round;stroke-linejoin:round;stroke-miterlimit:10;}
</style>
<g id="test_x5F_back">
</g>
<g id="Layer_1">
</g>
<g id="Layer_2">
</g>
<g id="global">
</g>
<g id="_x21_">
</g>
<g id="Layer_6">
</g>
<g id="Layer_7">
</g>
<g id="Layer_8">
</g>
<g id="Layer_9">
</g>
<g id="Layer_10">
</g>
<g id="Layer_11">
</g>
<g id="Layer_12">
</g>
<g id="Layer_13">
</g>
<g id="DOWNLOAD">
</g>
<g id="Layer_15">
</g>
<g id="Layer_16">
</g>
<g id="Layer_17">
</g>
<g id="Layer_18">
</g>
<g id="Layer_19">
</g>
<g id="Layer_20">
	<circle class="st4" cx="150" cy="167" r="94"/>
	<g>
		<g>
			<path class="st5" d="M174,188.5c0,3.3-2.7,6-6,6h-35.1c-0.5,0-0.9-0.1-1.4-0.2c-1-0.1-2-0.4-2.8-1c-2.8-1.8-3.5-5.5-1.7-8.3
				c4.1-6.2,10-10.5,15.7-14.7c2-1.5,3.9-2.8,5.7-4.3c3.3-2.6,10.7-9.5,9.4-16.1c-0.8-3.7-4.7-6.9-9-7.5c-4.4-0.5-9.3,1.8-11.1,5.3
				c-1.5,3-5.1,4.1-8.1,2.6c-2.9-1.5-4.1-5.1-2.6-8.1c4.1-7.9,13.8-12.8,23.2-11.8c9.5,1.1,17.6,8.2,19.4,17
				c1.9,9.3-2.9,19.2-13.6,27.8c-2,1.6-4.1,3.1-6.1,4.6c-1.1,0.8-2.2,1.6-3.3,2.4H168C171.3,182.5,174,185.1,174,188.5z"/>
		</g>
	</g>
</g>
<g id="Layer_21">
</g>
<g id="Layer_22">
</g>
<g id="Layer_23">
</g>
<g id="Layer_24">
</g>
<g id="Layer_25">
</g>
</svg>
