<?xml version="1.0" encoding="utf-8"?>
<!-- Generator: Adobe Illustrator 21.0.2, SVG Export Plug-In . SVG Version: 6.00 Build 0)  -->
<svg version="1.1" xmlns="http://www.w3.org/2000/svg" xmlns:xlink="http://www.w3.org/1999/xlink" x="0px" y="0px" width="300px"
	 height="300px" viewBox="0 0 300 300" style="enable-background:new 0 0 300 300;" xml:space="preserve">
<style type="text/css">
	.st0{fill:none;}
	.st1{fill:#9F1744;}
	.st2{fill:#454A73;}
	.st3{fill:#FFFFFF;}
	.st4{fill:#FE7635;}
	.st5{display:none;fill:none;stroke:#454A73;stroke-width:12;stroke-linecap:round;stroke-linejoin:round;stroke-miterlimit:10;}
	.st6{fill:none;stroke:#454A73;stroke-width:10;stroke-linecap:round;stroke-linejoin:round;stroke-miterlimit:10;}
</style>
<g id="test_x5F_back">
</g>
<g id="Layer_1">
</g>
<g id="Layer_2">
</g>
<g id="global">
</g>
<g id="_x21_">
</g>
<g id="Layer_6">
</g>
<g id="Layer_7">
</g>
<g id="Layer_8">
</g>
<g id="Layer_9">
</g>
<g id="Layer_10">
</g>
<g id="Layer_11">
</g>
<g id="Layer_12">
</g>
<g id="Layer_13">
</g>
<g id="DOWNLOAD">
</g>
<g id="Layer_15">
</g>
<g id="Layer_16">
</g>
<g id="Layer_17">
</g>
<g id="Layer_18">
</g>
<g id="Layer_19">
</g>
<g id="Layer_20">
</g>
<g id="Layer_21">
</g>
<g id="Layer_22">
</g>
<g id="Layer_23">
	<g>
		<path class="st2" d="M147.6,237.9c-44.9,0-81.5-36.5-81.5-81.5c0-44.9,36.5-81.5,81.5-81.5s81.5,36.5,81.5,81.5
			C229,201.4,192.5,237.9,147.6,237.9z M147.6,87c-38.3,0-69.5,31.2-69.5,69.5s31.2,69.5,69.5,69.5s69.5-31.2,69.5-69.5
			S185.9,87,147.6,87z"/>
	</g>
	<g>
		<path class="st2" d="M147.5,259C91,259,45,213,45,156.5S91,54,147.5,54S250,100,250,156.5S204,259,147.5,259z M147.5,66
			C97.6,66,57,106.6,57,156.5c0,49.9,40.6,90.5,90.5,90.5s90.5-40.6,90.5-90.5C238,106.6,197.4,66,147.5,66z"/>
	</g>
	<g>
		<g>
			<path class="st2" d="M145.3,164.7c-3.3,0-6-2.7-6-6V105c0-3.3,2.7-6,6-6s6,2.7,6,6v53.7C151.3,162,148.6,164.7,145.3,164.7z"/>
		</g>
		<g>
			<path class="st2" d="M194,164.7h-48.7c-3.3,0-6-2.7-6-6s2.7-6,6-6H194c3.3,0,6,2.7,6,6S197.3,164.7,194,164.7z"/>
		</g>
	</g>
	<g>
		<path class="st2" d="M167.5,66h-40c-7.4,0-13.5-6.1-13.5-13.5v-4c0-7.4,6.1-13.5,13.5-13.5h40c7.4,0,13.5,6.1,13.5,13.5v4
			C181,59.9,174.9,66,167.5,66z M127.5,47c-0.8,0-1.5,0.7-1.5,1.5v4c0,0.8,0.7,1.5,1.5,1.5h40c0.8,0,1.5-0.7,1.5-1.5v-4
			c0-0.8-0.7-1.5-1.5-1.5H127.5z"/>
	</g>
	<g>
		<path class="st2" d="M256.4,106.8c-1.4,0-2.8-0.5-3.9-1.4l-60.9-52.1c-1.2-1-2-2.5-2.1-4.1c-0.1-1.6,0.4-3.2,1.4-4.4
			c16-18.7,44.8-20.6,64.1-4c19.3,16.5,21.9,45.2,5.9,63.9C259.7,106.1,258.1,106.8,256.4,106.8z M204.4,48.5L255.3,92
			c7.6-13.5,4.6-31.3-8.1-42.1C234.6,39.1,216.5,38.9,204.4,48.5z"/>
	</g>
	<g>
		<path class="st2" d="M215.8,91.3c-1.4,0-2.8-0.5-3.9-1.4c-2.5-2.2-2.8-5.9-0.7-8.5l9.4-11c2.2-2.5,5.9-2.8,8.5-0.7
			c2.5,2.2,2.8,5.9,0.7,8.5l-9.4,11C219.2,90.6,217.5,91.3,215.8,91.3z"/>
	</g>
	<g>
		<path class="st2" d="M222,270c-2.2,0-4.4-1.3-5.4-3.4l-13-27c-1.4-3-0.2-6.6,2.8-8c3-1.4,6.6-0.2,8,2.8l13,27c1.4,3,0.2,6.6-2.8,8
			C223.8,269.8,222.9,270,222,270z"/>
	</g>
	<g>
		<path class="st2" d="M78,270c-0.9,0-1.8-0.2-2.6-0.6c-3-1.4-4.2-5-2.8-8l13-27c1.4-3,5-4.2,8-2.8c3,1.4,4.2,5,2.8,8l-13,27
			C82.4,268.7,80.2,270,78,270z"/>
	</g>
	<g>
		<path class="st2" d="M36.6,108.8c-1.7,0-3.4-0.7-4.6-2.1C24.2,97.6,20.6,86,21.7,73.8c1.1-12,6.9-23.1,16.2-31
			c9.3-8,21.1-12,33.2-11.2c12.1,0.7,23.1,6.2,30.9,15.3c2.2,2.5,1.9,6.3-0.7,8.5l-60.9,52.1C39.4,108.4,38,108.8,36.6,108.8z
			 M68.3,43.5c-8.2,0-16.1,3-22.5,8.4c-6.9,5.9-11.2,14.1-12.1,23c-0.6,6.8,0.8,13.4,4,19l50.9-43.5c-5.1-4.1-11.4-6.5-18.2-6.9
			C69.7,43.5,69,43.5,68.3,43.5z"/>
	</g>
	<g>
		<path class="st2" d="M77.2,93.3c-1.7,0-3.4-0.7-4.6-2.1l-9.4-11c-2.2-2.5-1.9-6.3,0.7-8.5c2.5-2.2,6.3-1.9,8.5,0.7l9.4,11
			c2.2,2.5,1.9,6.3-0.7,8.5C79.9,92.8,78.5,93.3,77.2,93.3z"/>
	</g>
</g>
<g id="Layer_24">
</g>
<g id="Layer_25">
</g>
</svg>
