<?xml version="1.0" encoding="utf-8"?>
<svg version="1.1" xmlns="http://www.w3.org/2000/svg" xmlns:xlink="http://www.w3.org/1999/xlink" x="0px" y="0px" viewBox="0 0 300 300" fill="#403B3E">
<g id="Layer_24">
	<g>
		<path d="M262,238.9H29c-3.3,0-6-2.7-6-6V72c0-3.3,2.7-6,6-6h233c3.3,0,6,2.7,6,6v160.9
			C268,236.2,265.3,238.9,262,238.9z M35,226.9h221V78H35V226.9z"/>
	</g>
	<g>
		<path d="M262,101.7H29c-3.3,0-6-2.7-6-6s2.7-6,6-6h233c3.3,0,6,2.7,6,6S265.3,101.7,262,101.7z"/>
	</g>
	<g>
		<circle cx="45.7" cy="84.3" r="3.5"/>
	</g>
	<g>
		<circle cx="57.1" cy="84.3" r="3.5"/>
	</g>
	<g>
		<circle cx="68.6" cy="84.3" r="3.5"/>
	</g>
	<g>
		<g>
			<path d="M121.9,145l-7.2,23.3H109c-0.3,0-0.6-0.1-0.8-0.3c-0.2-0.2-0.4-0.5-0.5-0.9l-3.3-11.6
				c-0.2-0.5-0.3-1-0.4-1.6c-0.1-0.5-0.2-1-0.3-1.6c-0.1,0.5-0.2,1-0.3,1.6c-0.1,0.5-0.3,1.1-0.4,1.6l-3.4,11.6
				c-0.2,0.8-0.7,1.2-1.5,1.2h-5.4L85.3,145h5.6c0.5,0,0.9,0.1,1.2,0.3c0.3,0.2,0.6,0.5,0.7,0.9l2.3,10.5c0.2,0.8,0.4,1.6,0.5,2.3
				c0.1,0.7,0.3,1.5,0.4,2.2c0.2-0.8,0.4-1.5,0.6-2.2c0.2-0.7,0.5-1.5,0.7-2.3l2.9-10.5c0.1-0.3,0.3-0.6,0.7-0.9
				c0.3-0.2,0.7-0.3,1.2-0.3h3.1c0.5,0,0.9,0.1,1.2,0.3c0.3,0.2,0.6,0.5,0.7,0.9l2.8,10.5c0.2,0.8,0.4,1.6,0.7,2.3
				c0.2,0.8,0.4,1.5,0.6,2.3c0.1-0.7,0.3-1.5,0.4-2.2c0.2-0.8,0.4-1.5,0.6-2.3l2.5-10.5c0.1-0.3,0.3-0.6,0.7-0.9
				c0.3-0.2,0.7-0.3,1.2-0.3H121.9z"/>
		</g>
		<g>
			<path d="M163.2,145l-7.2,23.3h-5.7c-0.3,0-0.6-0.1-0.8-0.3c-0.2-0.2-0.4-0.5-0.5-0.9l-3.3-11.6
				c-0.2-0.5-0.3-1-0.4-1.6c-0.1-0.5-0.2-1-0.3-1.6c-0.1,0.5-0.2,1-0.3,1.6c-0.1,0.5-0.3,1.1-0.4,1.6l-3.4,11.6
				c-0.2,0.8-0.7,1.2-1.5,1.2h-5.4l-7.2-23.3h5.6c0.5,0,0.9,0.1,1.2,0.3c0.3,0.2,0.6,0.5,0.7,0.9l2.3,10.5c0.2,0.8,0.4,1.6,0.5,2.3
				c0.1,0.7,0.3,1.5,0.4,2.2c0.2-0.8,0.4-1.5,0.6-2.2c0.2-0.7,0.5-1.5,0.7-2.3l2.9-10.5c0.1-0.3,0.3-0.6,0.7-0.9
				c0.3-0.2,0.7-0.3,1.2-0.3h3.1c0.5,0,0.9,0.1,1.2,0.3c0.3,0.2,0.6,0.5,0.7,0.9l2.8,10.5c0.2,0.8,0.4,1.6,0.7,2.3
				c0.2,0.8,0.4,1.5,0.6,2.3c0.1-0.7,0.3-1.5,0.4-2.2c0.2-0.8,0.4-1.5,0.6-2.3l2.5-10.5c0.1-0.3,0.3-0.6,0.7-0.9
				c0.3-0.2,0.7-0.3,1.2-0.3H163.2z"/>
		</g>
		<g>
			<path d="M204.5,145l-7.2,23.3h-5.7c-0.3,0-0.6-0.1-0.8-0.3c-0.2-0.2-0.4-0.5-0.5-0.9l-3.3-11.6
				c-0.2-0.5-0.3-1-0.4-1.6c-0.1-0.5-0.2-1-0.3-1.6c-0.1,0.5-0.2,1-0.3,1.6c-0.1,0.5-0.3,1.1-0.4,1.6l-3.4,11.6
				c-0.2,0.8-0.7,1.2-1.5,1.2h-5.4l-7.2-23.3h5.6c0.5,0,0.9,0.1,1.2,0.3c0.3,0.2,0.6,0.5,0.7,0.9l2.3,10.5c0.2,0.8,0.4,1.6,0.5,2.3
				c0.1,0.7,0.3,1.5,0.4,2.2c0.2-0.8,0.4-1.5,0.6-2.2c0.2-0.7,0.5-1.5,0.7-2.3l2.9-10.5c0.1-0.3,0.3-0.6,0.7-0.9
				c0.3-0.2,0.7-0.3,1.2-0.3h3.1c0.5,0,0.9,0.1,1.2,0.3c0.3,0.2,0.6,0.5,0.7,0.9l2.8,10.5c0.2,0.8,0.4,1.6,0.7,2.3
				c0.2,0.8,0.4,1.5,0.6,2.3c0.1-0.7,0.3-1.5,0.4-2.2c0.2-0.8,0.4-1.5,0.6-2.3l2.5-10.5c0.1-0.3,0.3-0.6,0.7-0.9
				c0.3-0.2,0.7-0.3,1.2-0.3H204.5z"/>
		</g>
		<g>
			<path d="M209.5,164.8c0-0.5,0.1-1,0.3-1.5c0.2-0.5,0.5-0.9,0.8-1.2s0.8-0.6,1.2-0.8c0.5-0.2,1-0.3,1.6-0.3
				c0.6,0,1.1,0.1,1.6,0.3c0.5,0.2,0.9,0.5,1.3,0.8c0.4,0.3,0.6,0.8,0.8,1.2c0.2,0.5,0.3,1,0.3,1.5s-0.1,1-0.3,1.5
				c-0.2,0.5-0.5,0.9-0.8,1.2c-0.4,0.3-0.8,0.6-1.3,0.8c-0.5,0.2-1,0.3-1.6,0.3c-0.6,0-1.1-0.1-1.6-0.3c-0.5-0.2-0.9-0.5-1.2-0.8
				c-0.4-0.3-0.6-0.8-0.8-1.2C209.6,165.9,209.5,165.3,209.5,164.8z"/>
		</g>
	</g>
</g>
</svg>
