<svg xmlns="http://www.w3.org/2000/svg" viewBox="0 0 300 300"><defs><style>.cls-1,.cls-2{fill:none;}.cls-1{stroke:#454a73;stroke-linecap:round;stroke-linejoin:round;stroke-width:12px;}.cls-3{fill:#454a73;}</style></defs><title>2</title><g id="Layer_17" data-name="Layer 17"><polyline class="cls-1" points="165 45 165 92 220 92"/><path class="cls-2" d="M131.46,158v74a6,6,0,0,1-6,6H72v36H214V93.58L167.94,50H72V152h53.46A6,6,0,0,1,131.46,158Z"/><path class="cls-3" d="M224.12,85.29,174.46,40.56A6.17,6.17,0,0,0,170.33,39H66a5.86,5.86,0,0,0-6,5.71V147.48H72V50.42h95.94L214,91.89V263.58H72V229.32H60v40A5.86,5.86,0,0,0,66,275H220a5.86,5.86,0,0,0,6-5.71V89.44A5.58,5.58,0,0,0,224.12,85.29Z"/><path class="cls-3" d="M164.46,233a6,6,0,0,0,6-6V153a6,6,0,0,0-6-6H30a6,6,0,0,0-6,6v74a6,6,0,0,0,6,6H164.46ZM36,159H158.46v62H36Z"/><polyline class="cls-1" points="30 159 99.49 202.32 164.46 159"/><line class="cls-1" x1="97" y1="121" x2="182" y2="121"/><line class="cls-1" x1="97" y1="93" x2="142" y2="93"/><rect class="cls-1" x="245" y="93" width="21" height="119.41"/><line class="cls-1" x1="245" y1="113.09" x2="266" y2="113.09"/><polyline class="cls-1" points="245 212.44 256 237 266 212.44"/></g></svg>