<svg xmlns="http://www.w3.org/2000/svg" viewBox="0 0 300 300"><defs><style>.cls-1{fill:#454a73;}.cls-2,.cls-3{fill:none;}.cls-3{stroke:#454a73;stroke-linecap:round;stroke-linejoin:round;stroke-width:10px;}</style></defs><title>champion-2</title><g id="Layer_25" data-name="Layer 25"><path class="cls-1" d="M112.76,132.61a4.89,4.89,0,0,1-3.71-8.06L130,100a4.89,4.89,0,0,1,7.43,6.35l-21,24.52A4.88,4.88,0,0,1,112.76,132.61Z"/><path class="cls-1" d="M116.15,158.32a4.89,4.89,0,0,1-3.66-8.12l33.67-38.1a4.89,4.89,0,1,1,7.32,6.47l-33.67,38.1A4.87,4.87,0,0,1,116.15,158.32Z"/><path class="cls-1" d="M158.68,109.58a4.89,4.89,0,0,1-3.45-8.34L157,99.47a4.89,4.89,0,0,1,6.91,6.91l-1.77,1.77A4.87,4.87,0,0,1,158.68,109.58Z"/><path class="cls-2" d="M129.22,196.76a10.67,10.67,0,0,1,5-1.2l25.66-1.12a19.36,19.36,0,0,1,6.45.51c.29.08,1.56.38,2.79.66,2.48.57,4.8,1.13,7,1.66A57.83,57.83,0,0,0,208,145.8V81.26H92.9V145.8a57.84,57.84,0,0,0,34.26,52.6A8.38,8.38,0,0,1,129.22,196.76Z"/><path class="cls-2" d="M146.38,234.4a13,13,0,0,1,.6,20.66,13,13,0,0,1,1.56,6.18,13.1,13.1,0,0,1-.11,1.63h25.82c-4.92-3.77-10.09-9.85-13.94-19.66a36.31,36.31,0,0,1-8.52-18.65l-5-.65a12.87,12.87,0,0,1-.43,10.49Z"/><path class="cls-1" d="M217.77,145.8V76.37a4.89,4.89,0,0,0-4.89-4.89H88a4.89,4.89,0,0,0-4.89,4.89V145.8a67.54,67.54,0,0,0,27.38,54.12,13,13,0,0,1,3.83-.58h12.07a9.19,9.19,0,0,1,.75-.94A57.84,57.84,0,0,1,92.9,145.8V81.26H208V145.8a57.83,57.83,0,0,1-31.88,51.48c5.13,1.26,9.45,2.42,13,3.52A67.55,67.55,0,0,0,217.77,145.8Z"/><path class="cls-1" d="M160.3,243.2c3.85,9.81,9,15.9,13.94,19.66H148.43a13,13,0,0,1-6.62,9.77h47.73a4.89,4.89,0,0,0,4.89-4.89v-3.64a4.89,4.89,0,0,0-4.76-4.88c-.11,0-5.28-.26-10.94-5.35A31.27,31.27,0,0,1,160.3,243.2Z"/><path class="cls-1" d="M108.64,261.24a13,13,0,0,1,.14-1.79,4.89,4.89,0,0,0-3.48,4.67v3.64a4.89,4.89,0,0,0,4.89,4.89h5.19A13,13,0,0,1,108.64,261.24Z"/><path class="cls-1" d="M113.52,215.63h.81a3.26,3.26,0,1,1,0-6.52h10.44a14.8,14.8,0,0,1-.35-2.82,11.54,11.54,0,0,1,2-6.95H114.34A13,13,0,0,0,103.8,220,13,13,0,0,1,113.52,215.63Z"/><path class="cls-1" d="M117.6,231.92h-4.07a3.26,3.26,0,1,1,0-6.52H134.7a3.26,3.26,0,0,1,0,6.52h4.07a12.94,12.94,0,0,1,7.61,2.48,12.87,12.87,0,0,0,.43-10.49l-.89-.12c-4-.52-8.51-1.12-12.75-3.55a18.17,18.17,0,0,1-5.3-4.6H113.52a13,13,0,0,0-7.61,23.58A13,13,0,0,1,117.6,231.92Z"/><path class="cls-1" d="M121.67,248.21H117.6a3.26,3.26,0,0,1,0-6.52h21.17a3.26,3.26,0,0,1,0,6.52h-3.26A13,13,0,0,1,147,255.06a13,13,0,0,0-8.21-23.14H117.6A13,13,0,0,0,110,255.5,13,13,0,0,1,121.67,248.21Z"/><path class="cls-1" d="M169.13,195.62c-1.23-.28-2.5-.58-2.79-.66a19.36,19.36,0,0,0-6.45-.51l-25.66,1.12a10.67,10.67,0,0,0-5,1.2,8.38,8.38,0,0,0-2.07,1.64,9.19,9.19,0,0,0-.75.94,11.54,11.54,0,0,0-2,6.95,14.8,14.8,0,0,0,.35,2.82,16.41,16.41,0,0,0,3.1,6.52,18.17,18.17,0,0,0,5.3,4.6c4.24,2.44,8.76,3,12.75,3.55l.89.12,5,.65a36.31,36.31,0,0,0,8.52,18.65,31.27,31.27,0,0,0,18.42,10.69,26.24,26.24,0,0,0,2.93.3h.23a4.89,4.89,0,0,0,.22-9.77c-10.42-.48-20-11-20.82-22.9a6.86,6.86,0,0,0-2.07-4.78,6.38,6.38,0,0,0-3.58-1.55l-8.43-1.11c-3.24-.43-6.59-.87-9.15-2.34-1.87-1.08-3.79-3.26-3.85-5.7a3,3,0,0,1,.06-.7l.39,0,25.66-1.12a11.6,11.6,0,0,1,3.3.13c.5.15,1.38.35,3.31.8,22.93,5.31,28.39,8,29.61,9.11a4.89,4.89,0,0,0,6.63-7.18c-2.18-2-6.54-4-14-6.27-3.59-1.09-7.91-2.25-13-3.52C173.93,196.75,171.61,196.2,169.13,195.62Z"/><path class="cls-1" d="M148.43,262.87a13.1,13.1,0,0,0,.11-1.63,13,13,0,0,0-13-13H121.67a13,13,0,0,0,0,26.06h13.84a13,13,0,0,0,12.92-11.4Zm-9.66-1.63a3.3,3.3,0,0,1-3.26,3.26H121.67a3.26,3.26,0,0,1,0-6.52h13.84A3.3,3.3,0,0,1,138.77,261.24Z"/><path class="cls-1" d="M199,293h-96.1A4.89,4.89,0,0,1,98,288.11V269.38a4.89,4.89,0,0,1,4.89-4.89H199a4.89,4.89,0,0,1,4.89,4.89v18.73A4.89,4.89,0,0,1,199,293Zm-91.21-9.77h86.33v-9H107.82Z"/><path class="cls-1" d="M230,279.16H203.11a4.89,4.89,0,0,1-4.89-4.89v-70a4.89,4.89,0,0,1,4.89-4.89H230a4.89,4.89,0,0,1,4.89,4.89v70A4.89,4.89,0,0,1,230,279.16Zm-22-9.77h17.1V209.12H208Z"/><path class="cls-1" d="M263.37,218.08H231.61a4.89,4.89,0,0,1,0-9.77h31.76a4.89,4.89,0,0,1,0,9.77Z"/><path class="cls-1" d="M263.37,269.38H231.61a4.89,4.89,0,1,1,0-9.77h31.76a4.89,4.89,0,1,1,0,9.77Z"/><path class="cls-1" d="M207.76,175.65a4.89,4.89,0,0,1-1.59-9.51c13.82-4.74,29.48-10.11,39.9-21.53a47.27,47.27,0,0,0,11.53-24,34.44,34.44,0,0,0-1.45-18.12c-2.19-5.53-6.3-9.83-11-11.5-5.71-2-14.06-2.66-18.29.14-5.31,3.51-6.57,5-9,10.76a4.89,4.89,0,1,1-9-3.81c3.16-7.45,5.75-10.55,12.6-15.09,7.31-4.84,18.8-4.09,27-1.21,7.32,2.59,13.61,9,16.82,17.12a44.17,44.17,0,0,1,2,23.29,57.15,57.15,0,0,1-14,29c-12.11,13.27-29.76,19.32-44,24.18A4.89,4.89,0,0,1,207.76,175.65Z"/><path class="cls-1" d="M92.85,175.65a4.89,4.89,0,0,1-1.59-.27c-14.19-4.86-31.84-10.92-44-24.19a57.16,57.16,0,0,1-14-29,44.17,44.17,0,0,1,2-23.29c3.21-8.12,9.5-14.52,16.82-17.12C60.33,78.9,71.83,78.15,79.14,83c6.86,4.54,9.45,7.64,12.6,15.09a4.89,4.89,0,1,1-9,3.81c-2.43-5.73-3.69-7.24-9-10.76C69.51,88.33,61.16,89,55.45,91c-4.7,1.66-8.81,6-11,11.5A34.44,34.44,0,0,0,43,120.61a47.27,47.27,0,0,0,11.53,24C65,156,80.62,161.4,94.44,166.14a4.89,4.89,0,0,1-1.59,9.51Z"/><line class="cls-3" x1="147.77" y1="32.67" x2="147.77" y2="9"/><line class="cls-3" x1="210.54" y1="41.67" x2="218.41" y2="19.36"/><line class="cls-3" x1="262.04" y1="67.93" x2="278.78" y2="51.19"/><line class="cls-3" x1="84.07" y1="42.75" x2="76.19" y2="20.43"/><line class="cls-3" x1="32.56" y1="69" x2="15.82" y2="52.27"/></g></svg>