<svg xmlns="http://www.w3.org/2000/svg" xmlns:xlink="http://www.w3.org/1999/xlink" viewBox="0 0 300 300"><defs><style>.cls-1{fill:#9f1744;}.cls-2{clip-path:url(#clip-path);}.cls-3{fill:none;}.cls-4{fill:#454a73;}</style><clipPath id="clip-path"><path class="cls-1" d="M-2994.77,101a4.23,4.23,0,0,1-2.84-1.09,4.23,4.23,0,0,1-1.39-3.14V70.84a4.23,4.23,0,0,1,1.14-2.88l25.19-27.06a4.24,4.24,0,0,1,4.45-1.13,4.24,4.24,0,0,1,2.86,3.6l1.74,17.8,20.32,2.1a4.23,4.23,0,0,1,3.54,2.76,4.23,4.23,0,0,1-.93,4.39l-25.84,26.73a4.23,4.23,0,0,1-2.62,1.27l-25.19,2.55Zm4.23-28.5V92.08l19-1.92,18.71-19.36-15.11-1.56a4.23,4.23,0,0,1-3.78-3.8l-1.16-11.9Z"/></clipPath></defs><title>icons</title><g id="Layer_1" data-name="Layer 1"><path class="cls-1" d="M-2994.77,101a4.23,4.23,0,0,1-2.84-1.09,4.23,4.23,0,0,1-1.39-3.14V70.84a4.23,4.23,0,0,1,1.14-2.88l25.19-27.06a4.24,4.24,0,0,1,4.45-1.13,4.24,4.24,0,0,1,2.86,3.6l1.74,17.8,20.32,2.1a4.23,4.23,0,0,1,3.54,2.76,4.23,4.23,0,0,1-.93,4.39l-25.84,26.73a4.23,4.23,0,0,1-2.62,1.27l-25.19,2.55Zm4.23-28.5V92.08l19-1.92,18.71-19.36-15.11-1.56a4.23,4.23,0,0,1-3.78-3.8l-1.16-11.9Z"/><g class="cls-2"><path class="cls-1" d="M147,9922.18H-3917.82a4.23,4.23,0,0,1-4.23-4.23V-2132.61a4.23,4.23,0,0,1,4.23-4.23H147a4.23,4.23,0,0,1,4.23,4.23V9917.95A4.24,4.24,0,0,1,147,9922.18Zm-4060.6-8.47H142.78V-2128.37H-3913.59Z"/></g></g><g id="Layer_12" data-name="Layer 12"><path class="cls-3" d="M271,209a5.91,5.91,0,0,1-4.29,1.73c-.73,0-72.82-.93-94.62-.93-13.68,0-16.08,13.84-16.17,14.43v.06a6,6,0,0,1-.24.93l0,.14a5.93,5.93,0,0,1-.38.83l-.08.14a6,6,0,0,1-.51.73l-.1.12a6,6,0,0,1-.64.65l-.08.07a6,6,0,0,1-.78.55h0a6,6,0,0,1-.89.42l-.05,0a6,6,0,0,1-.91.25l-.14,0a6,6,0,0,1-.69.08H150l-.47,0-.29-.05a6,6,0,0,1-.6-.11l-.49-.14c-.19-.06-.37-.13-.54-.21l-.47-.23c-.16-.09-.32-.19-.48-.29s-.28-.2-.42-.31-.28-.24-.42-.38-.24-.24-.35-.37-.24-.3-.35-.45-.19-.28-.28-.43-.18-.33-.26-.51-.14-.32-.2-.49-.11-.36-.16-.54-.09-.36-.12-.54,0-.14,0-.21a18.08,18.08,0,0,0-2.83-7c-2.88-4.2-7.24-6.24-13.31-6.24H33.21a6,6,0,0,1-6-6v-125H21v160.5H279V79.79h-6.19v125A6,6,0,0,1,271,209Z"/><path class="cls-4" d="M285,67.79H272.81v12H279v160.5H21V79.79h6.21v-12H15a6,6,0,0,0-6,6v172.5a6,6,0,0,0,6,6H285a6,6,0,0,0,6-6V73.79A6,6,0,0,0,285,67.79Z"/><path class="cls-4" d="M146.24,227.93c-.15-.12-.28-.24-.42-.38C146,227.69,146.09,227.82,146.24,227.93Z"/><path class="cls-4" d="M154.66,227.08a6,6,0,0,0,.51-.73A6,6,0,0,1,154.66,227.08Z"/><path class="cls-4" d="M152.14,228.9a6,6,0,0,0,.89-.42A6,6,0,0,1,152.14,228.9Z"/><path class="cls-4" d="M151.18,229.17a6,6,0,0,0,.91-.25A6,6,0,0,1,151.18,229.17Z"/><path class="cls-4" d="M148.63,229.11a6,6,0,0,0,.6.11A6,6,0,0,1,148.63,229.11Z"/><path class="cls-4" d="M150,229.29h0Z"/><path class="cls-4" d="M155.25,226.2a5.93,5.93,0,0,0,.38-.83A5.94,5.94,0,0,1,155.25,226.2Z"/><path class="cls-4" d="M151,229.2a6,6,0,0,1-1,.09h.33A6,6,0,0,0,151,229.2Z"/><path class="cls-4" d="M147.6,228.77c.18.08.36.15.54.21Q147.86,228.88,147.6,228.77Z"/><path class="cls-4" d="M155.68,225.24a6,6,0,0,0,.24-.93A6,6,0,0,1,155.68,225.24Z"/><path class="cls-4" d="M154.56,227.2a6,6,0,0,1-.64.65A6,6,0,0,0,154.56,227.2Z"/><path class="cls-4" d="M153.05,228.47a6,6,0,0,0,.78-.55A6,6,0,0,1,153.05,228.47Z"/><path class="cls-4" d="M144.22,224.77c0,.18.1.37.16.54C144.31,225.13,144.27,225,144.22,224.77Z"/><path class="cls-4" d="M27.21,204.75a6,6,0,0,0,6,6h94.7c6.07,0,10.43,2,13.31,6.24a18.08,18.08,0,0,1,2.83,7c0,.07,0,.14,0,.21a6,6,0,0,1-.09-.93V203.18a28.77,28.77,0,0,0-16.1-4.43H39.21V68.07c19.22.21,78.12.86,89.13.86S143,72.92,144,74.5V73.12a6,6,0,0,1,.27-1.77A18.31,18.31,0,0,1,150,63.52c-4-3.39-10.75-6.6-21.67-6.6-13.07,0-94.24-.92-95.06-.93h-.07a6,6,0,0,0-6,6V204.75Z"/><path class="cls-4" d="M145.12,226.73c.11.16.22.31.35.45C145.34,227,145.23,226.89,145.12,226.73Z"/><path class="cls-4" d="M146.66,228.24c.15.11.31.2.48.29C147,228.45,146.81,228.35,146.66,228.24Z"/><path class="cls-4" d="M144.58,225.8c.08.17.16.34.26.51C144.75,226.14,144.66,226,144.58,225.8Z"/><path class="cls-4" d="M144.28,71.35a6,6,0,0,0-.27,1.77V223.29a6,6,0,0,0,.09.93c0,.19.07.36.12.54s.1.37.16.54.13.33.2.49.16.34.26.51.18.29.28.43.22.31.35.45.23.25.35.37.27.26.42.38.27.21.42.31.31.2.48.29l.47.23q.27.12.54.21l.49.14a6,6,0,0,0,.6.11l.29.05.47,0h0a6,6,0,0,0,1-.09l.14,0a6,6,0,0,0,.91-.25l.05,0a6,6,0,0,0,.89-.42h0a6,6,0,0,0,.78-.55l.08-.07a6,6,0,0,0,.64-.65l.1-.12a6,6,0,0,0,.51-.73l.08-.14a5.94,5.94,0,0,0,.38-.83l0-.14a6,6,0,0,0,.24-.93v-.06c.1-.59,2.5-14.43,16.17-14.43,21.81,0,93.9.92,94.62.93A5.91,5.91,0,0,0,271,209a6,6,0,0,0,1.78-4.27V62a6,6,0,0,0-6-6h-.07c-.82,0-82,.93-95.06.93-10.92,0-17.62,3.21-21.67,6.6A18.31,18.31,0,0,0,144.28,71.35ZM260.81,198.68c-17.95-.22-70.58-.85-88.7-.85a26.89,26.89,0,0,0-16.1,4.95V74.5c1-1.58,4.72-5.57,15.67-5.57s69.9-.65,89.13-.86Z"/><path class="cls-4" d="M266.81,233H33.21a6,6,0,0,1,0-12h233.6a6,6,0,0,1,0,12Z"/><path class="cls-4" d="M266.81,233a6,6,0,0,1-6-6V204.75a6,6,0,1,1,12,0V227A6,6,0,0,1,266.81,233Z"/><path class="cls-4" d="M33.21,233a6,6,0,0,1-6-6V204.75a6,6,0,1,1,12,0V227A6,6,0,0,1,33.21,233Z"/><path class="cls-4" d="M85.71,105.5l-.46,0a6,6,0,0,1-4.27-2.3l-7.5-9.64A6,6,0,0,1,83,86.17l3.45,4.44L99.82,78A6,6,0,1,1,108,86.73L89.83,103.87A6,6,0,0,1,85.71,105.5Z"/><path class="cls-4" d="M219.9,107.59a6,6,0,0,1-3.95-1.48L194,86.93a6,6,0,0,1,7.9-9l21.95,19.18a6,6,0,0,1-4,10.52Z"/><path class="cls-4" d="M198.69,108.37a6,6,0,0,1-4.27-10.21l20.47-20.75a6,6,0,1,1,8.54,8.43L203,106.59A6,6,0,0,1,198.69,108.37Z"/><path class="cls-4" d="M111.43,131.21H64.29a6,6,0,1,1,0-12h47.14a6,6,0,0,1,0,12Z"/><path class="cls-4" d="M111.43,158H64.29a6,6,0,0,1,0-12h47.14a6,6,0,0,1,0,12Z"/><path class="cls-4" d="M111.43,186.93H64.29a6,6,0,0,1,0-12h47.14a6,6,0,0,1,0,12Z"/><path class="cls-4" d="M232.5,130.14H185.36a6,6,0,1,1,0-12H232.5a6,6,0,0,1,0,12Z"/><path class="cls-4" d="M232.5,156.93H185.36a6,6,0,0,1,0-12H232.5a6,6,0,0,1,0,12Z"/><path class="cls-4" d="M232.5,185.86H185.36a6,6,0,0,1,0-12H232.5a6,6,0,0,1,0,12Z"/></g></svg>