<?xml version="1.0" encoding="utf-8"?>
<!-- Generator: Adobe Illustrator 21.0.2, SVG Export Plug-In . SVG Version: 6.00 Build 0)  -->
<svg version="1.1" xmlns="http://www.w3.org/2000/svg" xmlns:xlink="http://www.w3.org/1999/xlink" x="0px" y="0px"
	 viewBox="0 0 296 230" style="enable-background:new 0 0 296 230;" xml:space="preserve">
<style type="text/css">
	.st0{fill:#FFFFFF;}
	.st1{fill:#464B73;}
</style>
<g id="Layer_1">
	<g>
		<g>
			<rect x="7.9" y="9" class="st0" width="279.1" height="213"/>
			<path class="st1" d="M287,229H7.9c-3.9,0-7-3.1-7-7V9c0-3.9,3.1-7,7-7H287c3.9,0,7,3.1,7,7v213C294,225.9,290.9,229,287,229z
				 M14.9,215H280V16H14.9V215z"/>
		</g>
		<g>
			<path class="st1" d="M287,58.9H7.9c-3.9,0-7-3.1-7-7s3.1-7,7-7H287c3.9,0,7,3.1,7,7S290.9,58.9,287,58.9z"/>
		</g>
		<g>
			<ellipse class="st1" cx="29.2" cy="29.8" rx="4.6" ry="4.7"/>
		</g>
		<g>
			<ellipse class="st1" cx="43" cy="29.8" rx="4.6" ry="4.7"/>
		</g>
		<g>
			<ellipse class="st1" cx="56.7" cy="29.8" rx="4.6" ry="4.7"/>
		</g>
		<g>
			<path class="st1" d="M181.8,37.8h-68.6c-3.9,0-7-3.1-7-7s3.1-7,7-7h68.6c3.9,0,7,3.1,7,7S185.6,37.8,181.8,37.8z"/>
		</g>
		<g>
			<path class="st1" d="M109,141H33.5c-3.9,0-7-3.1-7-7V76.6c0-3.9,3.1-7,7-7H109c3.9,0,7,3.1,7,7V134C116,137.9,112.9,141,109,141z
				 M40.5,127H102V83.6H40.5V127z"/>
		</g>
		<g>
			<path class="st1" d="M109,141c-1.5,0-3-0.5-4.2-1.4L29.3,82.2c-3.1-2.3-3.7-6.7-1.3-9.8c2.3-3.1,6.7-3.7,9.8-1.3l75.5,57.4
				c3.1,2.3,3.7,6.7,1.3,9.8C113.2,140,111.1,141,109,141z"/>
		</g>
		<g>
			<path class="st1" d="M33.5,141c-2.1,0-4.2-1-5.6-2.8c-2.3-3.1-1.7-7.5,1.3-9.8l75.5-57.4c3.1-2.3,7.5-1.7,9.8,1.3
				c2.3,3.1,1.7,7.5-1.3,9.8l-75.5,57.4C36.5,140.5,35,141,33.5,141z"/>
		</g>
		<g>
			<path class="st1" d="M263,204.3h-49.2c-3.9,0-7-3.1-7-7V70.6c0-3.9,3.1-7,7-7H263c3.9,0,7,3.1,7,7v126.6
				C270,201.1,266.9,204.3,263,204.3z M220.8,190.3H256V77.6h-35.2V190.3z"/>
		</g>
		<g>
			<path class="st1" d="M186,111.3h-51c-3.9,0-7-3.1-7-7s3.1-7,7-7h51c3.9,0,7,3.1,7,7S189.9,111.3,186,111.3z"/>
		</g>
		<g>
			<path class="st1" d="M186,86h-51c-3.9,0-7-3.1-7-7s3.1-7,7-7h51c3.9,0,7,3.1,7,7S189.9,86,186,86z"/>
		</g>
		<g>
			<path class="st1" d="M186,138.2h-51c-3.9,0-7-3.1-7-7s3.1-7,7-7h51c3.9,0,7,3.1,7,7S189.9,138.2,186,138.2z"/>
		</g>
		<g>
			<path class="st1" d="M188,169.7H32.2c-3.9,0-7-3.1-7-7s3.1-7,7-7H188c3.9,0,7,3.1,7,7S191.9,169.7,188,169.7z"/>
		</g>
		<g>
			<path class="st1" d="M188,202.1H32.2c-3.9,0-7-3.1-7-7s3.1-7,7-7H188c3.9,0,7,3.1,7,7S191.9,202.1,188,202.1z"/>
		</g>
	</g>
</g>
<g id="Layer_2">
</g>
<g id="Layer_3">
</g>
</svg>
