<?xml version="1.0" encoding="utf-8"?>
<!-- Generator: Adobe Illustrator 21.0.2, SVG Export Plug-In . SVG Version: 6.00 Build 0)  -->
<svg version="1.1" xmlns="http://www.w3.org/2000/svg" xmlns:xlink="http://www.w3.org/1999/xlink" x="0px" y="0px"
	 viewBox="0 0 199.8 155.3" style="enable-background:new 0 0 199.8 155.3;" xml:space="preserve">
<style type="text/css">
	.st0{fill:#FFFFFF;}
	.st1{fill:#464B73;}
</style>
<g id="Layer_1">
	<g>
		<g>
			<rect x="5.6" y="6.6" class="st0" width="184.8" height="141"/>
			<path class="st1" d="M190.4,152.3H5.6c-2.6,0-4.6-2.1-4.6-4.6V6.6C0.9,4.1,3,2,5.6,2h184.8c2.6,0,4.6,2.1,4.6,4.6v141
				C195,150.2,192.9,152.3,190.4,152.3z M10.2,143h175.5V11.3H10.2V143z"/>
		</g>
		<g>
			<path class="st1" d="M190.4,39.7H5.6c-2.6,0-4.6-2.1-4.6-4.6s2.1-4.6,4.6-4.6h184.8c2.6,0,4.6,2.1,4.6,4.6S192.9,39.7,190.4,39.7
				z"/>
		</g>
		<g>
			<ellipse class="st1" cx="19.7" cy="20.4" rx="3" ry="3.1"/>
		</g>
		<g>
			<ellipse class="st1" cx="28.8" cy="20.4" rx="3" ry="3.1"/>
		</g>
		<g>
			<ellipse class="st1" cx="37.8" cy="20.4" rx="3" ry="3.1"/>
		</g>
		<g>
			<path class="st1" d="M120.7,25.7H75.2c-2.6,0-4.6-2.1-4.6-4.6s2.1-4.6,4.6-4.6h45.4c2.6,0,4.6,2.1,4.6,4.6S123.2,25.7,120.7,25.7
				z"/>
		</g>
		<g>
			<path class="st1" d="M72.5,94h-50c-2.6,0-4.6-2.1-4.6-4.6v-38c0-2.6,2.1-4.6,4.6-4.6h50c2.6,0,4.6,2.1,4.6,4.6v38
				C77.1,92,75.1,94,72.5,94z M27.1,84.8h40.7V56.1H27.1V84.8z"/>
		</g>
		<g>
			<path class="st1" d="M72.5,94c-1,0-2-0.3-2.8-0.9l-50-38c-2-1.5-2.4-4.5-0.9-6.5c1.5-2,4.5-2.4,6.5-0.9l50,38
				c2,1.5,2.4,4.5,0.9,6.5C75.3,93.4,73.9,94,72.5,94z"/>
		</g>
		<g>
			<path class="st1" d="M22.5,94c-1.4,0-2.8-0.6-3.7-1.8c-1.5-2-1.2-4.9,0.9-6.5l50-38c2-1.5,4.9-1.2,6.5,0.9c1.5,2,1.2,4.9-0.9,6.5
				l-50,38C24.5,93.7,23.5,94,22.5,94z"/>
		</g>
		<g>
			<path class="st1" d="M174.5,135.9h-32.6c-2.6,0-4.6-2.1-4.6-4.6V47.4c0-2.6,2.1-4.6,4.6-4.6h32.6c2.6,0,4.6,2.1,4.6,4.6v83.8
				C179.1,133.9,177,135.9,174.5,135.9z M146.5,126.7h23.3V52.1h-23.3V126.7z"/>
		</g>
		<g>
			<path class="st1" d="M123.5,74.4H89.7c-2.6,0-4.6-2.1-4.6-4.6s2.1-4.6,4.6-4.6h33.8c2.6,0,4.6,2.1,4.6,4.6S126,74.4,123.5,74.4z"
				/>
		</g>
		<g>
			<path class="st1" d="M123.5,57.6H89.7c-2.6,0-4.6-2.1-4.6-4.6s2.1-4.6,4.6-4.6h33.8c2.6,0,4.6,2.1,4.6,4.6S126,57.6,123.5,57.6z"
				/>
		</g>
		<g>
			<path class="st1" d="M123.5,92.2H89.7c-2.6,0-4.6-2.1-4.6-4.6s2.1-4.6,4.6-4.6h33.8c2.6,0,4.6,2.1,4.6,4.6S126,92.2,123.5,92.2z"
				/>
		</g>
		<g>
			<path class="st1" d="M124.8,113H21.7c-2.6,0-4.6-2.1-4.6-4.6c0-2.6,2.1-4.6,4.6-4.6h103.2c2.6,0,4.6,2.1,4.6,4.6
				C129.4,111,127.4,113,124.8,113z"/>
		</g>
		<g>
			<path class="st1" d="M124.8,134.5H21.7c-2.6,0-4.6-2.1-4.6-4.6c0-2.6,2.1-4.6,4.6-4.6h103.2c2.6,0,4.6,2.1,4.6,4.6
				C129.4,132.4,127.4,134.5,124.8,134.5z"/>
		</g>
	</g>
</g>
<g id="Layer_2">
</g>
<g id="Layer_3">
</g>
</svg>
