<svg xmlns="http://www.w3.org/2000/svg" xml:space="preserve" viewBox="0 0 300 300" fill="#9f1744"><path d="M224 148.4H73c-3.3 0-6-2.7-6-6s2.7-6 6-6h151c3.3 0 6 2.7 6 6s-2.7 6-6 6M243.3 123.8H52.6c-2.7 0-5.1-1.9-5.8-4.5-.7-2.7.5-5.4 2.9-6.8L145 60.3c1.8-1 4-1 5.8 0l95.3 52.2c2.4 1.3 3.6 4.1 2.9 6.8-.6 2.6-3 4.5-5.7 4.5m-167.2-12h143.8L148 72.4zM166.1 287.5h-36.3c-3.3 0-6-2.7-6-6v-33.9c0-12.1 9.9-22 22-22h4.3c12.1 0 22 9.9 22 22v33.9c0 3.3-2.7 6-6 6m-30.3-12h24.3v-27.9c0-5.5-4.5-10-10-10h-4.3c-5.5 0-10 4.5-10 10zM288 287.5h-62c-3.3 0-6-2.7-6-6v-81c0-3.3 2.7-6 6-6h62c3.3 0 6 2.7 6 6v81c0 3.3-2.7 6-6 6m-56-12h50v-69h-50z" class="st4"></path><path d="M288 203.5h-62c-3.3 0-6-2.7-6-6v-22c0-3.3 2.7-6 6-6h68c1.9 0 3.6.9 4.8 2.4 1.1 1.5 1.5 3.4 1 5.2l-6 22c-.7 2.6-3.1 4.4-5.8 4.4m-56-12h51.4l2.7-10H232zM73 287.5H12c-3.3 0-6-2.7-6-6v-81c0-3.3 2.7-6 6-6h61c3.3 0 6 2.7 6 6v81c0 3.3-2.7 6-6 6m-55-12h49v-69H18z" class="st4"></path><path d="M73 203.5H11.9c-2.7 0-5.1-1.8-5.8-4.4l-5.9-22c-.5-1.8-.1-3.7 1-5.2s2.9-2.3 4.8-2.3h67c3.3 0 6 2.7 6 6v22c0 3.2-2.7 5.9-6 5.9m-56.5-12H67v-10H13.8zM267 257.5h-21c-3.3 0-6-2.7-6-6v-24c0-3.3 2.7-6 6-6h21c3.3 0 6 2.7 6 6v24c0 3.3-2.7 6-6 6m-15-12h9v-12h-9zM53 257.5H32c-3.3 0-6-2.7-6-6v-24c0-3.3 2.7-6 6-6h21c3.3 0 6 2.7 6 6v24c0 3.3-2.7 6-6 6m-15-12h9v-12h-9z" class="st4"></path><path d="M226 287.5H73c-3.3 0-6-2.7-6-6v-164c0-3.3 2.7-6 6-6h153c3.3 0 6 2.7 6 6v164c0 3.3-2.7 6-6 6m-147-12h141v-152H79z" class="st4"></path><path d="M103 287.5c-3.3 0-6-2.7-6-6v-136c0-3.3 2.7-6 6-6s6 2.7 6 6v136c0 3.3-2.7 6-6 6M195 287.5c-3.3 0-6-2.7-6-6v-136c0-3.3 2.7-6 6-6s6 2.7 6 6v136c0 3.3-2.7 6-6 6M167 210.5h-39c-3.3 0-6-2.7-6-6v-20.1c0-12.6 11.4-22.9 25.5-22.9s25.5 10.3 25.5 22.9v20.1c0 3.3-2.7 6-6 6m-33-12h27v-14.1c0-6-6.1-10.9-13.5-10.9s-13.5 4.9-13.5 10.9zM148.1 67.1c-3.3 0-6-2.7-6-6V23.2c0-3.3 2.7-6 6-6s6 2.7 6 6v37.9c0 3.3-2.6 6-6 6" class="st4"></path><path d="M185.8 50.7h-37.7c-3.3 0-6-2.7-6-6V18c0-1.6.6-3.1 1.8-4.2 1.1-1.1 2.6-1.8 4.2-1.8h37.7c3.3 0 6 2.7 6 6v26.7c0 1.6-.6 3.1-1.8 4.2-1 1.2-2.6 1.8-4.2 1.8m-31.6-12h25.7V24h-25.7z" class="st4"></path></svg>
