<svg xmlns="http://www.w3.org/2000/svg" xmlns:xlink="http://www.w3.org/1999/xlink" viewBox="0 0 300 300"><defs><style>.cls-1{fill:#9f1744;}.cls-2{clip-path:url(#clip-path);}.cls-3{fill:none;stroke:#454a73;stroke-linecap:round;stroke-linejoin:round;stroke-width:12px;}</style><clipPath id="clip-path"><path class="cls-1" d="M-2674.77,101a4.23,4.23,0,0,1-2.84-1.09,4.23,4.23,0,0,1-1.39-3.14V70.84a4.23,4.23,0,0,1,1.14-2.88l25.19-27.06a4.24,4.24,0,0,1,4.45-1.13,4.24,4.24,0,0,1,2.86,3.6l1.74,17.8,20.32,2.1a4.23,4.23,0,0,1,3.54,2.76,4.23,4.23,0,0,1-.93,4.39l-25.84,26.73a4.23,4.23,0,0,1-2.62,1.27l-25.19,2.55Zm4.23-28.5V92.08l19-1.92,18.71-19.36-15.11-1.56a4.23,4.23,0,0,1-3.78-3.8l-1.16-11.9Z"/></clipPath></defs><title>icons</title><g id="Layer_1" data-name="Layer 1"><path class="cls-1" d="M-2674.77,101a4.23,4.23,0,0,1-2.84-1.09,4.23,4.23,0,0,1-1.39-3.14V70.84a4.23,4.23,0,0,1,1.14-2.88l25.19-27.06a4.24,4.24,0,0,1,4.45-1.13,4.24,4.24,0,0,1,2.86,3.6l1.74,17.8,20.32,2.1a4.23,4.23,0,0,1,3.54,2.76,4.23,4.23,0,0,1-.93,4.39l-25.84,26.73a4.23,4.23,0,0,1-2.62,1.27l-25.19,2.55Zm4.23-28.5V92.08l19-1.92,18.71-19.36-15.11-1.56a4.23,4.23,0,0,1-3.78-3.8l-1.16-11.9Z"/><g class="cls-2"><path class="cls-1" d="M467,9922.18H-3597.82a4.23,4.23,0,0,1-4.23-4.23V-2132.61a4.23,4.23,0,0,1,4.23-4.23H467a4.23,4.23,0,0,1,4.23,4.23V9917.95A4.24,4.24,0,0,1,467,9922.18Zm-4060.6-8.47H462.78V-2128.37H-3593.59Z"/></g></g><g id="Layer_11" data-name="Layer 11"><path class="cls-3" d="M32,71.83C32,56.51,33.4,40,54.36,40S76.73,61.22,76.73,61.22v178S75.33,264,99.09,264s23.76-34.19,23.76-34.19"/><path class="cls-3" d="M199.72,40c21,0,22.36,21.22,22.36,21.22V227.45"/><line class="cls-3" x1="32" y1="73.01" x2="76.73" y2="73.01"/><line class="cls-3" x1="54.36" y1="40" x2="203.92" y2="40"/><path class="cls-3" d="M122.85,229.81H265.41s1.4,34.19-21,34.19H103.28"/><line class="cls-3" x1="109.81" y1="82.44" x2="174.65" y2="82.44"/><line class="cls-3" x1="110.99" y1="126.06" x2="175.83" y2="126.06"/><line class="cls-3" x1="110.99" y1="172.04" x2="175.83" y2="172.04"/><polyline class="cls-3" points="195.91 77.86 204.97 90.27 236.27 62.3"/><polyline class="cls-3" points="197.09 120.3 206.15 132.72 237.45 104.74"/><polyline class="cls-3" points="197.09 167.46 206.15 179.87 237.45 151.9"/></g></svg>