<svg xmlns="http://www.w3.org/2000/svg" xmlns:xlink="http://www.w3.org/1999/xlink" viewBox="0 0 300 300" stroke="#403B3E">
  <defs>
    <style>
      .cls-3{fill:none;stroke-linecap:round;stroke-linejoin:round;stroke-width:12px;}</style>
  </defs>
  <g id="Layer_11" data-name="Layer 11">
    <path class="cls-3"
      d="M32,71.83C32,56.51,33.4,40,54.36,40S76.73,61.22,76.73,61.22v178S75.33,264,99.09,264s23.76-34.19,23.76-34.19" />
    <path class="cls-3" d="M199.72,40c21,0,22.36,21.22,22.36,21.22V227.45" />
    <line class="cls-3" x1="32" y1="73.01" x2="76.73" y2="73.01" />
    <line class="cls-3" x1="54.36" y1="40" x2="203.92" y2="40" />
    <path class="cls-3" d="M122.85,229.81H265.41s1.4,34.19-21,34.19H103.28" />
    <line class="cls-3" x1="109.81" y1="82.44" x2="174.65" y2="82.44" />
    <line class="cls-3" x1="110.99" y1="126.06" x2="175.83" y2="126.06" />
    <line class="cls-3" x1="110.99" y1="172.04" x2="175.83" y2="172.04" />
    <polyline class="cls-3" points="195.91 77.86 204.97 90.27 236.27 62.3" />
    <polyline class="cls-3" points="197.09 120.3 206.15 132.72 237.45 104.74" />
    <polyline class="cls-3" points="197.09 167.46 206.15 179.87 237.45 151.9" />
  </g>
</svg>
