<svg xmlns="http://www.w3.org/2000/svg" xmlns:xlink="http://www.w3.org/1999/xlink" viewBox="0 0 300 300"><defs><style>.cls-1{fill:#9f1744;}.cls-2{clip-path:url(#clip-path);}.cls-3{fill:none;stroke:#9f1744;stroke-linecap:round;stroke-linejoin:round;stroke-width:12px;}</style><clipPath id="clip-path"><path class="cls-1" d="M-1074.77,101a4.23,4.23,0,0,1-2.84-1.09,4.23,4.23,0,0,1-1.39-3.14V70.84a4.23,4.23,0,0,1,1.14-2.88l25.19-27.06a4.24,4.24,0,0,1,4.45-1.13,4.24,4.24,0,0,1,2.86,3.6l1.74,17.8,20.32,2.1a4.23,4.23,0,0,1,3.54,2.76,4.23,4.23,0,0,1-.93,4.39l-25.84,26.73a4.23,4.23,0,0,1-2.62,1.27l-25.19,2.55Zm4.23-28.5V92.08l19-1.92,18.71-19.36-15.11-1.56a4.23,4.23,0,0,1-3.78-3.8l-1.16-11.9Z"/></clipPath></defs><title>icons</title><g id="Layer_1" data-name="Layer 1"><path class="cls-1" d="M-1074.77,101a4.23,4.23,0,0,1-2.84-1.09,4.23,4.23,0,0,1-1.39-3.14V70.84a4.23,4.23,0,0,1,1.14-2.88l25.19-27.06a4.24,4.24,0,0,1,4.45-1.13,4.24,4.24,0,0,1,2.86,3.6l1.74,17.8,20.32,2.1a4.23,4.23,0,0,1,3.54,2.76,4.23,4.23,0,0,1-.93,4.39l-25.84,26.73a4.23,4.23,0,0,1-2.62,1.27l-25.19,2.55Zm4.23-28.5V92.08l19-1.92,18.71-19.36-15.11-1.56a4.23,4.23,0,0,1-3.78-3.8l-1.16-11.9Z"/><g class="cls-2"><path class="cls-1" d="M2067,9922.18H-1997.82a4.23,4.23,0,0,1-4.23-4.23V-2132.61a4.23,4.23,0,0,1,4.23-4.23H2067a4.23,4.23,0,0,1,4.23,4.23V9917.95A4.24,4.24,0,0,1,2067,9922.18Zm-4060.6-8.47H2062.78V-2128.37H-1993.59Z"/></g></g><g id="Layer_6" data-name="Layer 6"><path class="cls-3" d="M247.92,67.54c-8.8-6.55-20.77-6.27-30.7-.35,2.77-11.56-.58-23.18-9.54-29.24-12.25-8.3-29.41-3.75-40.4,11.65-16.79,23.54,5.1,79.82,5.1,79.82l.11.52.82-.09s59.51,5.71,77.88-20C261.65,95.58,260.18,76.66,247.92,67.54Z"/><path class="cls-3" d="M50.85,100.21c6-9.16,17.38-13,28.73-10.81-6.55-9.92-7.37-22-1-30.74,8.68-12,26.36-13.56,41.95-2.84C144.33,72.2,143,132.58,143,132.58l.08.52-.8.19s-54,25.69-80,7.75C47.52,131.26,42.43,113,50.85,100.21Z"/><path class="cls-3" d="M203.05,86.73c-14.32,16.18-28.8,32.6-37.19,50.81a159.22,159.22,0,0,0-7.33,20.17c-2.34,7.62-4.52,15.28-6.08,23a144,144,0,0,0-2.87,29.41"/><path class="cls-3" d="M100,101.84c13.47,4.81,25.78,11.6,34.83,20.45,11.38,11.14,17.07,24.92,22.56,38.4"/><path class="cls-1" d="M231.62,233.28a20.68,20.68,0,0,0-19-2.2,26.21,26.21,0,0,0-15.75-11.45,22.67,22.67,0,0,0-14,.83,28.85,28.85,0,0,0-11.38-11.15c-6.52-3.5-13.4-4.17-19.27-4.37-6.2-.2-14.29,0-21.87,3.71a31.07,31.07,0,0,0-13.73,13.27,24.35,24.35,0,0,0-13-.78A27.24,27.24,0,0,0,88.7,230a15.89,15.89,0,0,0-4.53-1.83,19.08,19.08,0,0,0-19.56,7.18,27.13,27.13,0,0,0-4.28,10.17,72.49,72.49,0,0,0-1.61,10,6,6,0,0,0,1.73,4.78A6,6,0,0,0,66,264H232.63a5.22,5.22,0,0,0,1.11.11,6,6,0,0,0,5.45-3.47C243.81,250.71,239,238.48,231.62,233.28ZM72,248.22a16.46,16.46,0,0,1,2.25-5.81,7.23,7.23,0,0,1,7.13-2.61,3.19,3.19,0,0,1,1.67.84A6,6,0,0,0,90.71,244s0,0,0,0a6,6,0,0,0,4.85-3.08,15.81,15.81,0,0,1,10.48-8,12.24,12.24,0,0,1,10.11,2.24,6,6,0,0,0,9.49-3.36,18.75,18.75,0,0,1,10-12.32c5.19-2.52,11.11-2.69,16.24-2.52,4.48.15,9.64.62,14,3a16.54,16.54,0,0,1,8.28,10.76,6,6,0,0,0,10,3.06,10.41,10.41,0,0,1,9.87-2.43,15,15,0,0,1,10.25,9.84,6,6,0,0,0,9.1,3c3.11-2.16,7.74-3.57,11.39-1,2.36,1.66,4.24,5.39,4.29,8.9H71.27Q71.57,250.09,72,248.22Z"/></g></svg>