<svg xmlns="http://www.w3.org/2000/svg" xmlns:xlink="http://www.w3.org/1999/xlink" viewBox="0 0 300 300"><defs><style>.cls-1{fill:#9f1744;}.cls-2{clip-path:url(#clip-path);}.cls-3{fill:none;}.cls-3,.cls-4{stroke:#9f1744;stroke-linecap:round;stroke-linejoin:round;stroke-width:12px;}.cls-4{fill:#fff;}</style><clipPath id="clip-path"><path class="cls-1" d="M-2034.77,101a4.23,4.23,0,0,1-2.84-1.09,4.23,4.23,0,0,1-1.39-3.14V70.84a4.23,4.23,0,0,1,1.14-2.88l25.19-27.06a4.24,4.24,0,0,1,4.45-1.13,4.24,4.24,0,0,1,2.86,3.6l1.74,17.8,20.32,2.1a4.23,4.23,0,0,1,3.54,2.76,4.23,4.23,0,0,1-.93,4.39l-25.84,26.73a4.23,4.23,0,0,1-2.62,1.27l-25.19,2.55Zm4.23-28.5V92.08l19-1.92,18.71-19.36-15.11-1.56a4.23,4.23,0,0,1-3.78-3.8l-1.16-11.9Z"/></clipPath></defs><title>icons</title><g id="Layer_1" data-name="Layer 1"><path class="cls-1" d="M-2034.77,101a4.23,4.23,0,0,1-2.84-1.09,4.23,4.23,0,0,1-1.39-3.14V70.84a4.23,4.23,0,0,1,1.14-2.88l25.19-27.06a4.24,4.24,0,0,1,4.45-1.13,4.24,4.24,0,0,1,2.86,3.6l1.74,17.8,20.32,2.1a4.23,4.23,0,0,1,3.54,2.76,4.23,4.23,0,0,1-.93,4.39l-25.84,26.73a4.23,4.23,0,0,1-2.62,1.27l-25.19,2.55Zm4.23-28.5V92.08l19-1.92,18.71-19.36-15.11-1.56a4.23,4.23,0,0,1-3.78-3.8l-1.16-11.9Z"/><g class="cls-2"><path class="cls-1" d="M1107,9922.18H-2957.82a4.23,4.23,0,0,1-4.23-4.23V-2132.61a4.23,4.23,0,0,1,4.23-4.23H1107a4.23,4.23,0,0,1,4.23,4.23V9917.95A4.24,4.24,0,0,1,1107,9922.18Zm-4060.6-8.47H1102.78V-2128.37H-2953.59Z"/></g></g><g id="Layer_9" data-name="Layer 9"><rect class="cls-3" x="23" y="50" width="254" height="212"/><line class="cls-3" x1="23" y1="69" x2="277" y2="69"/><path class="cls-3" d="M27,132s-1,26,20,26,19-26,19-26"/><path class="cls-3" d="M68,130s-1,26,20,26,19-26,19-26"/><path class="cls-3" d="M108,130s-1,26,20,26,19-26,19-26"/><path class="cls-3" d="M147,130s-1,26,20,26,19-26,19-26"/><path class="cls-3" d="M188,129s-1,26,20,26,19-26,19-26"/><path class="cls-3" d="M231,129s-1,26,20,26,19-26,19-26"/><rect class="cls-4" x="48" y="184" width="119" height="51"/><rect class="cls-4" x="196" y="185" width="47" height="77"/><line class="cls-3" x1="74" y1="215" x2="86" y2="202"/><line class="cls-3" x1="98" y1="215" x2="102" y2="210"/><line class="cls-3" x1="23" y1="123" x2="277" y2="123"/><line class="cls-3" x1="66" y1="123" x2="66" y2="69"/><line class="cls-3" x1="108" y1="123" x2="108" y2="69"/><line class="cls-3" x1="147" y1="123" x2="147" y2="69"/><line class="cls-3" x1="186" y1="123" x2="186" y2="69"/><line class="cls-3" x1="227" y1="123" x2="227" y2="69"/></g></svg>