<svg xmlns="http://www.w3.org/2000/svg" xmlns:xlink="http://www.w3.org/1999/xlink"
  viewBox="0 0 300 300">
  <defs>
    <style>
      .cls-1{fill:#9f1744;}.cls-2{clip-path:url(#clip-path);}.cls-3{fill:none;}.cls-3,.cls-4{stroke:#9f1744;stroke-linecap:round;stroke-linejoin:round;stroke-width:12px;}</style>
    <clipPath id="clip-path">
      <path class="cls-1"
        d="M-1714.77,101a4.23,4.23,0,0,1-2.84-1.09,4.23,4.23,0,0,1-1.39-3.14V70.84a4.23,4.23,0,0,1,1.14-2.88l25.19-27.06a4.24,4.24,0,0,1,4.45-1.13,4.24,4.24,0,0,1,2.86,3.6l1.74,17.8,20.32,2.1a4.23,4.23,0,0,1,3.54,2.76,4.23,4.23,0,0,1-.93,4.39l-25.84,26.73a4.23,4.23,0,0,1-2.62,1.27l-25.19,2.55Zm4.23-28.5V92.08l19-1.92,18.71-19.36-15.11-1.56a4.23,4.23,0,0,1-3.78-3.8l-1.16-11.9Z" />
    </clipPath>
  </defs>
  <title>icons</title>
  <g id="Layer_1" data-name="Layer 1">
    <path class="cls-1"
      d="M-1714.77,101a4.23,4.23,0,0,1-2.84-1.09,4.23,4.23,0,0,1-1.39-3.14V70.84a4.23,4.23,0,0,1,1.14-2.88l25.19-27.06a4.24,4.24,0,0,1,4.45-1.13,4.24,4.24,0,0,1,2.86,3.6l1.74,17.8,20.32,2.1a4.23,4.23,0,0,1,3.54,2.76,4.23,4.23,0,0,1-.93,4.39l-25.84,26.73a4.23,4.23,0,0,1-2.62,1.27l-25.19,2.55Zm4.23-28.5V92.08l19-1.92,18.71-19.36-15.11-1.56a4.23,4.23,0,0,1-3.78-3.8l-1.16-11.9Z" />
    <g class="cls-2">
      <path class="cls-1"
        d="M1427,9922.18H-2637.82a4.23,4.23,0,0,1-4.23-4.23V-2132.61a4.23,4.23,0,0,1,4.23-4.23H1427a4.23,4.23,0,0,1,4.23,4.23V9917.95A4.24,4.24,0,0,1,1427,9922.18Zm-4060.6-8.47H1422.78V-2128.37H-2633.59Z" />
    </g>
  </g>
  <g id="Layer_8" data-name="Layer 8">
    <line class="cls-3" x1="117.56" y1="201.01" x2="117.56" y2="280" />
    <line class="cls-3" x1="176.08" y1="201.01" x2="176.08" y2="280" />
    <rect class="cls-3" x="103.91" y="166.87" width="82.9" height="34.13" />
    <circle class="cls-1" cx="122.44" cy="183.45" r="5.85" />
    <line class="cls-3" x1="120.49" y1="166.87" x2="120.49" y2="142.49" />
    <line class="cls-3" x1="169.25" y1="161.02" x2="169.25" y2="136.64" />
    <path class="cls-3"
      d="M183.51,83.65h0a9.34,9.34,0,0,0-8.37,4.67V42.81C175.14,38.54,171,35,166,35s-9.15,3.5-9.15,7.78v-10c0-4.28-4.12-7.78-9.15-7.78s-9.15,3.5-9.15,7.78V48c0-4.28-4.12-7.78-9.15-7.78s-9.15,3.5-9.15,7.78V71.06c0-5.89-4.12-10.71-9.15-10.71S102,65.16,102,71.06v60.21c0,10.47,10.07,19,22.38,19h46.09c12.22,0,22.23-8.5,22.23-18.89v-40C192.66,87.15,188.54,83.65,183.51,83.65Z" />
    <line class="cls-3" x1="120.43" y1="69.68" x2="120.43" y2="97.72" />
    <line class="cls-3" x1="138.91" y1="47.78" x2="138.91" y2="87.21" />
    <line class="cls-3" x1="156.55" y1="42.52" x2="156.55" y2="88.96" />
    <line class="cls-3" x1="175.02" y1="88.08" x2="175.02" y2="111.74" />
    <path class="cls-3" d="M174.64,111.91a23.65,23.65,0,0,0-12.11,6.56,24,24,0,0,0-6,10.79" />
    <line class="cls-3" x1="22.49" y1="222.61" x2="22.49" y2="281" />
    <line class="cls-3" x1="65.75" y1="222.61" x2="65.75" y2="281" />
    <rect class="cls-3" x="12.4" y="197.38" width="61.27" height="25.23" />
    <circle class="cls-1" cx="26.1" cy="209.63" r="4.33" />
    <line class="cls-3" x1="24.66" y1="197.38" x2="24.66" y2="179.36" />
    <line class="cls-3" x1="60.7" y1="193.05" x2="60.7" y2="175.03" />
    <path class="cls-3"
      d="M71.24,135.86h0A6.91,6.91,0,0,0,65,139.31V105.68c0-3.16-3-5.75-6.76-5.75s-6.76,2.59-6.76,5.75V98.26c0-3.16-3-5.75-6.76-5.75S38,95.1,38,98.26v11.25c0-3.16-3-5.75-6.76-5.75s-6.76,2.59-6.76,5.75v17c0-4.36-3-7.92-6.76-7.92S11,122.2,11,126.55v44.5c0,7.74,7.45,14.07,16.54,14.07H61.57c9,0,16.43-6.28,16.43-14V141.61C78,138.45,75,135.86,71.24,135.86Z" />
    <line class="cls-3" x1="24.62" y1="125.54" x2="24.62" y2="146.27" />
    <line class="cls-3" x1="38.27" y1="109.35" x2="38.27" y2="138.49" />
    <line class="cls-3" x1="51.31" y1="105.46" x2="51.31" y2="139.79" />
    <line class="cls-3" x1="64.96" y1="139.14" x2="64.96" y2="156.63" />
    <path class="cls-3" d="M64.68,156.75a17.48,17.48,0,0,0-8.95,4.85,17.75,17.75,0,0,0-4.43,8" />
    <line class="cls-3" x1="227.49" y1="219.61" x2="227.49" y2="278" />
    <line class="cls-3" x1="270.75" y1="219.61" x2="270.75" y2="278" />
    <rect class="cls-3" x="217.4" y="194.38" width="61.27" height="25.23" />
    <circle class="cls-1" cx="231.1" cy="206.63" r="4.33" />
    <line class="cls-3" x1="229.66" y1="194.38" x2="229.66" y2="176.36" />
    <line class="cls-3" x1="265.7" y1="190.05" x2="265.7" y2="172.03" />
    <path class="cls-3"
      d="M276.24,132.86h0a6.91,6.91,0,0,0-6.19,3.45V102.68c0-3.16-3-5.75-6.76-5.75s-6.76,2.59-6.76,5.75V95.26c0-3.16-3-5.75-6.76-5.75S243,92.1,243,95.26v11.25c0-3.16-3-5.75-6.76-5.75s-6.76,2.59-6.76,5.75v17c0-4.36-3-7.92-6.76-7.92S216,119.2,216,123.55v44.5c0,7.74,7.45,14.07,16.54,14.07h34.07c9,0,16.43-6.28,16.43-14V138.61C283,135.45,280,132.86,276.24,132.86Z" />
    <line class="cls-3" x1="229.62" y1="122.54" x2="229.62" y2="143.27" />
    <line class="cls-3" x1="243.27" y1="106.35" x2="243.27" y2="135.49" />
    <line class="cls-3" x1="256.31" y1="102.46" x2="256.31" y2="136.79" />
    <line class="cls-3" x1="269.96" y1="136.14" x2="269.96" y2="153.63" />
    <path class="cls-3" d="M269.68,153.75a17.48,17.48,0,0,0-8.95,4.85,17.75,17.75,0,0,0-4.43,8" />
  </g>
</svg>
