<?xml version="1.0" encoding="utf-8"?>
<!-- Generator: Adobe Illustrator 21.0.2, SVG Export Plug-In . SVG Version: 6.00 Build 0)  -->
<svg version="1.1" xmlns="http://www.w3.org/2000/svg" xmlns:xlink="http://www.w3.org/1999/xlink" x="0px" y="0px" width="300px"
	 height="300px" viewBox="0 0 300 300" style="enable-background:new 0 0 300 300;" xml:space="preserve">
<style type="text/css">
	.st0{fill:none;}
	.st1{fill:#9F1744;}
	.st2{fill:#454A73;}
	.st3{fill:#FFFFFF;}
	.st4{fill:#FE7635;}
	.st5{display:none;fill:none;stroke:#454A73;stroke-width:12;stroke-linecap:round;stroke-linejoin:round;stroke-miterlimit:10;}
	.st6{fill:none;stroke:#454A73;stroke-width:10;stroke-linecap:round;stroke-linejoin:round;stroke-miterlimit:10;}
</style>
<g id="test_x5F_back">
</g>
<g id="Layer_1">
</g>
<g id="Layer_2">
</g>
<g id="global">
</g>
<g id="_x21_">
</g>
<g id="Layer_6">
</g>
<g id="Layer_7">
</g>
<g id="Layer_8">
</g>
<g id="Layer_9">
</g>
<g id="Layer_10">
</g>
<g id="Layer_11">
	<g>
		<g>
			<path class="st2" d="M99.1,270c-8.5,0-15.4-2.7-20.4-8c-8.1-8.6-8-21-7.9-22.9V61.5c-0.2-2.2-2-15.5-16.4-15.5
				C41.8,46,38,52,38,71.8c0,3.3-2.7,6-6,6s-6-2.7-6-6C26,59.6,26,34,54.4,34c21,0,27.7,17.5,28.4,26.8c0,0.1,0,0.3,0,0.4v178
				c0,0.1,0,0.2,0,0.3c0,0.1-0.4,8.9,4.7,14.2c2.7,2.8,6.5,4.2,11.7,4.2c17.6,0,17.8-27.9,17.8-28.2c0-3.3,2.7-6,6-6s6,2.7,6,6
				C128.8,243.7,122.6,270,99.1,270z"/>
		</g>
		<g>
			<path class="st2" d="M222.1,233.5c-3.3,0-6-2.7-6-6v-166c-0.2-2.1-2-15.5-16.4-15.5c-3.3,0-6-2.7-6-6s2.7-6,6-6
				c21,0,27.7,17.5,28.4,26.8c0,0.1,0,0.3,0,0.4v166.2C228.1,230.8,225.4,233.5,222.1,233.5z"/>
		</g>
		<g>
			<path class="st2" d="M76.7,79H32c-3.3,0-6-2.7-6-6s2.7-6,6-6h44.7c3.3,0,6,2.7,6,6S80,79,76.7,79z"/>
		</g>
		<g>
			<path class="st2" d="M203.9,46H54.4c-3.3,0-6-2.7-6-6s2.7-6,6-6h149.6c3.3,0,6,2.7,6,6S207.2,46,203.9,46z"/>
		</g>
		<g>
			<path class="st2" d="M244.4,270H103.3c-3.3,0-6-2.7-6-6s2.7-6,6-6h141.2c3.4,0,6-1.1,8.2-3.4c4.4-4.5,6-12.8,6.5-18.8H122.8
				c-3.3,0-6-2.7-6-6s2.7-6,6-6h142.6c3.2,0,5.9,2.5,6,5.8c0,0.2,0.2,5.5-0.8,12.1c-1.5,9.3-4.6,16.4-9.2,21.3
				C256.9,267.6,251.1,270,244.4,270z"/>
		</g>
	</g>
	<g>
		<path class="st2" d="M185.7,82.4h-64.8c-3.3,0-6-2.7-6-6s2.7-6,6-6h64.8c3.3,0,6,2.7,6,6S189,82.4,185.7,82.4z"/>
	</g>
	<g>
		<path class="st2" d="M185.7,113h-64.8c-3.3,0-6-2.7-6-6s2.7-6,6-6h64.8c3.3,0,6,2.7,6,6S189,113,185.7,113z"/>
	</g>
	<g>
		<path class="st2" d="M185.7,144h-64.8c-3.3,0-6-2.7-6-6s2.7-6,6-6h64.8c3.3,0,6,2.7,6,6S189,144,185.7,144z"/>
	</g>
	<g>
		<path class="st2" d="M144,204.3c-0.2,0-0.4,0-0.6,0c-1.7-0.2-3.2-1.1-4.2-2.4l-9.1-12.4c-2-2.7-1.4-6.4,1.3-8.4
			c2.7-2,6.4-1.4,8.4,1.3l5.2,7.1l26.4-23.6c2.5-2.2,6.3-2,8.5,0.5c2.2,2.5,2,6.3-0.5,8.5l-31.3,28
			C146.9,203.7,145.4,204.3,144,204.3z"/>
	</g>
</g>
<g id="Layer_12">
</g>
<g id="Layer_13">
</g>
<g id="DOWNLOAD">
</g>
<g id="Layer_15">
</g>
<g id="Layer_16">
</g>
<g id="Layer_17">
</g>
<g id="Layer_18">
</g>
<g id="Layer_19">
</g>
<g id="Layer_20">
</g>
<g id="Layer_21">
</g>
<g id="Layer_22">
</g>
<g id="Layer_23">
</g>
<g id="Layer_24">
</g>
<g id="Layer_25">
</g>
</svg>
