<svg xmlns="http://www.w3.org/2000/svg" viewBox="0 0 37.98 37.07" fill="#403B3E">
  <g id="Layer_1-2" data-name="Layer 1">
    <path d="M30.87,30.23l-.3.27c0-.62,0-1.25,0-1.89,0-.28,0-.53,0-.76a4.57,4.57,0,0,0-1.21-4,13.52,13.52,0,0,0-3.79-3A3.15,3.15,0,0,1,24,18.46a2,2,0,0,1,.89-1.74c1.08-.83,2-.59,3.59-.06a12.41,12.41,0,0,0,2.42.61,16.88,16.88,0,0,0,4.86-.33c.05.52.09,1,.09,1.58a16.14,16.14,0,0,1-5,11.71M2.11,18.52A16.09,16.09,0,0,1,2.5,15c.57.17,1.16.37,1.75.59s1.58.65,1.86,1.5c.12.37,0,.67-.5,1.37-.12.18-.23.36-.34.53-.81,1.36-2.72,4.54,1,6.81A15.89,15.89,0,0,0,9,27.05c1.41.52,2.86,1.06,3.49,1.88.06.1.22.48.35.78,1.09,2.52,2.13,4.61,3.73,4.65h0c.56,0,1.32-.26,1.91-1.46a3.61,3.61,0,0,0-.2-2.87,4.08,4.08,0,0,1-.26-.9,7.13,7.13,0,0,1,1.09-3.27,4.47,4.47,0,0,0,.57-3.65,5,5,0,0,0-2.86-2.57l-.24-.1c-.95-.42-1.06-.49-1.16-1.07l-.06-.35c-.21-1.4-.5-2.06-2.36-2.54-.26-.07-.55-.12-.83-.17-.93-.17-1.27-.28-1.34-.55-.13-.56.53-1.48.78-1.82a7.41,7.41,0,0,1,2-1.71,12.15,12.15,0,0,0,1.88-1.47,2.78,2.78,0,0,0,.9-3.17A3.51,3.51,0,0,0,13,4.9h-.94v0a3,3,0,0,1,.21-.74,7.2,7.2,0,0,0,.27-.85c.25-.1.49-.21.75-.3a17.42,17.42,0,0,1,9.33-.55c0,.23,0,.45,0,.67A3.37,3.37,0,0,1,22.15,5a2.1,2.1,0,0,1-.45.4,2.26,2.26,0,0,0-1,2.13,3.84,3.84,0,0,0,.13.91,2,2,0,0,1,.08.47,1.47,1.47,0,0,1-.23.5,4,4,0,0,0-.42.92A2.25,2.25,0,0,0,21,13a2.56,2.56,0,0,0,1.42.4,3.54,3.54,0,0,0,2.07-.7,5.09,5.09,0,0,0,1.1-1.23c.4-.57.66-.91.95-.94l.19.14a4.16,4.16,0,0,0,.45.33,5.94,5.94,0,0,0,4.91.66,18.3,18.3,0,0,0,2-.52c.05.11.12.21.17.32a15.28,15.28,0,0,1,.92,2.37c.11.35.2.71.28,1.07a15.06,15.06,0,0,1-4.28.33,10.66,10.66,0,0,1-2-.52c-1.65-.55-3.53-1.16-5.56.39a4,4,0,0,0-1.69,3.47,5.22,5.22,0,0,0,2.61,4,11.49,11.49,0,0,1,3.26,2.55,2.68,2.68,0,0,1,.75,2.59c0,.24,0,.51,0,.81-.05,1.23,0,2.44,0,3.61A17,17,0,0,1,19,35,16.7,16.7,0,0,1,2.11,18.52M4.4,10.23A16.62,16.62,0,0,1,10,4.58c0,.05,0,.11,0,.17a2.15,2.15,0,0,0,.51,1.69A2.59,2.59,0,0,0,12.57,7H13c.8,0,1.34.27,1.45.53s-.09.55-.47.93a10.4,10.4,0,0,1-1.57,1.21,9.13,9.13,0,0,0-2.52,2.22,4.41,4.41,0,0,0-1.11,3.45c.37,1.65,2,1.94,3,2.13.23,0,.46.08.67.14a5.62,5.62,0,0,1,.69.23,3.71,3.71,0,0,1,.13.64l.06.37a3.25,3.25,0,0,0,2.36,2.61l.23.1c1,.45,1.58.9,1.75,1.37a2.75,2.75,0,0,1-.45,2,8.6,8.6,0,0,0-1.32,4.33,5.3,5.3,0,0,0,.38,1.47c.16.45.39,1.07.28,1.3l-.08.15a13.28,13.28,0,0,1-1.75-3.26,6.28,6.28,0,0,0-.57-1.16c-1-1.36-2.78-2-4.47-2.63a14.3,14.3,0,0,1-2.38-1c-1.53-.94-1.59-1.81-.26-4,.09-.16.19-.31.29-.46a3.46,3.46,0,0,0,.73-3.11A4.93,4.93,0,0,0,5,13.69c-.65-.24-1.29-.45-1.92-.64a16.13,16.13,0,0,1,1.14-2.49ZM33,9.33c-.42.13-.86.24-1.31.33a3.92,3.92,0,0,1-3.35-.38,2,2,0,0,1-.22-.17,2.25,2.25,0,0,0-1.66-.62,3.44,3.44,0,0,0-2.57,1.82,3.62,3.62,0,0,1-.62.75,1.14,1.14,0,0,1-1,.25.66.66,0,0,1,0-.37,2.21,2.21,0,0,1,.22-.46A3.21,3.21,0,0,0,23,9.2,3.31,3.31,0,0,0,22.84,8a2.37,2.37,0,0,1-.08-.44,2.28,2.28,0,0,1,0-.35A1.16,1.16,0,0,1,23,7.1a4.07,4.07,0,0,0,.84-.77,5,5,0,0,0,.92-3.1c0-.07,0-.13,0-.2a16.42,16.42,0,0,1,2.1.89A16.84,16.84,0,0,1,33,9.33m4.21,3.94a17.3,17.3,0,0,0-1-2.68A18.86,18.86,0,0,0,27.81,2.1a19.61,19.61,0,0,0-15.19-1A18.82,18.82,0,0,0,2.37,9.55l-.2.37h0A18.17,18.17,0,0,0,0,18.52,18.79,18.79,0,0,0,19,37.07a19.07,19.07,0,0,0,13.36-5.37A18.16,18.16,0,0,0,38,18.52a18,18,0,0,0-.78-5.26" />
  </g>
</svg>
