<?xml version="1.0" encoding="utf-8"?>
<!-- Generator: Adobe Illustrator 21.0.2, SVG Export Plug-In . SVG Version: 6.00 Build 0)  -->
<svg version="1.1" xmlns="http://www.w3.org/2000/svg" xmlns:xlink="http://www.w3.org/1999/xlink" x="0px" y="0px"
	 viewBox="0 0 298 300" style="enable-background:new 0 0 298 300;" xml:space="preserve">
<style type="text/css">
	.st0{fill:none;}
	.st1{fill:#403B3E;}
	.st2{fill:#9F1744;}
	.st3{fill:#454A73;}
	.st4{fill:#FFFFFF;}
	.st5{fill:#FE7635;}
	.st6{fill:#FFFEFD;}
	.st7{display:none;fill:none;stroke:#454A73;stroke-width:12;stroke-linecap:round;stroke-linejoin:round;stroke-miterlimit:10;}
	.st8{fill:none;stroke:#454A73;stroke-width:10;stroke-linecap:round;stroke-linejoin:round;stroke-miterlimit:10;}
	.st9{fill:none;stroke:#454A73;stroke-width:12;stroke-linecap:round;stroke-linejoin:round;stroke-miterlimit:10;}
</style>
<g id="test_x5F_back">
</g>
<g id="Layer_1">
</g>
<g id="Layer_2">
</g>
<g id="global">
</g>
<g id="_x21_">
</g>
<g id="Layer_6">
</g>
<g id="Layer_7">
</g>
<g id="Layer_8">
</g>
<g id="Layer_9">
</g>
<g id="Layer_10">
</g>
<g id="Layer_11">
</g>
<g id="Layer_12">
</g>
<g id="Layer_13">
</g>
<g id="DOWNLOAD">
</g>
<g id="Layer_15">
</g>
<g id="Layer_16">
</g>
<g id="Layer_17">
</g>
<g id="Layer_18">
</g>
<g id="Layer_19">
</g>
<g id="Layer_20">
</g>
<g id="Layer_21">
</g>
<g id="Layer_22">
</g>
<g id="Layer_23">
</g>
<g id="Layer_24">
</g>
<g id="Layer_25">
</g>
<g id="Layer_26">
	<g>
		<path class="st3" d="M57.5,244c-3.5,0-6.3-2.8-6.3-6.3v-79.3c0-3.5,2.8-6.3,6.3-6.3s6.3,2.8,6.3,6.3v79.3
			C63.8,241.1,61,244,57.5,244z"/>
	</g>
	<g>
		<path class="st3" d="M84.9,227.4c-3.5,0-6.3-2.8-6.3-6.3v-43.8c0-3.5,2.8-6.3,6.3-6.3c3.5,0,6.3,2.8,6.3,6.3V221
			C91.2,224.5,88.4,227.4,84.9,227.4z"/>
	</g>
	<g>
		<path class="st3" d="M109.2,227.4c-3.5,0-6.3-2.8-6.3-6.3v-43.8c0-3.5,2.8-6.3,6.3-6.3c3.5,0,6.3,2.8,6.3,6.3V221
			C115.5,224.5,112.7,227.4,109.2,227.4z"/>
	</g>
	<g>
		<path class="st3" d="M184.1,227.4c-3.5,0-6.3-2.8-6.3-6.3v-43.8c0-3.5,2.8-6.3,6.3-6.3s6.3,2.8,6.3,6.3V221
			C190.4,224.5,187.6,227.4,184.1,227.4z"/>
	</g>
	<g>
		<path class="st3" d="M209.2,227.4c-3.5,0-6.3-2.8-6.3-6.3v-43.8c0-3.5,2.8-6.3,6.3-6.3c3.5,0,6.3,2.8,6.3,6.3V221
			C215.6,224.5,212.7,227.4,209.2,227.4z"/>
	</g>
	<g>
		<path class="st3" d="M240.7,239.4c-3.5,0-6.3-2.8-6.3-6.3v-74.8c0-3.5,2.8-6.3,6.3-6.3c3.5,0,6.3,2.8,6.3,6.3v74.8
			C247,236.6,244.2,239.4,240.7,239.4z"/>
	</g>
	<g>
		<path class="st3" d="M134.8,227.4c-3.5,0-6.3-2.8-6.3-6.3v-43.8c0-3.5,2.8-6.3,6.3-6.3s6.3,2.8,6.3,6.3V221
			C141.1,224.5,138.3,227.4,134.8,227.4z"/>
	</g>
	<g>
		<path class="st3" d="M159.8,227.4c-3.5,0-6.3-2.8-6.3-6.3v-43.8c0-3.5,2.8-6.3,6.3-6.3c3.5,0,6.3,2.8,6.3,6.3V221
			C166.2,224.5,163.3,227.4,159.8,227.4z"/>
	</g>
	<g>
		<path class="st3" d="M265.7,275.7H32.3c-3.5,0-6.3-2.8-6.3-6.3v-15.9c0-3.5,2.8-6.3,6.3-6.3h233.3c3.5,0,6.3,2.8,6.3,6.3v15.9
			C272,272.9,269.2,275.7,265.7,275.7z M38.7,263h220.7v-3.2H38.7V263z"/>
	</g>
	<g>
		<path class="st3" d="M249.6,259.8H49.4c-3.5,0-6.3-2.8-6.3-6.3v-15.9c0-3.5,2.8-6.3,6.3-6.3h200.3c3.5,0,6.3,2.8,6.3,6.3v15.9
			C256,257,253.1,259.8,249.6,259.8z M55.7,247.2h187.6V244H55.7V247.2z"/>
	</g>
	<g>
		<path class="st3" d="M244.8,164C244.7,164,244.7,164,244.8,164l-192.4-0.1c-1.7,0-3.3-0.7-4.5-1.9c-1.2-1.2-1.9-2.8-1.9-4.5
			l0-15.9c0-3.5,2.8-6.3,6.3-6.3c0,0,0,0,0,0l192.4,0.1c3.5,0,6.3,2.8,6.3,6.3l0,15.9c0,1.7-0.7,3.3-1.9,4.5
			C248,163.3,246.4,164,244.8,164z M58.7,151.2l179.7,0.1l0-3.2L58.7,148L58.7,151.2z"/>
	</g>
	<g>
		<path class="st3" d="M232.2,147.6C232.2,147.6,232.2,147.6,232.2,147.6c-3.5,0-6.3-2.8-6.3-6.3l0-9.5l-151.2-0.1l0,9.5
			c0,3.5-2.8,6.3-6.3,6.3c0,0,0,0,0,0c-3.5,0-6.3-2.8-6.3-6.3l0-15.9c0-1.7,0.7-3.3,1.9-4.5c1.2-1.2,2.8-1.9,4.5-1.9c0,0,0,0,0,0
			l163.9,0.1c3.5,0,6.3,2.8,6.3,6.3l0,15.9C238.5,144.7,235.7,147.6,232.2,147.6z"/>
	</g>
	<g>
		<path class="st3" d="M216.6,130.9C216.6,130.9,216.6,130.9,216.6,130.9c-3.5,0-6.3-2.8-6.3-6.3c0-12.3-6-24-16.9-32.9
			c-11.3-9.2-26.3-14.2-42.4-14.3c0,0,0,0-0.1,0c-32.7,0-59.2,21.1-59.3,47c0,3.5-2.8,6.3-6.3,6.3c0,0,0,0,0,0
			c-3.5,0-6.3-2.8-6.3-6.3c0-32.9,32.3-59.7,71.9-59.7c0,0,0,0,0.1,0c19,0,36.9,6.1,50.4,17.1c13.9,11.3,21.5,26.5,21.5,42.7
			C222.9,128.1,220.1,130.9,216.6,130.9z"/>
	</g>
	<g>
		<path class="st3" d="M150.4,71.7C150.4,71.7,150.4,71.7,150.4,71.7c-3.5,0-6.3-2.8-6.3-6.3l0-31.7c0-3.5,2.8-6.3,6.3-6.3
			c0,0,0,0,0,0c3.5,0,6.3,2.8,6.3,6.3l0,31.7C156.7,68.9,153.9,71.7,150.4,71.7z"/>
	</g>
	<g>
		<path class="st3" d="M181.9,58C181.9,58,181.9,58,181.9,58l-31.5,0c-3.5,0-6.3-2.8-6.3-6.3l0-22.3c0-1.7,0.7-3.3,1.9-4.5
			c1.2-1.2,2.8-1.9,4.5-1.9c0,0,0,0,0,0l31.5,0c3.5,0,6.3,2.8,6.3,6.3l0,22.3c0,1.7-0.7,3.3-1.9,4.5C185.2,57.3,183.6,58,181.9,58z
			 M156.7,45.3l18.8,0l0-9.6l-18.8,0L156.7,45.3z"/>
	</g>
</g>
<g id="Layer_27">
</g>
</svg>
