<svg xmlns="http://www.w3.org/2000/svg" viewBox="0 0 454 300"><defs><style>.cls-1{fill:none;stroke:#9f1744;stroke-linecap:round;stroke-linejoin:round;stroke-width:12px;}</style></defs><title>government-2</title><g id="Layer_13" data-name="Layer 13"><rect class="cls-1" x="151.04" y="122.82" width="150.92" height="138.18"/><line class="cls-1" x1="151.04" y1="143.92" x2="301.96" y2="143.92"/><polygon class="cls-1" points="225.93 70.08 130.61 122.3 321.25 122.3 225.93 70.08"/><line class="cls-1" x1="225.93" y1="70.08" x2="225.93" y2="24.73"/><rect class="cls-1" x="225.93" y="21.56" width="44.26" height="27.42"/><line class="cls-1" x1="182.81" y1="143.93" x2="182.81" y2="261"/><line class="cls-1" x1="269.05" y1="146.39" x2="269.05" y2="261"/><rect class="cls-1" x="212.32" y="163.41" width="27.23" height="27.23"/><path class="cls-1" d="M223.78,211.07h4.31a16,16,0,0,1,16,16V261a0,0,0,0,1,0,0H207.78a0,0,0,0,1,0,0V227.07A16,16,0,0,1,223.78,211.07Z"/><rect class="cls-1" x="301.96" y="179.3" width="105.53" height="81.7"/><polygon class="cls-1" points="407.5 179.3 301.96 179.3 301.96 158.87 418.84 158.87 407.5 179.3"/><rect class="cls-1" x="76.14" y="200.86" width="46.53" height="27.23" transform="translate(198.81 428.95) rotate(-180)"/><rect class="cls-1" x="45.5" y="179.3" width="105.53" height="81.7" transform="translate(196.54 440.3) rotate(-180)"/><polygon class="cls-1" points="45.5 179.3 151.04 179.3 151.04 158.87 34.16 158.87 45.5 179.3"/><rect class="cls-1" x="331.47" y="200.86" width="46.53" height="27.23" transform="translate(709.46 428.95) rotate(-180)"/><line class="cls-1" x1="16" y1="261" x2="437" y2="261"/></g></svg>