<?xml version="1.0" encoding="utf-8"?>
<!-- Generator: Adobe Illustrator 21.0.2, SVG Export Plug-In . SVG Version: 6.00 Build 0)  -->
<svg version="1.1" xmlns="http://www.w3.org/2000/svg" xmlns:xlink="http://www.w3.org/1999/xlink" x="0px" y="0px" width="454px"
	 height="254px" viewBox="0 0 454 254" style="enable-background:new 0 0 454 254;" xml:space="preserve">
<style type="text/css">
	.st0{fill:none;}
	.st1{fill:#9F1744;}
	.st2{fill:#454A73;}
	.st3{fill:#FFFFFF;}
	.st4{fill:#FE7635;}
	.st5{display:none;fill:none;stroke:#454A73;stroke-width:12;stroke-linecap:round;stroke-linejoin:round;stroke-miterlimit:10;}
	.st6{fill:none;stroke:#454A73;stroke-width:10;stroke-linecap:round;stroke-linejoin:round;stroke-miterlimit:10;}
</style>
<g id="test_x5F_back">
</g>
<g id="Layer_1">
</g>
<g id="Layer_2">
</g>
<g id="global">
</g>
<g id="_x21_">
</g>
<g id="Layer_6">
</g>
<g id="Layer_7">
</g>
<g id="Layer_8">
</g>
<g id="Layer_9">
</g>
<g id="Layer_10">
</g>
<g id="Layer_11">
</g>
<g id="Layer_12">
</g>
<g id="Layer_13">
	<g>
		<path class="st1" d="M302,251H151c-3.3,0-6-2.7-6-6V106.8c0-3.3,2.7-6,6-6H302c3.3,0,6,2.7,6,6V245C308,248.3,305.3,251,302,251z
			 M157,239H296V112.8H157V239z"/>
	</g>
	<g>
		<path class="st1" d="M302,133.9H151c-3.3,0-6-2.7-6-6s2.7-6,6-6H302c3.3,0,6,2.7,6,6S305.3,133.9,302,133.9z"/>
	</g>
	<g>
		<path class="st1" d="M321.3,112.3H130.6c-2.7,0-5.1-1.9-5.8-4.5c-0.7-2.7,0.5-5.4,2.9-6.8L223,48.8c1.8-1,4-1,5.8,0l95.3,52.2
			c2.4,1.3,3.6,4.1,2.9,6.8C326.4,110.4,324,112.3,321.3,112.3z M154.1,100.3h143.8l-71.9-39.4L154.1,100.3z"/>
	</g>
	<g>
		<path class="st1" d="M225.9,60.1c-3.3,0-6-2.7-6-6V8.7c0-3.3,2.7-6,6-6s6,2.7,6,6v45.4C231.9,57.4,229.2,60.1,225.9,60.1z"/>
	</g>
	<g>
		<path class="st1" d="M270.2,39h-44.3c-3.3,0-6-2.7-6-6V5.6c0-3.3,2.7-6,6-6h44.3c3.3,0,6,2.7,6,6V33C276.2,36.3,273.5,39,270.2,39
			z M231.9,27h32.3V11.6h-32.3V27z"/>
	</g>
	<g>
		<path class="st1" d="M182.8,251c-3.3,0-6-2.7-6-6V127.9c0-3.3,2.7-6,6-6s6,2.7,6,6V245C188.8,248.3,186.1,251,182.8,251z"/>
	</g>
	<g>
		<path class="st1" d="M269.1,251c-3.3,0-6-2.7-6-6V130.4c0-3.3,2.7-6,6-6s6,2.7,6,6V245C275.1,248.3,272.4,251,269.1,251z"/>
	</g>
	<g>
		<path class="st1" d="M239.5,180.6h-27.2c-3.3,0-6-2.7-6-6v-27.2c0-3.3,2.7-6,6-6h27.2c3.3,0,6,2.7,6,6v27.2
			C245.5,178,242.9,180.6,239.5,180.6z M218.3,168.6h15.2v-15.2h-15.2V168.6z"/>
	</g>
	<g>
		<path class="st1" d="M244.1,251h-36.3c-3.3,0-6-2.7-6-6v-33.9c0-12.1,9.9-22,22-22h4.3c12.1,0,22,9.9,22,22V245
			C250.1,248.3,247.4,251,244.1,251z M213.8,239h24.3v-27.9c0-5.5-4.5-10-10-10h-4.3c-5.5,0-10,4.5-10,10V239z"/>
	</g>
	<g>
		<path class="st1" d="M407.5,251H302c-3.3,0-6-2.7-6-6v-81.7c0-3.3,2.7-6,6-6h105.5c3.3,0,6,2.7,6,6V245
			C413.5,248.3,410.8,251,407.5,251z M308,239h93.5v-69.7H308V239z"/>
	</g>
	<g>
		<path class="st1" d="M407.5,169.3H302c-3.3,0-6-2.7-6-6v-20.4c0-3.3,2.7-6,6-6h116.9c2.1,0,4.1,1.1,5.2,3s1.1,4.1,0.1,6
			l-11.3,20.4C411.7,168.1,409.7,169.3,407.5,169.3z M308,157.3h96l4.7-8.4H308V157.3z"/>
	</g>
	<g>
		<path class="st1" d="M122.7,218.1H76.1c-3.3,0-6-2.7-6-6v-27.2c0-3.3,2.7-6,6-6h46.5c3.3,0,6,2.7,6,6v27.2
			C128.7,215.4,126,218.1,122.7,218.1z M82.1,206.1h34.5v-15.2H82.1V206.1z"/>
	</g>
	<g>
		<path class="st1" d="M151,251H45.5c-3.3,0-6-2.7-6-6v-81.7c0-3.3,2.7-6,6-6H151c3.3,0,6,2.7,6,6V245C157,248.3,154.4,251,151,251z
			 M51.5,239H145v-69.7H51.5V239z"/>
	</g>
	<g>
		<path class="st1" d="M151,169.3H45.5c-2.2,0-4.2-1.2-5.2-3.1l-11.3-20.4c-1-1.9-1-4.1,0.1-6s3-3,5.2-3H151c3.3,0,6,2.7,6,6v20.4
			C157,166.6,154.4,169.3,151,169.3z M49,157.3h96v-8.4H44.4L49,157.3z"/>
	</g>
	<g>
		<path class="st1" d="M378,218.1h-46.5c-3.3,0-6-2.7-6-6v-27.2c0-3.3,2.7-6,6-6H378c3.3,0,6,2.7,6,6v27.2
			C384,215.4,381.3,218.1,378,218.1z M337.5,206.1H372v-15.2h-34.5V206.1z"/>
	</g>
	<g>
		<path class="st1" d="M437,251H16c-3.3,0-6-2.7-6-6s2.7-6,6-6h421c3.3,0,6,2.7,6,6S440.3,251,437,251z"/>
	</g>
</g>
<g id="DOWNLOAD">
</g>
<g id="Layer_15">
</g>
<g id="Layer_16">
</g>
<g id="Layer_17">
</g>
<g id="Layer_18">
</g>
<g id="Layer_19">
</g>
<g id="Layer_20">
</g>
<g id="Layer_21">
</g>
<g id="Layer_22">
</g>
<g id="Layer_23">
</g>
<g id="Layer_24">
</g>
<g id="Layer_25">
</g>
</svg>
