<?xml version="1.0" encoding="utf-8"?>
<!-- Generator: Adobe Illustrator 21.0.2, SVG Export Plug-In . SVG Version: 6.00 Build 0)  -->
<svg version="1.1" xmlns="http://www.w3.org/2000/svg" xmlns:xlink="http://www.w3.org/1999/xlink" x="0px" y="0px"
	 viewBox="0 0 298 300" style="enable-background:new 0 0 298 300;" xml:space="preserve">
<style type="text/css">
	.st0{fill:none;}
	.st1{fill:#403B3E;}
	.st2{fill:#9F1744;}
	.st3{fill:#FE7635;}
	.st4{fill:#454A73;}
	.st5{fill:#FFFFFF;}
	.st6{fill:#FFFEFD;}
	.st7{display:none;fill:none;stroke:#454A73;stroke-width:12;stroke-linecap:round;stroke-linejoin:round;stroke-miterlimit:10;}
	.st8{fill:none;stroke:#454A73;stroke-width:10;stroke-linecap:round;stroke-linejoin:round;stroke-miterlimit:10;}
	.st9{fill:none;stroke:#FE7635;stroke-width:12;stroke-linecap:round;stroke-linejoin:round;stroke-miterlimit:10;}
</style>
<g id="test_x5F_back">
</g>
<g id="Layer_1">
</g>
<g id="Layer_2">
</g>
<g id="global">
</g>
<g id="_x21_">
</g>
<g id="Layer_6">
</g>
<g id="Layer_7">
</g>
<g id="Layer_8">
</g>
<g id="Layer_9">
</g>
<g id="Layer_10">
</g>
<g id="Layer_11">
</g>
<g id="Layer_12">
</g>
<g id="Layer_13">
</g>
<g id="DOWNLOAD">
</g>
<g id="Layer_15">
</g>
<g id="Layer_16">
</g>
<g id="Layer_17">
</g>
<g id="Layer_18">
</g>
<g id="Layer_19">
</g>
<g id="Layer_20">
</g>
<g id="Layer_21">
</g>
<g id="Layer_22">
</g>
<g id="Layer_23">
</g>
<g id="Layer_24">
</g>
<g id="Layer_25">
</g>
<g id="Layer_26">
	<line class="st9" x1="64.2" y1="156.8" x2="64.2" y2="233"/>
	<line class="st9" x1="90.5" y1="175" x2="90.5" y2="217"/>
	<line class="st9" x1="113.7" y1="175" x2="113.7" y2="217"/>
	<line class="st9" x1="185.7" y1="175" x2="185.7" y2="217"/>
	<line class="st9" x1="209.8" y1="175" x2="209.8" y2="217"/>
	<line class="st9" x1="240" y1="156.8" x2="240" y2="228.6"/>
	<line class="st9" x1="138.3" y1="175" x2="138.3" y2="217"/>
	<line class="st9" x1="162.4" y1="175" x2="162.4" y2="217"/>
	<rect x="40" y="248.2" class="st9" width="224" height="15.2"/>
	<rect x="56.3" y="233" class="st9" width="192.3" height="15.2"/>
	<rect x="59.3" y="140.9" class="st9" width="184.7" height="15.2"/>
	<polyline class="st9" points="74.5,140.3 74.5,125.1 231.9,125.2 231.9,140.4 	"/>
	<path class="st9" d="M90.9,124.4c0-28.3,28.2-51.3,63-51.2s63,23,63,51.3"/>
	<line class="st9" x1="153.3" y1="67.6" x2="153.3" y2="37.2"/>
	<rect x="153.3" y="33" class="st9" width="30.2" height="21.4"/>
</g>
<g id="Layer_27">
</g>
<g id="Layer_28">
</g>
</svg>
