<?xml version="1.0" encoding="utf-8"?>
<!-- Generator: Adobe Illustrator 21.0.2, SVG Export Plug-In . SVG Version: 6.00 Build 0)  -->
<svg version="1.1" xmlns="http://www.w3.org/2000/svg" xmlns:xlink="http://www.w3.org/1999/xlink" x="0px" y="0px"
	 viewBox="0 0 324 300" style="enable-background:new 0 0 324 300;" xml:space="preserve">
<style type="text/css">
	.st0{fill:none;}
	.st1{fill:#403B3E;}
	.st2{fill:#9F1744;}
	.st3{fill:#FE7635;}
	.st4{fill:#454A73;}
	.st5{fill:#FFFFFF;}
	.st6{fill:#FFFEFD;}
	.st7{display:none;fill:none;stroke:#454A73;stroke-width:12;stroke-linecap:round;stroke-linejoin:round;stroke-miterlimit:10;}
	.st8{fill:none;stroke:#454A73;stroke-width:10;stroke-linecap:round;stroke-linejoin:round;stroke-miterlimit:10;}
	.st9{fill:none;stroke:#FE7635;stroke-width:12;stroke-linecap:round;stroke-linejoin:round;stroke-miterlimit:10;}
</style>
<g id="test_x5F_back">
</g>
<g id="Layer_1">
</g>
<g id="Layer_2">
</g>
<g id="global">
</g>
<g id="_x21_">
</g>
<g id="Layer_6">
</g>
<g id="Layer_7">
</g>
<g id="Layer_8">
	<g>
		<path class="st3" d="M130.6,286c-3.3,0-6-2.7-6-6v-79c0-3.3,2.7-6,6-6s6,2.7,6,6v79C136.6,283.3,133.9,286,130.6,286z"/>
	</g>
	<g>
		<path class="st3" d="M189.1,286c-3.3,0-6-2.7-6-6v-79c0-3.3,2.7-6,6-6s6,2.7,6,6v79C195.1,283.3,192.4,286,189.1,286z"/>
	</g>
	<g>
		<path class="st3" d="M199.8,207h-82.9c-3.3,0-6-2.7-6-6v-34.1c0-3.3,2.7-6,6-6h82.9c3.3,0,6,2.7,6,6V201
			C205.8,204.3,203.1,207,199.8,207z M122.9,195h70.9v-22.1h-70.9V195z"/>
	</g>
	<g>
		<circle class="st3" cx="135.4" cy="183.5" r="5.9"/>
	</g>
	<g>
		<path class="st3" d="M133.5,172.9c-3.3,0-6-2.7-6-6V150c0-3.3,2.7-6,6-6s6,2.7,6,6v16.9C139.5,170.2,136.8,172.9,133.5,172.9z"/>
	</g>
	<g>
		<path class="st3" d="M182.2,167c-3.3,0-6-2.7-6-6v-10c0-3.3,2.7-6,6-6s6,2.7,6,6v10C188.2,164.3,185.6,167,182.2,167z"/>
	</g>
	<g>
		<path class="st3" d="M183.4,156.3h-46.1c-15.7,0-28.4-11.2-28.4-25V71.1c0-9.2,6.8-16.7,15.1-16.7c1.1,0,2.1,0.1,3.1,0.4V48
			c0-7.6,6.8-13.8,15.1-13.8c1.1,0,2.1,0.1,3.1,0.3v-1.7c0-7.6,6.8-13.8,15.1-13.8c7.1,0,13,4.4,14.7,10.4c1.2-0.3,2.4-0.4,3.6-0.4
			c8.4,0,15.1,6.2,15.1,13.8v35c0.8-0.1,1.6-0.2,2.4-0.2c8.4,0,15.1,6.2,15.1,13.8v40C211.7,145.1,199,156.3,183.4,156.3z
			 M124.1,66.3c-1.5,0-3.1,2-3.1,4.7v60.2c0,7.1,7.5,13,16.4,13h46.1c8.8,0,16.2-5.9,16.2-12.9v-40c0-0.6-1.2-1.8-3.1-1.8
			c-1.5,0-2.7,0.7-3,1.4c-1.3,2.5-4.1,3.7-6.7,3.1c-2.7-0.7-4.6-3.1-4.6-5.8V42.8c0-0.6-1.2-1.8-3.1-1.8s-3.1,1.1-3.1,1.8
			c0,3.3-2.7,6-6,6s-6-2.7-6-6v-10c0-0.6-1.2-1.8-3.1-1.8s-3.1,1.1-3.1,1.8V48c0,3.3-2.7,6-6,6s-6-2.7-6-6c0-0.6-1.2-1.8-3.1-1.8
			s-3.1,1.1-3.1,1.8v23.1c0,3.3-2.7,6-6,6s-6-2.7-6-6C127.3,68.4,125.6,66.3,124.1,66.3z"/>
	</g>
	<g>
		<path class="st3" d="M133.4,103.7c-3.3,0-6-2.7-6-6v-28c0-3.3,2.7-6,6-6s6,2.7,6,6v28C139.4,101,136.7,103.7,133.4,103.7z"/>
	</g>
	<g>
		<path class="st3" d="M151.9,93.2c-3.3,0-6-2.7-6-6V47.8c0-3.3,2.7-6,6-6s6,2.7,6,6v39.4C157.9,90.5,155.2,93.2,151.9,93.2z"/>
	</g>
	<g>
		<path class="st3" d="M169.5,95c-3.3,0-6-2.7-6-6V42.5c0-3.3,2.7-6,6-6s6,2.7,6,6V89C175.5,92.3,172.9,95,169.5,95z"/>
	</g>
	<g>
		<path class="st3" d="M188,117.7c-3.3,0-6-2.7-6-6V88.1c0-3.3,2.7-6,6-6s6,2.7,6,6v23.7C194,115.1,191.3,117.7,188,117.7z"/>
	</g>
	<g>
		<path class="st3" d="M169.5,135.3c-0.5,0-1-0.1-1.5-0.2c-3.2-0.8-5.1-4.1-4.3-7.3c1.4-5.2,3.9-9.8,7.5-13.5
			c4-4.1,9.4-7.1,15.2-8.2c3.2-0.7,6.4,1.4,7.1,4.7c0.7,3.2-1.4,6.4-4.7,7.1c-3.4,0.7-6.6,2.4-9,4.9c-2.1,2.2-3.6,4.9-4.5,8.1
			C174.6,133.5,172.2,135.3,169.5,135.3z"/>
	</g>
</g>
<g id="Layer_9">
</g>
<g id="Layer_10">
</g>
<g id="Layer_11">
</g>
<g id="Layer_12">
</g>
<g id="Layer_13">
</g>
<g id="DOWNLOAD">
</g>
<g id="Layer_15">
</g>
<g id="Layer_16">
</g>
<g id="Layer_17">
</g>
<g id="Layer_18">
</g>
<g id="Layer_19">
</g>
<g id="Layer_20">
</g>
<g id="Layer_21">
</g>
<g id="Layer_22">
</g>
<g id="Layer_23">
</g>
<g id="Layer_24">
</g>
<g id="Layer_25">
</g>
<g id="Layer_26">
</g>
<g id="Layer_27">
</g>
<g id="Layer_28">
</g>
</svg>
