<svg xmlns="http://www.w3.org/2000/svg" viewBox="0 0 48.99 30.58" fill="#403B3E">
  <g id="Layer_1-2" data-name="Layer 1">
    <path class="cls-1"
      d="M39.9,21.48H9V1.61H39.9Zm-11,7.34h-8.8l.26-1.89h8.28Zm19.86.37-7.26-7.26a1.42,1.42,0,0,0,0-.28V1.45A1.45,1.45,0,0,0,40.07,0H8.87A1.45,1.45,0,0,0,7.42,1.45V21.66a1.42,1.42,0,0,0,0,.28L.23,29.15A.82.82,0,0,0,.06,30a.79.79,0,0,0,.74.5l47.38,0a.79.79,0,0,0,.74-.5.8.8,0,0,0-.17-.88" />
    <rect class="cls-1" x="12.71" y="12.6" width="2.17" height="2.1" />
    <path class="cls-1"
      d="M17.94,10.94a1,1,0,0,1,.09-.4,1.05,1.05,0,0,1,.25-.38,1.19,1.19,0,0,1,.42-.29,1.4,1.4,0,0,1,.58-.11,1.29,1.29,0,0,1,.57.11,1.55,1.55,0,0,1,.4.29,1.16,1.16,0,0,1,.25.38,1.23,1.23,0,0,1,.08.4Zm2.69-2.46A3.46,3.46,0,0,0,18,8.5a3.07,3.07,0,0,0-1,.72,3.34,3.34,0,0,0-.63,1.06,4,4,0,0,0-.21,1.26,3.88,3.88,0,0,0,.23,1.37A2.92,2.92,0,0,0,17,14a3.23,3.23,0,0,0,1.08.69,3.76,3.76,0,0,0,1.43.24,4.41,4.41,0,0,0,1.06-.11,6.14,6.14,0,0,0,.8-.26,2.3,2.3,0,0,0,.55-.29l.32-.22-.78-1.24a4.59,4.59,0,0,1-.67.38,3.07,3.07,0,0,1-1.21.21A1.79,1.79,0,0,1,18.39,13a1.23,1.23,0,0,1-.45-.89h4.44v-.32a4.83,4.83,0,0,0-.2-1.44,3,3,0,0,0-.58-1.12,2.89,2.89,0,0,0-1-.74" />
    <path class="cls-1"
      d="M24.13,14a3.17,3.17,0,0,0,1.06.69,3.5,3.5,0,0,0,1.37.25A3.43,3.43,0,0,0,28,14.61a3.75,3.75,0,0,0,1-.74l-1.12-1.24a2.15,2.15,0,0,1-.54.41,1.57,1.57,0,0,1-.83.2,1.35,1.35,0,0,1-.61-.15,1.64,1.64,0,0,1-.46-.38,1.66,1.66,0,0,1-.29-.54,2,2,0,0,1-.09-.6,2.14,2.14,0,0,1,.09-.63,1.6,1.6,0,0,1,.29-.52A1.37,1.37,0,0,1,26,10a1.34,1.34,0,0,1,.61-.14,1.56,1.56,0,0,1,.81.18,2.1,2.1,0,0,1,.52.43l1.15-1.24a3,3,0,0,0-1-.74,3.61,3.61,0,0,0-1.47-.28,3.53,3.53,0,0,0-1.35.26,3,3,0,0,0-1.06.71,3.51,3.51,0,0,0-.69,1.06,3.27,3.27,0,0,0-.24,1.29,3.5,3.5,0,0,0,.24,1.34A3.17,3.17,0,0,0,24.13,14" />
    <path class="cls-1"
      d="M32.36,10.06a1.47,1.47,0,0,1,1.76.37,1.55,1.55,0,0,1,.29.54,2.1,2.1,0,0,1,0,1.23,1.65,1.65,0,0,1-.29.54,1.42,1.42,0,0,1-.48.38,1.47,1.47,0,0,1-.65.14,1.42,1.42,0,0,1-.64-.14,1.3,1.3,0,0,1-.48-.38,1.63,1.63,0,0,1-.29-.54,1.88,1.88,0,0,1,.29-1.77,1.41,1.41,0,0,1,.48-.37m-1.77-.83a3.51,3.51,0,0,0-.69,1.06,3.52,3.52,0,0,0,0,2.58,3.51,3.51,0,0,0,.69,1.06,3.24,3.24,0,0,0,1.06.72,3.61,3.61,0,0,0,1.37.26,3.25,3.25,0,0,0,1.35-.26,3.34,3.34,0,0,0,1-.72,3.52,3.52,0,0,0,.69-1.06,3.52,3.52,0,0,0,0-2.58,3.52,3.52,0,0,0-.69-1.06,3.14,3.14,0,0,0-1-.71A3.47,3.47,0,0,0,33,8.27a3.55,3.55,0,0,0-1.37.26,3,3,0,0,0-1.06.71" />
  </g>
</svg>
