<svg xmlns="http://www.w3.org/2000/svg" xmlns:xlink="http://www.w3.org/1999/xlink" viewBox="0 0 300 300"><defs><style>.cls-1{fill:#9f1744;}.cls-2{clip-path:url(#clip-path);}.cls-3{fill:none;stroke:#454a73;stroke-linecap:round;stroke-linejoin:round;stroke-width:12px;}</style><clipPath id="clip-path"><path class="cls-1" d="M-2354.77,101a4.23,4.23,0,0,1-2.84-1.09,4.23,4.23,0,0,1-1.39-3.14V70.84a4.23,4.23,0,0,1,1.14-2.88l25.19-27.06a4.24,4.24,0,0,1,4.45-1.13,4.24,4.24,0,0,1,2.86,3.6l1.74,17.8,20.32,2.1a4.23,4.23,0,0,1,3.54,2.76,4.23,4.23,0,0,1-.93,4.39l-25.84,26.73a4.23,4.23,0,0,1-2.62,1.27l-25.19,2.55Zm4.23-28.5V92.08l19-1.92,18.71-19.36-15.11-1.56a4.23,4.23,0,0,1-3.78-3.8l-1.16-11.9Z"/></clipPath></defs><title>icons</title><g id="Layer_1" data-name="Layer 1"><path class="cls-1" d="M-2354.77,101a4.23,4.23,0,0,1-2.84-1.09,4.23,4.23,0,0,1-1.39-3.14V70.84a4.23,4.23,0,0,1,1.14-2.88l25.19-27.06a4.24,4.24,0,0,1,4.45-1.13,4.24,4.24,0,0,1,2.86,3.6l1.74,17.8,20.32,2.1a4.23,4.23,0,0,1,3.54,2.76,4.23,4.23,0,0,1-.93,4.39l-25.84,26.73a4.23,4.23,0,0,1-2.62,1.27l-25.19,2.55Zm4.23-28.5V92.08l19-1.92,18.71-19.36-15.11-1.56a4.23,4.23,0,0,1-3.78-3.8l-1.16-11.9Z"/><g class="cls-2"><path class="cls-1" d="M787,9922.18H-3277.82a4.23,4.23,0,0,1-4.23-4.23V-2132.61a4.23,4.23,0,0,1,4.23-4.23H787a4.23,4.23,0,0,1,4.23,4.23V9917.95A4.24,4.24,0,0,1,787,9922.18Zm-4060.6-8.47H782.78V-2128.37H-3273.59Z"/></g></g><g id="Layer_10" data-name="Layer 10"><path class="cls-3" d="M135.42,211.33l13.75,15.85,14.52-15.85s10.7,11.45,10.7,27.29S149.17,280,149.17,280s-23.69-25.53-23.69-41.38S135.42,211.33,135.42,211.33Z"/><line class="cls-3" x1="190.34" y1="210.9" x2="220.1" y2="258.74"/><line class="cls-3" x1="193.52" y1="262.99" x2="204.16" y2="280"/><line class="cls-3" x1="108.48" y1="208.77" x2="78.71" y2="256.61"/><line class="cls-3" x1="105.29" y1="260.86" x2="94.66" y2="277.87"/><path class="cls-3" d="M150.47,10.46c-21.47,0-53.69,77-53.69,110.42,0,38,18.25,65.56,18.25,65.56H185.9s18.25-30.75,18.25-66.71S171.94,10.46,150.47,10.46Z"/><circle class="cls-3" cx="149.4" cy="97.32" r="23.62"/><line class="cls-3" x1="106.35" y1="167.31" x2="194.59" y2="167.31"/><line class="cls-3" x1="121.23" y1="50.37" x2="179.7" y2="50.37"/><path class="cls-3" d="M205.41,128.67c14.68,7.27,24.87,23.17,27.7,40.44s-1.27,35.6-9.73,50.85"/><path class="cls-3" d="M193.27,174.45c6.82,2.76,12.08,8.7,16.35,15a98.84,98.84,0,0,1,13.75,30.85"/><path class="cls-3" d="M95.35,127.61c-14.68,7.27-24.87,23.17-27.7,40.44s1.27,35.6,9.73,50.85"/><path class="cls-3" d="M107.49,173.39c-6.82,2.76-12.08,8.7-16.35,15a98.84,98.84,0,0,0-13.75,30.85"/></g></svg>