<?xml version="1.0" encoding="utf-8"?>
<!-- Generator: Adobe Illustrator 21.0.2, SVG Export Plug-In . SVG Version: 6.00 Build 0)  -->
<svg version="1.1" xmlns="http://www.w3.org/2000/svg" xmlns:xlink="http://www.w3.org/1999/xlink" x="0px" y="0px" width="300px"
	 height="300px" viewBox="0 0 300 300" style="enable-background:new 0 0 300 300;" xml:space="preserve">
<style type="text/css">
	.st0{fill:none;stroke:#454B73;stroke-width:12;stroke-linecap:round;stroke-linejoin:round;stroke-miterlimit:10;}
	.st1{fill:#9F1744;}
	.st2{fill:#454B73;}
	.st3{fill:none;stroke:#9F1744;stroke-width:12;stroke-linecap:round;stroke-linejoin:round;stroke-miterlimit:10;}
	.st4{fill:none;stroke:#9F1744;stroke-width:12;stroke-linecap:round;stroke-linejoin:round;stroke-dasharray:0.4755,33.2877;}
	.st5{fill:none;}
</style>
<g id="Layer_4">
</g>
<g id="Layer_1">
	<line class="st0" x1="181" y1="114" x2="181" y2="68"/>
	<polygon class="st0" points="218,94 181,94 181,64 218,64 209.5,79 	"/>
	<g>
		<path class="st1" d="M249.9,159c2.2,0,4.1,2.3,4.1,5.1c0,0.8-0.2,1.6-0.5,2.3c-0.8,1.8-0.6,4,0.5,5.6s3,2.7,5,2.7
			c2.2,0,4,2.3,4,5.1c0,2.8-1.9,5.1-4.1,5.1h-26.2l8.4,12h17.8c8.9,0,16.1-7.7,16.1-17.1c0-6.8-3.7-12.6-9.1-15.4c0-0.1,0-0.2,0-0.4
			c0-9.4-7.2-17.1-16.1-17.1h-37c-2.1,0-4.1,0.4-5.9,1.2l7.5,10.8H249.9z"/>
		<path class="st2" d="M252.1,200l-8.4-12l-18.2-26l-7.5-10.8l-27.1-38.8c-1.9-2.8-5.1-4.4-8.5-4.4s-6.6,1.6-8.5,4.4l-40.4,57.7
			l-19.6-24.7c-2-2.5-5-3.9-8.2-3.9c-3.2,0-6.2,1.4-8.2,3.9l-74.6,94.2c-2.4,3-2.9,7.1-1.2,10.6c1.7,3.6,5.3,5.8,9.4,5.8l240.4-0.1
			c3.9,0,7.4-2.1,9.2-5.5c1.7-3.3,1.5-7.3-0.7-10.4L252.1,200z M34.7,244l70.9-89.6l23.4,29.5c1.2,1.5,3,2.3,4.9,2.3
			c1.9-0.1,3.7-1,4.7-2.6l43.7-62.5l27.1,38.7l10.5,15.1l9.2,13.1l8.4,12l30.7,43.9L34.7,244z"/>
	</g>
	<path class="st0" d="M78.8,178.9c0,0,2.4,8.5,7.3,8.5s12.2-5.6,17.1-5.6c4.9,0,8.9,5.6,14.6,5.6c5.7,0,11.4-8.7,11.4-8.7"/>
	<path class="st0" d="M149.5,159.2c0,0,11.5-4.4,15.9-4.4s7.1,7.9,14.1,7.9c7.1,0,10.6-7.9,15.9-7.9c8.8,0,22.9,7.9,22.9,7.9"/>
	<line class="st0" x1="132.6" y1="179.7" x2="158.8" y2="214.1"/>
	<line class="st0" x1="9" y1="250" x2="291" y2="250"/>
	<path class="st3" d="M101,82H82.6c0.3-1,0.4-2,0.4-3c0-6.1-5-11-11-11H51c-6,0-11,4.9-11,11c0,1,0.2,2,0.4,3H34
		c-7.2,0-13,5.8-13,13c0,7.1,5.8,13,13,13h8.5c-1.6,1.9-2.5,4.3-2.5,7c0,6,5,11,11,11h39c6,0,11-5,11-11c0-2.7-1-5.1-2.5-7h2.5
		c7.2,0,13-5.9,13-13C114,87.8,108.2,82,101,82z"/>
</g>
<g id="Layer_2">
</g>
<g id="Layer_3">
</g>
</svg>
