<?xml version="1.0" encoding="utf-8"?>
<!-- Generator: Adobe Illustrator 21.0.2, SVG Export Plug-In . SVG Version: 6.00 Build 0)  -->
<svg version="1.1" xmlns="http://www.w3.org/2000/svg" xmlns:xlink="http://www.w3.org/1999/xlink" x="0px" y="0px"
	 viewBox="0 0 300 300" style="enable-background:new 0 0 300 300;" xml:space="preserve">
<style type="text/css">
	.st0{fill:none;}
	.st1{fill:#403B3E;}
	.st2{fill:#9F1744;}
	.st3{fill:#454A73;}
	.st4{fill:#FFFFFF;}
	.st5{fill:#FE7635;}
	.st6{fill:#FFFEFD;}
	.st7{display:none;fill:none;stroke:#454A73;stroke-width:12;stroke-linecap:round;stroke-linejoin:round;stroke-miterlimit:10;}
	.st8{fill:none;stroke:#454A73;stroke-width:10;stroke-linecap:round;stroke-linejoin:round;stroke-miterlimit:10;}
	.st9{fill:none;stroke:#403B3E;stroke-width:12;stroke-linecap:round;stroke-linejoin:round;stroke-miterlimit:10;}
</style>
<g id="test_x5F_back">
</g>
<g id="Layer_1">
</g>
<g id="Layer_2">
</g>
<g id="global">
</g>
<g id="_x21_">
</g>
<g id="Layer_6">
	<g>
		<path class="st3" d="M187.2,136.4c-6.9,0-12-0.4-13.9-0.5l-0.2,0c-3.1,0.4-5.9-1.7-6.6-4.8l0,0c-1-2.7-5.8-15.8-9-31.6
			c-4.8-24.3-3.2-42.2,4.7-53.4C175,28.4,195.9,22.8,211,33c8,5.4,12.7,14.6,13.1,24.9c9.7-2.5,19.7-0.8,27.4,4.9v0
			c14.9,11.1,16.9,33.8,4.5,50.6C241.8,133.3,207.1,136.4,187.2,136.4z M176.8,124.1c17.5,1.2,56.9-0.1,69.5-17.8
			c8.5-11.6,7.6-26.8-2-34c-6.6-4.9-15.8-4.9-24,0c-2.1,1.2-4.7,1.1-6.6-0.3c-1.9-1.4-2.8-3.9-2.3-6.2c2.3-9.5-0.5-18.4-7.1-22.9
			c-9.7-6.6-23.2-2.3-32.1,10.2C160.7,69.1,170.8,107.2,176.8,124.1z"/>
	</g>
	<g>
		<path class="st3" d="M86.7,153.4c-10.2,0-20-2-27.8-7.4c-17.3-11.5-23.2-33.6-13-49.1c5.3-8,14.1-13,24.1-13.9
			c-3.1-9.8-1.9-20,3.8-27.8c10.7-14.8,32.3-16.6,50.2-4.3c11.3,7.8,18.9,24.1,22.7,48.6c2.4,15.9,2.4,29.9,2.4,32.8l0,0
			c0.5,3.1-1.5,6-4.5,6.7l-0.2,0.1C139.7,141.1,112,153.4,86.7,153.4z M73.3,94.8c-7.3,0-13.7,3.1-17.4,8.7v0
			c-6.6,10-2.2,24.6,9.7,32.5c5.6,3.8,13,5.3,21,5.3c18,0,39.3-7.4,50.4-12.3c-0.1-18-3.7-57.2-19.9-68.3
			c-12.6-8.7-26.8-8.1-33.7,1.4c-4.6,6.4-4.2,15.8,1.2,23.9c1.3,2,1.3,4.6,0,6.6c-1.3,2-3.8,3-6.1,2.6C76.7,95,75,94.8,73.3,94.8z
			 M50.8,100.2L50.8,100.2L50.8,100.2z"/>
	</g>
	<g>
		<path class="st3" d="M149.6,216.1c-3.3,0-6-2.7-6-6c-0.1-10.2,0.9-20.5,3-30.6c1.7-8.4,4.1-16.6,6.2-23.6
			c1.9-6.3,4.3-13.7,7.6-20.9c8.8-19.1,23.7-36,38.2-52.3c2.2-2.5,6-2.7,8.5-0.5c2.5,2.2,2.7,6,0.5,8.5
			c-13.8,15.6-28.2,31.8-36.2,49.3c-3,6.5-5.2,13.5-7,19.4c-2,6.6-4.3,14.5-5.9,22.4c-1.9,9.3-2.8,18.8-2.7,28.2
			C155.6,213.4,152.9,216.1,149.6,216.1C149.6,216.1,149.6,216.1,149.6,216.1z"/>
	</g>
	<g>
		<path class="st3" d="M157.4,166.7c-2.4,0-4.6-1.4-5.6-3.7c-5.2-12.8-10.6-26-21.2-36.4c-7.8-7.6-19.1-14.2-32.7-19.1
			c-3.1-1.1-4.7-4.5-3.6-7.7c1.1-3.1,4.6-4.7,7.7-3.6c15.4,5.5,27.8,12.8,37,21.8c12.4,12.1,18.5,27.2,23.9,40.4
			c1.2,3.1-0.2,6.6-3.3,7.8C158.9,166.5,158.1,166.7,157.4,166.7z"/>
	</g>
	<g>
		<g>
			<g>
				<path class="st3" d="M231.6,233.3c-5.4-3.8-12.4-4.5-19-2.2c-3.7-5.7-9.2-9.8-15.8-11.5c-4.8-1.2-9.7-0.9-14,0.8
					c-2.6-4.7-6.6-8.6-11.4-11.2c-6.5-3.5-13.4-4.2-19.3-4.4c-6.2-0.2-14.3,0-21.9,3.7c-5.9,2.9-10.7,7.6-13.7,13.3
					c-4.1-1.4-8.5-1.7-13-0.8c-5.8,1.2-11,4.3-14.9,8.8c-1.4-0.8-2.9-1.4-4.5-1.8c-7.3-1.7-15.1,1.2-19.6,7.2
					c-2.4,3.3-3.5,7-4.3,10.2c-0.8,3.3-1.3,6.7-1.6,10c-0.2,1.8,0.5,3.6,1.7,4.8c0.9,2.2,3.1,3.7,5.6,3.7h166.6
					c0.4,0.1,0.7,0.1,1.1,0.1c2.3,0,4.4-1.3,5.4-3.5C243.8,250.7,239,238.5,231.6,233.3z M72,248.2c0.5-2,1.1-4.2,2.2-5.8
					c1.5-2.1,4.6-3.2,7.1-2.6c1,0.2,1.6,0.7,1.7,0.8c1.2,3,4.6,4.5,7.6,3.3c0,0,0,0,0,0c2-0.1,3.8-1.2,4.9-3.1
					c2.3-4.2,6.1-7.1,10.5-8c3.7-0.8,7.2,0,10.1,2.2c1.6,1.2,3.7,1.6,5.7,0.9c1.9-0.7,3.4-2.3,3.8-4.3c1.3-5.3,5-9.9,10-12.3
					c5.2-2.5,11.1-2.7,16.2-2.5c4.5,0.2,9.6,0.6,14,3c4.2,2.2,7.3,6.3,8.3,10.8c0.5,2.1,2,3.8,4.1,4.4c2.1,0.6,4.3,0.1,5.9-1.4
					c3.6-3.4,7.7-3,9.9-2.4c4.7,1.2,8.6,4.9,10.2,9.8c0.6,1.8,2,3.2,3.8,3.8c1.8,0.6,3.8,0.3,5.3-0.8c3.1-2.2,7.7-3.6,11.4-1
					c2.4,1.7,4.2,5.4,4.3,8.9H71.3C71.5,250.7,71.7,249.5,72,248.2z"/>
			</g>
		</g>
	</g>
</g>
<g id="Layer_7">
</g>
<g id="Layer_8">
</g>
<g id="Layer_9">
</g>
<g id="Layer_10">
</g>
<g id="Layer_11">
</g>
<g id="Layer_12">
</g>
<g id="Layer_13">
</g>
<g id="DOWNLOAD">
</g>
<g id="Layer_15">
</g>
<g id="Layer_16">
</g>
<g id="Layer_17">
</g>
<g id="Layer_18">
</g>
<g id="Layer_19">
</g>
<g id="Layer_20">
</g>
<g id="Layer_21">
</g>
<g id="Layer_22">
</g>
<g id="Layer_23">
</g>
<g id="Layer_24">
</g>
<g id="Layer_25">
</g>
<g id="Layer_26">
</g>
<g id="Layer_27">
</g>
</svg>
