<?xml version="1.0" encoding="utf-8"?>
<!-- Generator: Adobe Illustrator 21.0.2, SVG Export Plug-In . SVG Version: 6.00 Build 0)  -->
<svg version="1.1" xmlns="http://www.w3.org/2000/svg" xmlns:xlink="http://www.w3.org/1999/xlink" x="0px" y="0px"
	 viewBox="0 0 300 219" style="enable-background:new 0 0 300 219;" xml:space="preserve">
<style type="text/css">
	.st0{fill:#FFFFFF;}
	.st1{fill:#464B73;}
</style>
<g id="Layer_1">
</g>
<g id="Layer_2">
	<g>
		<g>
			<path class="st1" d="M84.8,126.9c-13.3,0-24.2-11.2-24.2-24.9s10.8-24.9,24.2-24.9S109,88.2,109,102S98.2,126.9,84.8,126.9z
				 M84.8,91.1c-5.6,0-10.2,4.9-10.2,10.9s4.6,10.9,10.2,10.9S95,108,95,102S90.4,91.1,84.8,91.1z"/>
		</g>
		<g>
			<path class="st1" d="M119.9,168.4H51.2c-3.9,0-7-3.1-7-7c0-19.7,18.5-35.6,41.3-35.6s41.3,16,41.3,35.6
				C126.9,165.3,123.7,168.4,119.9,168.4z M59.7,154.4h51.7c-3.7-8.5-13.9-14.6-25.9-14.6S63.4,145.9,59.7,154.4z"/>
		</g>
		<g>
			<path class="st1" d="M290,213H9c-3.9,0-7-3.1-7-7V37.4c0-3.9,3.1-7,7-7h281c3.9,0,7,3.1,7,7V206C297,209.9,293.9,213,290,213z
				 M16,199h267V44.4H16V199z"/>
		</g>
		<g>
			<path class="st1" d="M253.9,92.6h-88.3c-3.9,0-7-3.1-7-7s3.1-7,7-7h88.3c3.9,0,7,3.1,7,7S257.7,92.6,253.9,92.6z"/>
		</g>
		<g>
			<path class="st1" d="M253.9,128.7h-88.3c-3.9,0-7-3.1-7-7s3.1-7,7-7h88.3c3.9,0,7,3.1,7,7S257.7,128.7,253.9,128.7z"/>
		</g>
		<g>
			<path class="st1" d="M253.9,164.8h-88.3c-3.9,0-7-3.1-7-7s3.1-7,7-7h88.3c3.9,0,7,3.1,7,7S257.7,164.8,253.9,164.8z"/>
		</g>
		<g>
			<path class="st1" d="M173.1,44.4h-42.8c-3.9,0-7-3.1-7-7V13.2c0-3.9,3.1-7,7-7h42.8c3.9,0,7,3.1,7,7v24.2
				C180.1,41.3,177,44.4,173.1,44.4z M137.4,30.4h28.8V20.2h-28.8V30.4z"/>
		</g>
		<g>
			<path class="st1" d="M135.3,189h-98c-3.9,0-7-3.1-7-7V63.4c0-3.9,3.1-7,7-7h98c3.9,0,7,3.1,7,7V182
				C142.3,185.9,139.2,189,135.3,189z M44.4,175h84V70.4h-84V175z"/>
		</g>
	</g>
</g>
<g id="Layer_3">
</g>
</svg>
