<?xml version="1.0" encoding="utf-8"?>
<!-- Generator: Adobe Illustrator 21.0.2, SVG Export Plug-In . SVG Version: 6.00 Build 0)  -->
<svg version="1.1" id="Layer_1" xmlns="http://www.w3.org/2000/svg" xmlns:xlink="http://www.w3.org/1999/xlink" x="0px" y="0px"
	 width="300px" height="300px" viewBox="0 0 300 300" style="enable-background:new 0 0 300 300;" xml:space="preserve">
<style type="text/css">
	.st0{fill:#454B73;}
</style>
<g>
	<path class="st0" d="M129.9,206.2C129.9,206.2,129.8,206.1,129.9,206.2l-30.9,68L86.3,256c-1.3-1.9-3.5-3-5.8-3c-0.3,0-0.5,0-0.8,0
		l-22,2.5L87,190.7c-1.3-2-2.4-4.1-3.4-6.1c-1.5-3.1-3-5.9-4.6-7.6c-0.3-0.3-0.6-0.5-0.9-0.8L39.6,261c-1.1,2.3-0.8,5,0.7,7.1
		c1.5,2.1,4,3.2,6.5,2.9l30.2-3.4l17.4,24.9c1.3,1.9,3.5,3,5.8,3c0.2,0,0.4,0,0.7,0c2.5-0.2,4.8-1.8,5.8-4.1l35.7-78.9
		C137.7,211.3,133.6,208.6,129.9,206.2z"/>
	<path class="st0" d="M259.3,260.7l-39.7-86.4c-1.6,0.9-3,1.8-4,2.8c-1.7,1.7-3.1,4.5-4.6,7.6c-0.4,0.7-0.8,1.5-1.2,2.3l31.5,68.4
		l-22-2.3c-2.6-0.3-5.1,0.9-6.6,3l-12.6,18.3l-32.2-70c-1,0.6-2.1,1.3-3.1,2c-2.8,1.8-5.8,3.7-9.2,5.1l36.9,80.2
		c1.1,2.3,3.3,3.9,5.8,4.1c0.2,0,0.4,0,0.6,0c2.3,0,4.5-1.1,5.8-3.1l17.2-25l30.2,3.2c2.5,0.3,5-0.8,6.5-2.9
		C260.2,265.7,260.4,263,259.3,260.7z"/>
	<path class="st0" d="M164.7,206.2c1.1-0.7,2.1-1.4,3.1-2c1.6-1,3.1-1.8,4.5-2.1c2.4-0.6,5.6-0.4,9.1-0.3c5.8,0.3,12.3,0.7,18.1-2.7
		c5-2.9,7.9-7.7,10.3-12.2c0.4-0.8,0.8-1.5,1.2-2.3c1.5-3,3-5.9,4.6-7.6c1-1,2.4-1.9,4-2.8c1.1-0.6,2.3-1.3,3.6-1.9
		c5.2-2.6,11.1-5.6,14.5-11.5c3.4-5.8,3-12.4,2.7-18.1c-0.2-3.5-0.4-6.7,0.2-9.1c0.6-2.2,2.3-4.8,4.2-7.6c3.2-4.9,6.9-10.5,6.9-17.4
		c0-6.9-3.7-12.5-6.9-17.4c-1.8-2.8-3.6-5.4-4.2-7.6c-0.6-2.4-0.4-5.6-0.2-9.1c0.3-5.8,0.7-12.3-2.7-18.1
		c-3.4-5.9-9.3-8.8-14.5-11.5c-3.1-1.5-5.9-3-7.6-4.6c-1.7-1.7-3.1-4.5-4.6-7.6c-2.6-5.2-5.6-11.1-11.5-14.5
		c-5.8-3.3-12.3-3-18.1-2.7c-3.4,0.2-6.7,0.4-9.1-0.3c-2.2-0.6-4.8-2.3-7.6-4.1c-4.9-3.2-10.5-6.9-17.4-6.9
		c-6.9,0-12.5,3.7-17.4,6.9c-2.8,1.8-5.4,3.6-7.6,4.1c-2.4,0.6-5.6,0.4-9.1,0.3c-5.8-0.3-12.3-0.7-18.1,2.7
		c-5.9,3.4-8.8,9.3-11.5,14.5c-1.5,3-3,5.9-4.6,7.6c-1.7,1.7-4.5,3.1-7.6,4.6c-5.2,2.6-11.1,5.6-14.5,11.5c-3.4,5.8-3,12.4-2.7,18.1
		c0.2,3.5,0.4,6.7-0.2,9.1c-0.6,2.2-2.3,4.8-4.2,7.6c-3.2,4.9-6.9,10.5-6.9,17.4c0,6.9,3.7,12.5,6.9,17.4c1.8,2.8,3.6,5.4,4.2,7.6
		c0.6,2.4,0.4,5.6,0.2,9.1c-0.3,5.8-0.7,12.3,2.7,18.1c3.4,5.9,9.3,8.8,14.5,11.5c2.6,1.3,4.9,2.5,6.6,3.9c0.3,0.3,0.7,0.5,0.9,0.8
		c1.7,1.7,3.1,4.5,4.6,7.6c1,2,2.1,4.1,3.4,6.1c2,3.2,4.5,6.3,8.1,8.4c5.8,3.4,12.3,3,18.1,2.7c3.4-0.2,6.7-0.4,9.1,0.3
		c2.2,0.6,4.8,2.3,7.5,4.1c0,0,0,0,0.1,0c3.7,2.5,7.8,5.1,12.6,6.3c1.5,0.4,3.1,0.6,4.8,0.6c3,0,5.7-0.8,8.2-1.8
		C158.9,209.9,161.9,208,164.7,206.2z M147.3,198.9c-2.7,0-6.1-2.2-9.6-4.6c-3.6-2.4-7.3-4.8-11.7-6c-2.7-0.7-5.4-0.9-8-0.9
		c-1.9,0-3.7,0.1-5.5,0.2c-4,0.2-8.1,0.5-10.2-0.8c-2.2-1.3-4.1-5-5.9-8.6c-1.9-3.7-4-8-7.3-11.3c-3.3-3.3-7.5-5.4-11.3-7.3
		c-3.6-1.8-7.3-3.7-8.6-5.9c-1.2-2.1-1-6.3-0.8-10.3c0.2-4.2,0.5-9-0.7-13.5c-1.2-4.4-3.6-8.1-6-11.7c-2.4-3.6-4.6-6.9-4.6-9.6
		s2.2-6.1,4.6-9.6c2.4-3.6,4.8-7.3,6-11.7c1.2-4.5,0.9-9.3,0.7-13.5c-0.2-4-0.5-8.1,0.8-10.3c1.3-2.2,5-4.1,8.6-5.9
		c3.7-1.9,8-4,11.3-7.3c3.3-3.3,5.4-7.5,7.3-11.3c1.8-3.6,3.7-7.3,5.9-8.6c2.1-1.2,6.3-1,10.3-0.8c4.2,0.2,9,0.5,13.5-0.7
		c4.4-1.2,8.1-3.6,11.7-6c3.6-2.4,6.9-4.6,9.6-4.6c2.7,0,6,2.2,9.6,4.6c3.6,2.4,7.3,4.8,11.7,6c4.6,1.2,9.3,1,13.5,0.7
		c4-0.2,8.1-0.5,10.3,0.8c2.2,1.3,4.1,5,5.9,8.6c1.9,3.7,4,8,7.3,11.3c3.3,3.3,7.5,5.4,11.3,7.3c3.6,1.8,7.3,3.7,8.6,5.9
		c1.2,2.1,1,6.3,0.8,10.3c-0.2,4.2-0.5,9,0.7,13.5c1.2,4.4,3.6,8.1,6,11.7c2.4,3.6,4.6,6.9,4.6,9.6s-2.2,6.1-4.6,9.6
		c-2.4,3.6-4.8,7.3-6,11.7c-1.2,4.5-0.9,9.3-0.7,13.5c0.2,4,0.5,8.1-0.8,10.2c-1.3,2.2-5,4.1-8.6,5.9c-3.7,1.9-8,4-11.3,7.3
		c-3.3,3.3-5.4,7.5-7.3,11.3c-1.8,3.6-3.7,7.3-5.9,8.6c-2.1,1.2-6.2,1-10.2,0.8c-4.2-0.2-9-0.5-13.5,0.7c-4.4,1.2-8.1,3.6-11.7,6
		C153.4,196.7,150,198.9,147.3,198.9z"/>
</g>
<g>
	<path class="st0" d="M145.9,177.1c-36.5,0-66.2-29.7-66.2-66.2s29.7-66.2,66.2-66.2s66.2,29.7,66.2,66.2S182.4,177.1,145.9,177.1z
		 M145.9,58.8c-28.7,0-52,23.3-52,52s23.3,52,52,52s52-23.3,52-52S174.6,58.8,145.9,58.8z"/>
</g>
</svg>
