<?xml version="1.0" encoding="utf-8"?>
<!-- Generator: Adobe Illustrator 21.0.2, SVG Export Plug-In . SVG Version: 6.00 Build 0)  -->
<svg version="1.1" xmlns="http://www.w3.org/2000/svg" xmlns:xlink="http://www.w3.org/1999/xlink" x="0px" y="0px"
	 viewBox="0 0 300 300" style="enable-background:new 0 0 300 300;" xml:space="preserve">
<style type="text/css">
	.st0{fill:none;}
	.st1{fill:#403B3E;}
	.st2{fill:#9F1744;}
	.st3{fill:#454A73;}
	.st4{fill:#FFFFFF;}
	.st5{fill:#B7B7B7;}
	.st6{fill:#FE7635;}
	.st7{fill:#FFFEFD;}
	.st8{display:none;fill:none;stroke:#454A73;stroke-width:12;stroke-linecap:round;stroke-linejoin:round;stroke-miterlimit:10;}
	.st9{fill:none;stroke:#454A73;stroke-width:10;stroke-linecap:round;stroke-linejoin:round;stroke-miterlimit:10;}
</style>
<g id="test_x5F_back">
</g>
<g id="Layer_1">
</g>
<g id="Layer_2">
</g>
<g id="global">
</g>
<g id="_x21_">
</g>
<g id="Layer_6">
</g>
<g id="Layer_7">
</g>
<g id="Layer_8">
</g>
<g id="Layer_9">
</g>
<g id="Layer_10">
</g>
<g id="Layer_11">
</g>
<g id="Layer_12">
</g>
<g id="Layer_13">
</g>
<g id="DOWNLOAD">
</g>
<g id="Layer_15">
</g>
<g id="Layer_16">
	<g>
		<path class="st5" d="M226.1,212h-158c-3.3,0-6-2.7-6-6c0-46.9,38.1-85,85-85s85,38.1,85,85C232.1,209.3,229.4,212,226.1,212z
			 M74.3,200h145.5c-3.1-37.5-34.5-67-72.8-67S77.4,162.5,74.3,200z"/>
	</g>
	<g>
		<path class="st5" d="M270,212H23c-3.3,0-6-2.7-6-6s2.7-6,6-6h247c3.3,0,6,2.7,6,6S273.3,212,270,212z"/>
	</g>
	<g>
		<path class="st5" d="M248,191.6c-3,0-5.7-2.3-6-5.4c-0.3-3.3,2.1-6.2,5.4-6.6l20.1-2c3.3-0.3,6.2,2.1,6.6,5.4s-2.1,6.2-5.4,6.6
			l-20.1,2C248.4,191.6,248.2,191.6,248,191.6z"/>
	</g>
	<g>
		<path class="st5" d="M230.5,149.2c-1.8,0-3.5-0.8-4.7-2.3c-2.1-2.6-1.6-6.4,1-8.4l15.8-12.5c2.6-2.1,6.4-1.6,8.4,1
			c2.1,2.6,1.6,6.4-1,8.4l-15.8,12.5C233.1,148.7,231.8,149.2,230.5,149.2z"/>
	</g>
	<g>
		<path class="st5" d="M190.7,117.6c-1.2,0-2.3-0.3-3.4-1c-2.7-1.9-3.4-5.6-1.6-8.3l11.4-16.7c1.9-2.7,5.6-3.4,8.3-1.6
			c2.7,1.9,3.4,5.6,1.6,8.3L195.6,115C194.5,116.7,192.6,117.6,190.7,117.6z"/>
	</g>
	<g>
		<path class="st5" d="M145,107.2c-3.3,0-6-2.7-6-6V81c0-3.3,2.7-6,6-6s6,2.7,6,6v20.2C151,104.5,148.3,107.2,145,107.2z"/>
	</g>
	<g>
		<path class="st5" d="M42.5,190.6c-0.2,0-0.4,0-0.6,0l-20.1-2c-3.3-0.3-5.7-3.3-5.4-6.6s3.3-5.7,6.6-5.4l20.1,2
			c3.3,0.3,5.7,3.3,5.4,6.6C48.2,188.3,45.5,190.6,42.5,190.6z"/>
	</g>
	<g>
		<path class="st5" d="M60,148.2c-1.3,0-2.6-0.4-3.7-1.3l-15.8-12.5c-2.6-2.1-3-5.8-1-8.4c2.1-2.6,5.8-3,8.4-1l15.8,12.5
			c2.6,2.1,3,5.8,1,8.4C63.5,147.4,61.8,148.2,60,148.2z"/>
	</g>
	<g>
		<path class="st5" d="M99.8,116.6c-1.9,0-3.8-0.9-5-2.6L83.5,97.3c-1.9-2.7-1.2-6.5,1.6-8.3c2.7-1.9,6.5-1.2,8.3,1.6l11.4,16.7
			c1.9,2.7,1.2,6.5-1.6,8.3C102.2,116.3,101,116.6,99.8,116.6z"/>
	</g>
	<g>
		<path class="st5" d="M224,240H69c-3.3,0-6-2.7-6-6s2.7-6,6-6h155c3.3,0,6,2.7,6,6S227.3,240,224,240z"/>
	</g>
</g>
<g id="Layer_17">
</g>
<g id="Layer_18">
</g>
<g id="Layer_19">
</g>
<g id="Layer_20">
</g>
<g id="Layer_21">
</g>
<g id="Layer_22">
</g>
<g id="Layer_23">
</g>
<g id="Layer_24">
</g>
<g id="Layer_25">
</g>
</svg>
