<svg xmlns="http://www.w3.org/2000/svg" viewBox="0 0 521 124"><defs><style>.cls-1{fill:#454b73;}.cls-2,.cls-3,.cls-4,.cls-5,.cls-6,.cls-7{fill:none;}.cls-2,.cls-3,.cls-4,.cls-5,.cls-6{stroke:#9f1c45;stroke-width:4px;}.cls-2{stroke-dasharray:12.03 6.03;}.cls-3{stroke-dasharray:12.21 6.21;}.cls-4{stroke-dasharray:11.18 5.18;}.cls-6{stroke-dasharray:11.76 5.76;}</style></defs><title>Asset 2</title><g id="Layer_2" data-name="Layer 2"><g id="Layer_1-2" data-name="Layer 1"><path class="cls-1" d="M357.56,104.38H326.69V84.51h30.87Zm-11,7.34h-8.8l.26-1.89h8.28Zm19.86.37-7.26-7.26a1.42,1.42,0,0,0,0-.28V84.35a1.45,1.45,0,0,0-1.45-1.45h-31.2a1.45,1.45,0,0,0-1.45,1.45v20.21a1.42,1.42,0,0,0,0,.28L317.89,112a.82.82,0,0,0-.17.88.79.79,0,0,0,.74.5l47.38,0a.79.79,0,0,0,.74-.5.8.8,0,0,0-.17-.88"/><rect class="cls-1" x="330.36" y="95.5" width="2.17" height="2.1"/><path class="cls-1" d="M335.6,93.84a1,1,0,0,1,.09-.4,1.05,1.05,0,0,1,.25-.38,1.19,1.19,0,0,1,.42-.29,1.4,1.4,0,0,1,.58-.11,1.29,1.29,0,0,1,.57.11,1.55,1.55,0,0,1,.4.29,1.16,1.16,0,0,1,.25.38,1.23,1.23,0,0,1,.08.4Zm2.69-2.46a3.46,3.46,0,0,0-2.67,0,3.07,3.07,0,0,0-1,.72,3.34,3.34,0,0,0-.63,1.06,4,4,0,0,0-.21,1.26,3.88,3.88,0,0,0,.23,1.37,2.92,2.92,0,0,0,.68,1.06,3.23,3.23,0,0,0,1.08.69,3.76,3.76,0,0,0,1.43.24,4.41,4.41,0,0,0,1.06-.11,6.14,6.14,0,0,0,.8-.26,2.3,2.3,0,0,0,.55-.29l.32-.22-.78-1.24a4.59,4.59,0,0,1-.67.38,3.07,3.07,0,0,1-1.21.21A1.79,1.79,0,0,1,336,95.9a1.23,1.23,0,0,1-.45-.89H340v-.32a4.83,4.83,0,0,0-.2-1.44,3,3,0,0,0-.58-1.12,2.89,2.89,0,0,0-1-.74"/><path class="cls-1" d="M341.78,96.88a3.17,3.17,0,0,0,1.06.69,3.5,3.5,0,0,0,1.37.25,3.43,3.43,0,0,0,1.49-.31,3.75,3.75,0,0,0,1-.74l-1.12-1.24a2.15,2.15,0,0,1-.54.41,1.57,1.57,0,0,1-.83.2,1.35,1.35,0,0,1-.61-.15,1.64,1.64,0,0,1-.46-.38,1.66,1.66,0,0,1-.29-.54,2,2,0,0,1-.09-.6,2.14,2.14,0,0,1,.09-.63,1.6,1.6,0,0,1,.29-.52,1.37,1.37,0,0,1,.46-.37,1.34,1.34,0,0,1,.61-.14A1.56,1.56,0,0,1,345,93a2.1,2.1,0,0,1,.52.43l1.15-1.24a3,3,0,0,0-1-.74,3.61,3.61,0,0,0-1.47-.28,3.53,3.53,0,0,0-1.35.26,3,3,0,0,0-1.06.71,3.51,3.51,0,0,0-.69,1.06,3.27,3.27,0,0,0-.24,1.29,3.5,3.5,0,0,0,.24,1.34,3.17,3.17,0,0,0,.69,1.06"/><path class="cls-1" d="M350,93a1.47,1.47,0,0,1,1.76.37,1.55,1.55,0,0,1,.29.54,2.1,2.1,0,0,1,0,1.23,1.65,1.65,0,0,1-.29.54,1.42,1.42,0,0,1-.48.38,1.47,1.47,0,0,1-.65.14A1.42,1.42,0,0,1,350,96a1.3,1.3,0,0,1-.48-.38,1.63,1.63,0,0,1-.29-.54,1.88,1.88,0,0,1,.29-1.77A1.41,1.41,0,0,1,350,93m-1.77-.83a3.51,3.51,0,0,0-.69,1.06,3.52,3.52,0,0,0,0,2.58,3.51,3.51,0,0,0,.69,1.06,3.24,3.24,0,0,0,1.06.72,3.61,3.61,0,0,0,1.37.26,3.25,3.25,0,0,0,1.35-.26,3.34,3.34,0,0,0,1-.72,3.52,3.52,0,0,0,.69-1.06,3.52,3.52,0,0,0,0-2.58,3.52,3.52,0,0,0-.69-1.06,3.14,3.14,0,0,0-1-.71,3.47,3.47,0,0,0-1.35-.26,3.55,3.55,0,0,0-1.37.26,3,3,0,0,0-1.06.71"/><polygon class="cls-1" points="507.2 61.28 513.14 58.7 506.81 57.45 511.22 52.59 504.95 54.11 507.07 47.82 501.94 51.84 501.4 45.21 498.29 51.04 495.19 45.21 494.64 51.84 489.52 47.82 491.64 54.11 485.37 52.59 489.77 57.45 483.44 58.7 489.38 61.28 484.1 65.08 490.54 64.94 487.2 70.64 491.64 68.48 486.84 91.97 491.99 88.22 495.23 93.81 498.28 78.85 501.33 93.81 504.57 88.22 509.72 91.97 504.91 68.46 509.39 70.64 506.05 64.94 512.49 65.07 507.2 61.28"/><path class="cls-1" d="M41.32,41.35l-.3.27c0-.62,0-1.25,0-1.89,0-.28,0-.53,0-.76a4.57,4.57,0,0,0-1.21-4,13.52,13.52,0,0,0-3.79-3,3.15,3.15,0,0,1-1.61-2.36,2,2,0,0,1,.89-1.74c1.08-.83,2-.59,3.59-.06a12.41,12.41,0,0,0,2.42.61,16.88,16.88,0,0,0,4.86-.33c.05.52.09,1,.09,1.58a16.14,16.14,0,0,1-5,11.71M12.56,29.65a16.09,16.09,0,0,1,.39-3.49c.57.17,1.16.37,1.75.59s1.58.65,1.86,1.5c.12.37,0,.67-.5,1.37-.12.18-.23.36-.34.53-.81,1.36-2.72,4.54,1,6.81a15.89,15.89,0,0,0,2.76,1.21c1.41.52,2.86,1.06,3.49,1.88.06.1.22.48.35.78,1.09,2.52,2.13,4.61,3.73,4.65h0c.56,0,1.32-.26,1.91-1.46a3.61,3.61,0,0,0-.2-2.87,4.08,4.08,0,0,1-.26-.9A7.13,7.13,0,0,1,29.59,37a4.47,4.47,0,0,0,.57-3.65,5,5,0,0,0-2.86-2.57l-.24-.1c-.95-.42-1.06-.49-1.16-1.07l-.06-.35c-.21-1.4-.5-2.06-2.36-2.54-.26-.07-.55-.12-.83-.17-.93-.17-1.27-.28-1.34-.55-.13-.56.53-1.48.78-1.82a7.41,7.41,0,0,1,2-1.71A12.15,12.15,0,0,0,26,21a2.78,2.78,0,0,0,.9-3.17A3.51,3.51,0,0,0,23.48,16h-.94v0a3,3,0,0,1,.21-.74,7.2,7.2,0,0,0,.27-.85c.25-.1.49-.21.75-.3a17.42,17.42,0,0,1,9.33-.55c0,.23,0,.45,0,.67a3.37,3.37,0,0,1-.46,1.93,2.1,2.1,0,0,1-.45.4,2.26,2.26,0,0,0-1,2.13,3.84,3.84,0,0,0,.13.91,2,2,0,0,1,.08.47,1.47,1.47,0,0,1-.23.5,4,4,0,0,0-.42.92,2.25,2.25,0,0,0,.81,2.62,2.56,2.56,0,0,0,1.42.4,3.54,3.54,0,0,0,2.07-.7,5.09,5.09,0,0,0,1.1-1.23c.4-.57.66-.91.95-.94l.19.14a4.16,4.16,0,0,0,.45.33,5.94,5.94,0,0,0,4.91.66,18.3,18.3,0,0,0,2-.52c.05.11.12.21.17.32A15.28,15.28,0,0,1,45.62,25c.11.35.2.71.28,1.07a15.06,15.06,0,0,1-4.28.33,10.66,10.66,0,0,1-2-.52c-1.65-.55-3.53-1.16-5.56.39a4,4,0,0,0-1.69,3.47,5.22,5.22,0,0,0,2.61,4,11.49,11.49,0,0,1,3.26,2.55A2.68,2.68,0,0,1,39,38.84c0,.24,0,.51,0,.81-.05,1.23,0,2.44,0,3.61a17,17,0,0,1-9.51,2.86A16.7,16.7,0,0,1,12.56,29.65m2.29-8.29a16.62,16.62,0,0,1,5.61-5.65c0,.05,0,.11,0,.17a2.15,2.15,0,0,0,.51,1.69A2.59,2.59,0,0,0,23,18.1h.46c.8,0,1.34.27,1.45.53s-.09.55-.47.93a10.4,10.4,0,0,1-1.57,1.21A9.13,9.13,0,0,0,20.37,23a4.41,4.41,0,0,0-1.11,3.45c.37,1.65,2,1.94,3,2.13.23,0,.46.08.67.14a5.62,5.62,0,0,1,.69.23,3.71,3.71,0,0,1,.13.64l.06.37a3.25,3.25,0,0,0,2.36,2.61l.23.1c1,.45,1.58.9,1.75,1.37a2.75,2.75,0,0,1-.45,2,8.6,8.6,0,0,0-1.32,4.33,5.3,5.3,0,0,0,.38,1.47c.16.45.39,1.07.28,1.3l-.08.15A13.28,13.28,0,0,1,25.23,40a6.28,6.28,0,0,0-.57-1.16c-1-1.36-2.78-2-4.47-2.63a14.3,14.3,0,0,1-2.38-1c-1.53-.94-1.59-1.81-.26-4,.09-.16.19-.31.29-.46a3.46,3.46,0,0,0,.73-3.11,4.93,4.93,0,0,0-3.12-2.8c-.65-.24-1.29-.45-1.92-.64a16.13,16.13,0,0,1,1.14-2.49Zm28.59-.9c-.42.13-.86.24-1.31.33a3.92,3.92,0,0,1-3.35-.38,2,2,0,0,1-.22-.17,2.25,2.25,0,0,0-1.66-.62,3.44,3.44,0,0,0-2.57,1.82,3.62,3.62,0,0,1-.62.75,1.14,1.14,0,0,1-1,.25.66.66,0,0,1,0-.37,2.21,2.21,0,0,1,.22-.46,3.21,3.21,0,0,0,.48-1.27,3.31,3.31,0,0,0-.12-1.18,2.37,2.37,0,0,1-.08-.44,2.28,2.28,0,0,1,0-.35,1.16,1.16,0,0,1,.17-.13,4.07,4.07,0,0,0,.84-.77,5,5,0,0,0,.92-3.1c0-.07,0-.13,0-.2a16.42,16.42,0,0,1,2.1.89,16.84,16.84,0,0,1,6.16,5.4m4.21,3.94a17.3,17.3,0,0,0-1-2.68,18.86,18.86,0,0,0-8.35-8.48,19.61,19.61,0,0,0-15.19-1,18.82,18.82,0,0,0-10.24,8.5l-.2.37h0a18.17,18.17,0,0,0-2.17,8.59,18.79,18.79,0,0,0,19,18.54A19.07,19.07,0,0,0,42.8,42.82a18.16,18.16,0,0,0,5.63-13.17,18,18,0,0,0-.78-5.26"/><path class="cls-1" d="M182.41,73.27l-.08.07A10.69,10.69,0,0,0,179,78.95h-7a10.68,10.68,0,0,0-3.29-5.61l-.07-.06A9.5,9.5,0,0,1,165.23,66c0-5.36,4.62-9.72,10.31-9.72s10.31,4.36,10.31,9.72a9.5,9.5,0,0,1-3.44,7.25m-6.87,10.38c-2.32,0-3.19-.58-3.38-2.58h6.77c-.19,2-1.06,2.58-3.38,2.58m0-29.48C168.61,54.17,163,59.49,163,66a11.58,11.58,0,0,0,4.2,8.84,8.07,8.07,0,0,1,2.7,5,1,1,0,0,0,0,.18c0,.32,0,.64,0,1v.11h0c.2,2.38,1.26,4.71,5.64,4.71s5.44-2.33,5.64-4.71h0V81c0-.32,0-.64,0-.95a1,1,0,0,0,0-.18,8.07,8.07,0,0,1,2.7-5A11.58,11.58,0,0,0,188.1,66c0-6.54-5.63-11.85-12.56-11.85"/><path class="cls-1" d="M175.54,88.41c1.5,0,2.91-.65,2.91-2h-5.82c0,1.4,1.4,2,2.91,2"/><path class="cls-1" d="M178.34,64.29a1.15,1.15,0,0,0-.83.37l-2,2.16-2-2.16a1.15,1.15,0,0,0-.83-.37,1.17,1.17,0,0,0-.85.34l-3.69,3.74,1.65,1.45,2.84-2.87,2,2.19a1.21,1.21,0,0,0,1.71,0l2-2.19,2.84,2.87,1.65-1.45-3.69-3.74a1.15,1.15,0,0,0-.84-.34"/><path class="cls-1" d="M175.8,52.22a1.09,1.09,0,0,0,1.12-1.06V47.34a1.12,1.12,0,0,0-2.24,0v3.82a1.09,1.09,0,0,0,1.12,1.06"/><path class="cls-1" d="M163.39,56.45a1.17,1.17,0,0,0,1.58,0A1,1,0,0,0,165,55l-2.86-2.7a1.17,1.17,0,0,0-1.58,0,1,1,0,0,0,0,1.49Z"/><path class="cls-1" d="M159.36,65.62h-4a1.06,1.06,0,1,0,0,2.11h4a1.06,1.06,0,1,0,0-2.11"/><path class="cls-1" d="M163.39,76.89l-2.86,2.7a1,1,0,0,0,0,1.49,1.17,1.17,0,0,0,1.58,0l2.86-2.7a1,1,0,0,0,0-1.49,1.17,1.17,0,0,0-1.58,0"/><path class="cls-1" d="M188.21,76.89a1.17,1.17,0,0,0-1.58,0,1,1,0,0,0,0,1.49l2.86,2.7a1.17,1.17,0,0,0,1.58,0,1,1,0,0,0,0-1.49Z"/><path class="cls-1" d="M196.29,65.62h-4a1.06,1.06,0,1,0,0,2.11h4a1.06,1.06,0,1,0,0-2.11"/><path class="cls-1" d="M187.42,56.76a1.15,1.15,0,0,0,.79-.31l2.86-2.7a1,1,0,0,0,0-1.49,1.17,1.17,0,0,0-1.58,0L186.63,55a1,1,0,0,0,0,1.49,1.15,1.15,0,0,0,.79.31"/><path class="cls-2" d="M61,29.66c12.17,0,39.56,48.46,87.14,48.46"/><path class="cls-3" d="M215.43,48.06c9-4.85,19.81-8.36,32.43-7.45"/><path class="cls-4" d="M267.13,45.46c20.73,9.28,35,30,42.25,44.87"/><path class="cls-5" d="M310.48,92.66c.84,1.84,1.57,3.57,2.17,5.15M250.94,40.92a59.67,59.67,0,0,1,6,1.09,54.71,54.71,0,0,1,5.37,1.55M205,54.6c1.61-1.15,3.3-2.29,5.06-3.41"/><path class="cls-6" d="M375,104.19c42.75-10.38,47.88-64.44,99.72-46.78"/><rect id="_Slice_" data-name="&lt;Slice&gt;" class="cls-7" width="56" height="124"/><rect id="_Slice_2" data-name="&lt;Slice&gt;" class="cls-7" x="56" width="94" height="124"/><rect id="_Slice_3" data-name="&lt;Slice&gt;" class="cls-7" x="150" width="51" height="123"/><rect id="_Slice_4" data-name="&lt;Slice&gt;" class="cls-7" x="201" width="116" height="124"/><rect id="_Slice_5" data-name="&lt;Slice&gt;" class="cls-7" x="317" width="54" height="124"/><rect id="_Slice_6" data-name="&lt;Slice&gt;" class="cls-7" x="371" width="107" height="122"/><rect id="_Slice_7" data-name="&lt;Slice&gt;" class="cls-7" x="478" width="43" height="121"/></g></g></svg>