<svg xmlns="http://www.w3.org/2000/svg" viewBox="0 0 43.21 43.21" fill="#403B3E">
  <g>
    <path d="M28.21,27l-.08.07a10.69,10.69,0,0,0-3.29,5.61h-7a10.68,10.68,0,0,0-3.29-5.61L14.48,27A9.5,9.5,0,0,1,11,19.74C11,14.38,15.66,10,21.34,10s10.31,4.36,10.31,9.72A9.5,9.5,0,0,1,28.21,27M21.34,37.37c-2.32,0-3.19-.58-3.38-2.58h6.77c-.19,2-1.06,2.58-3.38,2.58m0-29.48c-6.93,0-12.56,5.32-12.56,11.85A11.58,11.58,0,0,0,13,28.58a8.07,8.07,0,0,1,2.7,5,1,1,0,0,0,0,.18c0,.32,0,.64,0,1v.11h0c.2,2.38,1.26,4.71,5.64,4.71s5.44-2.33,5.64-4.71h0v-.12c0-.32,0-.64,0-.95a1,1,0,0,0,0-.18,8.07,8.07,0,0,1,2.7-5,11.58,11.58,0,0,0,4.2-8.84c0-6.54-5.63-11.85-12.56-11.85" />
    <path class="cls-1" d="M21.34,42.12c1.5,0,2.91-.65,2.91-2H18.43c0,1.4,1.4,2,2.91,2" />
    <path d="M24.15,18a1.15,1.15,0,0,0-.83.37l-2,2.16-2-2.16a1.15,1.15,0,0,0-.83-.37,1.17,1.17,0,0,0-.85.34L14,22.08l1.65,1.45,2.84-2.87,2,2.19a1.21,1.21,0,0,0,1.71,0l2-2.19L27,23.53l1.65-1.45L25,18.34a1.15,1.15,0,0,0-.84-.34" />
    <path d="M21.6,5.93a1.09,1.09,0,0,0,1.12-1.06V1.06a1.12,1.12,0,0,0-2.24,0V4.88A1.09,1.09,0,0,0,21.6,5.93" />
    <path d="M9.19,10.16a1.17,1.17,0,0,0,1.58,0,1,1,0,0,0,0-1.49L7.91,6A1.17,1.17,0,0,0,6.33,6a1,1,0,0,0,0,1.49Z" />
    <path class="cls-1" d="M5.17,19.33h-4a1.06,1.06,0,1,0,0,2.11h4a1.06,1.06,0,1,0,0-2.11" />
    <path d="M9.19,30.61l-2.86,2.7a1,1,0,0,0,0,1.49,1.17,1.17,0,0,0,1.58,0l2.86-2.7a1,1,0,0,0,0-1.49,1.17,1.17,0,0,0-1.58,0" />
    <path d="M34,30.61a1.17,1.17,0,0,0-1.58,0,1,1,0,0,0,0,1.49l2.86,2.7a1.17,1.17,0,0,0,1.58,0,1,1,0,0,0,0-1.49Z" />
    <path class="cls-1" d="M42.09,19.33H38a1.06,1.06,0,1,0,0,2.11h4a1.06,1.06,0,1,0,0-2.11" />
    <path d="M33.23,10.47a1.15,1.15,0,0,0,.79-.31l2.86-2.7a1,1,0,0,0,0-1.49A1.17,1.17,0,0,0,35.3,6l-2.86,2.7a1,1,0,0,0,0,1.49,1.15,1.15,0,0,0,.79.31" />
  </g>
</svg>
