<svg xmlns="http://www.w3.org/2000/svg" viewBox="0 0 29.69 48.6"><defs><style>.cls-1{fill:#454b73;}</style></defs><title>Asset 9</title><g id="Layer_2" data-name="Layer 2"><g id="Layer_1-2" data-name="Layer 1"><polygon class="cls-1" points="23.75 16.07 29.69 13.49 23.36 12.24 27.77 7.38 21.5 8.91 23.62 2.61 18.49 6.64 17.95 0 14.85 5.84 11.74 0 11.2 6.64 6.07 2.61 8.19 8.91 1.92 7.38 6.33 12.24 0 13.49 5.94 16.07 0.65 19.88 7.1 19.74 3.76 25.44 8.2 23.28 3.4 46.77 8.54 43.02 11.78 48.6 14.83 33.65 17.89 48.6 21.12 43.02 26.27 46.77 21.47 23.26 25.94 25.43 22.6 19.73 29.05 19.87 23.75 16.07"/></g></g></svg>