<?xml version="1.0" encoding="utf-8"?>
<!-- Generator: Adobe Illustrator 21.0.2, SVG Export Plug-In . SVG Version: 6.00 Build 0)  -->
<svg version="1.1" xmlns="http://www.w3.org/2000/svg" xmlns:xlink="http://www.w3.org/1999/xlink" x="0px" y="0px"
	 viewBox="0 0 290 238" style="enable-background:new 0 0 290 238;" xml:space="preserve">
<style type="text/css">
	.st0{fill:#FFFFFF;}
	.st1{fill:#464B73;}
</style>
<g id="Layer_1">
</g>
<g id="Layer_2">
</g>
<g id="Layer_3">
	<g>
		<path class="st1" d="M105.1,234.5c-0.8,0-1.6-0.1-2.4-0.4c-1-0.4-24.8-9.2-49-26.4c-32.9-23.4-50.3-51-50.3-79.8V33.2
			c0-2,0.9-3.9,2.4-5.2c1.5-1.3,3.5-2,5.5-1.7c0.7,0.1,59.3,6.6,88.9-22.9c2.7-2.7,7.2-2.7,9.9,0c32,32,88,23,88.5,23
			c2-0.3,4.1,0.2,5.7,1.6c1.6,1.3,2.5,3.3,2.5,5.3v94.6c0,30.9-17.4,59.2-50.4,81.7c-24.2,16.6-48.2,24.2-49.2,24.6
			C106.5,234.4,105.8,234.5,105.1,234.5z M17.5,40.8v87.1c0,53.8,73.8,86.5,87.8,92.2c14-5,87.5-34.2,87.5-92.2V41.1
			c-6.5,0.5-16.5,0.9-27.9-0.2c-24.2-2.3-44.7-10.3-59.8-23C90.8,29.6,70.7,37.2,46.4,39.9C34.6,41.2,24.2,41.1,17.5,40.8z"/>
	</g>
	<g>
		<path class="st1" d="M23,171.9c-1.9,0-3.8-0.8-5.2-2.3c-2.6-2.9-2.4-7.3,0.5-9.9L156.1,34.5c2.9-2.6,7.3-2.4,9.9,0.5
			c2.6,2.9,2.4,7.3-0.5,9.9L27.7,170.1C26.4,171.3,24.7,171.9,23,171.9z"/>
	</g>
	<g>
		<path class="st1" d="M48.1,196.9c-1.9,0-3.8-0.8-5.2-2.3c-2.6-2.8-2.4-7.3,0.4-9.9L193.6,47c2.9-2.6,7.3-2.4,9.9,0.4
			c2.6,2.8,2.4,7.3-0.4,9.9L52.8,195.1C51.4,196.3,49.7,196.9,48.1,196.9z"/>
	</g>
	<g>
		<circle class="st0" cx="104.4" cy="114.8" r="43.8"/>
		<path class="st1" d="M104.4,165.6c-28,0-50.8-22.8-50.8-50.8S76.4,64,104.4,64c28,0,50.8,22.8,50.8,50.8S132.4,165.6,104.4,165.6z
			 M104.4,78c-20.3,0-36.8,16.5-36.8,36.8s16.5,36.8,36.8,36.8c20.3,0,36.8-16.5,36.8-36.8S124.7,78,104.4,78z"/>
	</g>
	<g>
		<path class="st1" d="M270.4,122c-0.7,0-1.5-0.1-2.2-0.4L234,110.1c-3.7-1.2-5.6-5.2-4.4-8.9c1.2-3.7,5.2-5.6,8.9-4.4l34.2,11.5
			c3.7,1.2,5.6,5.2,4.4,8.9C276.1,120.1,273.3,122,270.4,122z"/>
	</g>
	<g>
		<path class="st1" d="M234.9,71.3c-3.8,0-6.9-3-7-6.8c-0.1-3.9,3-7.1,6.8-7.2l38.1-0.9c0.1,0,0.1,0,0.2,0c3.8,0,6.9,3,7,6.8
			c0.1,3.9-3,7.1-6.8,7.2l-38.1,0.9C235,71.3,235,71.3,234.9,71.3z"/>
	</g>
	<g>
		<path class="st1" d="M230.5,32.6c-2.8,0-5.4-1.7-6.5-4.4c-1.4-3.6,0.3-7.7,3.9-9.1l25.8-10.3c3.6-1.4,7.7,0.3,9.1,3.9
			s-0.3,7.7-3.9,9.1l-25.8,10.3C232.2,32.4,231.3,32.6,230.5,32.6z"/>
	</g>
</g>
</svg>
