<?xml version="1.0" encoding="utf-8"?>
<!-- Generator: Adobe Illustrator 21.0.2, SVG Export Plug-In . SVG Version: 6.00 Build 0)  -->
<svg version="1.1" xmlns="http://www.w3.org/2000/svg" xmlns:xlink="http://www.w3.org/1999/xlink" x="0px" y="0px"
	 viewBox="0 0 192.8 158.3" style="enable-background:new 0 0 192.8 158.3;" xml:space="preserve">
<style type="text/css">
	.st0{fill:#FFFFFF;}
	.st1{fill:#464B73;}
</style>
<g id="Layer_1">
</g>
<g id="Layer_2">
</g>
<g id="Layer_3">
	<g>
		<path class="st1" d="M71.8,158c-0.6,0-1.1-0.1-1.6-0.3c-0.7-0.2-16.7-6.2-32.9-17.7C15.2,124.3,3.5,105.7,3.5,86.4V22.8
			c0-1.3,0.6-2.6,1.6-3.5c1-0.9,2.3-1.3,3.7-1.2c0.5,0.1,39.9,4.4,59.7-15.4c1.8-1.8,4.8-1.8,6.7,0c21.5,21.5,59.1,15.5,59.5,15.4
			c1.4-0.2,2.8,0.2,3.8,1.1c1.1,0.9,1.7,2.2,1.7,3.6v63.6c0,20.8-11.7,39.8-33.8,54.9c-16.3,11.1-32.4,16.3-33,16.5
			C72.7,157.9,72.2,158,71.8,158z M12.9,27.8v58.5c0,36.1,49.6,58.1,59,61.9c9.4-3.4,58.8-23,58.8-61.9V28
			c-4.4,0.4-11.1,0.6-18.8-0.2c-16.2-1.6-30-6.9-40.1-15.5c-9.6,7.9-23.1,13-39.4,14.8C24.4,28.1,17.4,28.1,12.9,27.8z"/>
	</g>
	<g>
		<path class="st1" d="M16.6,115.9c-1.3,0-2.6-0.5-3.5-1.5c-1.7-1.9-1.6-4.9,0.3-6.6L106,23.6c1.9-1.7,4.9-1.6,6.6,0.3
			c1.7,1.9,1.6,4.9-0.3,6.6l-92.6,84.1C18.9,115.5,17.7,115.9,16.6,115.9z"/>
	</g>
	<g>
		<path class="st1" d="M33.4,132.8c-1.3,0-2.5-0.5-3.5-1.5c-1.8-1.9-1.6-4.9,0.3-6.6l101-92.6c1.9-1.8,4.9-1.6,6.6,0.3
			c1.8,1.9,1.6,4.9-0.3,6.6l-101,92.6C35.7,132.3,34.6,132.8,33.4,132.8z"/>
	</g>
	<g>
		<circle class="st0" cx="71.3" cy="77.6" r="29.5"/>
		<path class="st1" d="M71.3,111.7c-18.8,0-34.2-15.3-34.2-34.2s15.3-34.2,34.2-34.2c18.8,0,34.2,15.3,34.2,34.2
			S90.1,111.7,71.3,111.7z M71.3,52.8c-13.6,0-24.7,11.1-24.7,24.7s11.1,24.7,24.7,24.7c13.6,0,24.7-11.1,24.7-24.7
			S84.9,52.8,71.3,52.8z"/>
	</g>
	<g>
		<path class="st1" d="M182.8,82.4c-0.5,0-1-0.1-1.5-0.2l-23-7.8c-2.5-0.8-3.8-3.5-3-6c0.8-2.5,3.5-3.8,6-3l23,7.8
			c2.5,0.8,3.8,3.5,3,6C186.6,81.1,184.8,82.4,182.8,82.4z"/>
	</g>
	<g>
		<path class="st1" d="M159,48.3c-2.5,0-4.6-2-4.7-4.6c-0.1-2.6,2-4.8,4.6-4.8l25.6-0.6c0,0,0.1,0,0.1,0c2.5,0,4.6,2,4.7,4.6
			c0.1,2.6-2,4.8-4.6,4.8l-25.6,0.6C159,48.3,159,48.3,159,48.3z"/>
	</g>
	<g>
		<path class="st1" d="M156,22.3c-1.9,0-3.6-1.1-4.4-3c-1-2.4,0.2-5.1,2.6-6.1l17.3-6.9c2.4-1,5.1,0.2,6.1,2.6
			c1,2.4-0.2,5.1-2.6,6.1L157.7,22C157.2,22.2,156.6,22.3,156,22.3z"/>
	</g>
</g>
</svg>
