<?xml version="1.0" encoding="utf-8"?>
<!-- Generator: Adobe Illustrator 21.0.2, SVG Export Plug-In . SVG Version: 6.00 Build 0)  -->
<svg version="1.1" xmlns="http://www.w3.org/2000/svg" xmlns:xlink="http://www.w3.org/1999/xlink" x="0px" y="0px"
	 viewBox="0 0 300 300" style="enable-background:new 0 0 300 300;" xml:space="preserve">
<style type="text/css">
	.st0{display:none;}
	.st1{display:inline;}
	.st2{fill:none;stroke:#000000;stroke-width:12;stroke-linecap:round;stroke-linejoin:round;stroke-miterlimit:10;}
	.st3{fill:none;stroke:#000000;stroke-width:10;stroke-miterlimit:10;}
	.st4{fill:none;stroke:#000000;stroke-width:10;stroke-linecap:round;stroke-miterlimit:10;}
	.st5{fill:none;stroke:#000000;stroke-width:12;stroke-linecap:round;stroke-miterlimit:10;}
	.st6{fill:#454A73;}
</style>
<g id="Layer_1" class="st0">
	<g id="KxOI5r_1_" class="st1">
		
			<image style="overflow:visible;" width="450" height="470" id="KxOI5r" xlink:href="E933D1857810A2B1.jpg"  transform="matrix(0.6329 0 0 0.6329 6.4043 -5)">
		</image>
	</g>
</g>
<g id="Layer_2">
	<g>
		<path class="st6" d="M157.6,275.3c-11.9,0-34.7-10.2-58.9-21c-20.9-9.4-44.6-20-53.9-20c-8,0-22.9,4.2-28,5.9
			c-1.8,0.6-3.8,0.3-5.4-0.9c-1.5-1.1-2.5-2.9-2.5-4.8v-57.4c0-2.5,1.5-4.7,3.9-5.6c1.2-0.4,29.1-11,66-11c24.2,0,47,11.3,67.2,21.2
			c16.6,8.2,32.3,16,45.8,16c3.1,0,7.6,0.6,12.4,1.9l42.9-43.1c4.2-4.4,15.6-10.9,28.8-4.6c13.2,6.3,13.6,18.7,10.7,25.5
			c-0.2,0.5-0.5,1-0.9,1.4l-55.3,67.6c-0.5,0.6-1,1-1.7,1.4C223.7,250.6,179.8,275.3,157.6,275.3z M44.8,222.3
			c11.9,0,34.7,10.2,58.9,21c20.9,9.4,44.6,20,53.9,20c13.2,0,39.9-12.5,56.1-20.9c-9,2.2-19.4,2.2-26.3,2.2
			c-17.8,0-63.5-20.2-68.6-22.5c-3-1.4-4.4-4.9-3-7.9c1.4-3,4.9-4.4,7.9-3c13.3,6,50.8,21.4,63.7,21.4c21.4,0,32.3-2.8,32.3-8.3
			c0-4.6-6.7-8.4-9.6-9.8c-6.7-3.2-14.2-4.7-18.3-4.7c-16.2,0-33.1-8.4-51.1-17.2c-19.9-9.8-40.4-20-61.8-20
			c-26.9,0-49.2,6.1-57.8,8.9v45.1C27.9,224.6,37.8,222.3,44.8,222.3z M216.5,204.2c8.4,4.3,15.2,10.8,15.2,20c0,0.6,0,1.2-0.1,1.7
			l44.1-53.9c0.7-2.2,0.9-6.4-5.1-9.3c-8.7-4.2-14.9,2.1-15,2.1c0,0-0.1,0.1-0.1,0.1L216.5,204.2z"/>
	</g>
	<g>
		<path class="st6" d="M219.1,162.8h-95.1c-3.3,0-6-2.7-6-6V76.7c0-3.3,2.7-6,6-6h95.1c3.3,0,6,2.7,6,6v80.1
			C225.1,160.1,222.4,162.8,219.1,162.8z M130.1,150.8h83.1V82.7h-83.1V150.8z"/>
	</g>
	<g>
		<path class="st6" d="M172.1,126.6c-9.2,0-16.7-7.5-16.7-16.7c0-9.2,7.5-16.7,16.7-16.7s16.7,7.5,16.7,16.7
			C188.9,119.1,181.3,126.6,172.1,126.6z M172.1,103.1c-3.7,0-6.7,3-6.7,6.7c0,3.7,3,6.7,6.7,6.7s6.7-3,6.7-6.7
			C178.9,106.1,175.8,103.1,172.1,103.1z"/>
	</g>
	<g>
		<path class="st6" d="M172.1,140.3c-2.8,0-5-2.2-5-5v-13.7c0-2.8,2.2-5,5-5s5,2.2,5,5v13.7C177.1,138,174.9,140.3,172.1,140.3z"/>
	</g>
	<g>
		<path class="st6" d="M212.7,83.2c-0.2,0-0.5,0-0.7,0c-3.3-0.4-5.7-3.3-5.3-6.6c0-0.3,2.8-26.9-10.4-41.6c-6-6.7-14.2-9.9-25.2-9.9
			S152,28.2,146,34.9c-13.2,14.8-10.5,41.4-10.4,41.6c0.4,3.3-2,6.3-5.3,6.6c-3.3,0.4-6.3-2-6.6-5.3c-0.1-1.3-3.4-32.1,13.4-50.9
			c8.3-9.3,19.7-13.9,34.1-13.9s25.9,4.7,34.1,13.9c16.8,18.8,13.5,49.6,13.4,50.9C218.3,80.9,215.7,83.2,212.7,83.2z"/>
	</g>
	<g>
		<path class="st6" d="M195.4,82.2c-0.2,0-0.4,0-0.6,0c-3.3-0.3-5.7-3.3-5.4-6.6c0.5-5,0.3-19.5-6.3-26.8c-2.8-3.1-6.6-4.6-11.6-4.6
			s-8.7,1.5-11.6,4.6c-6.6,7.3-6.8,21.8-6.3,26.8c0.3,3.3-2.1,6.2-5.4,6.6c-3.3,0.3-6.2-2.1-6.6-5.4c-0.1-0.9-2.2-23.3,9.3-36
			c5.2-5.7,12.1-8.6,20.5-8.6s15.3,2.9,20.5,8.6c11.5,12.7,9.4,35.1,9.3,36C201.1,79.9,198.5,82.2,195.4,82.2z"/>
	</g>
	<g>
		<path class="st6" d="M98.1,107.1c-0.9,0-1.8-0.2-2.6-0.7L71.9,92c-2.4-1.4-3.1-4.5-1.7-6.9c1.4-2.4,4.5-3.1,6.9-1.7l23.5,14.4
			c2.4,1.4,3.1,4.5,1.7,6.9C101.4,106.2,99.8,107.1,98.1,107.1z"/>
	</g>
	<g>
		<path class="st6" d="M94.7,132.7c-0.2,0-0.4,0-0.5,0l-38.7-4.1c-2.7-0.3-4.7-2.8-4.4-5.5c0.3-2.7,2.7-4.7,5.5-4.4l38.7,4.1
			c2.7,0.3,4.7,2.8,4.4,5.5C99.4,130.8,97.2,132.7,94.7,132.7z"/>
	</g>
	<g>
		<path class="st6" d="M244.7,108.1c-1.7,0-3.3-0.8-4.3-2.4c-1.5-2.3-0.7-5.4,1.6-6.9l23.2-14.4c2.3-1.5,5.4-0.7,6.9,1.6
			c1.5,2.3,0.7,5.4-1.6,6.9l-23.2,14.4C246.5,107.9,245.6,108.1,244.7,108.1z"/>
	</g>
	<g>
		<path class="st6" d="M248.9,133.7c-2.5,0-4.7-1.9-5-4.5c-0.3-2.7,1.7-5.2,4.5-5.5l30.7-3.1c2.7-0.3,5.2,1.7,5.5,4.5
			c0.3,2.7-1.7,5.2-4.5,5.5l-30.7,3.1C249.2,133.7,249.1,133.7,248.9,133.7z"/>
	</g>
</g>
</svg>
