<svg id="Layer_1" data-name="Layer 1" xmlns="http://www.w3.org/2000/svg" viewBox="0 0 330.52 304.76"><defs><style>.cls-1{fill:#fff;}</style></defs><title>doteco-logo-white</title><path class="cls-1" d="M87.72,14.31A71.16,71.16,0,1,0,158.9,85.48,71.16,71.16,0,0,0,87.72,14.31Z" transform="translate(-16.58 -13.59)"/><path class="cls-1" d="M251.65,176a71.17,71.17,0,1,0,71.17,71.18A71.17,71.17,0,0,0,251.65,176Zm0,110a38.88,38.88,0,1,1,38.88-38.88h0a38.87,38.87,0,0,1-38.79,38.95h-.09Z" transform="translate(-16.58 -13.59)"/><path class="cls-1" d="M125.15,257.77A38.87,38.87,0,1,1,125,236h33a71.12,71.12,0,1,0,.11,21.74Z" transform="translate(-16.58 -13.59)"/><path class="cls-1" d="M284.26,107.88a38.87,38.87,0,0,1-68.32-11.2h107.2a71.18,71.18,0,1,0-2.85,11.2ZM253,45.94A38.87,38.87,0,0,1,287.56,67H218.39A38.92,38.92,0,0,1,253,45.94Z" transform="translate(-16.58 -13.59)"/><path class="cls-1" d="M324,317V303.8h-2.92v-2h8.09v2h-3V317Z" transform="translate(-16.58 -13.59)"/><path class="cls-1" d="M344.83,317V304.13h0L339.65,317H338.3l-5.16-12.91h0V317h-2.23V301.76h3.51L339,313.47l4.6-11.71h3.5V317Z" transform="translate(-16.58 -13.59)"/></svg>